<svg width="20" height="20" viewBox="0 0 20 20" fill="none" xmlns="http://www.w3.org/2000/svg">
<g clip-path="url(#clip0_1682_21381)">
<path d="M10 7.49967C11.8417 7.49967 13.3333 6.00801 13.3333 4.16634C13.3333 2.32467 11.8417 0.833008 10 0.833008C8.15833 0.833008 6.66667 2.32467 6.66667 4.16634C6.66667 6.00801 8.15833 7.49967 10 7.49967ZM10 2.49967C10.9167 2.49967 11.6667 3.24967 11.6667 4.16634C11.6667 5.08301 10.9167 5.83301 10 5.83301C9.08333 5.83301 8.33333 5.08301 8.33333 4.16634C8.33333 3.24967 9.08333 2.49967 10 2.49967ZM10 9.62467C8.03333 7.79134 5.4 6.66634 2.5 6.66634V15.833C5.4 15.833 8.03333 16.958 10 18.7913C11.9667 16.9663 14.6 15.833 17.5 15.833V6.66634C14.6 6.66634 11.9667 7.79134 10 9.62467ZM15.8333 14.2747C13.725 14.558 11.725 15.358 10 16.6247C8.28333 15.358 6.275 14.5497 4.16667 14.2663V8.47467C5.91667 8.79134 7.54167 9.59967 8.86667 10.833L10 11.8997L11.1333 10.8413C12.4583 9.60801 14.0833 8.79967 15.8333 8.48301V14.2747Z" fill="#1D9752"/>
</g>
<defs>
<clipPath id="clip0_1682_21381">
<rect width="20" height="20" fill="white"/>
</clipPath>
</defs>
</svg>
