<svg width="35" height="34" viewBox="0 0 35 34" fill="none" xmlns="http://www.w3.org/2000/svg">
<path d="M17.3183 0.333008C8.11835 0.333008 0.66835 7.79967 0.66835 16.9997C0.66835 26.1997 8.11835 33.6663 17.3183 33.6663C26.535 33.6663 34.0017 26.1997 34.0017 16.9997C34.0017 7.79967 26.535 0.333008 17.3183 0.333008ZM17.335 30.333C9.96835 30.333 4.00168 24.3663 4.00168 16.9997C4.00168 9.63301 9.96835 3.66634 17.335 3.66634C24.7017 3.66634 30.6684 9.63301 30.6684 16.9997C30.6684 24.3663 24.7017 30.333 17.335 30.333ZM15.6684 21.9997H19.0017V25.333H15.6684V21.9997ZM15.6684 8.66634H19.0017V18.6663H15.6684V8.66634Z" fill="#D63939"/>
</svg>
