<svg width="48" height="48" viewBox="0 0 48 48" fill="none" xmlns="http://www.w3.org/2000/svg">
<rect width="48" height="48" rx="24" fill="#1D9752"/>
<path fill-rule="evenodd" clip-rule="evenodd" d="M26.9592 12.7406C27.1024 12.2071 27.6508 11.8908 28.1843 12.0339C30.0498 12.5346 31.7509 13.5172 33.1168 14.883C34.4826 16.2489 35.4652 17.95 35.9659 19.8156C36.109 20.349 35.7927 20.8974 35.2593 21.0406C34.7259 21.1837 34.1774 20.8674 34.0342 20.334C33.6245 18.8072 32.8204 17.4151 31.7026 16.2973C30.5848 15.1795 29.1926 14.3753 27.6658 13.9656C27.1324 13.8224 26.8161 13.274 26.9592 12.7406Z" fill="white"/>
<path fill-rule="evenodd" clip-rule="evenodd" d="M25.921 16.6059C26.0627 16.0721 26.6104 15.7543 27.1441 15.8961C28.3347 16.2122 29.4205 16.8375 30.2915 17.7085C31.1625 18.5795 31.7878 19.6653 32.1039 20.8559C32.2457 21.3896 31.9279 21.9373 31.3941 22.079C30.8604 22.2208 30.3127 21.903 30.171 21.3692C29.9453 20.5195 29.499 19.7445 28.8773 19.1227C28.2555 18.501 27.4805 18.0547 26.6308 17.829C26.097 17.6873 25.7792 17.1396 25.921 16.6059Z" fill="white"/>
<path fill-rule="evenodd" clip-rule="evenodd" d="M18.1104 11.0582C18.5426 11.0027 18.9811 11.0908 19.3583 11.309C19.7338 11.5262 20.028 11.8602 20.1959 12.2601L22.7047 18.1142C22.7051 18.115 22.7055 18.1158 22.7058 18.1167C22.8357 18.4169 22.89 18.7443 22.8639 19.0704C22.8377 19.3974 22.7316 19.7129 22.5547 19.9892L22.5481 19.9995L20.4645 23.1684C21.3944 25.0863 22.9454 26.6335 24.8655 27.5587L24.8695 27.556L27.9921 25.4701C28.2692 25.283 28.589 25.1688 28.922 25.1382C29.255 25.1075 29.5903 25.1613 29.8969 25.2947C29.8982 25.2952 29.8995 25.2958 29.9007 25.2963L35.7404 27.8044C36.1401 27.9723 36.474 28.2663 36.6911 28.6417C36.9092 29.019 36.9973 29.4574 36.9419 29.8896C36.7256 31.578 35.9015 33.1297 34.6238 34.2544C33.3461 35.3791 31.7024 35.9997 30.0002 36C25.2263 36 20.6477 34.1036 17.2721 30.728C13.8964 27.3523 12 22.7739 12 18C12.0004 16.2979 12.621 14.6539 13.7457 13.3763C14.8703 12.0987 16.4222 11.2745 18.1104 11.0582ZM19.5625 23.6L18.6605 24.0317C18.5128 23.7231 18.4467 23.3818 18.4686 23.0404C18.4905 22.699 18.5996 22.3689 18.7855 22.0817L18.7894 22.0757L20.8702 18.9108L20.8683 18.9065L18.3559 13.044C17.1534 13.2003 16.0482 13.7874 15.2469 14.6977C14.4436 15.6103 14.0003 16.7843 14 18M19.5625 23.6L18.6625 24.0359C19.79 26.3642 21.6727 28.2422 24.004 29.3637L24.0095 29.3663C24.3234 29.515 24.6706 29.5793 25.0169 29.553C25.3623 29.5268 25.695 29.4113 25.9823 29.2178C25.9831 29.2173 25.9838 29.2168 25.9845 29.2163L29.1055 27.1316L34.9554 29.6439L34.9569 29.6446C34.8006 30.847 34.2126 31.9518 33.3023 32.7531C32.3897 33.5564 31.2158 33.9997 30 34M14 18C14.0001 22.2434 15.6858 26.3132 18.6863 29.3137C21.6868 32.3143 25.7566 34 30 34" fill="white"/>
</svg>
