<svg width="17" height="16" viewBox="0 0 17 16" fill="none" xmlns="http://www.w3.org/2000/svg">
<path d="M12.5001 2.66675H11.1667V7.93341L12.5001 6.60008V2.66675Z" fill="#1D9752"/>
<path d="M4.50008 2.66675H3.16675V13.3334H4.50008V2.66675Z" fill="#1D9752"/>
<path d="M8.50008 2.66675H7.16675V5.33341H8.50008V2.66675Z" fill="#1D9752"/>
<path d="M8.50008 6.66675H7.16675V9.33341H8.50008V6.66675Z" fill="#1D9752"/>
<path d="M8.50008 10.6667H7.16675V13.3334H8.50008V10.6667Z" fill="#1D9752"/>
<path d="M15.5402 8.39345L14.7735 7.62679C14.3802 7.23345 13.7468 7.23345 13.3602 7.62679L9.8335 11.1535V13.3335H12.0135L15.5402 9.80679C15.9335 9.41345 15.9335 8.78012 15.5402 8.39345ZM11.5535 12.3001H10.8668V11.6135L13.1668 9.31345L13.8535 10.0001L11.5535 12.3001Z" fill="#1D9752"/>
</svg>
