<svg width="20" height="20" viewBox="0 0 20 20" fill="none" xmlns="http://www.w3.org/2000/svg">
<path fill-rule="evenodd" clip-rule="evenodd" d="M3.33325 4.16667C3.11224 4.16667 2.90028 4.25446 2.744 4.41074C2.58772 4.56702 2.49992 4.77899 2.49992 5V16.6667C2.49992 16.8877 2.58772 17.0996 2.744 17.2559C2.90028 17.4122 3.11224 17.5 3.33325 17.5H14.9999C15.2209 17.5 15.4329 17.4122 15.5892 17.2559C15.7455 17.0996 15.8333 16.8877 15.8333 16.6667V12.2167C15.8333 11.7564 16.2063 11.3833 16.6666 11.3833C17.1268 11.3833 17.4999 11.7564 17.4999 12.2167V16.6667C17.4999 17.3297 17.2365 17.9656 16.7677 18.4344C16.2988 18.9033 15.663 19.1667 14.9999 19.1667H3.33325C2.67021 19.1667 2.03433 18.9033 1.56548 18.4344C1.09664 17.9656 0.833252 17.3297 0.833252 16.6667V5C0.833252 4.33696 1.09664 3.70107 1.56548 3.23223C2.03433 2.76339 2.67021 2.5 3.33325 2.5H7.78325C8.24349 2.5 8.61659 2.8731 8.61659 3.33333C8.61659 3.79357 8.24349 4.16667 7.78325 4.16667H3.33325Z" fill="white"/>
<path fill-rule="evenodd" clip-rule="evenodd" d="M14.4107 1.07757C14.7361 0.752137 15.2637 0.752137 15.5892 1.07757L18.9225 4.41091C19.2479 4.73634 19.2479 5.26398 18.9225 5.58942L10.5892 13.9228C10.4329 14.079 10.2209 14.1668 9.99992 14.1668H6.66659C6.20635 14.1668 5.83325 13.7937 5.83325 13.3335V10.0002C5.83325 9.77915 5.92105 9.56719 6.07733 9.41091L14.4107 1.07757ZM7.49992 10.3453V12.5002H9.65474L17.1547 5.00016L14.9999 2.84534L7.49992 10.3453Z" fill="white"/>
</svg>
