<svg width="16" height="16" viewBox="0 0 16 16" fill="none" xmlns="http://www.w3.org/2000/svg">
<path fill-rule="evenodd" clip-rule="evenodd" d="M9 6C9 5.72386 9.22386 5.5 9.5 5.5H13C13.2761 5.5 13.5 5.72386 13.5 6C13.5 6.27614 13.2761 6.5 13 6.5H9.5C9.22386 6.5 9 6.27614 9 6Z" fill="#1D9752"/>
<path fill-rule="evenodd" clip-rule="evenodd" d="M9 10C9 9.72386 9.22386 9.5 9.5 9.5H13C13.2761 9.5 13.5 9.72386 13.5 10C13.5 10.2761 13.2761 10.5 13 10.5H9.5C9.22386 10.5 9 10.2761 9 10Z" fill="#1D9752"/>
<path fill-rule="evenodd" clip-rule="evenodd" d="M3.79289 1.79289C3.98043 1.60536 4.23478 1.5 4.5 1.5H12.5C12.7652 1.5 13.0196 1.60536 13.2071 1.79289C13.3946 1.98043 13.5 2.23478 13.5 2.5V13.5C13.5 13.7652 13.3946 14.0196 13.2071 14.2071C13.0196 14.3946 12.7652 14.5 12.5 14.5H4.5C4.23478 14.5 3.98043 14.3946 3.79289 14.2071C3.60536 14.0196 3.5 13.7652 3.5 13.5V11.5C3.5 11.2239 3.72386 11 4 11C4.27614 11 4.5 11.2239 4.5 11.5V13.5H12.5V2.5L4.5 2.5L4.5 4.5C4.5 4.77614 4.27614 5 4 5C3.72386 5 3.5 4.77614 3.5 4.5V2.5C3.5 2.23478 3.60536 1.98043 3.79289 1.79289Z" fill="#1D9752"/>
<path fill-rule="evenodd" clip-rule="evenodd" d="M8.5 11C8.77614 11 9 11.2239 9 11.5V14C9 14.2761 8.77614 14.5 8.5 14.5C8.22386 14.5 8 14.2761 8 14V11.5C8 11.2239 8.22386 11 8.5 11Z" fill="#1D9752"/>
<path fill-rule="evenodd" clip-rule="evenodd" d="M8.5 1.5C8.77614 1.5 9 1.72386 9 2V4.5C9 4.77614 8.77614 5 8.5 5C8.22386 5 8 4.77614 8 4.5V2C8 1.72386 8.22386 1.5 8.5 1.5Z" fill="#1D9752"/>
<path fill-rule="evenodd" clip-rule="evenodd" d="M1.5 5C1.5 4.44772 1.94772 4 2.5 4H9C9.55228 4 10 4.44772 10 5V11C10 11.5523 9.55228 12 9 12H2.5C1.94772 12 1.5 11.5523 1.5 11V5ZM9 5H2.5V11H9V5Z" fill="#1D9752"/>
<path fill-rule="evenodd" clip-rule="evenodd" d="M4.32503 6.10003C4.54594 5.93434 4.85934 5.97912 5.02503 6.20003L7.27503 9.20003C7.44072 9.42094 7.39594 9.73434 7.17503 9.90003C6.95412 10.0657 6.64072 10.0209 6.47503 9.80003L4.22503 6.80003C4.05934 6.57912 4.10412 6.26571 4.32503 6.10003Z" fill="#1D9752"/>
<path fill-rule="evenodd" clip-rule="evenodd" d="M7.17503 6.10003C7.39594 6.26571 7.44072 6.57912 7.27503 6.80003L5.02503 9.80003C4.85934 10.0209 4.54594 10.0657 4.32503 9.90003C4.10412 9.73434 4.05934 9.42094 4.22503 9.20003L6.47503 6.20003C6.64072 5.97912 6.95412 5.93434 7.17503 6.10003Z" fill="#1D9752"/>
</svg>
