<svg width="252" height="200" viewBox="0 0 252 200" fill="none" xmlns="http://www.w3.org/2000/svg">
<rect width="252" height="200" rx="5" fill="#D8D8D8"/>
<g clip-path="url(#clip0_2999_69874)">
<path d="M121.333 110.5L135.333 100L121.333 89.5003V110.5ZM126 76.667C113.12 76.667 102.667 87.1203 102.667 100C102.667 112.88 113.12 123.334 126 123.334C138.88 123.334 149.333 112.88 149.333 100C149.333 87.1203 138.88 76.667 126 76.667ZM126 118.667C115.71 118.667 107.333 110.29 107.333 100C107.333 89.7103 115.71 81.3337 126 81.3337C136.29 81.3337 144.667 89.7103 144.667 100C144.667 110.29 136.29 118.667 126 118.667Z" fill="#3B3B3B"/>
</g>
<defs>
<clipPath id="clip0_2999_69874">
<rect width="56" height="56" fill="white" transform="translate(98 72)"/>
</clipPath>
</defs>
</svg>
