<svg width="12" height="20" viewBox="0 0 12 20" fill="none" xmlns="http://www.w3.org/2000/svg">
<path fill-rule="evenodd" clip-rule="evenodd" d="M4.46447 2.29747C5.40215 1.35979 6.67392 0.833008 8 0.833008H10.5C10.9602 0.833008 11.3333 1.2061 11.3333 1.66634V4.99967C11.3333 5.45991 10.9602 5.83301 10.5 5.83301H8V7.49967H10.5C10.7566 7.49967 10.9989 7.6179 11.1568 7.82016C11.3148 8.02243 11.3707 8.28617 11.3085 8.53512L10.4751 11.8685C10.3824 12.2394 10.0491 12.4997 9.66667 12.4997H8V18.333C8 18.7932 7.6269 19.1663 7.16667 19.1663H3.83333C3.3731 19.1663 3 18.7932 3 18.333V12.4997H1.33333C0.873096 12.4997 0.5 12.1266 0.5 11.6663V8.33301C0.5 7.87277 0.873096 7.49967 1.33333 7.49967H3V5.83301C3 4.50692 3.52678 3.23516 4.46447 2.29747ZM8 2.49967C7.11595 2.49967 6.2681 2.85086 5.64298 3.47599C5.01786 4.10111 4.66667 4.94895 4.66667 5.83301V8.33301C4.66667 8.79324 4.29357 9.16634 3.83333 9.16634H2.16667V10.833H3.83333C4.29357 10.833 4.66667 11.2061 4.66667 11.6663V17.4997H6.33333V11.6663C6.33333 11.2061 6.70643 10.833 7.16667 10.833H9.01602L9.43269 9.16634H7.16667C6.70643 9.16634 6.33333 8.79324 6.33333 8.33301V5.83301C6.33333 5.39098 6.50893 4.96706 6.82149 4.6545C7.13405 4.34194 7.55797 4.16634 8 4.16634H9.66667V2.49967H8Z" fill="#2E6B9E"/>
</svg>
