<svg width="20" height="20" viewBox="0 0 20 20" fill="none" xmlns="http://www.w3.org/2000/svg">
<g clip-path="url(#clip0_1525_21007)">
<path d="M7.5 9.79199C6.925 9.79199 6.45833 10.2587 6.45833 10.8337C6.45833 11.4087 6.925 11.8753 7.5 11.8753C8.075 11.8753 8.54167 11.4087 8.54167 10.8337C8.54167 10.2587 8.075 9.79199 7.5 9.79199ZM12.5 9.79199C11.925 9.79199 11.4583 10.2587 11.4583 10.8337C11.4583 11.4087 11.925 11.8753 12.5 11.8753C13.075 11.8753 13.5417 11.4087 13.5417 10.8337C13.5417 10.2587 13.075 9.79199 12.5 9.79199ZM10 1.66699C5.4 1.66699 1.66667 5.40033 1.66667 10.0003C1.66667 14.6003 5.4 18.3337 10 18.3337C14.6 18.3337 18.3333 14.6003 18.3333 10.0003C18.3333 5.40033 14.6 1.66699 10 1.66699ZM10 16.667C6.325 16.667 3.33333 13.6753 3.33333 10.0003C3.33333 9.75866 3.35 9.51699 3.375 9.28366C5.34167 8.40866 6.9 6.80033 7.71667 4.80866C9.225 6.94199 11.7083 8.33366 14.5167 8.33366C15.1667 8.33366 15.7917 8.25866 16.3917 8.11699C16.5667 8.70866 16.6667 9.34199 16.6667 10.0003C16.6667 13.6753 13.675 16.667 10 16.667Z" fill="#1D9752"/>
</g>
<defs>
<clipPath id="clip0_1525_21007">
<rect width="20" height="20" fill="white"/>
</clipPath>
</defs>
</svg>
