<svg width="23" height="24" viewBox="0 0 23 24" fill="none" xmlns="http://www.w3.org/2000/svg">
<path fill-rule="evenodd" clip-rule="evenodd" d="M11.5 2C6.25283 2 2 6.4775 2 12C2 17.5225 6.25283 22 11.5 22C16.7464 22 21 17.5225 21 12C21 6.4775 16.7464 2 11.5 2ZM11.6108 17.8483C8.54867 17.8483 6.06917 15.2317 6.06917 12C6.06917 8.76833 8.54867 6.15167 11.6108 6.15167C13.1071 6.15167 14.3579 6.7325 15.3174 7.67583L13.7547 9.32417V9.32083C13.1728 8.73583 12.435 8.43583 11.6108 8.43583C9.78208 8.43583 8.29613 10.0658 8.29613 11.9967C8.29613 13.9258 9.78208 15.5608 11.6108 15.5608C13.2702 15.5608 14.3991 14.5592 14.6318 13.1842H11.6108V10.9033H16.824C16.8936 11.295 16.9308 11.7033 16.9308 12.1317C16.9308 15.4733 14.8115 17.8483 11.6108 17.8483Z" fill="white"/>
</svg>
