<svg width="16" height="14" viewBox="0 0 16 14" fill="none" xmlns="http://www.w3.org/2000/svg">
<path d="M13.7667 1.00866C13.6 0.516992 13.1333 0.166992 12.5833 0.166992H3.41667C2.86667 0.166992 2.40833 0.516992 2.23333 1.00866L0.5 6.00033V12.667C0.5 13.1253 0.875 13.5003 1.33333 13.5003H2.16667C2.625 13.5003 3 13.1253 3 12.667V11.8337H13V12.667C13 13.1253 13.375 13.5003 13.8333 13.5003H14.6667C15.125 13.5003 15.5 13.1253 15.5 12.667V6.00033L13.7667 1.00866ZM3.70833 1.83366H12.2833L13.1833 4.42533H2.80833L3.70833 1.83366ZM13.8333 10.167H2.16667V6.00033H13.8333V10.167Z" fill="#1D9752"/>
</svg>
