<svg width="16" height="16" viewBox="0 0 16 16" fill="none" xmlns="http://www.w3.org/2000/svg">
<path fill-rule="evenodd" clip-rule="evenodd" d="M9.10508 1.77912C7.66397 1.6373 6.21827 1.99965 5.01441 2.80442C3.81056 3.60918 2.92306 4.80655 2.50319 6.19242C2.08333 7.57829 2.15709 9.06688 2.71191 10.4045C3.26672 11.742 4.26824 12.8458 5.54576 13.5276C6.82328 14.2094 8.29772 14.4271 9.71775 14.1435C11.1378 13.8599 12.4155 13.0926 13.3331 11.9724C14.1182 11.014 14.5981 9.84821 14.7194 8.62464H8.5C8.15482 8.62464 7.875 8.34482 7.875 7.99964C7.875 7.65446 8.15482 7.37464 8.5 7.37464H15.375C15.7199 7.37464 15.9996 7.65406 16 7.99899C16.0018 9.73631 15.4011 11.4205 14.3001 12.7645C13.1992 14.1085 11.6662 15.029 9.96256 15.3693C8.25887 15.7095 6.48992 15.4484 4.95721 14.6304C3.42451 13.8124 2.22293 12.4881 1.55729 10.8834C0.891654 9.27862 0.803158 7.49269 1.30689 5.82999C1.81062 4.16729 2.8754 2.73075 4.31973 1.76523C5.76406 0.799709 7.49853 0.364976 9.22751 0.535131C10.9565 0.705286 12.5729 1.4698 13.8013 2.69835C14.0454 2.94244 14.0454 3.33817 13.8013 3.58223C13.5572 3.8263 13.1615 3.82627 12.9174 3.58218C11.8935 2.55817 10.5462 1.92095 9.10508 1.77912Z" fill="#C70404"/>
</svg>
