<svg width="20" height="12" viewBox="0 0 20 12" fill="none" xmlns="http://www.w3.org/2000/svg">
<path d="M3.475 5.16699C3.43333 5.16699 3.38333 5.16699 3.33333 5.16699H3.475ZM11.175 0.166992H7.5V1.83366H10.4917L12.1583 3.50033H9.16667L5.83333 5.16699L4.16667 3.50033H0V5.16699H3.33333C1.49167 5.16699 0 6.65866 0 8.50033C0 10.342 1.49167 11.8337 3.33333 11.8337C5.175 11.8337 6.66667 10.342 6.66667 8.50033L8.33333 10.167H10.8333L13.7417 5.08366L14.5833 5.92533C13.825 6.53366 13.3333 7.45866 13.3333 8.50033C13.3333 10.342 14.825 11.8337 16.6667 11.8337C18.5083 11.8337 20 10.342 20 8.50033C20 6.65866 18.5083 5.16699 16.6667 5.16699C16.5167 5.16699 16.3667 5.19199 16.225 5.20866L14.5083 3.50033H16.6667V1.00033L13.5667 2.55033L11.175 0.166992ZM16.6667 10.167C15.75 10.167 15 9.41699 15 8.50033C15 7.58366 15.75 6.83366 16.6667 6.83366C17.5833 6.83366 18.3333 7.58366 18.3333 8.50033C18.3333 9.41699 17.5833 10.167 16.6667 10.167ZM3.33333 10.167C2.41667 10.167 1.66667 9.41699 1.66667 8.50033C1.66667 7.58366 2.41667 6.83366 3.33333 6.83366C4.25 6.83366 5 7.58366 5 8.50033C5 9.41699 4.25 10.167 3.33333 10.167Z" fill="#1D9752"/>
</svg>
