<svg width="32" height="32" viewBox="0 0 32 32" fill="none" xmlns="http://www.w3.org/2000/svg">
<path fill-rule="evenodd" clip-rule="evenodd" d="M16.0001 5.3335C16.7365 5.3335 17.3334 5.93045 17.3334 6.66683V25.3335C17.3334 26.0699 16.7365 26.6668 16.0001 26.6668C15.2637 26.6668 14.6667 26.0699 14.6667 25.3335V6.66683C14.6667 5.93045 15.2637 5.3335 16.0001 5.3335Z" fill="#1D9752"/>
<path fill-rule="evenodd" clip-rule="evenodd" d="M15.0571 5.72402C15.5778 5.20332 16.422 5.20332 16.9427 5.72402L26.2761 15.0574C26.7968 15.5781 26.7968 16.4223 26.2761 16.943C25.7554 17.4637 24.9111 17.4637 24.3904 16.943L15.9999 8.55245L7.60939 16.943C7.0887 17.4637 6.24448 17.4637 5.72378 16.943C5.20308 16.4223 5.20308 15.5781 5.72378 15.0574L15.0571 5.72402Z" fill="#1D9752"/>
</svg>
