<svg width="20" height="20" viewBox="0 0 20 20" fill="none" xmlns="http://www.w3.org/2000/svg">
<path fill-rule="evenodd" clip-rule="evenodd" d="M2.86612 3.49112C3.10054 3.2567 3.41848 3.125 3.75 3.125H16.25C16.5815 3.125 16.8995 3.2567 17.1339 3.49112C17.3683 3.72554 17.5 4.04348 17.5 4.375V8.96094C17.5 15.9522 11.5643 18.266 10.4004 18.653C10.1415 18.7457 9.85848 18.7457 9.59963 18.653C8.43567 18.266 2.5 15.9522 2.5 8.96094V4.375C2.5 4.04348 2.6317 3.72554 2.86612 3.49112ZM16.25 4.375L3.75 4.375L3.75 8.96094C3.75 15.0751 8.92168 17.1117 10 17.4688C11.0783 17.1117 16.25 15.0751 16.25 8.96094V4.375Z" fill="#1D9752"/>
<path fill-rule="evenodd" clip-rule="evenodd" d="M6.875 10C6.875 9.65482 7.15482 9.375 7.5 9.375H12.5C12.8452 9.375 13.125 9.65482 13.125 10C13.125 10.3452 12.8452 10.625 12.5 10.625H7.5C7.15482 10.625 6.875 10.3452 6.875 10Z" fill="#1D9752"/>
<path fill-rule="evenodd" clip-rule="evenodd" d="M10 6.875C10.3452 6.875 10.625 7.15482 10.625 7.5V12.5C10.625 12.8452 10.3452 13.125 10 13.125C9.65482 13.125 9.375 12.8452 9.375 12.5V7.5C9.375 7.15482 9.65482 6.875 10 6.875Z" fill="#1D9752"/>
</svg>
