<svg width="9" height="16" viewBox="0 0 9 16" fill="none" xmlns="http://www.w3.org/2000/svg">
<path d="M4.83327 7.08333C2.9416 6.59167 2.33327 6.08333 2.33327 5.29167C2.33327 4.38333 3.17493 3.75 4.58327 3.75C6.0666 3.75 6.6166 4.45833 6.6666 5.5H8.50827C8.44993 4.06667 7.57493 2.75 5.83327 2.325V0.5H3.33327V2.3C1.7166 2.65 0.416601 3.7 0.416601 5.30833C0.416601 7.23333 2.00827 8.19167 4.33327 8.75C6.4166 9.25 6.83327 9.98333 6.83327 10.7583C6.83327 11.3333 6.42493 12.25 4.58327 12.25C2.8666 12.25 2.1916 11.4833 2.09994 10.5H0.266602C0.366602 12.325 1.73327 13.35 3.33327 13.6917V15.5H5.83327V13.7083C7.45827 13.4 8.74994 12.4583 8.74994 10.75C8.74994 8.38333 6.72493 7.575 4.83327 7.08333Z" fill="#1D9752"/>
</svg>
