<svg width="18" height="18" viewBox="0 0 18 18" fill="none" xmlns="http://www.w3.org/2000/svg">
<path d="M6.49984 8.79199C5.92484 8.79199 5.45817 9.25866 5.45817 9.83366C5.45817 10.4087 5.92484 10.8753 6.49984 10.8753C7.07484 10.8753 7.5415 10.4087 7.5415 9.83366C7.5415 9.25866 7.07484 8.79199 6.49984 8.79199ZM11.4998 8.79199C10.9248 8.79199 10.4582 9.25866 10.4582 9.83366C10.4582 10.4087 10.9248 10.8753 11.4998 10.8753C12.0748 10.8753 12.5415 10.4087 12.5415 9.83366C12.5415 9.25866 12.0748 8.79199 11.4998 8.79199ZM8.99984 0.666992C4.39984 0.666992 0.666504 4.40033 0.666504 9.00033C0.666504 13.6003 4.39984 17.3337 8.99984 17.3337C13.5998 17.3337 17.3332 13.6003 17.3332 9.00033C17.3332 4.40033 13.5998 0.666992 8.99984 0.666992ZM8.99984 15.667C5.32484 15.667 2.33317 12.6753 2.33317 9.00033C2.33317 8.75866 2.34984 8.51699 2.37484 8.28366C4.3415 7.40866 5.89984 5.80033 6.7165 3.80866C8.22484 5.94199 10.7082 7.33366 13.5165 7.33366C14.1665 7.33366 14.7915 7.25866 15.3915 7.11699C15.5665 7.70866 15.6665 8.34199 15.6665 9.00033C15.6665 12.6753 12.6748 15.667 8.99984 15.667Z" fill="#1D9752"/>
</svg>
