<svg width="107" height="106" viewBox="0 0 107 106" fill="none" xmlns="http://www.w3.org/2000/svg">
<g clip-path="url(#clip0_1590_39919)">
<path d="M130.667 81.0684H24.6665V81.1214H130.667V81.0684Z" fill="#2FB344"/>
<path d="M130.667 81.0684H24.6665V81.1214H130.667V81.0684Z" fill="white" fill-opacity="0.8"/>
<path d="M56.9967 82.3496H54.7749V82.4026H56.9967V82.3496Z" fill="#2FB344"/>
<path d="M56.9967 82.3496H54.7749V82.4026H56.9967V82.3496Z" fill="white" fill-opacity="0.8"/>
<path d="M105.627 82.375H93.0874V82.428H105.627V82.375Z" fill="#2FB344"/>
<path d="M105.627 82.375H93.0874V82.428H105.627V82.375Z" fill="white" fill-opacity="0.8"/>
<path d="M74.2512 83.583H64.6582V83.636H74.2512V83.583Z" fill="#2FB344"/>
<path d="M74.2512 83.583H64.6582V83.636H74.2512V83.583Z" fill="white" fill-opacity="0.8"/>
<path d="M54.2788 83.248H50.9546V83.301H54.2788V83.248Z" fill="#2FB344"/>
<path d="M54.2788 83.248H50.9546V83.301H54.2788V83.248Z" fill="white" fill-opacity="0.8"/>
<path d="M49.7185 83.2227H38.4316V83.2757H49.7185V83.2227Z" fill="#2FB344"/>
<path d="M49.7185 83.2227H38.4316V83.2757H49.7185V83.2227Z" fill="white" fill-opacity="0.8"/>
<path d="M74.9127 71.6136H33.9776C33.3098 71.6136 32.7671 71.0709 32.7671 70.4031V12.8599C32.7671 12.1921 33.3098 11.6494 33.9776 11.6494H74.9148C75.5826 11.6494 76.1253 12.1921 76.1253 12.8599V70.4031C76.1232 71.0709 75.5805 71.6136 74.9127 71.6136ZM33.9776 11.7024C33.3395 11.7024 32.8201 12.2218 32.8201 12.8599V70.4031C32.8201 71.0412 33.3395 71.5606 33.9776 71.5606H74.9148C75.5529 71.5606 76.0723 71.0412 76.0723 70.4031V12.8599C76.0723 12.2218 75.5529 11.7024 74.9148 11.7024H33.9776Z" fill="#2FB344"/>
<path d="M74.9127 71.6136H33.9776C33.3098 71.6136 32.7671 71.0709 32.7671 70.4031V12.8599C32.7671 12.1921 33.3098 11.6494 33.9776 11.6494H74.9148C75.5826 11.6494 76.1253 12.1921 76.1253 12.8599V70.4031C76.1232 71.0709 75.5805 71.6136 74.9127 71.6136ZM33.9776 11.7024C33.3395 11.7024 32.8201 12.2218 32.8201 12.8599V70.4031C32.8201 71.0412 33.3395 71.5606 33.9776 71.5606H74.9148C75.5529 71.5606 76.0723 71.0412 76.0723 70.4031V12.8599C76.0723 12.2218 75.5529 11.7024 74.9148 11.7024H33.9776Z" fill="white" fill-opacity="0.8"/>
<path d="M120.768 71.6136H79.8311C79.1633 71.6136 78.6206 71.0709 78.6206 70.4031V12.8599C78.6206 12.1921 79.1633 11.6494 79.8311 11.6494H120.768C121.436 11.6494 121.979 12.1921 121.979 12.8599V70.4031C121.979 71.0709 121.436 71.6136 120.768 71.6136ZM79.8311 11.7024C79.193 11.7024 78.6736 12.2218 78.6736 12.8599V70.4031C78.6736 71.0412 79.193 71.5606 79.8311 71.5606H120.768C121.406 71.5606 121.926 71.0412 121.926 70.4031V12.8599C121.926 12.2218 121.406 11.7024 120.768 11.7024H79.8311Z" fill="#2FB344"/>
<path d="M120.768 71.6136H79.8311C79.1633 71.6136 78.6206 71.0709 78.6206 70.4031V12.8599C78.6206 12.1921 79.1633 11.6494 79.8311 11.6494H120.768C121.436 11.6494 121.979 12.1921 121.979 12.8599V70.4031C121.979 71.0709 121.436 71.6136 120.768 71.6136ZM79.8311 11.7024C79.193 11.7024 78.6736 12.2218 78.6736 12.8599V70.4031C78.6736 71.0412 79.193 71.5606 79.8311 71.5606H120.768C121.406 71.5606 121.926 71.0412 121.926 70.4031V12.8599C121.926 12.2218 121.406 11.7024 120.768 11.7024H79.8311Z" fill="white" fill-opacity="0.8"/>
<path d="M41.1077 57.9971H67.8706V17.9418H41.1077V57.9971Z" fill="#2FB344"/>
<path d="M41.1077 57.9971H67.8706V17.9418H41.1077V57.9971Z" fill="white" fill-opacity="0.8"/>
<path d="M40.514 57.9971H67.2769V17.9418H40.514V57.9971Z" fill="#2FB344"/>
<path d="M40.514 57.9971H67.2769V17.9418H40.514V57.9971Z" fill="white" fill-opacity="0.8"/>
<path d="M66.2085 56.7982V19.1406L41.5805 19.1406L41.5805 56.7982L66.2085 56.7982Z" fill="white"/>
<path d="M42.0312 56.7972L42.0312 19.1396H41.5818L41.5818 56.7972H42.0312Z" fill="#2FB344"/>
<path d="M42.0312 56.7972L42.0312 19.1396H41.5818L41.5818 56.7972H42.0312Z" fill="white" fill-opacity="0.8"/>
<path d="M40.9551 46.7217H66.834V45.1126H40.9551V46.7217Z" fill="#2FB344"/>
<path d="M40.9551 46.7217H66.834V45.1126H40.9551V46.7217Z" fill="white" fill-opacity="0.8"/>
<path d="M39.3494 15.957H69.0337C69.1248 15.957 69.199 16.0312 69.199 16.1224C69.199 16.2136 69.1248 16.2878 69.0337 16.2878H39.3494C39.2583 16.2878 39.1841 16.2136 39.1841 16.1224C39.1862 16.0312 39.2604 15.957 39.3494 15.957Z" fill="#2FB344"/>
<path d="M39.3494 15.957H69.0337C69.1248 15.957 69.199 16.0312 69.199 16.1224C69.199 16.2136 69.1248 16.2878 69.0337 16.2878H39.3494C39.2583 16.2878 39.1841 16.2136 39.1841 16.1224C39.1862 16.0312 39.2604 15.957 39.3494 15.957Z" fill="white" fill-opacity="0.8"/>
<path d="M38.3638 16.1204C38.3638 16.5741 38.7326 16.943 39.1863 16.943C39.64 16.943 40.0089 16.5741 40.0089 16.1204C40.0089 15.6667 39.64 15.2979 39.1863 15.2979C38.7326 15.3 38.3638 15.6667 38.3638 16.1204Z" fill="#2FB344"/>
<path d="M38.3638 16.1204C38.3638 16.5741 38.7326 16.943 39.1863 16.943C39.64 16.943 40.0089 16.5741 40.0089 16.1204C40.0089 15.6667 39.64 15.2979 39.1863 15.2979C38.7326 15.3 38.3638 15.6667 38.3638 16.1204Z" fill="white" fill-opacity="0.8"/>
<path d="M67.6494 17.0404C67.7723 17.0404 67.872 16.9407 67.872 16.8178V16.3408C67.872 16.2178 67.7723 16.1182 67.6494 16.1182C67.5264 16.1182 67.4268 16.2178 67.4268 16.3408V16.8178C67.4268 16.9407 67.5264 17.0404 67.6494 17.0404Z" fill="#2FB344"/>
<path d="M67.6494 17.0404C67.7723 17.0404 67.872 16.9407 67.872 16.8178V16.3408C67.872 16.2178 67.7723 16.1182 67.6494 16.1182C67.5264 16.1182 67.4268 16.2178 67.4268 16.3408V16.8178C67.4268 16.9407 67.5264 17.0404 67.6494 17.0404Z" fill="white" fill-opacity="0.8"/>
<path d="M41.8281 17.0404C41.951 17.0404 42.0507 16.9407 42.0507 16.8178V16.3408C42.0507 16.2178 41.951 16.1182 41.8281 16.1182C41.7051 16.1182 41.6055 16.2178 41.6055 16.3408V16.8178C41.6076 16.9407 41.7072 17.0404 41.8281 17.0404Z" fill="#2FB344"/>
<path d="M41.8281 17.0404C41.951 17.0404 42.0507 16.9407 42.0507 16.8178V16.3408C42.0507 16.2178 41.951 16.1182 41.8281 16.1182C41.7051 16.1182 41.6055 16.2178 41.6055 16.3408V16.8178C41.6076 16.9407 41.7072 17.0404 41.8281 17.0404Z" fill="white" fill-opacity="0.8"/>
<g opacity="0.4">
<path d="M39.4022 24.3613L66.835 24.3613V16.1209L39.4022 16.1209V24.3613Z" fill="#17A2B8"/>
<path d="M39.4022 24.3613L66.835 24.3613V16.1209L39.4022 16.1209V24.3613Z" fill="white" fill-opacity="0.8"/>
</g>
<path d="M64.1855 16.1204C64.1855 16.5741 64.5544 16.943 65.0081 16.943C65.4618 16.943 65.8307 16.5741 65.8307 16.1204C65.8307 15.6667 65.4618 15.2979 65.0081 15.2979C64.5523 15.3 64.1855 15.6667 64.1855 16.1204Z" fill="#2FB344"/>
<path d="M64.1855 16.1204C64.1855 16.5741 64.5544 16.943 65.0081 16.943C65.4618 16.943 65.8307 16.5741 65.8307 16.1204C65.8307 15.6667 65.4618 15.2979 65.0081 15.2979C64.5523 15.3 64.1855 15.6667 64.1855 16.1204Z" fill="white" fill-opacity="0.8"/>
<path d="M75.9998 81.0693H114.177V79.9818H75.9998V81.0693Z" fill="#0CA678"/>
<path d="M75.9998 81.0693H114.177V79.9818H75.9998V81.0693Z" fill="white" fill-opacity="0.8"/>
<path d="M107.921 62.8193H74.5117V79.9829H107.921V62.8193Z" fill="#2FB344"/>
<path d="M107.921 62.8193H74.5117V79.9829H107.921V62.8193Z" fill="white" fill-opacity="0.8"/>
<path d="M104.879 64.9297H77.5562V70.5583H104.879V64.9297Z" fill="#0CA678"/>
<path d="M104.879 64.9297H77.5562V70.5583H104.879V64.9297Z" fill="white" fill-opacity="0.8"/>
<path d="M104.879 72.2402H77.5562V77.8688H104.879V72.2402Z" fill="#0CA678"/>
<path d="M104.879 72.2402H77.5562V77.8688H104.879V72.2402Z" fill="white" fill-opacity="0.8"/>
<path d="M87.7363 68.1311H94.6984C94.885 68.1311 95.0397 67.9784 95.0397 67.7897V67.7007C95.0397 67.5141 94.8871 67.3594 94.6984 67.3594H87.7363C87.5498 67.3594 87.395 67.512 87.395 67.7007V67.7897C87.395 67.9763 87.5477 68.1311 87.7363 68.1311Z" fill="#2FB344"/>
<path d="M87.7363 68.1311H94.6984C94.885 68.1311 95.0397 67.9784 95.0397 67.7897V67.7007C95.0397 67.5141 94.8871 67.3594 94.6984 67.3594H87.7363C87.5498 67.3594 87.395 67.512 87.395 67.7007V67.7897C87.395 67.9763 87.5477 68.1311 87.7363 68.1311Z" fill="white" fill-opacity="0.8"/>
<path d="M87.7363 75.4406H94.6984C94.885 75.4406 95.0397 75.288 95.0397 75.0993V75.0103C95.0397 74.8237 94.8871 74.6689 94.6984 74.6689H87.7363C87.5498 74.6689 87.395 74.8216 87.395 75.0103V75.0993C87.395 75.2859 87.5477 75.4406 87.7363 75.4406Z" fill="#2FB344"/>
<path d="M87.7363 75.4406H94.6984C94.885 75.4406 95.0397 75.288 95.0397 75.0993V75.0103C95.0397 74.8237 94.8871 74.6689 94.6984 74.6689H87.7363C87.5498 74.6689 87.395 74.8216 87.395 75.0103V75.0993C87.395 75.2859 87.5477 75.4406 87.7363 75.4406Z" fill="white" fill-opacity="0.8"/>
<path d="M98.7222 60.2299C99.6329 59.9869 100.174 59.0517 99.9312 58.1411C99.6882 57.2304 98.753 56.6891 97.8423 56.9321C96.9316 57.1751 96.3903 58.1103 96.6333 59.021C96.8763 59.9316 97.8115 60.4729 98.7222 60.2299Z" fill="#2FB344"/>
<path d="M98.7222 60.2299C99.6329 59.9869 100.174 59.0517 99.9312 58.1411C99.6882 57.2304 98.753 56.6891 97.8423 56.9321C96.9316 57.1751 96.3903 58.1103 96.6333 59.021C96.8763 59.9316 97.8115 60.4729 98.7222 60.2299Z" fill="white" fill-opacity="0.8"/>
<path d="M96.8048 59.4665C97.4712 58.8 97.4712 57.7195 96.8048 57.053C96.1383 56.3866 95.0578 56.3866 94.3913 57.053C93.7248 57.7195 93.7248 58.8 94.3913 59.4665C95.0578 60.133 96.1383 60.133 96.8048 59.4665Z" fill="#2FB344"/>
<path d="M96.8048 59.4665C97.4712 58.8 97.4712 57.7195 96.8048 57.053C96.1383 56.3866 95.0578 56.3866 94.3913 57.053C93.7248 57.7195 93.7248 58.8 94.3913 59.4665C95.0578 60.133 96.1383 60.133 96.8048 59.4665Z" fill="white" fill-opacity="0.8"/>
<path d="M87.3482 60.755C88.2907 60.755 89.0548 59.9909 89.0548 59.0484C89.0548 58.1059 88.2907 57.3418 87.3482 57.3418C86.4057 57.3418 85.6416 58.1059 85.6416 59.0484C85.6416 59.9909 86.4057 60.755 87.3482 60.755Z" fill="#2FB344"/>
<path d="M87.3482 60.755C88.2907 60.755 89.0548 59.9909 89.0548 59.0484C89.0548 58.1059 88.2907 57.3418 87.3482 57.3418C86.4057 57.3418 85.6416 58.1059 85.6416 59.0484C85.6416 59.9909 86.4057 60.755 87.3482 60.755Z" fill="white" fill-opacity="0.8"/>
<path d="M92.0226 61.5176C92.9529 61.3662 93.5843 60.4894 93.4329 59.5591C93.2816 58.6288 92.4047 57.9974 91.4744 58.1488C90.5442 58.3001 89.9127 59.177 90.0641 60.1073C90.2155 61.0375 91.0923 61.669 92.0226 61.5176Z" fill="#2FB344"/>
<path d="M92.0226 61.5176C92.9529 61.3662 93.5843 60.4894 93.4329 59.5591C93.2816 58.6288 92.4047 57.9974 91.4744 58.1488C90.5442 58.3001 89.9127 59.177 90.0641 60.1073C90.2155 61.0375 91.0923 61.669 92.0226 61.5176Z" fill="white" fill-opacity="0.8"/>
<path d="M103.24 58.8916C103.24 58.8916 102.965 62.8178 92.373 62.8178C81.7815 62.8178 81.5059 58.8916 81.5059 58.8916H103.24Z" fill="#0CA678"/>
<path d="M103.24 58.8916C103.24 58.8916 102.965 62.8178 92.373 62.8178C81.7815 62.8178 81.5059 58.8916 81.5059 58.8916H103.24Z" fill="white" fill-opacity="0.8"/>
<path d="M63.3071 80.0078H67.1719V63.2471H63.3071V80.0078Z" fill="#0CA678"/>
<path d="M63.3071 80.0078H67.1719V63.2471H63.3071V80.0078Z" fill="white" fill-opacity="0.8"/>
<path d="M41.3623 81.0684H66.4292V80.0062H41.3623V81.0684Z" fill="#0CA678"/>
<path d="M41.3623 81.0684H66.4292V80.0062H41.3623V81.0684Z" fill="white" fill-opacity="0.8"/>
<path d="M63.3058 63.2461H40.6196V80.0068H63.3058V63.2461Z" fill="#2FB344"/>
<path d="M63.3058 63.2461H40.6196V80.0068H63.3058V63.2461Z" fill="white" fill-opacity="0.8"/>
<path d="M61.7878 65.3086H42.1396V70.8058H61.7878V65.3086Z" fill="#0CA678"/>
<path d="M61.7878 65.3086H42.1396V70.8058H61.7878V65.3086Z" fill="white" fill-opacity="0.8"/>
<path d="M61.7878 72.4473H42.1396V77.9444H61.7878V72.4473Z" fill="#0CA678"/>
<path d="M61.7878 72.4473H42.1396V77.9444H61.7878V72.4473Z" fill="white" fill-opacity="0.8"/>
<path d="M48.9874 65.9807H54.9383C55.3411 65.9807 55.6718 65.6521 55.6718 65.2472C55.6718 64.8444 55.3432 64.5137 54.9383 64.5137H48.9874C48.5846 64.5137 48.2539 64.8423 48.2539 65.2472C48.256 65.6521 48.5846 65.9807 48.9874 65.9807Z" fill="#2FB344"/>
<path d="M48.9874 65.9807H54.9383C55.3411 65.9807 55.6718 65.6521 55.6718 65.2472C55.6718 64.8444 55.3432 64.5137 54.9383 64.5137H48.9874C48.5846 64.5137 48.2539 64.8423 48.2539 65.2472C48.256 65.6521 48.5846 65.9807 48.9874 65.9807Z" fill="white" fill-opacity="0.8"/>
<path d="M48.9874 73.1192H54.9383C55.3411 73.1192 55.6718 72.7906 55.6718 72.3878C55.6718 71.985 55.3432 71.6543 54.9383 71.6543H48.9874C48.5846 71.6543 48.2539 71.9829 48.2539 72.3878C48.256 72.7885 48.5846 73.1192 48.9874 73.1192Z" fill="#2FB344"/>
<path d="M48.9874 73.1192H54.9383C55.3411 73.1192 55.6718 72.7906 55.6718 72.3878C55.6718 71.985 55.3432 71.6543 54.9383 71.6543H48.9874C48.5846 71.6543 48.2539 71.9829 48.2539 72.3878C48.256 72.7885 48.5846 73.1192 48.9874 73.1192Z" fill="white" fill-opacity="0.8"/>
<path d="M83.9518 44.2197H95.0479V21.6332H83.9518V44.2197Z" fill="#2FB344"/>
<path d="M83.9518 44.2197H95.0479V21.6332H83.9518V44.2197Z" fill="white" fill-opacity="0.8"/>
<path d="M83.0612 44.2197H94.8081V21.6332H83.0612V44.2197Z" fill="#2FB344"/>
<path d="M83.0612 44.2197H94.8081V21.6332H83.0612V44.2197Z" fill="white" fill-opacity="0.8"/>
<path d="M93.0986 42.5099V23.3408H84.7691V42.5099H93.0986Z" fill="white"/>
<path d="M104.871 30.9121H110.947V23.9119H104.871V30.9121Z" fill="#0CA678"/>
<path d="M104.871 30.9121H110.947V23.9119H104.871V30.9121Z" fill="white" fill-opacity="0.8"/>
<path d="M103.641 30.9121H110.226V23.9119H103.641V30.9121Z" fill="#2FB344"/>
<path d="M103.641 30.9121H110.226V23.9119H103.641V30.9121Z" fill="white" fill-opacity="0.8"/>
<path d="M109.676 30.3596V24.4639H104.196V30.3596H109.676Z" fill="white"/>
<path d="M108.347 28.4482V26.3769C108.347 26.1098 108.131 25.8936 107.863 25.8936H106.006C105.739 25.8936 105.523 26.1098 105.523 26.3769V28.4482C105.523 28.7153 105.739 28.9315 106.006 28.9315H107.863C108.131 28.9315 108.347 28.7132 108.347 28.4482Z" fill="#2FB344"/>
<path d="M108.347 28.4482V26.3769C108.347 26.1098 108.131 25.8936 107.863 25.8936H106.006C105.739 25.8936 105.523 26.1098 105.523 26.3769V28.4482C105.523 28.7153 105.739 28.9315 106.006 28.9315H107.863C108.131 28.9315 108.347 28.7132 108.347 28.4482Z" fill="white" fill-opacity="0.8"/>
<path d="M53.4377 85.7382C76.1392 85.7382 94.5424 84.6637 94.5424 83.3383C94.5424 82.0129 76.1392 80.9385 53.4377 80.9385C30.7362 80.9385 12.333 82.0129 12.333 83.3383C12.333 84.6637 30.7362 85.7382 53.4377 85.7382Z" fill="#17A2B8"/>
<path d="M53.4377 85.7382C76.1392 85.7382 94.5424 84.6637 94.5424 83.3383C94.5424 82.0129 76.1392 80.9385 53.4377 80.9385C30.7362 80.9385 12.333 82.0129 12.333 83.3383C12.333 84.6637 30.7362 85.7382 53.4377 85.7382Z" fill="white" fill-opacity="0.8"/>
<path d="M69.4604 21.8857H23.6875V66.7047H69.4604V21.8857Z" fill="#2FB344"/>
<path d="M69.4604 21.8857H23.6875V66.7047H69.4604V21.8857Z" fill="black" fill-opacity="0.3"/>
<path d="M68.2859 23.3193H24.8662V66.7051H68.2859V23.3193Z" fill="white"/>
<path d="M69.4603 66.0726V66.7043H46.3926L51.3788 61.7223L58.2434 54.8535L69.4603 66.0726Z" fill="#2FB344"/>
<path d="M69.4603 66.0726V66.7043H46.3926L51.3788 61.7223L58.2434 54.8535L69.4603 66.0726Z" fill="black" fill-opacity="0.3"/>
<path d="M23.6875 66.7045V62.3967L37.8703 48.2139L56.3609 66.7045H23.6875Z" fill="#2FB344"/>
<path d="M23.6875 66.7045V62.3967L37.8703 48.2139L56.3609 66.7045H23.6875Z" fill="black" fill-opacity="0.3"/>
<path d="M54.122 43.2782C57.9928 43.2782 61.1307 40.1403 61.1307 36.2695C61.1307 32.3987 57.9928 29.2607 54.122 29.2607C50.2512 29.2607 47.1133 32.3987 47.1133 36.2695C47.1133 40.1403 50.2512 43.2782 54.122 43.2782Z" fill="#2FB344"/>
<path d="M54.122 43.2782C57.9928 43.2782 61.1307 40.1403 61.1307 36.2695C61.1307 32.3987 57.9928 29.2607 54.122 29.2607C50.2512 29.2607 47.1133 32.3987 47.1133 36.2695C47.1133 40.1403 50.2512 43.2782 54.122 43.2782Z" fill="black" fill-opacity="0.3"/>
<path d="M77.733 24.2079L77.7124 24.4189L79.2274 24.5669L79.248 24.3559L77.733 24.2079Z" fill="#2FB344"/>
<path d="M72.5772 23.7031L72.5566 23.9141L76.264 24.2761L76.2846 24.0651L72.5772 23.7031Z" fill="#2FB344"/>
<path d="M37.2597 21.0001L32.9033 65.6084L78.4611 70.0575L82.8175 25.4493L37.2597 21.0001Z" fill="#2FB344"/>
<path d="M38.2938 22.5408L34.0767 65.7227L77.2923 69.9431L81.5094 26.7612L38.2938 22.5408Z" fill="white"/>
<path d="M78.5194 69.4296L78.458 70.0592L55.5005 67.8162L60.9468 63.343L68.4452 57.1738L78.5194 69.4296Z" fill="#2FB344"/>
<path d="M32.9033 65.6095L33.321 61.3229L48.816 48.5859L65.4199 68.7853L32.9033 65.6095Z" fill="#2FB344"/>
<path d="M72.5689 41.0882C74.1226 37.5429 72.5082 33.4093 68.9629 31.8556C65.4176 30.3018 61.284 31.9163 59.7303 35.4616C58.1765 39.0068 59.791 43.1404 63.3363 44.6942C66.8816 46.2479 71.0151 44.6334 72.5689 41.0882Z" fill="#2FB344"/>
<path d="M62.5035 26.9267L16.8267 29.9111L19.7489 74.6359L65.4256 71.6515L62.5035 26.9267Z" fill="#0CA678"/>
<path d="M62.5035 26.9267L16.8267 29.9111L19.7489 74.6359L65.4256 71.6515L62.5035 26.9267Z" fill="white" fill-opacity="0.3"/>
<path d="M61.4228 28.4327L18.0942 31.2637L20.923 74.5584L64.2515 71.7274L61.4228 28.4327Z" fill="white"/>
<path d="M65.3794 71.0219L65.4197 71.6516L42.4028 73.1547L47.052 67.8589L53.4544 60.5576L65.3794 71.0219Z" fill="#0CA678"/>
<path d="M65.3794 71.0219L65.4197 71.6516L42.4028 73.1547L47.052 67.8589L53.4544 60.5576L65.3794 71.0219Z" fill="white" fill-opacity="0.3"/>
<path d="M19.7447 74.6344L19.4648 70.3372L32.6915 55.2598L52.3482 72.506L19.7447 74.6344Z" fill="#0CA678"/>
<path d="M19.7447 74.6344L19.4648 70.3372L32.6915 55.2598L52.3482 72.506L19.7447 74.6344Z" fill="white" fill-opacity="0.3"/>
<path d="M53.0873 47.2391C55.8244 44.502 55.8244 40.0644 53.0873 37.3273C50.3503 34.5903 45.9126 34.5903 43.1756 37.3273C40.4385 40.0644 40.4385 44.502 43.1756 47.2391C45.9126 49.9761 50.3503 49.9761 53.0873 47.2391Z" fill="#0CA678"/>
<path d="M53.0873 47.2391C55.8244 44.502 55.8244 40.0644 53.0873 37.3273C50.3503 34.5903 45.9126 34.5903 43.1756 37.3273C40.4385 40.0644 40.4385 44.502 43.1756 47.2391C45.9126 49.9761 50.3503 49.9761 53.0873 47.2391Z" fill="white" fill-opacity="0.3"/>
</g>
<defs>
<clipPath id="clip0_1590_39919">
<rect width="106" height="106" fill="white" transform="translate(0.666504)"/>
</clipPath>
</defs>
</svg>
