<svg width="14" height="14" viewBox="0 0 14 14" fill="none" xmlns="http://www.w3.org/2000/svg">
<path d="M6.92065 5.09301C7.77398 5.13301 7.99398 5.85967 8.00732 6.19967H9.20065C9.14732 4.87967 8.20732 4.07301 6.90065 4.07301C5.42732 4.07301 4.33398 4.99967 4.33398 7.09301C4.33398 8.38634 4.95398 9.91967 6.89398 9.91967C8.37398 9.91967 9.16732 8.81967 9.18732 7.95301H7.99398C7.97398 8.34634 7.69398 8.87301 6.90732 8.91301C6.03398 8.88634 5.66732 8.20634 5.66732 7.09301C5.66732 5.16634 6.52065 5.10634 6.92065 5.09301ZM7.00065 0.333008C3.32065 0.333008 0.333984 3.31967 0.333984 6.99967C0.333984 10.6797 3.32065 13.6663 7.00065 13.6663C10.6807 13.6663 13.6673 10.6797 13.6673 6.99967C13.6673 3.31967 10.6807 0.333008 7.00065 0.333008ZM7.00065 12.333C4.06065 12.333 1.66732 9.93967 1.66732 6.99967C1.66732 4.05967 4.06065 1.66634 7.00065 1.66634C9.94065 1.66634 12.334 4.05967 12.334 6.99967C12.334 9.93967 9.94065 12.333 7.00065 12.333Z" fill="white"/>
</svg>
