<svg width="16" height="16" viewBox="0 0 16 16" fill="none" xmlns="http://www.w3.org/2000/svg">
<path d="M11.913 7.3335H4.08696C4.03913 7.3335 4 7.39665 4 7.47385V8.52648C4 8.60367 4.03913 8.66683 4.08696 8.66683H11.913C11.9609 8.66683 12 8.60367 12 8.52648V7.47385C12 7.39665 11.9609 7.3335 11.913 7.3335Z" fill="#262626"/>
<path d="M11.913 7.3335H4.08696C4.03913 7.3335 4 7.39665 4 7.47385V8.52648C4 8.60367 4.03913 8.66683 4.08696 8.66683H11.913C11.9609 8.66683 12 8.60367 12 8.52648V7.47385C12 7.39665 11.9609 7.3335 11.913 7.3335Z" fill="white" fill-opacity="0.3"/>
</svg>
