<svg width="106" height="106" viewBox="0 0 106 106" fill="none" xmlns="http://www.w3.org/2000/svg">
<g clip-path="url(#clip0_1267_36317)">
<path d="M130 81.0684H24.0001V81.1214H130V81.0684Z" fill="#2FB344"/>
<path d="M130 81.0684H24.0001V81.1214H130V81.0684Z" fill="white" fill-opacity="0.8"/>
<path d="M56.33 82.3496H54.1083V82.4026H56.33V82.3496Z" fill="#2FB344"/>
<path d="M56.33 82.3496H54.1083V82.4026H56.33V82.3496Z" fill="white" fill-opacity="0.8"/>
<path d="M104.961 82.375H92.421V82.428H104.961V82.375Z" fill="#2FB344"/>
<path d="M104.961 82.375H92.421V82.428H104.961V82.375Z" fill="white" fill-opacity="0.8"/>
<path d="M73.5848 83.583H63.9918V83.636H73.5848V83.583Z" fill="#2FB344"/>
<path d="M73.5848 83.583H63.9918V83.636H73.5848V83.583Z" fill="white" fill-opacity="0.8"/>
<path d="M53.6122 83.248H50.288V83.301H53.6122V83.248Z" fill="#2FB344"/>
<path d="M53.6122 83.248H50.288V83.301H53.6122V83.248Z" fill="white" fill-opacity="0.8"/>
<path d="M49.0521 83.2227H37.7652V83.2757H49.0521V83.2227Z" fill="#2FB344"/>
<path d="M49.0521 83.2227H37.7652V83.2757H49.0521V83.2227Z" fill="white" fill-opacity="0.8"/>
<path d="M74.2462 71.6136H33.3111C32.6433 71.6136 32.1006 71.0709 32.1006 70.4031V12.8599C32.1006 12.1921 32.6433 11.6494 33.3111 11.6494H74.2483C74.9161 11.6494 75.4588 12.1921 75.4588 12.8599V70.4031C75.4567 71.0709 74.914 71.6136 74.2462 71.6136ZM33.3111 11.7024C32.673 11.7024 32.1536 12.2218 32.1536 12.8599V70.4031C32.1536 71.0412 32.673 71.5606 33.3111 71.5606H74.2483C74.8864 71.5606 75.4058 71.0412 75.4058 70.4031V12.8599C75.4058 12.2218 74.8864 11.7024 74.2483 11.7024H33.3111Z" fill="#2FB344"/>
<path d="M74.2462 71.6136H33.3111C32.6433 71.6136 32.1006 71.0709 32.1006 70.4031V12.8599C32.1006 12.1921 32.6433 11.6494 33.3111 11.6494H74.2483C74.9161 11.6494 75.4588 12.1921 75.4588 12.8599V70.4031C75.4567 71.0709 74.914 71.6136 74.2462 71.6136ZM33.3111 11.7024C32.673 11.7024 32.1536 12.2218 32.1536 12.8599V70.4031C32.1536 71.0412 32.673 71.5606 33.3111 71.5606H74.2483C74.8864 71.5606 75.4058 71.0412 75.4058 70.4031V12.8599C75.4058 12.2218 74.8864 11.7024 74.2483 11.7024H33.3111Z" fill="white" fill-opacity="0.8"/>
<path d="M120.102 71.6136H79.1646C78.4968 71.6136 77.954 71.0709 77.954 70.4031V12.8599C77.954 12.1921 78.4968 11.6494 79.1646 11.6494H120.102C120.77 11.6494 121.312 12.1921 121.312 12.8599V70.4031C121.312 71.0709 120.77 71.6136 120.102 71.6136ZM79.1646 11.7024C78.5264 11.7024 78.007 12.2218 78.007 12.8599V70.4031C78.007 71.0412 78.5264 71.5606 79.1646 71.5606H120.102C120.74 71.5606 121.259 71.0412 121.259 70.4031V12.8599C121.259 12.2218 120.74 11.7024 120.102 11.7024H79.1646Z" fill="#2FB344"/>
<path d="M120.102 71.6136H79.1646C78.4968 71.6136 77.954 71.0709 77.954 70.4031V12.8599C77.954 12.1921 78.4968 11.6494 79.1646 11.6494H120.102C120.77 11.6494 121.312 12.1921 121.312 12.8599V70.4031C121.312 71.0709 120.77 71.6136 120.102 71.6136ZM79.1646 11.7024C78.5264 11.7024 78.007 12.2218 78.007 12.8599V70.4031C78.007 71.0412 78.5264 71.5606 79.1646 71.5606H120.102C120.74 71.5606 121.259 71.0412 121.259 70.4031V12.8599C121.259 12.2218 120.74 11.7024 120.102 11.7024H79.1646Z" fill="white" fill-opacity="0.8"/>
<path d="M40.4413 57.9971H67.2042V17.9418H40.4413V57.9971Z" fill="#2FB344"/>
<path d="M40.4413 57.9971H67.2042V17.9418H40.4413V57.9971Z" fill="white" fill-opacity="0.8"/>
<path d="M39.8476 57.9971H66.6105V17.9418H39.8476V57.9971Z" fill="#2FB344"/>
<path d="M39.8476 57.9971H66.6105V17.9418H39.8476V57.9971Z" fill="white" fill-opacity="0.8"/>
<path d="M65.5419 56.7982V19.1406L40.9138 19.1406L40.9138 56.7982L65.5419 56.7982Z" fill="white"/>
<path d="M41.3648 56.7972L41.3648 19.1396H40.9154L40.9154 56.7972H41.3648Z" fill="#2FB344"/>
<path d="M41.3648 56.7972L41.3648 19.1396H40.9154L40.9154 56.7972H41.3648Z" fill="white" fill-opacity="0.8"/>
<path d="M40.2886 46.7217H66.1674V45.1126H40.2886V46.7217Z" fill="#2FB344"/>
<path d="M40.2886 46.7217H66.1674V45.1126H40.2886V46.7217Z" fill="white" fill-opacity="0.8"/>
<path d="M38.6832 15.957H68.3674C68.4586 15.957 68.5328 16.0312 68.5328 16.1224C68.5328 16.2136 68.4586 16.2878 68.3674 16.2878H38.6832C38.592 16.2878 38.5178 16.2136 38.5178 16.1224C38.5199 16.0312 38.5941 15.957 38.6832 15.957Z" fill="#2FB344"/>
<path d="M38.6832 15.957H68.3674C68.4586 15.957 68.5328 16.0312 68.5328 16.1224C68.5328 16.2136 68.4586 16.2878 68.3674 16.2878H38.6832C38.592 16.2878 38.5178 16.2136 38.5178 16.1224C38.5199 16.0312 38.5941 15.957 38.6832 15.957Z" fill="white" fill-opacity="0.8"/>
<path d="M37.6974 16.1204C37.6974 16.5741 38.0663 16.943 38.5199 16.943C38.9736 16.943 39.3425 16.5741 39.3425 16.1204C39.3425 15.6667 38.9736 15.2979 38.5199 15.2979C38.0663 15.3 37.6974 15.6667 37.6974 16.1204Z" fill="#2FB344"/>
<path d="M37.6974 16.1204C37.6974 16.5741 38.0663 16.943 38.5199 16.943C38.9736 16.943 39.3425 16.5741 39.3425 16.1204C39.3425 15.6667 38.9736 15.2979 38.5199 15.2979C38.0663 15.3 37.6974 15.6667 37.6974 16.1204Z" fill="white" fill-opacity="0.8"/>
<path d="M66.9831 17.0404C67.1061 17.0404 67.2057 16.9407 67.2057 16.8178V16.3408C67.2057 16.2178 67.1061 16.1182 66.9831 16.1182C66.8601 16.1182 66.7605 16.2178 66.7605 16.3408V16.8178C66.7605 16.9407 66.8601 17.0404 66.9831 17.0404Z" fill="#2FB344"/>
<path d="M66.9831 17.0404C67.1061 17.0404 67.2057 16.9407 67.2057 16.8178V16.3408C67.2057 16.2178 67.1061 16.1182 66.9831 16.1182C66.8601 16.1182 66.7605 16.2178 66.7605 16.3408V16.8178C66.7605 16.9407 66.8601 17.0404 66.9831 17.0404Z" fill="white" fill-opacity="0.8"/>
<path d="M41.1614 17.0404C41.2844 17.0404 41.384 16.9407 41.384 16.8178V16.3408C41.384 16.2178 41.2844 16.1182 41.1614 16.1182C41.0385 16.1182 40.9388 16.2178 40.9388 16.3408V16.8178C40.941 16.9407 41.0406 17.0404 41.1614 17.0404Z" fill="#2FB344"/>
<path d="M41.1614 17.0404C41.2844 17.0404 41.384 16.9407 41.384 16.8178V16.3408C41.384 16.2178 41.2844 16.1182 41.1614 16.1182C41.0385 16.1182 40.9388 16.2178 40.9388 16.3408V16.8178C40.941 16.9407 41.0406 17.0404 41.1614 17.0404Z" fill="white" fill-opacity="0.8"/>
<g opacity="0.4">
<path d="M38.7357 24.3613L66.1685 24.3613V16.1209L38.7357 16.1209V24.3613Z" fill="#17A2B8"/>
<path d="M38.7357 24.3613L66.1685 24.3613V16.1209L38.7357 16.1209V24.3613Z" fill="white" fill-opacity="0.8"/>
</g>
<path d="M63.519 16.1204C63.519 16.5741 63.8879 16.943 64.3415 16.943C64.7952 16.943 65.1641 16.5741 65.1641 16.1204C65.1641 15.6667 64.7952 15.2979 64.3415 15.2979C63.8857 15.3 63.519 15.6667 63.519 16.1204Z" fill="#2FB344"/>
<path d="M63.519 16.1204C63.519 16.5741 63.8879 16.943 64.3415 16.943C64.7952 16.943 65.1641 16.5741 65.1641 16.1204C65.1641 15.6667 64.7952 15.2979 64.3415 15.2979C63.8857 15.3 63.519 15.6667 63.519 16.1204Z" fill="white" fill-opacity="0.8"/>
<path d="M75.3337 81.0693H113.511V79.9818H75.3337V81.0693Z" fill="#0CA678"/>
<path d="M75.3337 81.0693H113.511V79.9818H75.3337V81.0693Z" fill="white" fill-opacity="0.8"/>
<path d="M107.255 62.8193H73.8455V79.9829H107.255V62.8193Z" fill="#2FB344"/>
<path d="M107.255 62.8193H73.8455V79.9829H107.255V62.8193Z" fill="white" fill-opacity="0.8"/>
<path d="M104.212 64.9297H76.8898V70.5583H104.212V64.9297Z" fill="#0CA678"/>
<path d="M104.212 64.9297H76.8898V70.5583H104.212V64.9297Z" fill="white" fill-opacity="0.8"/>
<path d="M104.212 72.2402H76.8898V77.8688H104.212V72.2402Z" fill="#0CA678"/>
<path d="M104.212 72.2402H76.8898V77.8688H104.212V72.2402Z" fill="white" fill-opacity="0.8"/>
<path d="M87.07 68.1311H94.0321C94.2187 68.1311 94.3734 67.9784 94.3734 67.7897V67.7007C94.3734 67.5141 94.2208 67.3594 94.0321 67.3594H87.07C86.8835 67.3594 86.7287 67.512 86.7287 67.7007V67.7897C86.7287 67.9763 86.8813 68.1311 87.07 68.1311Z" fill="#2FB344"/>
<path d="M87.07 68.1311H94.0321C94.2187 68.1311 94.3734 67.9784 94.3734 67.7897V67.7007C94.3734 67.5141 94.2208 67.3594 94.0321 67.3594H87.07C86.8835 67.3594 86.7287 67.512 86.7287 67.7007V67.7897C86.7287 67.9763 86.8813 68.1311 87.07 68.1311Z" fill="white" fill-opacity="0.8"/>
<path d="M87.07 75.4406H94.0321C94.2187 75.4406 94.3734 75.288 94.3734 75.0993V75.0103C94.3734 74.8237 94.2208 74.6689 94.0321 74.6689H87.07C86.8835 74.6689 86.7287 74.8216 86.7287 75.0103V75.0993C86.7287 75.2859 86.8813 75.4406 87.07 75.4406Z" fill="#2FB344"/>
<path d="M87.07 75.4406H94.0321C94.2187 75.4406 94.3734 75.288 94.3734 75.0993V75.0103C94.3734 74.8237 94.2208 74.6689 94.0321 74.6689H87.07C86.8835 74.6689 86.7287 74.8216 86.7287 75.0103V75.0993C86.7287 75.2859 86.8813 75.4406 87.07 75.4406Z" fill="white" fill-opacity="0.8"/>
<path d="M98.0558 60.2299C98.9664 59.9869 99.5077 59.0517 99.2647 58.1411C99.0217 57.2304 98.0865 56.6891 97.1758 56.9321C96.2652 57.1751 95.7239 58.1103 95.9669 59.021C96.2099 59.9316 97.1451 60.4729 98.0558 60.2299Z" fill="#2FB344"/>
<path d="M98.0558 60.2299C98.9664 59.9869 99.5077 59.0517 99.2647 58.1411C99.0217 57.2304 98.0865 56.6891 97.1758 56.9321C96.2652 57.1751 95.7239 58.1103 95.9669 59.021C96.2099 59.9316 97.1451 60.4729 98.0558 60.2299Z" fill="white" fill-opacity="0.8"/>
<path d="M96.1384 59.4665C96.8048 58.8 96.8049 57.7195 96.1384 57.053C95.4719 56.3866 94.3914 56.3866 93.7249 57.053C93.0585 57.7195 93.0585 58.8 93.7249 59.4665C94.3914 60.133 95.4719 60.133 96.1384 59.4665Z" fill="#2FB344"/>
<path d="M96.1384 59.4665C96.8048 58.8 96.8049 57.7195 96.1384 57.053C95.4719 56.3866 94.3914 56.3866 93.7249 57.053C93.0585 57.7195 93.0585 58.8 93.7249 59.4665C94.3914 60.133 95.4719 60.133 96.1384 59.4665Z" fill="white" fill-opacity="0.8"/>
<path d="M86.6821 60.755C87.6246 60.755 88.3887 59.9909 88.3887 59.0484C88.3887 58.1059 87.6246 57.3418 86.6821 57.3418C85.7395 57.3418 84.9755 58.1059 84.9755 59.0484C84.9755 59.9909 85.7395 60.755 86.6821 60.755Z" fill="#2FB344"/>
<path d="M86.6821 60.755C87.6246 60.755 88.3887 59.9909 88.3887 59.0484C88.3887 58.1059 87.6246 57.3418 86.6821 57.3418C85.7395 57.3418 84.9755 58.1059 84.9755 59.0484C84.9755 59.9909 85.7395 60.755 86.6821 60.755Z" fill="white" fill-opacity="0.8"/>
<path d="M91.3567 61.5176C92.287 61.3662 92.9184 60.4894 92.767 59.5591C92.6157 58.6288 91.7388 57.9974 90.8086 58.1488C89.8783 58.3001 89.2469 59.177 89.3982 60.1073C89.5496 61.0375 90.4264 61.669 91.3567 61.5176Z" fill="#2FB344"/>
<path d="M91.3567 61.5176C92.287 61.3662 92.9184 60.4894 92.767 59.5591C92.6157 58.6288 91.7388 57.9974 90.8086 58.1488C89.8783 58.3001 89.2469 59.177 89.3982 60.1073C89.5496 61.0375 90.4264 61.669 91.3567 61.5176Z" fill="white" fill-opacity="0.8"/>
<path d="M102.574 58.8916C102.574 58.8916 102.298 62.8178 91.7065 62.8178C81.115 62.8178 80.8394 58.8916 80.8394 58.8916H102.574Z" fill="#0CA678"/>
<path d="M102.574 58.8916C102.574 58.8916 102.298 62.8178 91.7065 62.8178C81.115 62.8178 80.8394 58.8916 80.8394 58.8916H102.574Z" fill="white" fill-opacity="0.8"/>
<path d="M62.6404 80.0078H66.5051V63.2471H62.6404V80.0078Z" fill="#0CA678"/>
<path d="M62.6404 80.0078H66.5051V63.2471H62.6404V80.0078Z" fill="white" fill-opacity="0.8"/>
<path d="M40.6956 81.0684H65.7625V80.0062H40.6956V81.0684Z" fill="#0CA678"/>
<path d="M40.6956 81.0684H65.7625V80.0062H40.6956V81.0684Z" fill="white" fill-opacity="0.8"/>
<path d="M62.6392 63.2461H39.9531V80.0068H62.6392V63.2461Z" fill="#2FB344"/>
<path d="M62.6392 63.2461H39.9531V80.0068H62.6392V63.2461Z" fill="white" fill-opacity="0.8"/>
<path d="M61.1212 65.3086H41.4731V70.8058H61.1212V65.3086Z" fill="#0CA678"/>
<path d="M61.1212 65.3086H41.4731V70.8058H61.1212V65.3086Z" fill="white" fill-opacity="0.8"/>
<path d="M61.1212 72.4473H41.4731V77.9444H61.1212V72.4473Z" fill="#0CA678"/>
<path d="M61.1212 72.4473H41.4731V77.9444H61.1212V72.4473Z" fill="white" fill-opacity="0.8"/>
<path d="M48.3207 65.9807H54.2716C54.6744 65.9807 55.0051 65.6521 55.0051 65.2472C55.0051 64.8444 54.6765 64.5137 54.2716 64.5137H48.3207C47.9179 64.5137 47.5872 64.8423 47.5872 65.2472C47.5893 65.6521 47.9179 65.9807 48.3207 65.9807Z" fill="#2FB344"/>
<path d="M48.3207 65.9807H54.2716C54.6744 65.9807 55.0051 65.6521 55.0051 65.2472C55.0051 64.8444 54.6765 64.5137 54.2716 64.5137H48.3207C47.9179 64.5137 47.5872 64.8423 47.5872 65.2472C47.5893 65.6521 47.9179 65.9807 48.3207 65.9807Z" fill="white" fill-opacity="0.8"/>
<path d="M48.3207 73.1192H54.2716C54.6744 73.1192 55.0051 72.7906 55.0051 72.3878C55.0051 71.985 54.6765 71.6543 54.2716 71.6543H48.3207C47.9179 71.6543 47.5872 71.9829 47.5872 72.3878C47.5893 72.7885 47.9179 73.1192 48.3207 73.1192Z" fill="#2FB344"/>
<path d="M48.3207 73.1192H54.2716C54.6744 73.1192 55.0051 72.7906 55.0051 72.3878C55.0051 71.985 54.6765 71.6543 54.2716 71.6543H48.3207C47.9179 71.6543 47.5872 71.9829 47.5872 72.3878C47.5893 72.7885 47.9179 73.1192 48.3207 73.1192Z" fill="white" fill-opacity="0.8"/>
<path d="M83.2853 44.2197H94.3813V21.6332H83.2853V44.2197Z" fill="#2FB344"/>
<path d="M83.2853 44.2197H94.3813V21.6332H83.2853V44.2197Z" fill="white" fill-opacity="0.8"/>
<path d="M82.3946 44.2197H94.1415V21.6332H82.3946V44.2197Z" fill="#2FB344"/>
<path d="M82.3946 44.2197H94.1415V21.6332H82.3946V44.2197Z" fill="white" fill-opacity="0.8"/>
<path d="M92.4324 42.5099V23.3408H84.1029V42.5099H92.4324Z" fill="white"/>
<path d="M104.204 30.9121H110.28V23.9119H104.204V30.9121Z" fill="#0CA678"/>
<path d="M104.204 30.9121H110.28V23.9119H104.204V30.9121Z" fill="white" fill-opacity="0.8"/>
<path d="M102.975 30.9121H109.56V23.9119H102.975V30.9121Z" fill="#2FB344"/>
<path d="M102.975 30.9121H109.56V23.9119H102.975V30.9121Z" fill="white" fill-opacity="0.8"/>
<path d="M109.01 30.3596V24.4639H103.529V30.3596H109.01Z" fill="white"/>
<path d="M107.681 28.4482V26.3769C107.681 26.1098 107.464 25.8936 107.197 25.8936H105.34C105.073 25.8936 104.857 26.1098 104.857 26.3769V28.4482C104.857 28.7153 105.073 28.9315 105.34 28.9315H107.197C107.464 28.9315 107.681 28.7132 107.681 28.4482Z" fill="#2FB344"/>
<path d="M107.681 28.4482V26.3769C107.681 26.1098 107.464 25.8936 107.197 25.8936H105.34C105.073 25.8936 104.857 26.1098 104.857 26.3769V28.4482C104.857 28.7153 105.073 28.9315 105.34 28.9315H107.197C107.464 28.9315 107.681 28.7132 107.681 28.4482Z" fill="white" fill-opacity="0.8"/>
<path d="M53.1048 85.7382C75.8063 85.7382 94.2095 84.6637 94.2095 83.3383C94.2095 82.0129 75.8063 80.9385 53.1048 80.9385C30.4033 80.9385 12.0001 82.0129 12.0001 83.3383C12.0001 84.6637 30.4033 85.7382 53.1048 85.7382Z" fill="#17A2B8"/>
<path d="M53.1048 85.7382C75.8063 85.7382 94.2095 84.6637 94.2095 83.3383C94.2095 82.0129 75.8063 80.9385 53.1048 80.9385C30.4033 80.9385 12.0001 82.0129 12.0001 83.3383C12.0001 84.6637 30.4033 85.7382 53.1048 85.7382Z" fill="white" fill-opacity="0.8"/>
<path d="M69.1278 21.8857H23.3549V66.7047H69.1278V21.8857Z" fill="#2FB344"/>
<path d="M69.1278 21.8857H23.3549V66.7047H69.1278V21.8857Z" fill="black" fill-opacity="0.3"/>
<path d="M67.9533 23.3193H24.5336V66.7051H67.9533V23.3193Z" fill="white"/>
<path d="M69.1278 66.0726V66.7043H46.0601L51.0463 61.7223L57.9109 54.8535L69.1278 66.0726Z" fill="#2FB344"/>
<path d="M69.1278 66.0726V66.7043H46.0601L51.0463 61.7223L57.9109 54.8535L69.1278 66.0726Z" fill="black" fill-opacity="0.3"/>
<path d="M23.3549 66.7045V62.3967L37.5377 48.2139L56.0283 66.7045H23.3549Z" fill="#2FB344"/>
<path d="M23.3549 66.7045V62.3967L37.5377 48.2139L56.0283 66.7045H23.3549Z" fill="black" fill-opacity="0.3"/>
<path d="M53.7896 43.2782C57.6604 43.2782 60.7983 40.1403 60.7983 36.2695C60.7983 32.3987 57.6604 29.2607 53.7896 29.2607C49.9188 29.2607 46.7809 32.3987 46.7809 36.2695C46.7809 40.1403 49.9188 43.2782 53.7896 43.2782Z" fill="#2FB344"/>
<path d="M53.7896 43.2782C57.6604 43.2782 60.7983 40.1403 60.7983 36.2695C60.7983 32.3987 57.6604 29.2607 53.7896 29.2607C49.9188 29.2607 46.7809 32.3987 46.7809 36.2695C46.7809 40.1403 49.9188 43.2782 53.7896 43.2782Z" fill="black" fill-opacity="0.3"/>
<path d="M77.4005 24.2079L77.3799 24.4189L78.8949 24.5669L78.9155 24.3559L77.4005 24.2079Z" fill="#2FB344"/>
<path d="M72.2446 23.7031L72.224 23.9141L75.9313 24.2761L75.9519 24.0651L72.2446 23.7031Z" fill="#2FB344"/>
<path d="M36.927 21.0001L32.5706 65.6084L78.1284 70.0575L82.4848 25.4493L36.927 21.0001Z" fill="#2FB344"/>
<path d="M37.9614 22.5408L33.7443 65.7227L76.9599 69.9431L81.177 26.7612L37.9614 22.5408Z" fill="white"/>
<path d="M78.1866 69.4296L78.1251 70.0592L55.1677 67.8162L60.6139 63.343L68.1124 57.1738L78.1866 69.4296Z" fill="#2FB344"/>
<path d="M32.5706 65.6095L32.9882 61.3229L48.4833 48.5859L65.0871 68.7853L32.5706 65.6095Z" fill="#2FB344"/>
<path d="M72.236 41.0882C73.7897 37.5429 72.1753 33.4093 68.63 31.8556C65.0847 30.3018 60.9511 31.9163 59.3974 35.4616C57.8437 39.0068 59.4581 43.1404 63.0034 44.6942C66.5487 46.2479 70.6822 44.6334 72.236 41.0882Z" fill="#2FB344"/>
<path d="M62.1706 26.9267L16.4938 29.9111L19.416 74.6359L65.0928 71.6515L62.1706 26.9267Z" fill="#0CA678"/>
<path d="M62.1706 26.9267L16.4938 29.9111L19.416 74.6359L65.0928 71.6515L62.1706 26.9267Z" fill="white" fill-opacity="0.3"/>
<path d="M61.0899 28.4327L17.7614 31.2637L20.5901 74.5584L63.9186 71.7274L61.0899 28.4327Z" fill="white"/>
<path d="M65.0468 71.0219L65.0871 71.6516L42.0703 73.1547L46.7194 67.8589L53.1218 60.5576L65.0468 71.0219Z" fill="#0CA678"/>
<path d="M65.0468 71.0219L65.0871 71.6516L42.0703 73.1547L46.7194 67.8589L53.1218 60.5576L65.0468 71.0219Z" fill="white" fill-opacity="0.3"/>
<path d="M19.4117 74.6344L19.1318 70.3372L32.3585 55.2598L52.0152 72.506L19.4117 74.6344Z" fill="#0CA678"/>
<path d="M19.4117 74.6344L19.1318 70.3372L32.3585 55.2598L52.0152 72.506L19.4117 74.6344Z" fill="white" fill-opacity="0.3"/>
<path d="M52.7544 47.2391C55.4914 44.502 55.4914 40.0644 52.7544 37.3273C50.0173 34.5903 45.5797 34.5903 42.8426 37.3273C40.1056 40.0644 40.1056 44.502 42.8426 47.2391C45.5797 49.9761 50.0173 49.9761 52.7544 47.2391Z" fill="#0CA678"/>
<path d="M52.7544 47.2391C55.4914 44.502 55.4914 40.0644 52.7544 37.3273C50.0173 34.5903 45.5797 34.5903 42.8426 37.3273C40.1056 40.0644 40.1056 44.502 42.8426 47.2391C45.5797 49.9761 50.0173 49.9761 52.7544 47.2391Z" fill="white" fill-opacity="0.3"/>
</g>
<defs>
<clipPath id="clip0_1267_36317">
<rect width="106" height="106" fill="white"/>
</clipPath>
</defs>
</svg>
