<svg width="200" height="70" viewBox="0 0 200 70" fill="none" xmlns="http://www.w3.org/2000/svg">
<path d="M68.6341 47.9843H67.1169V53.4044H65.87V47.9843H64.3711V46.8867H68.6341V47.9843Z" fill="white"/>
<path d="M71.1879 53.4045C71.1558 53.3316 71.1191 53.2053 71.087 53.0305C70.8716 53.3413 70.5828 53.4967 70.2161 53.4967C69.831 53.4967 69.5147 53.3607 69.2626 53.0936C69.0105 52.8265 68.8867 52.4768 68.8867 52.0494C68.8867 51.5395 69.038 51.1509 69.3451 50.8693C69.6522 50.5924 70.0923 50.4516 70.6653 50.4419H71.0274V50.0533C71.0274 49.8348 70.9907 49.6794 70.922 49.5919C70.8532 49.5045 70.7478 49.4559 70.6149 49.4559C70.3169 49.4559 70.1656 49.6405 70.1656 50.0096H68.9692C68.9692 49.5628 69.1297 49.1937 69.446 48.9023C69.7622 48.6109 70.1656 48.4652 70.6469 48.4652C71.1466 48.4652 71.5362 48.606 71.8113 48.878C72.0863 49.1548 72.2238 49.5482 72.2238 50.063V52.3457C72.2284 52.7634 72.288 53.0888 72.3934 53.3268V53.4045H71.1879ZM71.2062 47.9164H70.1977L69.0334 46.5273H70.3719L71.2062 47.9164ZM70.4819 52.5011C70.6149 52.5011 70.7295 52.472 70.8211 52.4186C70.9128 52.3603 70.9816 52.2923 71.0274 52.2146V51.2092H70.7386C70.5369 51.2092 70.3765 51.2772 70.2573 51.4132C70.1381 51.5492 70.0831 51.7338 70.0831 51.962C70.0831 52.3214 70.2161 52.5011 70.4819 52.5011Z" fill="white"/>
<path d="M73.5195 47.304C73.5195 47.1049 73.5791 46.9446 73.6983 46.8183C73.8175 46.6921 73.9733 46.6289 74.1704 46.6289C74.3676 46.6289 74.5234 46.6921 74.6426 46.8183C74.7618 46.9446 74.8214 47.1049 74.8214 47.304C74.8214 47.4983 74.7618 47.6585 74.6472 47.7897C74.528 47.9159 74.3721 47.984 74.1704 47.984C73.9688 47.984 73.8129 47.9208 73.6937 47.7897C73.5791 47.6634 73.5195 47.4983 73.5195 47.304ZM74.7755 53.4041H73.5745V48.557H74.7755V53.4041Z" fill="white"/>
<path d="M80.2168 52.4426C80.5652 52.4426 80.7394 52.2046 80.744 51.7286H81.867C81.8624 52.258 81.7066 52.6854 81.4041 53.0108C81.1015 53.3362 80.7119 53.5013 80.2397 53.5013C79.653 53.5013 79.2038 53.307 78.8921 52.9185C78.5804 52.53 78.4245 51.9569 78.4199 51.2041V50.8204C78.4199 50.0579 78.5712 49.4799 78.8783 49.0768C79.1854 48.6786 79.6347 48.4746 80.2352 48.4746C80.7394 48.4746 81.1382 48.6397 81.427 48.97C81.7158 49.3002 81.8625 49.7665 81.8716 50.3736H80.7486C80.744 50.1016 80.7027 49.8928 80.6202 49.7471C80.5377 49.6014 80.4048 49.5285 80.2168 49.5285C80.006 49.5285 79.8593 49.6062 79.7676 49.7616C79.6759 49.917 79.6301 50.223 79.6255 50.6747V51.1701C79.6255 51.5635 79.6438 51.8403 79.6805 51.9957C79.7172 52.1512 79.7768 52.2677 79.8639 52.3405C79.9418 52.4085 80.061 52.4426 80.2168 52.4426Z" fill="white"/>
<path d="M84.1456 48.9848C84.4069 48.64 84.7232 48.47 85.1037 48.47C85.5208 48.47 85.8371 48.6254 86.0525 48.9362C86.2726 49.2471 86.378 49.7085 86.3826 50.3253V53.4044H85.1816V50.335C85.1816 50.0533 85.1403 49.8445 85.0578 49.7182C84.9753 49.5919 84.8424 49.5288 84.6544 49.5288C84.439 49.5288 84.2694 49.6356 84.1456 49.8444V53.3996H82.9492V46.5225H84.1456V48.9848Z" fill="white"/>
<path d="M88.9581 53.4048H87.7617V48.5578H88.9581V53.4048ZM88.6097 46.5957H89.9528L88.7794 47.9847H87.78L88.6097 46.5957Z" fill="white"/>
<path d="M91.4721 48.562L91.5042 49.0428C91.7746 48.664 92.1276 48.4746 92.5631 48.4746C93.3515 48.4746 93.7549 49.0574 93.7778 50.223V53.409H92.5768V50.3202C92.5768 50.0482 92.5355 49.8442 92.4576 49.7228C92.3797 49.5965 92.2468 49.5382 92.0496 49.5382C91.8342 49.5382 91.6646 49.6548 91.5408 49.8928V53.4139H90.3398V48.5669H91.4721V48.562Z" fill="white"/>
<path d="M96.2335 48.9848C96.4902 48.64 96.8111 48.47 97.187 48.47C97.6041 48.47 97.9204 48.6254 98.1358 48.9362C98.3513 49.2471 98.4613 49.7085 98.4659 50.3253V53.4044H97.2695V50.335C97.2695 50.0533 97.2282 49.8445 97.1457 49.7182C97.0632 49.5919 96.9303 49.5288 96.7423 49.5288C96.5269 49.5288 96.3573 49.6356 96.2335 49.8444V53.3996H95.0371V46.5225H96.2335V48.9848Z" fill="white"/>
<path d="M105.984 47.9843H104.463V53.4044H103.211V47.9843H101.717V46.8867H105.984V47.9843Z" fill="white"/>
<path d="M107.07 47.304C107.07 47.1049 107.13 46.9446 107.249 46.8183C107.368 46.6921 107.524 46.6289 107.721 46.6289C107.918 46.6289 108.074 46.6921 108.193 46.8183C108.313 46.9446 108.372 47.1049 108.372 47.304C108.372 47.4983 108.313 47.6585 108.198 47.7897C108.079 47.9159 107.923 47.984 107.721 47.984C107.524 47.984 107.364 47.9208 107.245 47.7897C107.13 47.6634 107.07 47.4983 107.07 47.304ZM108.326 53.4041H107.125V48.557H108.326V53.4041Z" fill="white"/>
<path d="M111.53 53.4967C110.915 53.4967 110.434 53.3025 110.09 52.9139C109.746 52.5254 109.572 51.9717 109.572 51.2481V50.8644C109.572 50.1019 109.728 49.5094 110.044 49.0965C110.361 48.6789 110.81 48.4749 111.401 48.4749C111.979 48.4749 112.41 48.6691 112.699 49.0577C112.992 49.4462 113.139 50.0242 113.143 50.7867V51.4084H110.764C110.782 51.7677 110.856 52.03 110.989 52.2C111.122 52.3651 111.323 52.4477 111.603 52.4477C112.002 52.4477 112.336 52.302 112.602 52.0106L113.074 52.778C112.928 52.9916 112.717 53.1665 112.437 53.2976C112.158 53.4288 111.855 53.4967 111.53 53.4967ZM112.708 47.7804V47.8338H111.773L111.245 47.1879L110.718 47.8338H109.806V47.7609L110.906 46.5273H111.589L112.708 47.7804ZM111.351 53.8319C111.557 53.8319 111.727 53.8901 111.85 54.0067C111.979 54.1233 112.043 54.2738 112.043 54.4535C112.043 54.6332 111.979 54.7789 111.85 54.9003C111.722 55.0169 111.557 55.0752 111.351 55.0752C111.149 55.0752 110.984 55.0169 110.856 54.9003C110.727 54.7838 110.663 54.6332 110.663 54.4535C110.663 54.2738 110.727 54.1233 110.856 54.0067C110.984 53.8901 111.149 53.8319 111.351 53.8319ZM110.778 50.5244H111.974V50.4079C111.97 50.1165 111.924 49.8979 111.837 49.7474C111.754 49.5968 111.608 49.5239 111.397 49.5239C111.19 49.5239 111.035 49.6016 110.943 49.7619C110.851 49.9173 110.796 50.1747 110.778 50.5244Z" fill="white"/>
<path d="M115.354 48.562L115.386 49.0428C115.656 48.664 116.009 48.4746 116.444 48.4746C117.228 48.4746 117.636 49.0574 117.659 50.223V53.409H116.458V50.3202C116.458 50.0482 116.417 49.8442 116.339 49.7228C116.261 49.5965 116.128 49.5382 115.931 49.5382C115.716 49.5382 115.546 49.6548 115.422 49.8928V53.4139H114.23V48.5669H115.354V48.562Z" fill="white"/>
<path d="M122.88 51.6174L123.457 48.5625H124.709L123.453 53.4046H122.311L121.051 48.5625H122.302L122.88 51.6174Z" fill="white"/>
<path d="M127.812 53.4045C127.779 53.3316 127.743 53.2053 127.711 53.0305C127.495 53.3413 127.206 53.4967 126.84 53.4967C126.455 53.4967 126.138 53.3607 125.886 53.0936C125.634 52.8265 125.506 52.4768 125.506 52.0494C125.506 51.5395 125.657 51.1509 125.964 50.8693C126.271 50.5924 126.711 50.4516 127.284 50.4419H127.647V50.0533C127.647 49.8348 127.61 49.6794 127.541 49.5919C127.472 49.5045 127.367 49.4559 127.234 49.4559C126.936 49.4559 126.785 49.6405 126.785 50.0096H125.588C125.588 49.5628 125.749 49.1937 126.065 48.9023C126.381 48.6109 126.785 48.4652 127.266 48.4652C127.766 48.4652 128.155 48.606 128.43 48.878C128.705 49.1548 128.843 49.5482 128.843 50.063V52.3457C128.848 52.7634 128.907 53.0888 129.013 53.3268V53.4045H127.812ZM127.83 47.9164H126.821L125.653 46.5273H126.991L127.83 47.9164ZM127.106 52.5011C127.239 52.5011 127.349 52.472 127.445 52.4186C127.537 52.3603 127.605 52.2923 127.651 52.2146V51.2092H127.362C127.161 51.2092 127 51.2772 126.881 51.4132C126.762 51.5492 126.707 51.7338 126.707 51.962C126.707 52.3214 126.84 52.5011 127.106 52.5011Z" fill="white"/>
<path d="M136.934 53.4044H135.692L133.877 49.1305V53.4044H132.635V46.8867H133.877L135.697 51.1655V46.8867H136.934V53.4044Z" fill="white"/>
<path d="M138.163 50.8349C138.163 50.0384 138.3 49.4459 138.571 49.0574C138.841 48.664 139.222 48.4697 139.708 48.4697C140.12 48.4697 140.441 48.6446 140.666 48.9894L140.711 48.5571H141.789V53.4041C141.789 54.021 141.624 54.4969 141.298 54.8223C140.973 55.1477 140.501 55.3128 139.891 55.3128C139.639 55.3128 139.378 55.2594 139.098 55.1526C138.823 55.0457 138.617 54.9097 138.479 54.7495L138.882 53.8704C138.992 53.9967 139.144 54.0987 139.323 54.1764C139.501 54.2541 139.675 54.2929 139.836 54.2929C140.102 54.2929 140.294 54.2249 140.413 54.089C140.533 53.953 140.592 53.7344 140.592 53.4333V53.0156C140.363 53.3313 140.065 53.4916 139.698 53.4916C139.212 53.4916 138.832 53.2924 138.566 52.8893C138.3 52.4862 138.163 51.9228 138.158 51.1895V50.8349H138.163ZM139.359 51.1555C139.359 51.6023 139.414 51.9277 139.524 52.1365C139.634 52.3405 139.808 52.4425 140.047 52.4425C140.29 52.4425 140.473 52.3502 140.592 52.1608V49.8442C140.469 49.6402 140.29 49.5334 140.056 49.5334C139.818 49.5334 139.643 49.6353 139.529 49.8442C139.414 50.0481 139.359 50.3784 139.359 50.8398V51.1555Z" fill="white"/>
<path d="M145.269 53.4041C145.237 53.3313 145.2 53.205 145.168 53.0302C144.957 53.341 144.664 53.4964 144.297 53.4964C143.912 53.4964 143.595 53.3604 143.343 53.0933C143.091 52.8262 142.963 52.4765 142.963 52.0491C142.963 51.5392 143.114 51.1506 143.421 50.8689C143.728 50.5921 144.168 50.4512 144.741 50.4415H145.104V50.053C145.104 49.8344 145.067 49.679 144.998 49.5916C144.929 49.5042 144.824 49.4556 144.691 49.4556C144.393 49.4556 144.242 49.6402 144.242 50.0093H143.045C143.045 49.5625 143.206 49.1934 143.522 48.902C143.838 48.6106 144.242 48.4648 144.723 48.4648C145.223 48.4648 145.612 48.6057 145.887 48.8777C146.162 49.1545 146.3 49.5479 146.3 50.0627V52.3454C146.305 52.763 146.364 53.0884 146.47 53.3264V53.4041H145.269ZM144.563 52.5008C144.696 52.5008 144.806 52.4716 144.902 52.4182C144.994 52.3599 145.062 52.2919 145.108 52.2142V51.2089H144.819C144.618 51.2089 144.457 51.2769 144.338 51.4129C144.219 51.5489 144.164 51.7334 144.164 51.9617C144.164 52.3211 144.297 52.5008 144.563 52.5008Z" fill="white"/>
<path d="M149.004 51.2968L149.614 48.5576H150.888L149.385 54.1283C149.16 54.9491 148.734 55.3619 148.11 55.3619C147.968 55.3619 147.803 55.3327 147.62 55.2793V54.2885L147.757 54.2934C147.941 54.2934 148.083 54.2546 148.179 54.1817C148.275 54.104 148.344 53.9729 148.395 53.7835L148.486 53.458L147.166 48.5625H148.45L149.004 51.2968Z" fill="white"/>
<path d="M155.916 52.4426C156.26 52.4426 156.439 52.2046 156.443 51.7286H157.566C157.562 52.258 157.406 52.6854 157.103 53.0108C156.801 53.3362 156.411 53.5013 155.939 53.5013C155.348 53.5013 154.898 53.307 154.591 52.9185C154.284 52.53 154.124 51.9569 154.119 51.2041V50.8204C154.119 50.0579 154.27 49.4799 154.578 49.0768C154.885 48.6786 155.334 48.4746 155.934 48.4746C156.439 48.4746 156.837 48.6397 157.126 48.97C157.415 49.3002 157.566 49.7665 157.571 50.3736H156.448C156.443 50.1016 156.402 49.8928 156.319 49.7471C156.237 49.6014 156.104 49.5285 155.911 49.5285C155.701 49.5285 155.554 49.6062 155.462 49.7616C155.371 49.917 155.325 50.223 155.32 50.6747V51.1701C155.32 51.5635 155.338 51.8403 155.375 51.9957C155.412 52.1512 155.471 52.2677 155.558 52.3405C155.641 52.4085 155.76 52.4426 155.916 52.4426Z" fill="white"/>
<path d="M159.845 48.9848C160.102 48.64 160.422 48.47 160.798 48.47C161.215 48.47 161.532 48.6254 161.747 48.9362C161.963 49.2471 162.073 49.7085 162.077 50.3253V53.4044H160.876V50.335C160.876 50.0533 160.835 49.8445 160.752 49.7182C160.67 49.5919 160.537 49.5288 160.349 49.5288C160.134 49.5288 159.964 49.6356 159.845 49.8444V53.3996H158.648V46.5225H159.845V48.9848Z" fill="white"/>
<path d="M163.232 50.8252C163.232 50.0919 163.397 49.5139 163.723 49.0962C164.048 48.6786 164.502 48.4697 165.08 48.4697C165.662 48.4697 166.12 48.6786 166.446 49.0962C166.771 49.5139 166.936 50.0919 166.936 50.8349V51.1458C166.936 51.884 166.776 52.462 166.45 52.8748C166.125 53.2876 165.671 53.4964 165.089 53.4964C164.502 53.4964 164.048 53.2876 163.723 52.8748C163.397 52.4571 163.232 51.8791 163.232 51.1409V50.8252ZM164.433 51.1458C164.433 52.0103 164.649 52.4425 165.089 52.4425C165.492 52.4425 165.708 52.0831 165.74 51.3595L165.744 50.8252C165.744 50.3833 165.685 50.0579 165.57 49.8442C165.456 49.6305 165.291 49.5236 165.08 49.5236C164.878 49.5236 164.718 49.6305 164.603 49.8442C164.488 50.0579 164.433 50.3881 164.433 50.8252V51.1458Z" fill="white"/>
<path d="M171.663 48.562L171.695 49.0088C171.961 48.6494 172.314 48.4697 172.754 48.4697C173.212 48.4697 173.533 48.6883 173.721 49.1254C173.982 48.6883 174.354 48.4697 174.839 48.4697C175.642 48.4697 176.05 49.0574 176.068 50.2279V53.4042H174.872V50.3104C174.872 50.0287 174.835 49.8296 174.762 49.7082C174.688 49.5916 174.564 49.5285 174.39 49.5285C174.166 49.5285 174.001 49.6742 173.891 49.9607L173.9 50.1113V53.3993H172.703V50.3153C172.703 50.0384 172.667 49.8393 172.598 49.713C172.529 49.5868 172.401 49.5285 172.222 49.5285C172.016 49.5285 171.851 49.645 171.732 49.883V53.4042H170.535V48.5571H171.663V48.562Z" fill="white"/>
<path d="M177.254 50.8252C177.254 50.0919 177.419 49.5139 177.744 49.0962C178.07 48.6786 178.524 48.4697 179.101 48.4697C179.683 48.4697 180.137 48.6786 180.467 49.0962C180.793 49.5139 180.958 50.0919 180.958 50.8349V51.1458C180.958 51.884 180.793 52.462 180.472 52.8748C180.146 53.2876 179.693 53.4964 179.11 53.4964C178.524 53.4964 178.07 53.2876 177.744 52.8748C177.419 52.4571 177.254 51.8791 177.254 51.1409V50.8252ZM179.097 53.8607C179.303 53.8607 179.468 53.919 179.596 54.0355C179.725 54.1521 179.789 54.3027 179.789 54.4824C179.789 54.662 179.725 54.8077 179.596 54.9292C179.468 55.0457 179.303 55.104 179.097 55.104C178.895 55.104 178.73 55.0457 178.602 54.9292C178.473 54.8126 178.409 54.662 178.409 54.4824C178.409 54.3027 178.473 54.1569 178.602 54.0355C178.725 53.919 178.895 53.8607 179.097 53.8607ZM178.455 51.1458C178.455 52.0103 178.675 52.4425 179.11 52.4425C179.514 52.4425 179.729 52.0831 179.761 51.3595L179.766 50.8252C179.766 50.3833 179.706 50.0579 179.592 49.8442C179.477 49.6305 179.312 49.5236 179.101 49.5236C178.9 49.5236 178.739 49.6305 178.625 49.8442C178.51 50.0579 178.455 50.3881 178.455 50.8252V51.1458Z" fill="white"/>
<path d="M182.133 47.304C182.133 47.1049 182.192 46.9446 182.312 46.8183C182.431 46.6921 182.587 46.6289 182.784 46.6289C182.981 46.6289 183.141 46.6921 183.256 46.8183C183.375 46.9446 183.435 47.1049 183.435 47.304C183.435 47.4983 183.375 47.6585 183.26 47.7897C183.141 47.9159 182.985 47.984 182.784 47.984C182.582 47.984 182.426 47.9208 182.307 47.7897C182.192 47.6634 182.133 47.4983 182.133 47.304ZM183.389 53.4041H182.188V48.557H183.389V53.4041Z" fill="white"/>
<path d="M188.269 48.562L188.301 49.0428C188.571 48.664 188.924 48.4746 189.36 48.4746C190.148 48.4746 190.552 49.0574 190.575 50.223V53.409H189.374V50.3202C189.374 50.0482 189.332 49.8442 189.255 49.7228C189.177 49.5965 189.044 49.5382 188.847 49.5382C188.631 49.5382 188.461 49.6548 188.338 49.8928V53.4139H187.137V48.5669H188.269V48.562Z" fill="white"/>
<path d="M193.037 48.9848C193.298 48.64 193.615 48.47 193.99 48.47C194.408 48.47 194.724 48.6254 194.939 48.9362C195.155 49.2471 195.265 49.7085 195.269 50.3253V53.4044H194.068V50.335C194.068 50.0533 194.027 49.8445 193.945 49.7182C193.862 49.5919 193.729 49.5288 193.541 49.5288C193.326 49.5288 193.156 49.6356 193.032 49.8444V53.3996H191.836V46.5225H193.032V48.9848H193.037Z" fill="white"/>
<path d="M198.735 53.4045C198.703 53.3316 198.666 53.2053 198.634 53.0305C198.418 53.3413 198.13 53.4967 197.763 53.4967C197.378 53.4967 197.062 53.3607 196.809 53.0936C196.557 52.8265 196.434 52.4768 196.434 52.0494C196.434 51.5395 196.585 51.1509 196.892 50.8693C197.199 50.5924 197.639 50.4516 198.212 50.4419H198.574V50.0533C198.574 49.8348 198.538 49.6794 198.469 49.5919C198.4 49.5045 198.295 49.4559 198.162 49.4559C197.864 49.4559 197.713 49.6405 197.713 50.0096H196.516C196.516 49.5628 196.677 49.1937 196.993 48.9023C197.309 48.6109 197.713 48.4652 198.194 48.4652C198.693 48.4652 199.083 48.606 199.358 48.878C199.633 49.1548 199.771 49.5482 199.771 50.063V52.3457C199.775 52.7634 199.83 53.0888 199.94 53.3268V53.4045H198.735ZM198.758 47.9164H197.749L196.58 46.5273H197.919L198.758 47.9164ZM198.029 52.5011C198.162 52.5011 198.272 52.472 198.368 52.4186C198.46 52.3603 198.528 52.2923 198.574 52.2146V51.2092H198.286C198.084 51.2092 197.923 51.2772 197.809 51.4132C197.69 51.5492 197.635 51.7338 197.635 51.962C197.63 52.3214 197.763 52.5011 198.029 52.5011Z" fill="white"/>
<path d="M68.6341 47.9843H67.1169V53.4044H65.87V47.9843H64.3711V46.8867H68.6341V47.9843Z" fill="white"/>
<path d="M71.1879 53.4045C71.1558 53.3316 71.1191 53.2053 71.087 53.0305C70.8716 53.3413 70.5828 53.4967 70.2161 53.4967C69.831 53.4967 69.5147 53.3607 69.2626 53.0936C69.0105 52.8265 68.8867 52.4768 68.8867 52.0494C68.8867 51.5395 69.038 51.1509 69.3451 50.8693C69.6522 50.5924 70.0923 50.4516 70.6653 50.4419H71.0274V50.0533C71.0274 49.8348 70.9907 49.6794 70.922 49.5919C70.8532 49.5045 70.7478 49.4559 70.6149 49.4559C70.3169 49.4559 70.1656 49.6405 70.1656 50.0096H68.9692C68.9692 49.5628 69.1297 49.1937 69.446 48.9023C69.7622 48.6109 70.1656 48.4652 70.6469 48.4652C71.1466 48.4652 71.5362 48.606 71.8113 48.878C72.0863 49.1548 72.2238 49.5482 72.2238 50.063V52.3457C72.2284 52.7634 72.288 53.0888 72.3934 53.3268V53.4045H71.1879ZM71.2062 47.9164H70.1977L69.0334 46.5273H70.3719L71.2062 47.9164ZM70.4819 52.5011C70.6149 52.5011 70.7295 52.472 70.8211 52.4186C70.9128 52.3603 70.9816 52.2923 71.0274 52.2146V51.2092H70.7386C70.5369 51.2092 70.3765 51.2772 70.2573 51.4132C70.1381 51.5492 70.0831 51.7338 70.0831 51.962C70.0831 52.3214 70.2161 52.5011 70.4819 52.5011Z" fill="white"/>
<path d="M73.5195 47.304C73.5195 47.1049 73.5791 46.9446 73.6983 46.8183C73.8175 46.6921 73.9733 46.6289 74.1704 46.6289C74.3676 46.6289 74.5234 46.6921 74.6426 46.8183C74.7618 46.9446 74.8214 47.1049 74.8214 47.304C74.8214 47.4983 74.7618 47.6585 74.6472 47.7897C74.528 47.9159 74.3721 47.984 74.1704 47.984C73.9688 47.984 73.8129 47.9208 73.6937 47.7897C73.5791 47.6634 73.5195 47.4983 73.5195 47.304ZM74.7755 53.4041H73.5745V48.557H74.7755V53.4041Z" fill="white"/>
<path d="M80.2168 52.4426C80.5652 52.4426 80.7394 52.2046 80.744 51.7286H81.867C81.8624 52.258 81.7066 52.6854 81.4041 53.0108C81.1015 53.3362 80.7119 53.5013 80.2397 53.5013C79.653 53.5013 79.2038 53.307 78.8921 52.9185C78.5804 52.53 78.4245 51.9569 78.4199 51.2041V50.8204C78.4199 50.0579 78.5712 49.4799 78.8783 49.0768C79.1854 48.6786 79.6347 48.4746 80.2352 48.4746C80.7394 48.4746 81.1382 48.6397 81.427 48.97C81.7158 49.3002 81.8625 49.7665 81.8716 50.3736H80.7486C80.744 50.1016 80.7027 49.8928 80.6202 49.7471C80.5377 49.6014 80.4048 49.5285 80.2168 49.5285C80.006 49.5285 79.8593 49.6062 79.7676 49.7616C79.6759 49.917 79.6301 50.223 79.6255 50.6747V51.1701C79.6255 51.5635 79.6438 51.8403 79.6805 51.9957C79.7172 52.1512 79.7768 52.2677 79.8639 52.3405C79.9418 52.4085 80.061 52.4426 80.2168 52.4426Z" fill="white"/>
<path d="M84.1456 48.9848C84.4069 48.64 84.7232 48.47 85.1037 48.47C85.5208 48.47 85.8371 48.6254 86.0525 48.9362C86.2726 49.2471 86.378 49.7085 86.3826 50.3253V53.4044H85.1816V50.335C85.1816 50.0533 85.1403 49.8445 85.0578 49.7182C84.9753 49.5919 84.8424 49.5288 84.6544 49.5288C84.439 49.5288 84.2694 49.6356 84.1456 49.8444V53.3996H82.9492V46.5225H84.1456V48.9848Z" fill="white"/>
<path d="M88.9581 53.4048H87.7617V48.5578H88.9581V53.4048ZM88.6097 46.5957H89.9528L88.7794 47.9847H87.78L88.6097 46.5957Z" fill="white"/>
<path d="M91.4721 48.562L91.5042 49.0428C91.7746 48.664 92.1276 48.4746 92.5631 48.4746C93.3515 48.4746 93.7549 49.0574 93.7778 50.223V53.409H92.5768V50.3202C92.5768 50.0482 92.5355 49.8442 92.4576 49.7228C92.3797 49.5965 92.2468 49.5382 92.0496 49.5382C91.8342 49.5382 91.6646 49.6548 91.5408 49.8928V53.4139H90.3398V48.5669H91.4721V48.562Z" fill="white"/>
<path d="M96.2335 48.9848C96.4902 48.64 96.8111 48.47 97.187 48.47C97.6041 48.47 97.9204 48.6254 98.1358 48.9362C98.3513 49.2471 98.4613 49.7085 98.4659 50.3253V53.4044H97.2695V50.335C97.2695 50.0533 97.2282 49.8445 97.1457 49.7182C97.0632 49.5919 96.9303 49.5288 96.7423 49.5288C96.5269 49.5288 96.3573 49.6356 96.2335 49.8444V53.3996H95.0371V46.5225H96.2335V48.9848Z" fill="white"/>
<path d="M105.984 47.9843H104.463V53.4044H103.211V47.9843H101.717V46.8867H105.984V47.9843Z" fill="white"/>
<path d="M107.07 47.304C107.07 47.1049 107.13 46.9446 107.249 46.8183C107.368 46.6921 107.524 46.6289 107.721 46.6289C107.918 46.6289 108.074 46.6921 108.193 46.8183C108.313 46.9446 108.372 47.1049 108.372 47.304C108.372 47.4983 108.313 47.6585 108.198 47.7897C108.079 47.9159 107.923 47.984 107.721 47.984C107.524 47.984 107.364 47.9208 107.245 47.7897C107.13 47.6634 107.07 47.4983 107.07 47.304ZM108.326 53.4041H107.125V48.557H108.326V53.4041Z" fill="white"/>
<path d="M111.53 53.4967C110.915 53.4967 110.434 53.3025 110.09 52.9139C109.746 52.5254 109.572 51.9717 109.572 51.2481V50.8644C109.572 50.1019 109.728 49.5094 110.044 49.0965C110.361 48.6789 110.81 48.4749 111.401 48.4749C111.979 48.4749 112.41 48.6691 112.699 49.0577C112.992 49.4462 113.139 50.0242 113.143 50.7867V51.4084H110.764C110.782 51.7677 110.856 52.03 110.989 52.2C111.122 52.3651 111.323 52.4477 111.603 52.4477C112.002 52.4477 112.336 52.302 112.602 52.0106L113.074 52.778C112.928 52.9916 112.717 53.1665 112.437 53.2976C112.158 53.4288 111.855 53.4967 111.53 53.4967ZM112.708 47.7804V47.8338H111.773L111.245 47.1879L110.718 47.8338H109.806V47.7609L110.906 46.5273H111.589L112.708 47.7804ZM111.351 53.8319C111.557 53.8319 111.727 53.8901 111.85 54.0067C111.979 54.1233 112.043 54.2738 112.043 54.4535C112.043 54.6332 111.979 54.7789 111.85 54.9003C111.722 55.0169 111.557 55.0752 111.351 55.0752C111.149 55.0752 110.984 55.0169 110.856 54.9003C110.727 54.7838 110.663 54.6332 110.663 54.4535C110.663 54.2738 110.727 54.1233 110.856 54.0067C110.984 53.8901 111.149 53.8319 111.351 53.8319ZM110.778 50.5244H111.974V50.4079C111.97 50.1165 111.924 49.8979 111.837 49.7474C111.754 49.5968 111.608 49.5239 111.397 49.5239C111.19 49.5239 111.035 49.6016 110.943 49.7619C110.851 49.9173 110.796 50.1747 110.778 50.5244Z" fill="white"/>
<path d="M115.354 48.562L115.386 49.0428C115.656 48.664 116.009 48.4746 116.444 48.4746C117.228 48.4746 117.636 49.0574 117.659 50.223V53.409H116.458V50.3202C116.458 50.0482 116.417 49.8442 116.339 49.7228C116.261 49.5965 116.128 49.5382 115.931 49.5382C115.716 49.5382 115.546 49.6548 115.422 49.8928V53.4139H114.23V48.5669H115.354V48.562Z" fill="white"/>
<path d="M122.88 51.6174L123.457 48.5625H124.709L123.453 53.4046H122.311L121.051 48.5625H122.302L122.88 51.6174Z" fill="white"/>
<path d="M127.812 53.4045C127.779 53.3316 127.743 53.2053 127.711 53.0305C127.495 53.3413 127.206 53.4967 126.84 53.4967C126.455 53.4967 126.138 53.3607 125.886 53.0936C125.634 52.8265 125.506 52.4768 125.506 52.0494C125.506 51.5395 125.657 51.1509 125.964 50.8693C126.271 50.5924 126.711 50.4516 127.284 50.4419H127.647V50.0533C127.647 49.8348 127.61 49.6794 127.541 49.5919C127.472 49.5045 127.367 49.4559 127.234 49.4559C126.936 49.4559 126.785 49.6405 126.785 50.0096H125.588C125.588 49.5628 125.749 49.1937 126.065 48.9023C126.381 48.6109 126.785 48.4652 127.266 48.4652C127.766 48.4652 128.155 48.606 128.43 48.878C128.705 49.1548 128.843 49.5482 128.843 50.063V52.3457C128.848 52.7634 128.907 53.0888 129.013 53.3268V53.4045H127.812ZM127.83 47.9164H126.821L125.653 46.5273H126.991L127.83 47.9164ZM127.106 52.5011C127.239 52.5011 127.349 52.472 127.445 52.4186C127.537 52.3603 127.605 52.2923 127.651 52.2146V51.2092H127.362C127.161 51.2092 127 51.2772 126.881 51.4132C126.762 51.5492 126.707 51.7338 126.707 51.962C126.707 52.3214 126.84 52.5011 127.106 52.5011Z" fill="white"/>
<path d="M136.934 53.4044H135.692L133.877 49.1305V53.4044H132.635V46.8867H133.877L135.697 51.1655V46.8867H136.934V53.4044Z" fill="white"/>
<path d="M138.163 50.8349C138.163 50.0384 138.3 49.4459 138.571 49.0574C138.841 48.664 139.222 48.4697 139.708 48.4697C140.12 48.4697 140.441 48.6446 140.666 48.9894L140.711 48.5571H141.789V53.4041C141.789 54.021 141.624 54.4969 141.298 54.8223C140.973 55.1477 140.501 55.3128 139.891 55.3128C139.639 55.3128 139.378 55.2594 139.098 55.1526C138.823 55.0457 138.617 54.9097 138.479 54.7495L138.882 53.8704C138.992 53.9967 139.144 54.0987 139.323 54.1764C139.501 54.2541 139.675 54.2929 139.836 54.2929C140.102 54.2929 140.294 54.2249 140.413 54.089C140.533 53.953 140.592 53.7344 140.592 53.4333V53.0156C140.363 53.3313 140.065 53.4916 139.698 53.4916C139.212 53.4916 138.832 53.2924 138.566 52.8893C138.3 52.4862 138.163 51.9228 138.158 51.1895V50.8349H138.163ZM139.359 51.1555C139.359 51.6023 139.414 51.9277 139.524 52.1365C139.634 52.3405 139.808 52.4425 140.047 52.4425C140.29 52.4425 140.473 52.3502 140.592 52.1608V49.8442C140.469 49.6402 140.29 49.5334 140.056 49.5334C139.818 49.5334 139.643 49.6353 139.529 49.8442C139.414 50.0481 139.359 50.3784 139.359 50.8398V51.1555Z" fill="white"/>
<path d="M145.269 53.4041C145.237 53.3313 145.2 53.205 145.168 53.0302C144.957 53.341 144.664 53.4964 144.297 53.4964C143.912 53.4964 143.595 53.3604 143.343 53.0933C143.091 52.8262 142.963 52.4765 142.963 52.0491C142.963 51.5392 143.114 51.1506 143.421 50.8689C143.728 50.5921 144.168 50.4512 144.741 50.4415H145.104V50.053C145.104 49.8344 145.067 49.679 144.998 49.5916C144.929 49.5042 144.824 49.4556 144.691 49.4556C144.393 49.4556 144.242 49.6402 144.242 50.0093H143.045C143.045 49.5625 143.206 49.1934 143.522 48.902C143.838 48.6106 144.242 48.4648 144.723 48.4648C145.223 48.4648 145.612 48.6057 145.887 48.8777C146.162 49.1545 146.3 49.5479 146.3 50.0627V52.3454C146.305 52.763 146.364 53.0884 146.47 53.3264V53.4041H145.269ZM144.563 52.5008C144.696 52.5008 144.806 52.4716 144.902 52.4182C144.994 52.3599 145.062 52.2919 145.108 52.2142V51.2089H144.819C144.618 51.2089 144.457 51.2769 144.338 51.4129C144.219 51.5489 144.164 51.7334 144.164 51.9617C144.164 52.3211 144.297 52.5008 144.563 52.5008Z" fill="white"/>
<path d="M149.004 51.2968L149.614 48.5576H150.888L149.385 54.1283C149.16 54.9491 148.734 55.3619 148.11 55.3619C147.968 55.3619 147.803 55.3327 147.62 55.2793V54.2885L147.757 54.2934C147.941 54.2934 148.083 54.2546 148.179 54.1817C148.275 54.104 148.344 53.9729 148.395 53.7835L148.486 53.458L147.166 48.5625H148.45L149.004 51.2968Z" fill="white"/>
<path d="M155.916 52.4426C156.26 52.4426 156.439 52.2046 156.443 51.7286H157.566C157.562 52.258 157.406 52.6854 157.103 53.0108C156.801 53.3362 156.411 53.5013 155.939 53.5013C155.348 53.5013 154.898 53.307 154.591 52.9185C154.284 52.53 154.124 51.9569 154.119 51.2041V50.8204C154.119 50.0579 154.27 49.4799 154.578 49.0768C154.885 48.6786 155.334 48.4746 155.934 48.4746C156.439 48.4746 156.837 48.6397 157.126 48.97C157.415 49.3002 157.566 49.7665 157.571 50.3736H156.448C156.443 50.1016 156.402 49.8928 156.319 49.7471C156.237 49.6014 156.104 49.5285 155.911 49.5285C155.701 49.5285 155.554 49.6062 155.462 49.7616C155.371 49.917 155.325 50.223 155.32 50.6747V51.1701C155.32 51.5635 155.338 51.8403 155.375 51.9957C155.412 52.1512 155.471 52.2677 155.558 52.3405C155.641 52.4085 155.76 52.4426 155.916 52.4426Z" fill="white"/>
<path d="M159.845 48.9848C160.102 48.64 160.422 48.47 160.798 48.47C161.215 48.47 161.532 48.6254 161.747 48.9362C161.963 49.2471 162.073 49.7085 162.077 50.3253V53.4044H160.876V50.335C160.876 50.0533 160.835 49.8445 160.752 49.7182C160.67 49.5919 160.537 49.5288 160.349 49.5288C160.134 49.5288 159.964 49.6356 159.845 49.8444V53.3996H158.648V46.5225H159.845V48.9848Z" fill="white"/>
<path d="M163.232 50.8252C163.232 50.0919 163.397 49.5139 163.723 49.0962C164.048 48.6786 164.502 48.4697 165.08 48.4697C165.662 48.4697 166.12 48.6786 166.446 49.0962C166.771 49.5139 166.936 50.0919 166.936 50.8349V51.1458C166.936 51.884 166.776 52.462 166.45 52.8748C166.125 53.2876 165.671 53.4964 165.089 53.4964C164.502 53.4964 164.048 53.2876 163.723 52.8748C163.397 52.4571 163.232 51.8791 163.232 51.1409V50.8252ZM164.433 51.1458C164.433 52.0103 164.649 52.4425 165.089 52.4425C165.492 52.4425 165.708 52.0831 165.74 51.3595L165.744 50.8252C165.744 50.3833 165.685 50.0579 165.57 49.8442C165.456 49.6305 165.291 49.5236 165.08 49.5236C164.878 49.5236 164.718 49.6305 164.603 49.8442C164.488 50.0579 164.433 50.3881 164.433 50.8252V51.1458Z" fill="white"/>
<path d="M171.663 48.562L171.695 49.0088C171.961 48.6494 172.314 48.4697 172.754 48.4697C173.212 48.4697 173.533 48.6883 173.721 49.1254C173.982 48.6883 174.354 48.4697 174.839 48.4697C175.642 48.4697 176.05 49.0574 176.068 50.2279V53.4042H174.872V50.3104C174.872 50.0287 174.835 49.8296 174.762 49.7082C174.688 49.5916 174.564 49.5285 174.39 49.5285C174.166 49.5285 174.001 49.6742 173.891 49.9607L173.9 50.1113V53.3993H172.703V50.3153C172.703 50.0384 172.667 49.8393 172.598 49.713C172.529 49.5868 172.401 49.5285 172.222 49.5285C172.016 49.5285 171.851 49.645 171.732 49.883V53.4042H170.535V48.5571H171.663V48.562Z" fill="white"/>
<path d="M177.254 50.8252C177.254 50.0919 177.419 49.5139 177.744 49.0962C178.07 48.6786 178.524 48.4697 179.101 48.4697C179.683 48.4697 180.137 48.6786 180.467 49.0962C180.793 49.5139 180.958 50.0919 180.958 50.8349V51.1458C180.958 51.884 180.793 52.462 180.472 52.8748C180.146 53.2876 179.693 53.4964 179.11 53.4964C178.524 53.4964 178.07 53.2876 177.744 52.8748C177.419 52.4571 177.254 51.8791 177.254 51.1409V50.8252ZM179.097 53.8607C179.303 53.8607 179.468 53.919 179.596 54.0355C179.725 54.1521 179.789 54.3027 179.789 54.4824C179.789 54.662 179.725 54.8077 179.596 54.9292C179.468 55.0457 179.303 55.104 179.097 55.104C178.895 55.104 178.73 55.0457 178.602 54.9292C178.473 54.8126 178.409 54.662 178.409 54.4824C178.409 54.3027 178.473 54.1569 178.602 54.0355C178.725 53.919 178.895 53.8607 179.097 53.8607ZM178.455 51.1458C178.455 52.0103 178.675 52.4425 179.11 52.4425C179.514 52.4425 179.729 52.0831 179.761 51.3595L179.766 50.8252C179.766 50.3833 179.706 50.0579 179.592 49.8442C179.477 49.6305 179.312 49.5236 179.101 49.5236C178.9 49.5236 178.739 49.6305 178.625 49.8442C178.51 50.0579 178.455 50.3881 178.455 50.8252V51.1458Z" fill="white"/>
<path d="M182.133 47.304C182.133 47.1049 182.192 46.9446 182.312 46.8183C182.431 46.6921 182.587 46.6289 182.784 46.6289C182.981 46.6289 183.141 46.6921 183.256 46.8183C183.375 46.9446 183.435 47.1049 183.435 47.304C183.435 47.4983 183.375 47.6585 183.26 47.7897C183.141 47.9159 182.985 47.984 182.784 47.984C182.582 47.984 182.426 47.9208 182.307 47.7897C182.192 47.6634 182.133 47.4983 182.133 47.304ZM183.389 53.4041H182.188V48.557H183.389V53.4041Z" fill="white"/>
<path d="M188.269 48.562L188.301 49.0428C188.571 48.664 188.924 48.4746 189.36 48.4746C190.148 48.4746 190.552 49.0574 190.575 50.223V53.409H189.374V50.3202C189.374 50.0482 189.332 49.8442 189.255 49.7228C189.177 49.5965 189.044 49.5382 188.847 49.5382C188.631 49.5382 188.461 49.6548 188.338 49.8928V53.4139H187.137V48.5669H188.269V48.562Z" fill="white"/>
<path d="M193.037 48.9848C193.298 48.64 193.615 48.47 193.99 48.47C194.408 48.47 194.724 48.6254 194.939 48.9362C195.155 49.2471 195.265 49.7085 195.269 50.3253V53.4044H194.068V50.335C194.068 50.0533 194.027 49.8445 193.945 49.7182C193.862 49.5919 193.729 49.5288 193.541 49.5288C193.326 49.5288 193.156 49.6356 193.032 49.8444V53.3996H191.836V46.5225H193.032V48.9848H193.037Z" fill="white"/>
<path d="M198.735 53.4045C198.703 53.3316 198.666 53.2053 198.634 53.0305C198.418 53.3413 198.13 53.4967 197.763 53.4967C197.378 53.4967 197.062 53.3607 196.809 53.0936C196.557 52.8265 196.434 52.4768 196.434 52.0494C196.434 51.5395 196.585 51.1509 196.892 50.8693C197.199 50.5924 197.639 50.4516 198.212 50.4419H198.574V50.0533C198.574 49.8348 198.538 49.6794 198.469 49.5919C198.4 49.5045 198.295 49.4559 198.162 49.4559C197.864 49.4559 197.713 49.6405 197.713 50.0096H196.516C196.516 49.5628 196.677 49.1937 196.993 48.9023C197.309 48.6109 197.713 48.4652 198.194 48.4652C198.693 48.4652 199.083 48.606 199.358 48.878C199.633 49.1548 199.771 49.5482 199.771 50.063V52.3457C199.775 52.7634 199.83 53.0888 199.94 53.3268V53.4045H198.735ZM198.758 47.9164H197.749L196.58 46.5273H197.919L198.758 47.9164ZM198.029 52.5011C198.162 52.5011 198.272 52.472 198.368 52.4186C198.46 52.3603 198.528 52.2923 198.574 52.2146V51.2092H198.286C198.084 51.2092 197.923 51.2772 197.809 51.4132C197.69 51.5492 197.635 51.7338 197.635 51.962C197.63 52.3214 197.763 52.5011 198.029 52.5011Z" fill="white"/>
<path d="M68.6341 47.9843H67.1169V53.4044H65.87V47.9843H64.3711V46.8867H68.6341V47.9843Z" fill="white"/>
<path d="M71.1879 53.4045C71.1558 53.3316 71.1191 53.2053 71.087 53.0305C70.8716 53.3413 70.5828 53.4967 70.2161 53.4967C69.831 53.4967 69.5147 53.3607 69.2626 53.0936C69.0105 52.8265 68.8867 52.4768 68.8867 52.0494C68.8867 51.5395 69.038 51.1509 69.3451 50.8693C69.6522 50.5924 70.0923 50.4516 70.6653 50.4419H71.0274V50.0533C71.0274 49.8348 70.9907 49.6794 70.922 49.5919C70.8532 49.5045 70.7478 49.4559 70.6149 49.4559C70.3169 49.4559 70.1656 49.6405 70.1656 50.0096H68.9692C68.9692 49.5628 69.1297 49.1937 69.446 48.9023C69.7622 48.6109 70.1656 48.4652 70.6469 48.4652C71.1466 48.4652 71.5362 48.606 71.8113 48.878C72.0863 49.1548 72.2238 49.5482 72.2238 50.063V52.3457C72.2284 52.7634 72.288 53.0888 72.3934 53.3268V53.4045H71.1879ZM71.2062 47.9164H70.1977L69.0334 46.5273H70.3719L71.2062 47.9164ZM70.4819 52.5011C70.6149 52.5011 70.7295 52.472 70.8211 52.4186C70.9128 52.3603 70.9816 52.2923 71.0274 52.2146V51.2092H70.7386C70.5369 51.2092 70.3765 51.2772 70.2573 51.4132C70.1381 51.5492 70.0831 51.7338 70.0831 51.962C70.0831 52.3214 70.2161 52.5011 70.4819 52.5011Z" fill="white"/>
<path d="M73.5195 47.304C73.5195 47.1049 73.5791 46.9446 73.6983 46.8183C73.8175 46.6921 73.9733 46.6289 74.1704 46.6289C74.3676 46.6289 74.5234 46.6921 74.6426 46.8183C74.7618 46.9446 74.8214 47.1049 74.8214 47.304C74.8214 47.4983 74.7618 47.6585 74.6472 47.7897C74.528 47.9159 74.3721 47.984 74.1704 47.984C73.9688 47.984 73.8129 47.9208 73.6937 47.7897C73.5791 47.6634 73.5195 47.4983 73.5195 47.304ZM74.7755 53.4041H73.5745V48.557H74.7755V53.4041Z" fill="white"/>
<path d="M80.2168 52.4426C80.5652 52.4426 80.7394 52.2046 80.744 51.7286H81.867C81.8624 52.258 81.7066 52.6854 81.4041 53.0108C81.1015 53.3362 80.7119 53.5013 80.2397 53.5013C79.653 53.5013 79.2038 53.307 78.8921 52.9185C78.5804 52.53 78.4245 51.9569 78.4199 51.2041V50.8204C78.4199 50.0579 78.5712 49.4799 78.8783 49.0768C79.1854 48.6786 79.6347 48.4746 80.2352 48.4746C80.7394 48.4746 81.1382 48.6397 81.427 48.97C81.7158 49.3002 81.8625 49.7665 81.8716 50.3736H80.7486C80.744 50.1016 80.7027 49.8928 80.6202 49.7471C80.5377 49.6014 80.4048 49.5285 80.2168 49.5285C80.006 49.5285 79.8593 49.6062 79.7676 49.7616C79.6759 49.917 79.6301 50.223 79.6255 50.6747V51.1701C79.6255 51.5635 79.6438 51.8403 79.6805 51.9957C79.7172 52.1512 79.7768 52.2677 79.8639 52.3405C79.9418 52.4085 80.061 52.4426 80.2168 52.4426Z" fill="white"/>
<path d="M84.1456 48.9848C84.4069 48.64 84.7232 48.47 85.1037 48.47C85.5208 48.47 85.8371 48.6254 86.0525 48.9362C86.2726 49.2471 86.378 49.7085 86.3826 50.3253V53.4044H85.1816V50.335C85.1816 50.0533 85.1403 49.8445 85.0578 49.7182C84.9753 49.5919 84.8424 49.5288 84.6544 49.5288C84.439 49.5288 84.2694 49.6356 84.1456 49.8444V53.3996H82.9492V46.5225H84.1456V48.9848Z" fill="white"/>
<path d="M88.9581 53.4048H87.7617V48.5578H88.9581V53.4048ZM88.6097 46.5957H89.9528L88.7794 47.9847H87.78L88.6097 46.5957Z" fill="white"/>
<path d="M91.4721 48.562L91.5042 49.0428C91.7746 48.664 92.1276 48.4746 92.5631 48.4746C93.3515 48.4746 93.7549 49.0574 93.7778 50.223V53.409H92.5768V50.3202C92.5768 50.0482 92.5355 49.8442 92.4576 49.7228C92.3797 49.5965 92.2468 49.5382 92.0496 49.5382C91.8342 49.5382 91.6646 49.6548 91.5408 49.8928V53.4139H90.3398V48.5669H91.4721V48.562Z" fill="white"/>
<path d="M96.2335 48.9848C96.4902 48.64 96.8111 48.47 97.187 48.47C97.6041 48.47 97.9204 48.6254 98.1358 48.9362C98.3513 49.2471 98.4613 49.7085 98.4659 50.3253V53.4044H97.2695V50.335C97.2695 50.0533 97.2282 49.8445 97.1457 49.7182C97.0632 49.5919 96.9303 49.5288 96.7423 49.5288C96.5269 49.5288 96.3573 49.6356 96.2335 49.8444V53.3996H95.0371V46.5225H96.2335V48.9848Z" fill="white"/>
<path d="M105.984 47.9843H104.463V53.4044H103.211V47.9843H101.717V46.8867H105.984V47.9843Z" fill="white"/>
<path d="M107.07 47.304C107.07 47.1049 107.13 46.9446 107.249 46.8183C107.368 46.6921 107.524 46.6289 107.721 46.6289C107.918 46.6289 108.074 46.6921 108.193 46.8183C108.313 46.9446 108.372 47.1049 108.372 47.304C108.372 47.4983 108.313 47.6585 108.198 47.7897C108.079 47.9159 107.923 47.984 107.721 47.984C107.524 47.984 107.364 47.9208 107.245 47.7897C107.13 47.6634 107.07 47.4983 107.07 47.304ZM108.326 53.4041H107.125V48.557H108.326V53.4041Z" fill="white"/>
<path d="M111.53 53.4967C110.915 53.4967 110.434 53.3025 110.09 52.9139C109.746 52.5254 109.572 51.9717 109.572 51.2481V50.8644C109.572 50.1019 109.728 49.5094 110.044 49.0965C110.361 48.6789 110.81 48.4749 111.401 48.4749C111.979 48.4749 112.41 48.6691 112.699 49.0577C112.992 49.4462 113.139 50.0242 113.143 50.7867V51.4084H110.764C110.782 51.7677 110.856 52.03 110.989 52.2C111.122 52.3651 111.323 52.4477 111.603 52.4477C112.002 52.4477 112.336 52.302 112.602 52.0106L113.074 52.778C112.928 52.9916 112.717 53.1665 112.437 53.2976C112.158 53.4288 111.855 53.4967 111.53 53.4967ZM112.708 47.7804V47.8338H111.773L111.245 47.1879L110.718 47.8338H109.806V47.7609L110.906 46.5273H111.589L112.708 47.7804ZM111.351 53.8319C111.557 53.8319 111.727 53.8901 111.85 54.0067C111.979 54.1233 112.043 54.2738 112.043 54.4535C112.043 54.6332 111.979 54.7789 111.85 54.9003C111.722 55.0169 111.557 55.0752 111.351 55.0752C111.149 55.0752 110.984 55.0169 110.856 54.9003C110.727 54.7838 110.663 54.6332 110.663 54.4535C110.663 54.2738 110.727 54.1233 110.856 54.0067C110.984 53.8901 111.149 53.8319 111.351 53.8319ZM110.778 50.5244H111.974V50.4079C111.97 50.1165 111.924 49.8979 111.837 49.7474C111.754 49.5968 111.608 49.5239 111.397 49.5239C111.19 49.5239 111.035 49.6016 110.943 49.7619C110.851 49.9173 110.796 50.1747 110.778 50.5244Z" fill="white"/>
<path d="M115.354 48.562L115.386 49.0428C115.656 48.664 116.009 48.4746 116.444 48.4746C117.228 48.4746 117.636 49.0574 117.659 50.223V53.409H116.458V50.3202C116.458 50.0482 116.417 49.8442 116.339 49.7228C116.261 49.5965 116.128 49.5382 115.931 49.5382C115.716 49.5382 115.546 49.6548 115.422 49.8928V53.4139H114.23V48.5669H115.354V48.562Z" fill="white"/>
<path d="M122.88 51.6174L123.457 48.5625H124.709L123.453 53.4046H122.311L121.051 48.5625H122.302L122.88 51.6174Z" fill="white"/>
<path d="M127.812 53.4045C127.779 53.3316 127.743 53.2053 127.711 53.0305C127.495 53.3413 127.206 53.4967 126.84 53.4967C126.455 53.4967 126.138 53.3607 125.886 53.0936C125.634 52.8265 125.506 52.4768 125.506 52.0494C125.506 51.5395 125.657 51.1509 125.964 50.8693C126.271 50.5924 126.711 50.4516 127.284 50.4419H127.647V50.0533C127.647 49.8348 127.61 49.6794 127.541 49.5919C127.472 49.5045 127.367 49.4559 127.234 49.4559C126.936 49.4559 126.785 49.6405 126.785 50.0096H125.588C125.588 49.5628 125.749 49.1937 126.065 48.9023C126.381 48.6109 126.785 48.4652 127.266 48.4652C127.766 48.4652 128.155 48.606 128.43 48.878C128.705 49.1548 128.843 49.5482 128.843 50.063V52.3457C128.848 52.7634 128.907 53.0888 129.013 53.3268V53.4045H127.812ZM127.83 47.9164H126.821L125.653 46.5273H126.991L127.83 47.9164ZM127.106 52.5011C127.239 52.5011 127.349 52.472 127.445 52.4186C127.537 52.3603 127.605 52.2923 127.651 52.2146V51.2092H127.362C127.161 51.2092 127 51.2772 126.881 51.4132C126.762 51.5492 126.707 51.7338 126.707 51.962C126.707 52.3214 126.84 52.5011 127.106 52.5011Z" fill="white"/>
<path d="M136.934 53.4044H135.692L133.877 49.1305V53.4044H132.635V46.8867H133.877L135.697 51.1655V46.8867H136.934V53.4044Z" fill="white"/>
<path d="M138.163 50.8349C138.163 50.0384 138.3 49.4459 138.571 49.0574C138.841 48.664 139.222 48.4697 139.708 48.4697C140.12 48.4697 140.441 48.6446 140.666 48.9894L140.711 48.5571H141.789V53.4041C141.789 54.021 141.624 54.4969 141.298 54.8223C140.973 55.1477 140.501 55.3128 139.891 55.3128C139.639 55.3128 139.378 55.2594 139.098 55.1526C138.823 55.0457 138.617 54.9097 138.479 54.7495L138.882 53.8704C138.992 53.9967 139.144 54.0987 139.323 54.1764C139.501 54.2541 139.675 54.2929 139.836 54.2929C140.102 54.2929 140.294 54.2249 140.413 54.089C140.533 53.953 140.592 53.7344 140.592 53.4333V53.0156C140.363 53.3313 140.065 53.4916 139.698 53.4916C139.212 53.4916 138.832 53.2924 138.566 52.8893C138.3 52.4862 138.163 51.9228 138.158 51.1895V50.8349H138.163ZM139.359 51.1555C139.359 51.6023 139.414 51.9277 139.524 52.1365C139.634 52.3405 139.808 52.4425 140.047 52.4425C140.29 52.4425 140.473 52.3502 140.592 52.1608V49.8442C140.469 49.6402 140.29 49.5334 140.056 49.5334C139.818 49.5334 139.643 49.6353 139.529 49.8442C139.414 50.0481 139.359 50.3784 139.359 50.8398V51.1555Z" fill="white"/>
<path d="M145.269 53.4041C145.237 53.3313 145.2 53.205 145.168 53.0302C144.957 53.341 144.664 53.4964 144.297 53.4964C143.912 53.4964 143.595 53.3604 143.343 53.0933C143.091 52.8262 142.963 52.4765 142.963 52.0491C142.963 51.5392 143.114 51.1506 143.421 50.8689C143.728 50.5921 144.168 50.4512 144.741 50.4415H145.104V50.053C145.104 49.8344 145.067 49.679 144.998 49.5916C144.929 49.5042 144.824 49.4556 144.691 49.4556C144.393 49.4556 144.242 49.6402 144.242 50.0093H143.045C143.045 49.5625 143.206 49.1934 143.522 48.902C143.838 48.6106 144.242 48.4648 144.723 48.4648C145.223 48.4648 145.612 48.6057 145.887 48.8777C146.162 49.1545 146.3 49.5479 146.3 50.0627V52.3454C146.305 52.763 146.364 53.0884 146.47 53.3264V53.4041H145.269ZM144.563 52.5008C144.696 52.5008 144.806 52.4716 144.902 52.4182C144.994 52.3599 145.062 52.2919 145.108 52.2142V51.2089H144.819C144.618 51.2089 144.457 51.2769 144.338 51.4129C144.219 51.5489 144.164 51.7334 144.164 51.9617C144.164 52.3211 144.297 52.5008 144.563 52.5008Z" fill="white"/>
<path d="M149.004 51.2968L149.614 48.5576H150.888L149.385 54.1283C149.16 54.9491 148.734 55.3619 148.11 55.3619C147.968 55.3619 147.803 55.3327 147.62 55.2793V54.2885L147.757 54.2934C147.941 54.2934 148.083 54.2546 148.179 54.1817C148.275 54.104 148.344 53.9729 148.395 53.7835L148.486 53.458L147.166 48.5625H148.45L149.004 51.2968Z" fill="white"/>
<path d="M155.916 52.4426C156.26 52.4426 156.439 52.2046 156.443 51.7286H157.566C157.562 52.258 157.406 52.6854 157.103 53.0108C156.801 53.3362 156.411 53.5013 155.939 53.5013C155.348 53.5013 154.898 53.307 154.591 52.9185C154.284 52.53 154.124 51.9569 154.119 51.2041V50.8204C154.119 50.0579 154.27 49.4799 154.578 49.0768C154.885 48.6786 155.334 48.4746 155.934 48.4746C156.439 48.4746 156.837 48.6397 157.126 48.97C157.415 49.3002 157.566 49.7665 157.571 50.3736H156.448C156.443 50.1016 156.402 49.8928 156.319 49.7471C156.237 49.6014 156.104 49.5285 155.911 49.5285C155.701 49.5285 155.554 49.6062 155.462 49.7616C155.371 49.917 155.325 50.223 155.32 50.6747V51.1701C155.32 51.5635 155.338 51.8403 155.375 51.9957C155.412 52.1512 155.471 52.2677 155.558 52.3405C155.641 52.4085 155.76 52.4426 155.916 52.4426Z" fill="white"/>
<path d="M159.845 48.9848C160.102 48.64 160.422 48.47 160.798 48.47C161.215 48.47 161.532 48.6254 161.747 48.9362C161.963 49.2471 162.073 49.7085 162.077 50.3253V53.4044H160.876V50.335C160.876 50.0533 160.835 49.8445 160.752 49.7182C160.67 49.5919 160.537 49.5288 160.349 49.5288C160.134 49.5288 159.964 49.6356 159.845 49.8444V53.3996H158.648V46.5225H159.845V48.9848Z" fill="white"/>
<path d="M163.232 50.8252C163.232 50.0919 163.397 49.5139 163.723 49.0962C164.048 48.6786 164.502 48.4697 165.08 48.4697C165.662 48.4697 166.12 48.6786 166.446 49.0962C166.771 49.5139 166.936 50.0919 166.936 50.8349V51.1458C166.936 51.884 166.776 52.462 166.45 52.8748C166.125 53.2876 165.671 53.4964 165.089 53.4964C164.502 53.4964 164.048 53.2876 163.723 52.8748C163.397 52.4571 163.232 51.8791 163.232 51.1409V50.8252ZM164.433 51.1458C164.433 52.0103 164.649 52.4425 165.089 52.4425C165.492 52.4425 165.708 52.0831 165.74 51.3595L165.744 50.8252C165.744 50.3833 165.685 50.0579 165.57 49.8442C165.456 49.6305 165.291 49.5236 165.08 49.5236C164.878 49.5236 164.718 49.6305 164.603 49.8442C164.488 50.0579 164.433 50.3881 164.433 50.8252V51.1458Z" fill="white"/>
<path d="M171.663 48.562L171.695 49.0088C171.961 48.6494 172.314 48.4697 172.754 48.4697C173.212 48.4697 173.533 48.6883 173.721 49.1254C173.982 48.6883 174.354 48.4697 174.839 48.4697C175.642 48.4697 176.05 49.0574 176.068 50.2279V53.4042H174.872V50.3104C174.872 50.0287 174.835 49.8296 174.762 49.7082C174.688 49.5916 174.564 49.5285 174.39 49.5285C174.166 49.5285 174.001 49.6742 173.891 49.9607L173.9 50.1113V53.3993H172.703V50.3153C172.703 50.0384 172.667 49.8393 172.598 49.713C172.529 49.5868 172.401 49.5285 172.222 49.5285C172.016 49.5285 171.851 49.645 171.732 49.883V53.4042H170.535V48.5571H171.663V48.562Z" fill="white"/>
<path d="M177.254 50.8252C177.254 50.0919 177.419 49.5139 177.744 49.0962C178.07 48.6786 178.524 48.4697 179.101 48.4697C179.683 48.4697 180.137 48.6786 180.467 49.0962C180.793 49.5139 180.958 50.0919 180.958 50.8349V51.1458C180.958 51.884 180.793 52.462 180.472 52.8748C180.146 53.2876 179.693 53.4964 179.11 53.4964C178.524 53.4964 178.07 53.2876 177.744 52.8748C177.419 52.4571 177.254 51.8791 177.254 51.1409V50.8252ZM179.097 53.8607C179.303 53.8607 179.468 53.919 179.596 54.0355C179.725 54.1521 179.789 54.3027 179.789 54.4824C179.789 54.662 179.725 54.8077 179.596 54.9292C179.468 55.0457 179.303 55.104 179.097 55.104C178.895 55.104 178.73 55.0457 178.602 54.9292C178.473 54.8126 178.409 54.662 178.409 54.4824C178.409 54.3027 178.473 54.1569 178.602 54.0355C178.725 53.919 178.895 53.8607 179.097 53.8607ZM178.455 51.1458C178.455 52.0103 178.675 52.4425 179.11 52.4425C179.514 52.4425 179.729 52.0831 179.761 51.3595L179.766 50.8252C179.766 50.3833 179.706 50.0579 179.592 49.8442C179.477 49.6305 179.312 49.5236 179.101 49.5236C178.9 49.5236 178.739 49.6305 178.625 49.8442C178.51 50.0579 178.455 50.3881 178.455 50.8252V51.1458Z" fill="white"/>
<path d="M182.133 47.304C182.133 47.1049 182.192 46.9446 182.312 46.8183C182.431 46.6921 182.587 46.6289 182.784 46.6289C182.981 46.6289 183.141 46.6921 183.256 46.8183C183.375 46.9446 183.435 47.1049 183.435 47.304C183.435 47.4983 183.375 47.6585 183.26 47.7897C183.141 47.9159 182.985 47.984 182.784 47.984C182.582 47.984 182.426 47.9208 182.307 47.7897C182.192 47.6634 182.133 47.4983 182.133 47.304ZM183.389 53.4041H182.188V48.557H183.389V53.4041Z" fill="white"/>
<path d="M188.269 48.562L188.301 49.0428C188.571 48.664 188.924 48.4746 189.36 48.4746C190.148 48.4746 190.552 49.0574 190.575 50.223V53.409H189.374V50.3202C189.374 50.0482 189.332 49.8442 189.255 49.7228C189.177 49.5965 189.044 49.5382 188.847 49.5382C188.631 49.5382 188.461 49.6548 188.338 49.8928V53.4139H187.137V48.5669H188.269V48.562Z" fill="white"/>
<path d="M193.037 48.9848C193.298 48.64 193.615 48.47 193.99 48.47C194.408 48.47 194.724 48.6254 194.939 48.9362C195.155 49.2471 195.265 49.7085 195.269 50.3253V53.4044H194.068V50.335C194.068 50.0533 194.027 49.8445 193.945 49.7182C193.862 49.5919 193.729 49.5288 193.541 49.5288C193.326 49.5288 193.156 49.6356 193.032 49.8444V53.3996H191.836V46.5225H193.032V48.9848H193.037Z" fill="white"/>
<path d="M198.735 53.4045C198.703 53.3316 198.666 53.2053 198.634 53.0305C198.418 53.3413 198.13 53.4967 197.763 53.4967C197.378 53.4967 197.062 53.3607 196.809 53.0936C196.557 52.8265 196.434 52.4768 196.434 52.0494C196.434 51.5395 196.585 51.1509 196.892 50.8693C197.199 50.5924 197.639 50.4516 198.212 50.4419H198.574V50.0533C198.574 49.8348 198.538 49.6794 198.469 49.5919C198.4 49.5045 198.295 49.4559 198.162 49.4559C197.864 49.4559 197.713 49.6405 197.713 50.0096H196.516C196.516 49.5628 196.677 49.1937 196.993 48.9023C197.309 48.6109 197.713 48.4652 198.194 48.4652C198.693 48.4652 199.083 48.606 199.358 48.878C199.633 49.1548 199.771 49.5482 199.771 50.063V52.3457C199.775 52.7634 199.83 53.0888 199.94 53.3268V53.4045H198.735ZM198.758 47.9164H197.749L196.58 46.5273H197.919L198.758 47.9164ZM198.029 52.5011C198.162 52.5011 198.272 52.472 198.368 52.4186C198.46 52.3603 198.528 52.2923 198.574 52.2146V51.2092H198.286C198.084 51.2092 197.923 51.2772 197.809 51.4132C197.69 51.5492 197.635 51.7338 197.635 51.962C197.63 52.3214 197.763 52.5011 198.029 52.5011Z" fill="white"/>
<path d="M68.162 21.0925H64.3711V16.4932H77.1144V21.0925H73.2685V37.2703H68.162V21.0925Z" fill="white"/>
<path d="M77.8574 16.4932H82.8035V20.3931H77.8574V16.4932ZM77.8574 21.5296H82.8035V37.2751H77.8574V21.5296Z" fill="white"/>
<path d="M89.366 30.2867V32.3508C89.366 33.769 89.8152 34.4732 90.7137 34.4732C91.1904 34.4732 91.5433 34.2692 91.7725 33.8613C92.0017 33.4533 92.1163 32.7442 92.1163 31.7389H96.5673C96.5307 33.7204 96.0539 35.1872 95.1371 36.1488C94.2204 37.1104 92.7581 37.5912 90.7412 37.5912C88.3804 37.5912 86.7348 36.9841 85.8089 35.7699C84.8829 34.5558 84.4199 32.4383 84.4199 29.4125C84.4199 26.4256 84.9104 24.2984 85.8914 23.0259C86.8723 21.7583 88.4859 21.1221 90.7412 21.1221C92.7902 21.1221 94.2983 21.6903 95.2609 22.8268C96.2235 23.9633 96.7003 25.9156 96.7003 28.6888V30.2916H89.366V30.2867ZM92.0842 26.7364C92.0842 25.8817 91.9834 25.2697 91.7817 24.8909C91.58 24.5121 91.2225 24.3226 90.7091 24.3226C90.214 24.3226 89.8656 24.5121 89.6639 24.8909C89.4622 25.2697 89.3614 25.8865 89.3614 26.7364V27.4358H92.0797V26.7364H92.0842Z" fill="white"/>
<path d="M98.071 21.53H102.852V23.4484H102.907C103.549 21.8991 104.75 21.1221 106.505 21.1221C107.716 21.1221 108.66 21.4426 109.347 22.0837C110.035 22.7248 110.379 23.8273 110.379 25.4008V37.2756H105.433V26.887C105.433 26.2265 105.341 25.7505 105.158 25.4591C104.974 25.1677 104.663 25.022 104.223 25.022C103.783 25.022 103.471 25.1677 103.288 25.4591C103.104 25.7505 103.012 26.2265 103.012 26.887V37.2756H98.0664V21.53H98.071Z" fill="white"/>
<path d="M112.57 16.4932H118.286L121.582 29.3004H121.637V16.4932H126.414V37.2751H120.812L117.406 24.4388H117.351V37.2751H112.57V16.4932Z" fill="white"/>
<path d="M136.219 21.1415H140.835V37.0133C140.835 40.6995 138.763 42.5402 134.628 42.5402C133.473 42.5402 132.506 42.4285 131.718 42.2051C130.929 41.9817 130.265 41.53 129.714 40.8501C129.164 40.1701 128.88 39.2571 128.862 38.1157H133.313C133.313 38.9317 133.725 39.3396 134.551 39.3396C135.009 39.3396 135.376 39.2134 135.651 38.9608C135.926 38.7083 136.063 38.1837 136.063 37.3872V34.4781H136.008C135.458 36.0516 134.344 36.8336 132.657 36.8336C129.765 36.8336 128.316 34.2449 128.316 29.0628C128.316 26.173 128.701 24.1283 129.472 22.9239C130.242 21.7194 131.383 21.1172 132.905 21.1172C134.587 21.1172 135.678 21.9817 136.173 23.7058H136.228V21.1415H136.219ZM133.253 28.9802C133.253 30.549 133.363 31.6029 133.583 32.1371C133.803 32.6713 134.17 32.9384 134.683 32.9384C135.179 32.9384 135.532 32.6762 135.742 32.1517C135.953 31.6271 136.059 30.5684 136.059 28.9802C136.059 27.4261 135.949 26.3819 135.729 25.8379C135.509 25.294 135.16 25.022 134.683 25.022C134.188 25.022 133.826 25.294 133.597 25.8379C133.368 26.377 133.253 27.4261 133.253 28.9802Z" fill="white"/>
<path d="M150.118 37.2707C150.027 37.0181 149.926 36.4256 149.816 35.498H149.761C149.211 36.8967 148.092 37.5912 146.41 37.5912C143.664 37.5912 142.289 36.0808 142.289 33.0502C142.289 31.5737 142.587 30.4615 143.183 29.7039C143.779 28.9462 144.851 28.3731 146.41 27.9846L148.358 27.4892C148.89 27.3532 149.266 27.1541 149.486 26.8918C149.706 26.6296 149.816 26.2556 149.816 25.7699C149.816 24.7986 149.394 24.3129 148.551 24.3129C148.056 24.3129 147.703 24.4586 147.492 24.75C147.281 25.0414 147.166 25.5951 147.148 26.411H142.862C142.862 25.3425 143.045 24.4392 143.412 23.6912C143.779 22.9433 144.265 22.3945 144.879 22.0497C145.493 21.7 146.089 21.4572 146.676 21.3212C147.263 21.1852 147.886 21.1172 148.546 21.1172C150.448 21.1172 151.906 21.4863 152.915 22.2245C153.923 22.9627 154.427 24.2789 154.427 26.1828V33.8661C154.427 35.5174 154.583 36.649 154.895 37.2707H150.118ZM148.28 34.1575C149.307 34.1575 149.816 33.293 149.816 31.5689V29.6796H149.761C149.669 29.8156 149.545 29.9127 149.39 29.971C149.234 30.0293 149.023 30.0924 148.757 30.1604C148.491 30.2284 148.267 30.311 148.083 30.4081C147.405 30.7384 147.066 31.4183 147.066 32.4479C147.066 32.9725 147.176 33.3901 147.396 33.701C147.62 34.0021 147.914 34.1575 148.28 34.1575Z" fill="white"/>
<path d="M157.017 38.7568C157.329 38.8345 157.696 38.8734 158.117 38.8734C158.667 38.8734 159.08 38.7325 159.355 38.4509C159.63 38.1692 159.763 37.6786 159.763 37.4455C159.763 37.3095 159.69 36.9501 159.543 36.3673L155.527 21.1415L160.666 21.1172L162.234 32.1468H162.289L163.769 21.1415L168.757 21.1463L164.681 37.7078C164.26 39.4708 163.687 40.9132 162.953 41.564C162.22 42.2148 161.17 42.5402 159.795 42.5402C158.695 42.5402 157.773 42.5014 157.022 42.4237V38.7568H157.017Z" fill="white"/>
<path d="M172.725 31.5107H168.109V37.2757H172.725V31.5107Z" fill="white"/>
<path d="M173.82 21.1514H178.881L180.33 32.8512H180.385L181.806 21.1514L186.953 21.1562L183.24 37.2709H177.419L173.82 21.1514Z" fill="white"/>
<path d="M187.692 21.1512H192.473V23.4484H192.528C193.17 21.8943 194.371 21.1221 196.127 21.1221C197.337 21.1221 198.281 21.4426 198.969 22.0837C199.656 22.7248 200 23.8321 200 25.4008V37.2756H195.054V26.887C195.054 26.2265 194.962 25.7505 194.779 25.464C194.595 25.1726 194.284 25.0269 193.844 25.0269C193.404 25.0269 193.092 25.1726 192.909 25.464C192.725 25.7554 192.634 26.2313 192.634 26.887V37.2756H187.688V21.1512H187.692Z" fill="white"/>
<path d="M29.3038 70C28.4374 70 27.626 69.5532 27.1264 68.8004L17.7614 54.6285C17.7018 54.541 17.6468 54.4439 17.5964 54.3468L17.436 54.0359L17.2343 54.3176C16.7346 55.0024 15.9508 55.4104 15.1348 55.4104H2.65281C1.65809 55.4104 0.755061 54.8276 0.301252 53.8951C-0.157141 52.9626 -0.0883824 51.8456 0.480025 50.9811L11.0368 34.9976L0.480025 19.0287C-0.0883824 18.169 -0.157141 17.052 0.301252 16.1146C0.759645 15.1773 1.66268 14.5993 2.65739 14.5993H15.1486C15.96 14.5993 16.7392 15.0024 17.2389 15.6824L17.4451 15.9641L17.6056 15.6484C17.6514 15.5609 17.7018 15.4687 17.7706 15.3667L27.131 1.1996C27.6261 0.446805 28.4374 0 29.3038 0C30.1701 0 30.9861 0.451666 31.4765 1.20446L40.8415 15.3715C40.8965 15.4589 40.9515 15.5512 41.0065 15.6484L41.167 15.9543L41.3732 15.6775C41.8821 14.9878 42.643 14.5945 43.4681 14.5945H55.9547C56.9494 14.5945 57.8525 15.1773 58.3109 16.1098C58.7693 17.0423 58.7005 18.1593 58.1321 19.0238L47.5707 34.9976L58.1504 50.9762C58.7234 51.8407 58.7922 52.9577 58.3338 53.8902C57.8754 54.8276 56.9769 55.4055 55.9822 55.4055H43.4956C42.6751 55.4055 41.8867 54.9927 41.3824 54.2982L41.1716 54.002L41.0157 54.3322C40.9744 54.4245 40.9194 54.5168 40.8507 54.6236L31.4857 68.7955C30.9861 69.5483 30.1701 70 29.3038 70Z" fill="white"/>
<path d="M22.5933 30.092H18.8849C18.5457 30.092 18.2294 29.9172 18.0323 29.6209L12.8158 21.7287H10.2763L16.9505 31.821C17.143 32.1173 17.4639 32.2921 17.8031 32.2921H25.5041C25.8433 32.2921 26.1642 32.467 26.3567 32.7632L39.3201 52.3795C39.5722 52.7584 39.5722 53.2635 39.3201 53.6423L29.9551 67.8142C29.5426 68.4407 28.667 68.4407 28.2499 67.8142L18.8849 53.6423C18.6328 53.2635 18.6328 52.7584 18.8849 52.3795L23.8631 44.8516C24.2756 44.2251 25.1512 44.2251 25.5637 44.8468L27.4202 47.6442C27.6723 48.0231 27.6723 48.5282 27.4202 48.9118L25.1282 52.3795C24.8761 52.7584 24.8761 53.2635 25.1282 53.6423L29.1025 59.6549L33.0768 53.6423C33.3289 53.2635 33.3289 52.7584 33.0768 52.3795L23.6935 38.1833C23.4964 37.8871 23.1801 37.7122 22.8409 37.7122H17.794C17.4547 37.7122 17.1385 37.8871 16.9413 38.1833L10.2626 48.2853L12.8066 48.2756L18.0232 40.3883C18.2203 40.0969 18.5366 39.922 18.8758 39.922H21.7545C22.0937 39.922 22.41 40.0969 22.6071 40.3931L23.0196 41.0197C23.2672 41.3985 23.2672 41.9036 23.0196 42.2824L15.7816 53.2343C15.5891 53.5306 15.2682 53.7054 14.929 53.7054H2.45155C1.61269 53.7054 1.11762 52.7001 1.59894 51.9716L12.3849 35.6384C12.637 35.2596 12.637 34.7545 12.3849 34.3757L1.60352 18.0473C1.12221 17.3188 1.61269 16.3135 2.45613 16.3135H14.9473C15.2865 16.3135 15.6028 16.4883 15.7999 16.7846L23.4505 28.363C23.9272 29.0867 23.4368 30.092 22.5933 30.092Z" fill="#ED3938"/>
<path d="M35.6387 39.9128H39.3425C39.6817 39.9128 39.998 40.0876 40.1951 40.3838L45.4116 48.276H47.9511L41.2769 38.1838C41.0844 37.8875 40.7635 37.7126 40.4243 37.7126H32.7233C32.3841 37.7126 32.0632 37.5378 31.8707 37.2464L18.8844 17.6155C18.6323 17.2367 18.6323 16.7316 18.8844 16.3528L28.2494 2.18083C28.6619 1.55431 29.5374 1.55431 29.95 2.18083L39.315 16.3528C39.5671 16.7316 39.5671 17.2367 39.315 17.6155L34.3414 25.1434C33.9243 25.7699 33.0487 25.7699 32.6362 25.1434L30.7843 22.3411C30.5322 21.9623 30.5322 21.4572 30.7843 21.0783L33.0671 17.6204C33.3192 17.2415 33.3192 16.7364 33.0671 16.3576L29.0928 10.3401L25.1185 16.3528C24.8664 16.7316 24.8664 17.2367 25.1185 17.6155L34.5248 31.8214C34.7219 32.1177 35.0382 32.2925 35.3774 32.2925H40.3922C40.7314 32.2925 41.0523 32.1177 41.2448 31.8214L47.9144 21.7292H45.3749L40.1584 29.6213C39.9659 29.9176 39.645 30.0924 39.3058 30.0924H36.4408C36.1016 30.0924 35.7808 29.9176 35.5882 29.6213L35.1665 28.9851C34.9144 28.6063 34.9144 28.1012 35.1665 27.7223L42.4 16.7802C42.5971 16.4887 42.9134 16.309 43.2526 16.309H55.7392C56.578 16.309 57.0731 17.3144 56.5918 18.0429L45.8012 34.3663C45.5491 34.7452 45.5491 35.2503 45.8012 35.6291L56.6147 51.9574C57.1006 52.6859 56.6055 53.6913 55.7667 53.6913H43.2801C42.9409 53.6913 42.6246 53.5164 42.4275 53.2202L34.7769 41.6466C34.3047 40.9181 34.7952 39.9128 35.6387 39.9128Z" fill="#ED3938"/>
</svg>
