<svg width="20" height="20" viewBox="0 0 20 20" fill="none" xmlns="http://www.w3.org/2000/svg">
<g clip-path="url(#clip0_1709_21242)">
<path d="M9.99996 1.66699C6.77496 1.66699 4.16663 4.27533 4.16663 7.50033C4.16663 11.8753 9.99996 18.3337 9.99996 18.3337C9.99996 18.3337 15.8333 11.8753 15.8333 7.50033C15.8333 4.27533 13.225 1.66699 9.99996 1.66699ZM5.83329 7.50033C5.83329 5.20033 7.69996 3.33366 9.99996 3.33366C12.3 3.33366 14.1666 5.20033 14.1666 7.50033C14.1666 9.90033 11.7666 13.492 9.99996 15.7337C8.26663 13.5087 5.83329 9.87533 5.83329 7.50033Z" fill="#1D9752"/>
<path d="M9.99996 9.58366C11.1506 9.58366 12.0833 8.65092 12.0833 7.50033C12.0833 6.34973 11.1506 5.41699 9.99996 5.41699C8.84937 5.41699 7.91663 6.34973 7.91663 7.50033C7.91663 8.65092 8.84937 9.58366 9.99996 9.58366Z" fill="#1D9752"/>
</g>
<defs>
<clipPath id="clip0_1709_21242">
<rect width="20" height="20" fill="white"/>
</clipPath>
</defs>
</svg>
