<svg width="48" height="48" viewBox="0 0 48 48" fill="none" xmlns="http://www.w3.org/2000/svg">
<rect width="48" height="48" rx="24" fill="#1D9752"/>
<path fill-rule="evenodd" clip-rule="evenodd" d="M11.5858 13.5858C11.9609 13.2107 12.4696 13 13 13H35C35.5304 13 36.0391 13.2107 36.4142 13.5858C36.7893 13.9609 37 14.4696 37 15V31C37 31.5304 36.7893 32.0391 36.4142 32.4142C36.0391 32.7893 35.5304 33 35 33H27.5678L27.5703 33.0015L25.7144 36.0988C25.5343 36.3917 25.2821 36.6335 24.982 36.8013C24.6819 36.9691 24.3438 37.0572 24 37.0572C23.6562 37.0572 23.3181 36.9691 23.018 36.8013C22.7179 36.6335 22.4657 36.3917 22.2856 36.0988L22.2796 36.089L20.4288 33H13C12.4696 33 11.9609 32.7893 11.5858 32.4142C11.2107 32.0391 11 31.5304 11 31V15C11 14.4696 11.2107 13.9609 11.5858 13.5858ZM27.5678 33C27.5689 32.9997 27.5693 32.9989 27.5703 32.9983C27.5722 32.9973 27.5737 32.9957 27.5748 32.9938L27.5641 32.9875L27.5641 32.9978L27.5678 33ZM27.5625 32.9968V32.9866L26.7125 32.4875L27.5625 32.9968ZM25.8528 31.9767C26.0278 31.6804 26.2767 31.4346 26.5753 31.2634C26.8753 31.0913 27.215 31.0005 27.5609 31L27.5625 31L35 31V15L13 15L13 31H20.4391C20.785 31.0005 21.1247 31.0913 21.4247 31.2634C21.7233 31.4346 21.9722 31.6804 22.1472 31.9767L23.99 35.0522C23.991 35.0536 23.9924 35.0547 23.9939 35.0556C23.9944 35.0559 23.9949 35.0561 23.9954 35.0563C23.9969 35.0569 23.9984 35.0572 24 35.0572C24.0021 35.0572 24.0042 35.0566 24.0061 35.0556C24.0076 35.0547 24.009 35.0536 24.01 35.0522L25.8528 31.9767Z" fill="white"/>
<path d="M24 24.5C24.8284 24.5 25.5 23.8284 25.5 23C25.5 22.1716 24.8284 21.5 24 21.5C23.1716 21.5 22.5 22.1716 22.5 23C22.5 23.8284 23.1716 24.5 24 24.5Z" fill="white"/>
<path d="M18 24.5C18.8284 24.5 19.5 23.8284 19.5 23C19.5 22.1716 18.8284 21.5 18 21.5C17.1716 21.5 16.5 22.1716 16.5 23C16.5 23.8284 17.1716 24.5 18 24.5Z" fill="white"/>
<path d="M30 24.5C30.8284 24.5 31.5 23.8284 31.5 23C31.5 22.1716 30.8284 21.5 30 21.5C29.1716 21.5 28.5 22.1716 28.5 23C28.5 23.8284 29.1716 24.5 30 24.5Z" fill="white"/>
</svg>
