<svg width="100" height="100" viewBox="0 0 100 100" fill="none" xmlns="http://www.w3.org/2000/svg">
<g clip-path="url(#clip0_4686_94375)">
<rect width="100" height="100" rx="50" fill="white"/>
<path fill-rule="evenodd" clip-rule="evenodd" d="M100 0H0V100H100V0ZM50.015 25C35.9253 25 25 35.3249 25 49.2645C25 56.5564 27.9893 62.8602 32.8547 67.2128C33.2612 67.5755 33.5114 68.0883 33.5239 68.6387L33.6614 73.0913C33.6715 73.419 33.7618 73.7391 33.9245 74.0236C34.0872 74.3082 34.3174 74.5484 34.5946 74.7231C34.8719 74.8979 35.1879 75.0019 35.5148 75.026C35.8417 75.05 36.1695 74.9934 36.4694 74.8611L41.4349 72.6723C41.8539 72.4847 42.3291 72.4534 42.7732 72.5723C45.0558 73.1976 47.4822 73.5353 50.015 73.5353C64.1047 73.5353 75.03 63.2104 75.03 49.2708C75.03 35.3312 64.1047 25 50.015 25ZM34.9935 56.3625L42.3416 44.7056C42.618 44.2667 42.9825 43.8899 43.4119 43.5989C43.8413 43.308 44.3263 43.1092 44.8364 43.0152C45.3465 42.9212 45.8705 42.9339 46.3754 43.0527C46.8803 43.1714 47.3551 43.3935 47.7699 43.705L53.6171 48.0888C53.8782 48.2843 54.1958 48.3894 54.5218 48.3882C54.8479 48.3871 55.1648 48.2798 55.4245 48.0826L63.3167 42.0915C64.3673 41.291 65.7431 42.5543 65.0427 43.6737L57.6883 55.3244C57.4119 55.7633 57.0475 56.1401 56.6181 56.431C56.1887 56.722 55.7036 56.9207 55.1936 57.0148C54.6835 57.1088 54.1594 57.096 53.6545 56.9773C53.1496 56.8586 52.6748 56.6365 52.2601 56.325L46.4128 51.9411C46.1518 51.7457 45.8342 51.6406 45.5081 51.6417C45.182 51.6429 44.8652 51.7502 44.6055 51.9474L36.7132 57.9385C35.6626 58.739 34.2868 57.482 34.9935 56.3625Z" fill="url(#paint0_radial_4686_94375)"/>
</g>
<defs>
<radialGradient id="paint0_radial_4686_94375" cx="0" cy="0" r="1" gradientUnits="userSpaceOnUse" gradientTransform="translate(16.75 99.9973) scale(110 109.997)">
<stop stop-color="#0099FF"/>
<stop offset="0.6" stop-color="#A033FF"/>
<stop offset="0.9" stop-color="#FF5280"/>
<stop offset="1" stop-color="#FF7061"/>
</radialGradient>
<clipPath id="clip0_4686_94375">
<rect width="100" height="100" rx="50" fill="white"/>
</clipPath>
</defs>
</svg>
