<svg width="20" height="20" viewBox="0 0 20 20" fill="none" xmlns="http://www.w3.org/2000/svg">
<path fill-rule="evenodd" clip-rule="evenodd" d="M3.33331 10.0003C3.33331 9.54009 3.70641 9.16699 4.16665 9.16699H15.8333C16.2936 9.16699 16.6666 9.54009 16.6666 10.0003C16.6666 10.4606 16.2936 10.8337 15.8333 10.8337H4.16665C3.70641 10.8337 3.33331 10.4606 3.33331 10.0003Z" fill="white"/>
<path fill-rule="evenodd" clip-rule="evenodd" d="M9.41076 3.57709C9.7362 3.25165 10.2638 3.25165 10.5893 3.57709L16.4226 9.41042C16.748 9.73586 16.748 10.2635 16.4226 10.5889L10.5893 16.4223C10.2638 16.7477 9.7362 16.7477 9.41076 16.4223C9.08533 16.0968 9.08533 15.5692 9.41076 15.2438L14.6548 9.99967L9.41076 4.7556C9.08533 4.43016 9.08533 3.90252 9.41076 3.57709Z" fill="white"/>
</svg>
