<svg width="24" height="24" viewBox="0 0 24 24" fill="none" xmlns="http://www.w3.org/2000/svg">
<path fill-rule="evenodd" clip-rule="evenodd" d="M13.3334 6.00016C13.3334 5.63197 13.6319 5.3335 14 5.3335H16.6667C17.1971 5.3335 17.7058 5.54421 18.0809 5.91928C18.456 6.29435 18.6667 6.80306 18.6667 7.3335V16.6668C18.6667 17.1973 18.456 17.706 18.0809 18.081C17.7058 18.4561 17.1971 18.6668 16.6667 18.6668H14C13.6319 18.6668 13.3334 18.3684 13.3334 18.0002C13.3334 17.632 13.6319 17.3335 14 17.3335H16.6667C16.8435 17.3335 17.0131 17.2633 17.1381 17.1382C17.2631 17.0132 17.3334 16.8436 17.3334 16.6668V7.3335C17.3334 7.15669 17.2631 6.98712 17.1381 6.86209C17.0131 6.73707 16.8435 6.66683 16.6667 6.66683H14C13.6319 6.66683 13.3334 6.36835 13.3334 6.00016Z" fill="#262626"/>
<path fill-rule="evenodd" clip-rule="evenodd" d="M13.3334 6.00016C13.3334 5.63197 13.6319 5.3335 14 5.3335H16.6667C17.1971 5.3335 17.7058 5.54421 18.0809 5.91928C18.456 6.29435 18.6667 6.80306 18.6667 7.3335V16.6668C18.6667 17.1973 18.456 17.706 18.0809 18.081C17.7058 18.4561 17.1971 18.6668 16.6667 18.6668H14C13.6319 18.6668 13.3334 18.3684 13.3334 18.0002C13.3334 17.632 13.6319 17.3335 14 17.3335H16.6667C16.8435 17.3335 17.0131 17.2633 17.1381 17.1382C17.2631 17.0132 17.3334 16.8436 17.3334 16.6668V7.3335C17.3334 7.15669 17.2631 6.98712 17.1381 6.86209C17.0131 6.73707 16.8435 6.66683 16.6667 6.66683H14C13.6319 6.66683 13.3334 6.36835 13.3334 6.00016Z" fill="white" fill-opacity="0.1"/>
<path fill-rule="evenodd" clip-rule="evenodd" d="M10.1953 8.19526C10.4556 7.93491 10.8777 7.93491 11.1381 8.19526L14.4714 11.5286C14.7318 11.7889 14.7318 12.2111 14.4714 12.4714L11.1381 15.8047C10.8777 16.0651 10.4556 16.0651 10.1953 15.8047C9.93491 15.5444 9.93491 15.1223 10.1953 14.8619L13.0572 12L10.1953 9.13807C9.93491 8.87772 9.93491 8.45561 10.1953 8.19526Z" fill="#262626"/>
<path fill-rule="evenodd" clip-rule="evenodd" d="M10.1953 8.19526C10.4556 7.93491 10.8777 7.93491 11.1381 8.19526L14.4714 11.5286C14.7318 11.7889 14.7318 12.2111 14.4714 12.4714L11.1381 15.8047C10.8777 16.0651 10.4556 16.0651 10.1953 15.8047C9.93491 15.5444 9.93491 15.1223 10.1953 14.8619L13.0572 12L10.1953 9.13807C9.93491 8.87772 9.93491 8.45561 10.1953 8.19526Z" fill="white" fill-opacity="0.1"/>
<path fill-rule="evenodd" clip-rule="evenodd" d="M5.33337 12.0002C5.33337 11.632 5.63185 11.3335 6.00004 11.3335H14C14.3682 11.3335 14.6667 11.632 14.6667 12.0002C14.6667 12.3684 14.3682 12.6668 14 12.6668H6.00004C5.63185 12.6668 5.33337 12.3684 5.33337 12.0002Z" fill="#262626"/>
<path fill-rule="evenodd" clip-rule="evenodd" d="M5.33337 12.0002C5.33337 11.632 5.63185 11.3335 6.00004 11.3335H14C14.3682 11.3335 14.6667 11.632 14.6667 12.0002C14.6667 12.3684 14.3682 12.6668 14 12.6668H6.00004C5.63185 12.6668 5.33337 12.3684 5.33337 12.0002Z" fill="white" fill-opacity="0.1"/>
</svg>
