<svg width="23" height="24" viewBox="0 0 23 24" fill="none" xmlns="http://www.w3.org/2000/svg">
<g clip-path="url(#clip0_3731_12452)">
<path d="M11.4993 2C6.20935 2 1.91602 6.48 1.91602 12C1.91602 17.52 6.20935 22 11.4993 22C16.7893 22 21.0827 17.52 21.0827 12C21.0827 6.48 16.7893 2 11.4993 2ZM3.83268 12C3.83268 11.39 3.90935 10.79 4.03393 10.22L8.61477 15V16C8.61477 17.1 9.47727 18 10.5314 18V19.93C6.76518 19.43 3.83268 16.07 3.83268 12ZM17.1439 17.4C16.8948 16.59 16.1856 16 15.3231 16H14.3648V13C14.3648 12.45 13.9335 12 13.4064 12H7.65643V10H9.5731C10.1002 10 10.5314 9.55 10.5314 9V7H12.4481C13.5023 7 14.3648 6.1 14.3648 5V4.59C17.1727 5.77 19.166 8.65 19.166 12C19.166 14.08 18.3898 15.98 17.1439 17.4Z" fill="white"/>
</g>
<defs>
<clipPath id="clip0_3731_12452">
<rect width="23" height="24" fill="white"/>
</clipPath>
</defs>
</svg>
