<svg width="33" height="32" viewBox="0 0 33 32" fill="none" xmlns="http://www.w3.org/2000/svg">
<path fill-rule="evenodd" clip-rule="evenodd" d="M9.83325 16C9.83325 15.6318 10.1317 15.3333 10.4999 15.3333H22.4999C22.8681 15.3333 23.1666 15.6318 23.1666 16C23.1666 16.3682 22.8681 16.6666 22.4999 16.6666H10.4999C10.1317 16.6666 9.83325 16.3682 9.83325 16Z" fill="#1D9752"/>
<path fill-rule="evenodd" clip-rule="evenodd" d="M9.83325 12C9.83325 11.6318 10.1317 11.3333 10.4999 11.3333H22.4999C22.8681 11.3333 23.1666 11.6318 23.1666 12C23.1666 12.3682 22.8681 12.6666 22.4999 12.6666H10.4999C10.1317 12.6666 9.83325 12.3682 9.83325 12Z" fill="#1D9752"/>
<path fill-rule="evenodd" clip-rule="evenodd" d="M9.83325 20C9.83325 19.6318 10.1317 19.3333 10.4999 19.3333H22.4999C22.8681 19.3333 23.1666 19.6318 23.1666 20C23.1666 20.3682 22.8681 20.6666 22.4999 20.6666H10.4999C10.1317 20.6666 9.83325 20.3682 9.83325 20Z" fill="#1D9752"/>
</svg>
