<svg width="107" height="106" viewBox="0 0 107 106" fill="none" xmlns="http://www.w3.org/2000/svg">
<path d="M98.7094 60.624C102.92 35.5635 86.0179 11.8346 60.9574 7.62398C35.8969 3.41336 12.168 20.3155 7.95739 45.376C3.74676 70.4364 20.6489 94.1653 45.7094 98.376C70.7698 102.587 94.4987 85.6845 98.7094 60.624Z" fill="#0CA678"/>
<path d="M98.7094 60.624C102.92 35.5635 86.0179 11.8346 60.9574 7.62398C35.8969 3.41336 12.168 20.3155 7.95739 45.376C3.74676 70.4364 20.6489 94.1653 45.7094 98.376C70.7698 102.587 94.4987 85.6845 98.7094 60.624Z" fill="white" fill-opacity="0.8"/>
<path d="M70.7184 44.6088C77.0523 33.2065 72.038 26.6687 67.9833 28.81C67.9833 28.81 67.3715 21.7383 58.0925 17.4797C47.356 12.5493 33.4886 16.394 30.7835 23.8196C28.2883 30.6754 32.7448 33.9803 32.7448 33.9803C32.7448 33.9803 29.9857 38.9047 34.7062 46.2763C39.4206 53.6478 67.8813 49.7131 70.7184 44.6088Z" fill="#5B4852"/>
<path d="M93.4151 99.9712H13.2573C13.2573 99.9712 15.6865 86.5296 21.1987 78.7922C26.7049 71.0487 47.1522 68.2236 47.1522 68.2236L53.3362 69.1773L59.5202 68.2236C59.5202 68.2236 79.9735 71.0487 85.4797 78.7922C90.9859 86.5296 93.4151 99.9712 93.4151 99.9712Z" fill="#2FB344"/>
<path d="M47.1523 68.2236L39.2349 69.7111C39.2349 69.7111 41.0583 78.6662 48.2979 83.1407L53.2103 77.1187V70.6588L47.1523 68.2236Z" fill="white"/>
<path d="M58.9684 68.2236L66.8858 69.7111C66.8858 69.7111 65.0624 78.6662 57.8228 83.1407L52.9104 77.1187V70.6588L58.9684 68.2236Z" fill="white"/>
<path d="M53.2042 75.0479C50.2052 75.0479 47.776 72.6187 47.776 69.6196V59.249H58.6324V69.6196C58.6324 72.6187 56.2032 75.0479 53.2042 75.0479Z" fill="#F1B69A"/>
<path d="M58.6324 58.0498V64.4197C58.6324 64.4197 56.809 67.5927 53.2042 67.5927C50.3072 67.5927 47.776 64.8456 47.776 64.8456V58.0558H58.6324V58.0498Z" fill="#150A08"/>
<path d="M38.0112 46.8991C35.0781 42.4365 31.6713 45.3036 31.6713 48.4466C31.6713 52.9931 36.6017 56.9098 39.4207 53.6469C42.2398 50.3839 38.0112 46.8991 38.0112 46.8991Z" fill="#F1B69A"/>
<path d="M37.3693 48.962C35.5399 45.5491 33.0147 48.7341 33.9804 49.9996" stroke="#E07E61" stroke-miterlimit="10" stroke-linecap="round"/>
<path d="M67.3416 46.8991C70.2747 42.4365 73.6815 45.3036 73.6815 48.4466C73.6815 52.9931 68.7511 56.9098 65.9321 53.6469C63.113 50.3839 67.3416 46.8991 67.3416 46.8991Z" fill="#F1B69A"/>
<path d="M67.9834 48.962C69.8128 45.5491 72.338 48.7341 71.3723 49.9996" stroke="#E07E61" stroke-miterlimit="10" stroke-linecap="round"/>
<path d="M52.6643 64.4198C41.0641 64.4138 34.2024 51.7399 36.9135 38.7182C39.1508 27.9937 66.2079 27.9937 68.4392 38.7182C71.1503 51.7339 64.2705 64.4198 52.6643 64.4198Z" fill="#F1B69A"/>
<path opacity="0.5" d="M51.1228 51.3859C52.3164 51.9557 55.0095 50.6902 55.0635 51.3859C55.1175 52.0817 53.636 52.6935 53.0962 52.6935C52.5503 52.6935 51.1228 51.3859 51.1228 51.3859Z" fill="#F1B69A"/>
<path d="M51.1588 47.8887C49.4673 51.5475 51.9985 52.2612 52.6763 52.3452" stroke="#E07E61" stroke-miterlimit="10" stroke-linecap="round"/>
<path d="M48.6277 54.3376C53.1082 55.1953 56.6591 54.4816 58.0926 53.3359" stroke="#150A08" stroke-miterlimit="10" stroke-linecap="round"/>
<path d="M48.0879 37.9143C47.3621 36.2949 43.1155 37.0326 42.5157 38.1902C41.9159 39.3419 43.9012 39.6658 45.3767 39.5938C46.8523 39.5158 48.5497 38.946 48.0879 37.9143Z" fill="#150A08"/>
<path d="M57.2649 37.9143C57.9907 36.2949 62.2373 37.0326 62.8371 38.1902C63.4369 39.3419 61.4515 39.6658 59.976 39.5938C58.5005 39.5158 56.8031 38.946 57.2649 37.9143Z" fill="#150A08"/>
<path opacity="0.5" d="M51.6327 56.5438C53.2582 56.5498 55.5854 55.704 55.9453 56.5438C56.3052 57.3835 54.3258 59.0629 53.0902 58.943C51.8606 58.823 49.7733 56.5378 51.6327 56.5438Z" fill="#F1B69A"/>
<path d="M45.0168 44.152C45.0168 44.7938 45.5387 45.3217 46.1865 45.3217C46.8283 45.3217 47.3561 44.7998 47.3561 44.152C47.3561 43.5102 46.8343 42.9824 46.1865 42.9824C45.5387 42.9824 45.0168 43.5102 45.0168 44.152Z" fill="#150A08"/>
<path d="M60.3358 44.152C60.3358 44.7938 59.814 45.3217 59.1662 45.3217C58.5244 45.3217 57.9966 44.7998 57.9966 44.152C57.9966 43.5102 58.5184 42.9824 59.1662 42.9824C59.814 42.9824 60.3358 43.5102 60.3358 44.152Z" fill="#150A08"/>
<path d="M62.9511 30.6757C59.9461 37.4235 53.3602 33.5788 53.3602 33.5788C53.3602 33.5788 49.0416 37.6215 42.4078 36.9797C35.774 36.3319 32.3131 28.3785 40.3925 25.0136C48.4658 21.6427 67.1797 21.1928 62.9511 30.6757Z" fill="#5B4852"/>
</svg>
