<svg width="32" height="32" viewBox="0 0 32 32" fill="none" xmlns="http://www.w3.org/2000/svg">
<path fill-rule="evenodd" clip-rule="evenodd" d="M12.7803 19.2197C13.0732 19.5126 13.0732 19.9874 12.7803 20.2803L9.03033 24.0303C8.73744 24.3232 8.26256 24.3232 7.96967 24.0303C7.67678 23.7374 7.67678 23.2626 7.96967 22.9697L11.7197 19.2197C12.0126 18.9268 12.4874 18.9268 12.7803 19.2197Z" fill="black"/>
<path fill-rule="evenodd" clip-rule="evenodd" d="M7.9955 7.19505C8.30199 6.91642 8.77633 6.93901 9.05496 7.2455L24.055 23.7455C24.3336 24.052 24.311 24.5263 24.0045 24.805C23.698 25.0836 23.2237 25.061 22.9451 24.7545L7.94505 8.25451C7.66642 7.94802 7.68901 7.47368 7.9955 7.19505Z" fill="black"/>
<path fill-rule="evenodd" clip-rule="evenodd" d="M12.4986 11.7718C12.4651 11.7609 12.43 11.7498 12.3933 11.7386C12.0581 11.637 11.5841 11.5308 11.0119 11.5053C9.85447 11.4536 8.32363 11.7348 6.77233 12.9884C6.60847 13.121 6.47399 13.2869 6.37845 13.4748C6.2829 13.6627 6.22803 13.8687 6.21742 14.0792C6.2068 14.2897 6.24068 14.5001 6.31684 14.6967C6.39277 14.8926 6.50903 15.0704 6.65807 15.2186C6.65852 15.219 6.65897 15.2195 6.65943 15.2199L16.7615 25.322C16.9123 25.4747 17.0941 25.5932 17.2946 25.6696C17.4963 25.7464 17.7122 25.7788 17.9276 25.7646C18.143 25.7504 18.3527 25.6898 18.5426 25.5871C18.7323 25.4844 18.8977 25.3419 19.0274 25.1695M12.4986 11.7718C12.7702 11.6601 13.094 11.7145 13.3147 11.9351C13.6076 12.228 13.6076 12.7029 13.3147 12.9958L13.1553 13.1552C12.9279 13.3826 12.581 13.4396 12.293 13.2973L12.2836 13.293C12.2727 13.288 12.2527 13.2791 12.2243 13.2675C12.1673 13.2442 12.0771 13.2102 11.9581 13.1741C11.7194 13.1017 11.3702 13.0228 10.945 13.0038C10.1081 12.9664 8.94844 13.1586 7.71552 14.1547L7.71781 14.157L17.8286 24.2678C18.5203 23.3487 19.3863 21.7639 18.9025 20.2067C18.7796 19.8112 19.0006 19.3909 19.3962 19.268C19.7918 19.1451 20.2121 19.3661 20.335 19.7617C21.0511 22.0669 19.7608 24.1948 19.0274 25.1695" fill="black"/>
<path fill-rule="evenodd" clip-rule="evenodd" d="M18.4206 5.92694C18.6041 5.85011 18.8011 5.81055 19 5.81055C19.1989 5.81055 19.3958 5.85011 19.5793 5.92694C19.7618 6.00333 19.9273 6.11505 20.0664 6.25566L25.7442 11.9335C25.8848 12.0726 25.9966 12.2381 26.073 12.4206C26.1498 12.6041 26.1893 12.801 26.1893 12.9999C26.1893 13.1988 26.1498 13.3958 26.073 13.5792C25.9966 13.7617 25.8848 13.9272 25.7442 14.0663L21.8647 17.9459C21.5718 18.2388 21.0969 18.2388 20.804 17.9459C20.5111 17.653 20.5111 17.1781 20.804 16.8852L24.6893 12.9999L24.6853 12.9959L19 7.31056L18.9959 7.31464L15.4428 10.8677C15.1499 11.1606 14.675 11.1606 14.3821 10.8677C14.0893 10.5749 14.0893 10.1 14.3821 9.80709L17.9336 6.25566C18.0727 6.11505 18.2382 6.00333 18.4206 5.92694Z" fill="black"/>
</svg>
