<svg width="13" height="13" viewBox="0 0 13 13" fill="none" xmlns="http://www.w3.org/2000/svg">
<path fill-rule="evenodd" clip-rule="evenodd" d="M3.05521 0.528587C3.27131 0.500864 3.49054 0.544929 3.67915 0.654005C3.86692 0.762595 4.01398 0.929623 4.09793 1.12957L5.35236 4.0566C5.35254 4.05701 5.35273 4.05743 5.35291 4.05785C5.41785 4.20794 5.445 4.37168 5.43195 4.53471C5.41887 4.6982 5.36578 4.85596 5.27736 4.9941L5.27407 4.99924L4.23227 6.5837C4.69722 7.54265 5.47269 8.31625 6.43274 8.77888L6.43476 8.77751L7.99604 7.73458C8.13459 7.64103 8.29452 7.58393 8.46101 7.5686C8.6275 7.55326 8.79517 7.58019 8.94847 7.64686C8.9491 7.64713 8.94973 7.64741 8.95035 7.64768L11.8702 8.90171C12.07 8.98567 12.237 9.13268 12.3455 9.32038C12.4546 9.50899 12.4987 9.72822 12.4709 9.94432C12.3628 10.7885 11.9507 11.5644 11.3119 12.1267C10.6731 12.689 9.8512 12.9993 9.00011 12.9995C6.61316 12.9995 4.32387 12.0513 2.63604 10.3635C0.948212 8.67567 0 6.38648 0 3.99953C0.000191838 3.14845 0.31049 2.32648 0.872831 1.68764C1.43514 1.04884 2.21109 0.636777 3.05521 0.528587ZM3.78125 6.79953L3.33024 7.01537C3.2564 6.86108 3.22337 6.69042 3.23431 6.51972C3.24525 6.34902 3.2998 6.18398 3.39274 6.04037L3.3947 6.03734L4.43512 4.45493L4.43417 4.45274L3.17793 1.52149C2.5767 1.59964 2.02411 1.8932 1.62345 2.34837C1.2218 2.80466 1.00016 3.39165 1 3.99953M3.78125 6.79953L3.33124 7.01745C3.89498 8.18163 4.83636 9.1206 6.00199 9.68135L6.00477 9.68268C6.16172 9.757 6.33531 9.78916 6.50846 9.77601C6.68117 9.76289 6.8475 9.70515 6.99116 9.60843C6.99153 9.60818 6.9919 9.60793 6.99227 9.60768L8.55273 8.5653L11.4777 9.82145L11.4785 9.82181C11.4003 10.423 11.1063 10.9754 10.6512 11.3761C10.1949 11.7777 9.60788 11.9994 9 11.9995M1 3.99953C1.00003 6.12122 1.84288 8.15612 3.34315 9.65639C4.84341 11.1567 6.87831 11.9995 9 11.9995" fill="#676767"/>
</svg>
