<svg width="24" height="24" viewBox="0 0 24 24" fill="none" xmlns="http://www.w3.org/2000/svg">
<path fill-rule="evenodd" clip-rule="evenodd" d="M6.97631 14.3098C7.60143 13.6847 8.44928 13.3335 9.33333 13.3335H14.6667C15.5507 13.3335 16.3986 13.6847 17.0237 14.3098C17.6488 14.9349 18 15.7828 18 16.6668V18.0002C18 18.3684 17.7015 18.6668 17.3333 18.6668C16.9651 18.6668 16.6667 18.3684 16.6667 18.0002V16.6668C16.6667 16.1364 16.456 15.6277 16.0809 15.2526C15.7058 14.8775 15.1971 14.6668 14.6667 14.6668H9.33333C8.8029 14.6668 8.29419 14.8775 7.91912 15.2526C7.54405 15.6277 7.33333 16.1364 7.33333 16.6668V18.0002C7.33333 18.3684 7.03486 18.6668 6.66667 18.6668C6.29848 18.6668 6 18.3684 6 18.0002V16.6668C6 15.7828 6.35119 14.9349 6.97631 14.3098Z" fill="#262626"/>
<path fill-rule="evenodd" clip-rule="evenodd" d="M6.97631 14.3098C7.60143 13.6847 8.44928 13.3335 9.33333 13.3335H14.6667C15.5507 13.3335 16.3986 13.6847 17.0237 14.3098C17.6488 14.9349 18 15.7828 18 16.6668V18.0002C18 18.3684 17.7015 18.6668 17.3333 18.6668C16.9651 18.6668 16.6667 18.3684 16.6667 18.0002V16.6668C16.6667 16.1364 16.456 15.6277 16.0809 15.2526C15.7058 14.8775 15.1971 14.6668 14.6667 14.6668H9.33333C8.8029 14.6668 8.29419 14.8775 7.91912 15.2526C7.54405 15.6277 7.33333 16.1364 7.33333 16.6668V18.0002C7.33333 18.3684 7.03486 18.6668 6.66667 18.6668C6.29848 18.6668 6 18.3684 6 18.0002V16.6668C6 15.7828 6.35119 14.9349 6.97631 14.3098Z" fill="white" fill-opacity="0.1"/>
<path fill-rule="evenodd" clip-rule="evenodd" d="M12 6.66683C10.8954 6.66683 9.99996 7.56226 9.99996 8.66683C9.99996 9.7714 10.8954 10.6668 12 10.6668C13.1045 10.6668 14 9.7714 14 8.66683C14 7.56226 13.1045 6.66683 12 6.66683ZM8.66663 8.66683C8.66663 6.82588 10.159 5.3335 12 5.3335C13.8409 5.3335 15.3333 6.82588 15.3333 8.66683C15.3333 10.5078 13.8409 12.0002 12 12.0002C10.159 12.0002 8.66663 10.5078 8.66663 8.66683Z" fill="#262626"/>
<path fill-rule="evenodd" clip-rule="evenodd" d="M12 6.66683C10.8954 6.66683 9.99996 7.56226 9.99996 8.66683C9.99996 9.7714 10.8954 10.6668 12 10.6668C13.1045 10.6668 14 9.7714 14 8.66683C14 7.56226 13.1045 6.66683 12 6.66683ZM8.66663 8.66683C8.66663 6.82588 10.159 5.3335 12 5.3335C13.8409 5.3335 15.3333 6.82588 15.3333 8.66683C15.3333 10.5078 13.8409 12.0002 12 12.0002C10.159 12.0002 8.66663 10.5078 8.66663 8.66683Z" fill="white" fill-opacity="0.1"/>
</svg>
