<svg width="20" height="20" viewBox="0 0 20 20" fill="none" xmlns="http://www.w3.org/2000/svg">
<path fill-rule="evenodd" clip-rule="evenodd" d="M6.25 11.25C5.21447 11.25 4.375 12.0895 4.375 13.125C4.375 14.1605 5.21447 15 6.25 15C7.28553 15 8.125 14.1605 8.125 13.125C8.125 12.0895 7.28553 11.25 6.25 11.25ZM3.125 13.125C3.125 11.3991 4.52411 10 6.25 10C7.97589 10 9.375 11.3991 9.375 13.125C9.375 14.8509 7.97589 16.25 6.25 16.25C4.52411 16.25 3.125 14.8509 3.125 13.125Z" fill="#1D9752"/>
<path fill-rule="evenodd" clip-rule="evenodd" d="M6.25004 16.25C5.61935 16.25 4.99733 16.3968 4.43323 16.6789C3.86913 16.9609 3.37845 17.3705 3.00004 17.875C2.79293 18.1511 2.40118 18.2071 2.12504 18C1.84889 17.7929 1.79293 17.4011 2.00004 17.125C2.49488 16.4652 3.13654 15.9297 3.87421 15.5609C4.61188 15.192 5.4253 15 6.25004 15C7.07478 15 7.88819 15.192 8.62586 15.5609C9.36353 15.9297 10.0052 16.4652 10.5 17.125C10.7071 17.4011 10.6512 17.7929 10.375 18C10.0989 18.2071 9.70714 18.1511 9.50004 17.875C9.12163 17.3705 8.63094 16.9609 8.06684 16.6789C7.50274 16.3968 6.88072 16.25 6.25004 16.25Z" fill="#1D9752"/>
<path fill-rule="evenodd" clip-rule="evenodd" d="M6.25 3.125C5.21447 3.125 4.375 3.96447 4.375 5C4.375 6.03553 5.21447 6.875 6.25 6.875C7.28553 6.875 8.125 6.03553 8.125 5C8.125 3.96447 7.28553 3.125 6.25 3.125ZM3.125 5C3.125 3.27411 4.52411 1.875 6.25 1.875C7.97589 1.875 9.375 3.27411 9.375 5C9.375 6.72589 7.97589 8.125 6.25 8.125C4.52411 8.125 3.125 6.72589 3.125 5Z" fill="#1D9752"/>
<path fill-rule="evenodd" clip-rule="evenodd" d="M6.25004 8.125C5.61935 8.125 4.99733 8.27184 4.43323 8.55389C3.86913 8.83594 3.37845 9.24545 3.00004 9.75C2.79293 10.0261 2.40118 10.0821 2.12504 9.875C1.84889 9.66789 1.79293 9.27614 2.00004 9C2.49488 8.34021 3.13654 7.80469 3.87421 7.43586C4.61188 7.06702 5.4253 6.875 6.25004 6.875C7.07478 6.875 7.88819 7.06702 8.62586 7.43586C9.36353 7.80469 10.0052 8.34021 10.5 9C10.7071 9.27614 10.6512 9.66789 10.375 9.875C10.0989 10.0821 9.70714 10.0261 9.50004 9.75C9.12163 9.24545 8.63094 8.83594 8.06684 8.55389C7.50274 8.27184 6.88072 8.125 6.25004 8.125Z" fill="#1D9752"/>
<path fill-rule="evenodd" clip-rule="evenodd" d="M13.75 11.25C12.7145 11.25 11.875 12.0895 11.875 13.125C11.875 14.1605 12.7145 15 13.75 15C14.7855 15 15.625 14.1605 15.625 13.125C15.625 12.0895 14.7855 11.25 13.75 11.25ZM10.625 13.125C10.625 11.3991 12.0241 10 13.75 10C15.4759 10 16.875 11.3991 16.875 13.125C16.875 14.8509 15.4759 16.25 13.75 16.25C12.0241 16.25 10.625 14.8509 10.625 13.125Z" fill="#1D9752"/>
<path fill-rule="evenodd" clip-rule="evenodd" d="M13.75 16.25C13.1194 16.25 12.4973 16.3968 11.9332 16.6789C11.3691 16.9609 10.8784 17.3705 10.5 17.875C10.2929 18.1511 9.90118 18.2071 9.62504 18C9.34889 17.7929 9.29293 17.4011 9.50004 17.125C9.99488 16.4652 10.6365 15.9297 11.3742 15.5609C12.1119 15.192 12.9253 15 13.75 15C14.5748 15 15.3882 15.192 16.1259 15.5609C16.8635 15.9297 17.5052 16.4652 18 17.125C18.2071 17.4011 18.1512 17.7929 17.875 18C17.5989 18.2071 17.2071 18.1511 17 17.875C16.6216 17.3705 16.1309 16.9609 15.5668 16.6789C15.0027 16.3968 14.3807 16.25 13.75 16.25Z" fill="#1D9752"/>
<path fill-rule="evenodd" clip-rule="evenodd" d="M13.75 3.125C12.7145 3.125 11.875 3.96447 11.875 5C11.875 6.03553 12.7145 6.875 13.75 6.875C14.7855 6.875 15.625 6.03553 15.625 5C15.625 3.96447 14.7855 3.125 13.75 3.125ZM10.625 5C10.625 3.27411 12.0241 1.875 13.75 1.875C15.4759 1.875 16.875 3.27411 16.875 5C16.875 6.72589 15.4759 8.125 13.75 8.125C12.0241 8.125 10.625 6.72589 10.625 5Z" fill="#1D9752"/>
<path fill-rule="evenodd" clip-rule="evenodd" d="M13.75 8.125C13.1194 8.125 12.4973 8.27184 11.9332 8.55389C11.3691 8.83594 10.8784 9.24545 10.5 9.75C10.2929 10.0261 9.90118 10.0821 9.62504 9.875C9.34889 9.66789 9.29293 9.27614 9.50004 9C9.99488 8.34021 10.6365 7.80469 11.3742 7.43586C12.1119 7.06702 12.9253 6.875 13.75 6.875C14.5748 6.875 15.3882 7.06702 16.1259 7.43586C16.8635 7.80469 17.5052 8.34021 18 9C18.2071 9.27614 18.1512 9.66789 17.875 9.875C17.5989 10.0821 17.2071 10.0261 17 9.75C16.6216 9.24545 16.1309 8.83594 15.5668 8.55389C15.0027 8.27184 14.3807 8.125 13.75 8.125Z" fill="#1D9752"/>
</svg>
