<svg width="24" height="28" viewBox="0 0 24 28" fill="none" xmlns="http://www.w3.org/2000/svg">
<path d="M11.9863 27.0244C11.632 27.0244 11.3001 26.8519 11.0957 26.5612L7.2651 21.09C7.24072 21.0562 7.21822 21.0187 7.1976 20.9812L7.13197 20.8612L7.04947 20.97C6.8451 21.2344 6.52447 21.3919 6.19072 21.3919H1.0851C0.678223 21.3919 0.308848 21.1669 0.123223 20.8069C-0.0642766 20.4469 -0.0361517 20.0156 0.196348 19.6819L4.51447 13.5112L0.196348 7.34625C-0.0361517 7.01437 -0.0642766 6.58312 0.123223 6.22125C0.310723 5.85937 0.680098 5.63625 1.08697 5.63625H6.19635C6.52822 5.63625 6.84697 5.79187 7.05135 6.05437L7.13572 6.16312L7.20135 6.04124C7.2201 6.00749 7.24072 5.97187 7.26885 5.93249L11.0976 0.46312C11.3001 0.172495 11.632 0 11.9863 0C12.3407 0 12.6745 0.174371 12.8751 0.464996L16.7057 5.93437C16.7282 5.96812 16.7507 6.00374 16.7732 6.04124L16.8388 6.15937L16.9232 6.05249C17.1313 5.78624 17.4426 5.63437 17.7801 5.63437H22.8876C23.2945 5.63437 23.6638 5.85937 23.8513 6.21937C24.0388 6.57937 24.0107 7.01062 23.7782 7.34437L19.4582 13.5112L23.7857 19.68C24.0201 20.0137 24.0482 20.445 23.8607 20.805C23.6732 21.1669 23.3057 21.39 22.8988 21.39H17.7913C17.4557 21.39 17.1332 21.2306 16.927 20.9625L16.8407 20.8481L16.777 20.9756C16.7601 21.0112 16.7376 21.0469 16.7095 21.0881L12.8788 26.5594C12.6745 26.85 12.3407 27.0244 11.9863 27.0244Z" fill="white"/>
<path d="M9.24132 11.6175H7.72444C7.58569 11.6175 7.45632 11.55 7.37569 11.4356L5.24194 8.38873H4.20319L6.93319 12.285C7.01194 12.3993 7.14319 12.4669 7.28194 12.4669H10.4319C10.5707 12.4669 10.7019 12.5343 10.7807 12.6487L16.0832 20.2218C16.1863 20.3681 16.1863 20.5631 16.0832 20.7093L12.2526 26.1806C12.0838 26.4225 11.7257 26.4225 11.5551 26.1806L7.72444 20.7093C7.62132 20.5631 7.62132 20.3681 7.72444 20.2218L9.76069 17.3156C9.92944 17.0737 10.2876 17.0737 10.4563 17.3137L11.2157 18.3937C11.3188 18.54 11.3188 18.735 11.2157 18.8831L10.2782 20.2218C10.1751 20.3681 10.1751 20.5631 10.2782 20.7093L11.9038 23.0306L13.5294 20.7093C13.6326 20.5631 13.6326 20.3681 13.5294 20.2218L9.69132 14.7412C9.61069 14.6269 9.48132 14.5593 9.34257 14.5593H7.27819C7.13944 14.5593 7.01007 14.6269 6.92944 14.7412L4.19757 18.6412L5.23819 18.6375L7.37194 15.5925C7.45257 15.48 7.58194 15.4125 7.72069 15.4125H8.89819C9.03694 15.4125 9.16632 15.48 9.24694 15.5943L9.41569 15.8362C9.51694 15.9825 9.51694 16.1775 9.41569 16.3237L6.45507 20.5519C6.37632 20.6662 6.24507 20.7337 6.10632 20.7337H1.00257C0.659443 20.7337 0.456943 20.3456 0.653818 20.0643L5.06569 13.7587C5.16882 13.6125 5.16882 13.4175 5.06569 13.2712L0.655693 6.96747C0.458818 6.68622 0.659443 6.2981 1.00444 6.2981H6.11382C6.25257 6.2981 6.38194 6.3656 6.46257 6.47998L9.59194 10.95C9.78694 11.2293 9.58632 11.6175 9.24132 11.6175Z" fill="#ED3938"/>
<path d="M14.5776 15.4087H16.0926C16.2313 15.4087 16.3607 15.4762 16.4413 15.5906L18.5751 18.6374H19.6138L16.8838 14.7412C16.8051 14.6268 16.6738 14.5593 16.5351 14.5593H13.3851C13.2463 14.5593 13.1151 14.4918 13.0363 14.3793L7.72447 6.80055C7.62134 6.6543 7.62134 6.45931 7.72447 6.31306L11.5551 0.841807C11.7238 0.599932 12.082 0.599932 12.2507 0.841807L16.0813 6.31306C16.1845 6.45931 16.1845 6.6543 16.0813 6.80055L14.047 9.7068C13.8763 9.94868 13.5182 9.94868 13.3495 9.7068L12.592 8.62493C12.4888 8.47868 12.4888 8.28368 12.592 8.13743L13.5257 6.80243C13.6288 6.65618 13.6288 6.46118 13.5257 6.31493L11.9001 3.9918L10.2745 6.31306C10.1713 6.45931 10.1713 6.6543 10.2745 6.80055L14.122 12.2849C14.2026 12.3993 14.332 12.4668 14.4707 12.4668H16.522C16.6607 12.4668 16.792 12.3993 16.8707 12.2849L19.5988 8.38868H18.5601L16.4263 11.4356C16.3476 11.5499 16.2163 11.6174 16.0776 11.6174H14.9057C14.767 11.6174 14.6357 11.5499 14.557 11.4356L14.3845 11.1899C14.2813 11.0437 14.2813 10.8487 14.3845 10.7024L17.3432 6.47806C17.4238 6.36556 17.5532 6.29618 17.692 6.29618H22.7995C23.1426 6.29618 23.3451 6.6843 23.1482 6.96555L18.7345 13.2674C18.6313 13.4137 18.6313 13.6087 18.7345 13.7549L23.1576 20.0587C23.3563 20.3399 23.1538 20.7281 22.8107 20.7281H17.7032C17.5645 20.7281 17.4351 20.6606 17.3545 20.5462L14.2251 16.0781C14.032 15.7968 14.2326 15.4087 14.5776 15.4087Z" fill="#ED3938"/>
</svg>
