<svg width="20" height="16" viewBox="0 0 20 16" fill="none" xmlns="http://www.w3.org/2000/svg">
<path d="M18.3333 0.5H5.83333C5.25833 0.5 4.80833 0.791667 4.50833 1.23333L0 8L4.50833 14.7583C4.80833 15.2 5.25833 15.5 5.83333 15.5H18.3333C19.25 15.5 20 14.75 20 13.8333V2.16667C20 1.25 19.25 0.5 18.3333 0.5ZM18.3333 13.8333H5.89167L2 8L5.88333 2.16667H18.3333V13.8333ZM8.675 12.1667L11.6667 9.175L14.6583 12.1667L15.8333 10.9917L12.8417 8L15.8333 5.00833L14.6583 3.83333L11.6667 6.825L8.675 3.83333L7.5 5.00833L10.4917 8L7.5 10.9917L8.675 12.1667Z" fill="#C70404"/>
</svg>
