<svg width="266" height="266" viewBox="0 0 266 266" fill="none" xmlns="http://www.w3.org/2000/svg">
<path d="M45.9114 238.123C-2.1814 210.353 -2.1814 165.346 45.9114 137.575C94.0042 109.805 171.995 109.805 220.088 137.575C268.181 165.346 268.181 210.353 220.088 238.123C171.995 265.894 94.0042 265.894 45.9114 238.123Z" fill="#F5F5F5"/>
<path d="M84.3755 239.454C105.236 239.454 122.148 229.688 122.148 217.642C122.148 205.595 105.236 195.83 84.3755 195.83C63.5146 195.83 46.6035 205.595 46.6035 217.642C46.6035 229.688 63.5146 239.454 84.3755 239.454Z" fill="#E0E0E0"/>
<path d="M171.761 207.454C197.958 193.326 213.497 171.306 206.468 158.271C199.438 145.237 172.502 146.124 146.305 160.253C120.107 174.382 104.568 196.402 111.597 209.436C118.627 222.47 145.563 221.583 171.761 207.454Z" fill="#E0E0E0"/>
<path d="M197.851 176.464C203.117 170.24 211.31 166.144 220.514 163.75C229.611 161.356 231.26 155.77 225.195 153.961C218.333 151.886 209.821 155.663 204.288 160.983C194.712 170.187 193.488 177.209 193.488 177.209L197.851 176.464Z" fill="#1D9752"/>
<path opacity="0.15" d="M197.851 176.464C203.117 170.24 211.31 166.144 220.514 163.75C229.611 161.356 231.26 155.77 225.195 153.961C218.333 151.886 209.821 155.663 204.288 160.983C194.712 170.187 193.488 177.209 193.488 177.209L197.851 176.464Z" fill="black"/>
<path d="M195.138 176.092C195.085 176.092 195.085 176.092 195.031 176.039C194.925 175.986 194.819 175.826 194.925 175.666C202.692 159.706 219.929 155.77 224.079 156.089C224.238 156.089 224.345 156.248 224.345 156.355C224.345 156.514 224.185 156.621 224.079 156.621C219.982 156.302 203.065 160.185 195.404 175.932C195.297 176.039 195.244 176.092 195.138 176.092Z" fill="white"/>
<path d="M193.489 178.113C193.489 179.231 194.712 179.922 195.67 179.337C200.564 176.517 207.64 174.921 219.131 178.22C225.249 179.975 228.282 178.805 229.558 176.305C230.995 173.538 227.962 170.878 224.504 169.601C212.747 165.292 202.107 168.218 193.436 176.837L193.489 178.113Z" fill="#1D9752"/>
<path d="M194.18 178.379C194.127 178.379 194.021 178.326 193.967 178.273C193.861 178.166 193.861 178.007 193.967 177.9C204.129 168.803 219.876 170.559 225.834 174.123C225.941 174.176 225.994 174.336 225.941 174.496C225.887 174.602 225.728 174.655 225.568 174.602C219.716 171.144 204.288 169.388 194.34 178.326C194.287 178.326 194.233 178.379 194.18 178.379Z" fill="white"/>
<path d="M79.7471 199.34C75.2783 192.531 67.6175 187.53 58.7331 184.019C49.9551 180.614 48.9975 174.815 55.2219 173.751C62.2443 172.528 70.2775 177.262 75.1719 183.168C83.6307 193.435 84.0031 200.564 84.0031 200.564L79.7471 199.34Z" fill="#1D9752"/>
<path opacity="0.15" d="M79.7471 199.34C75.2783 192.531 67.6175 187.53 58.7331 184.019C49.9551 180.614 48.9975 174.815 55.2219 173.751C62.2443 172.528 70.2775 177.262 75.1719 183.168C83.6307 193.435 84.0031 200.564 84.0031 200.564L79.7471 199.34Z" fill="black"/>
<path d="M82.4598 199.287C82.513 199.287 82.513 199.287 82.5662 199.287C82.7258 199.234 82.779 199.074 82.7258 198.968C76.8738 182.21 60.2754 176.251 56.0726 176.092C55.913 176.092 55.8066 176.198 55.8066 176.358C55.8066 176.517 55.913 176.624 56.0726 176.624C60.169 176.783 76.5014 182.635 82.247 199.181C82.3002 199.181 82.4066 199.287 82.4598 199.287Z" fill="white"/>
<path d="M84.0027 200.192C83.7899 201.841 81.9279 202.692 80.5447 201.788C76.0227 198.755 69.3195 196.787 58.3071 198.596C52.0295 199.606 49.1567 198.117 48.1991 195.457C47.0819 192.531 50.4335 190.243 53.9979 189.392C66.2339 186.466 76.4483 190.669 84.0027 200.192Z" fill="#1D9752"/>
<path d="M83.1512 201.628C83.2044 201.628 83.3108 201.628 83.364 201.575C83.4704 201.469 83.4704 201.309 83.364 201.203C74.32 190.988 58.5196 190.882 52.1356 193.702C51.976 193.755 51.9228 193.914 51.976 194.074C52.0292 194.234 52.1888 194.287 52.3484 194.234C58.5728 191.467 74.1072 191.574 82.9384 201.628C83.0448 201.575 83.098 201.628 83.1512 201.628Z" fill="white"/>
<path d="M202.586 77.7784L202.479 77.7252L182.21 66.0744L182.104 66.0212C172.634 61.2332 159.973 62.6696 146.407 71.4476C119.115 89.11 98.2606 129.755 99.9098 162.26C100.708 178.433 106.985 189.552 116.402 194.446L116.508 194.499L136.777 206.15L136.884 206.203C146.353 210.991 159.015 209.555 172.634 200.777C199.926 183.114 220.78 142.47 219.131 109.964C218.28 93.7384 212.055 82.6196 202.586 77.7784Z" fill="#545D62"/>
<path d="M136.085 205.777L116.508 194.446L116.401 194.393C106.985 189.498 100.707 178.379 99.9093 162.207C99.1645 147.736 102.942 131.617 109.698 116.667L109.858 116.348L130.02 128.371C123.211 143.321 119.487 159.44 120.232 173.911C120.976 189.764 126.988 200.723 136.085 205.777Z" fill="#5D6A71"/>
<path d="M172.58 200.724C199.872 183.061 220.726 142.416 219.077 109.911C217.428 77.4061 193.967 65.3829 166.675 83.0453C139.384 100.708 118.529 141.352 120.178 173.858C121.828 206.363 145.289 218.386 172.58 200.724Z" fill="#AFB2B4"/>
<path d="M195.722 75.2246L161.515 145.768L154.12 137.788C151.832 135.341 148.587 133.904 145.236 133.904C142.203 133.904 139.277 135.021 136.99 137.096C132.095 141.618 131.776 149.279 136.298 154.227L155.716 175.241C157.844 177.581 160.77 178.965 163.962 179.124C164.175 179.124 164.388 179.124 164.654 179.124C165.239 179.124 165.824 179.071 166.409 179.018C170.399 178.433 173.804 175.932 175.506 172.315L214.768 91.4506C210.778 82.4598 204.075 76.8738 195.722 75.2246Z" fill="#37474F"/>
<path d="M223.546 52.0295C223.333 51.9231 223.12 51.8167 222.907 51.6571C217.694 49.1567 211.363 51.2847 208.863 56.4983L165.292 146.247L162.791 143.587C162.047 142.789 161.195 142.15 160.344 141.618C159.067 140.873 153.535 137.681 152.63 137.149C148.747 134.915 143.693 135.341 140.235 138.533C135.979 142.469 135.713 149.119 139.649 153.375L159.067 174.389C159.812 175.187 160.663 175.879 161.568 176.358C162.845 177.103 168.324 180.295 169.229 180.773C170.665 181.571 172.261 182.103 173.91 182.157C174.602 182.21 175.293 182.157 176.038 182.05C179.496 181.518 182.475 179.39 183.965 176.251L235.516 70.1175C237.91 65.1167 236.048 59.1583 231.313 56.3919C231.047 56.3387 224.929 52.8275 223.546 52.0295Z" fill="#1D9752"/>
<path opacity="0.15" d="M223.546 52.0295C223.333 51.9231 223.12 51.8167 222.907 51.6571C217.694 49.1567 211.363 51.2847 208.863 56.4983L165.292 146.247L162.791 143.587C162.047 142.789 161.195 142.15 160.344 141.618C159.067 140.873 153.535 137.681 152.63 137.149C148.747 134.915 143.693 135.341 140.235 138.533C135.979 142.469 135.713 149.119 139.649 153.375L159.067 174.389C159.812 175.187 160.663 175.879 161.568 176.358C162.845 177.103 168.324 180.295 169.229 180.773C170.665 181.571 172.261 182.103 173.91 182.157C174.602 182.21 175.293 182.157 176.038 182.05C179.496 181.518 182.475 179.39 183.965 176.251L235.516 70.1175C237.91 65.1167 236.048 59.1583 231.313 56.3919C231.047 56.3387 224.929 52.8275 223.546 52.0295Z" fill="black"/>
<path opacity="0.15" d="M169.175 180.827C168.271 180.295 162.791 177.103 161.514 176.411C160.61 175.879 159.759 175.241 159.014 174.443L139.596 153.429C138.691 152.471 138.053 151.354 137.574 150.237L145.288 154.706C145.767 155.876 146.405 156.94 147.31 157.898L166.728 178.912C167.473 179.656 168.271 180.295 169.175 180.827Z" fill="black"/>
<path opacity="0.15" d="M218.97 57.775C217.959 58.6794 217.161 59.7434 216.523 61.0202L171.729 153.322L165.238 146.3L208.809 56.5514C209.394 55.2746 210.245 54.2106 211.256 53.3062L218.97 57.775Z" fill="black"/>
<path d="M230.621 56.1258C225.408 53.6254 219.077 55.7534 216.576 60.967L171.782 153.269L162.791 143.587C158.854 139.331 152.204 139.065 147.948 143.001C143.692 146.938 143.426 153.588 147.363 157.844L166.781 178.858C168.643 180.88 171.197 182.05 173.91 182.21C174.602 182.263 175.293 182.21 176.038 182.103C179.496 181.571 182.475 179.443 183.965 176.305L235.516 70.1706C238.016 64.957 235.835 58.6794 230.621 56.1258Z" fill="#1D9752"/>
<path d="M83.63 66.4996C79.5868 66.4996 76.7672 67.5636 73.8944 71.66C71.2344 75.4372 63.9992 87.9924 63.9992 87.9924C63.9992 87.9924 58.6792 77.0864 58.1472 74.9052C57.6152 72.724 57.6684 71.7664 58.1472 70.8088C58.7856 69.6384 59.3708 68.6276 59.4772 67.0848C59.69 64.478 60.3284 62.2436 59.7432 62.1372C58.094 62.0308 58.0408 64.1056 57.1896 65.3824C56.8704 65.808 55.9128 65.8612 55.5404 65.2228C55.168 64.478 55.3808 63.3076 55.2212 62.4564C55.2744 61.7116 55.3808 61.4456 55.434 61.02C55.9128 61.1264 56.5512 61.1264 57.296 61.0732C57.9876 62.1904 58.4664 62.616 59.4772 62.1904C59.5836 61.9776 59.0516 60.5944 58.4132 59.5304C58.3068 59.3708 58.1472 59.2644 57.9876 59.2112C57.03 58.9452 55.9128 58.892 54.37 59.1048C54.2104 59.158 53.9976 59.2112 53.8912 59.3708C53.306 60.222 52.9868 61.0732 52.8272 61.4988C52.774 61.7116 52.5612 61.7116 52.508 61.4988C51.976 58.9452 51.976 55.2744 51.976 53.572C51.976 52.242 50.0076 52.0292 49.9544 53.9444C49.9012 55.9128 49.848 59.5836 50.0608 61.7116C50.114 61.9244 49.848 62.0308 49.7416 61.818C49.4224 60.9136 48.5712 58.1472 48.1988 53.4124C48.0924 52.1356 46.0176 51.9228 46.0708 53.7316C46.124 58.626 47.2412 63.2012 47.2412 63.2012C47.2944 63.414 47.0816 63.6268 46.922 63.3608C46.2304 62.2436 45.1664 59.424 44.6344 57.5088C44.2088 55.966 42.134 56.3384 42.5064 58.2536C43.1448 61.7116 44.1556 66.074 45.6984 69.1596C47.3476 72.5112 48.7308 74.1604 49.5288 76.7672C50.3268 79.374 53.6784 94.1636 57.2428 99.9624C60.0624 104.484 63.2544 104.059 66.7124 101.665C70.1704 99.2708 82.5128 82.0872 82.5128 82.0872L83.63 66.4996Z" fill="#9E6767"/>
<path d="M63.999 87.9926C63.999 87.9926 65.7546 90.9186 65.9674 93.2594C65.9674 93.2594 66.8186 89.9078 64.7438 86.6626L63.999 87.9926Z" fill="#874C4C"/>
<path d="M84.4812 66.4995C82.4064 66.2867 79.8528 66.2335 76.98 68.0423C74.1072 69.8511 73.0964 72.3515 71.7132 74.5327C70.33 76.7139 65.542 84.5343 65.542 84.5343C65.542 84.5343 67.2976 91.9291 74.32 93.4719L84.8004 79.2675L84.4812 66.4995Z" fill="#455A64"/>
<path d="M93.8968 196.415C94.4288 196.362 95.1204 198.17 95.1204 198.756C95.1204 199.341 94.5352 200.618 93.7372 201.788C92.9392 202.958 91.8752 204.448 91.1836 206.363C90.5984 208.012 90.0133 209.076 88.364 211.204C86.5021 213.598 82.1396 217.588 75.4896 215.833C73.8936 215.407 73.0424 214.875 72.4572 214.29C71.9784 213.811 71.7124 212.96 71.9784 212.268L93.8968 196.415Z" fill="#263238"/>
<path d="M80.8633 194.34V194.393C80.7569 194.872 80.8633 195.404 80.9165 195.883C81.1293 197.638 80.9165 199.447 80.2249 201.043C79.7993 202.16 79.1609 203.171 78.3629 204.075C77.5649 204.98 76.2881 205.937 75.2773 206.576C71.9257 208.704 71.5533 210.14 72.0321 212.321C73.1493 214.822 80.8101 216.365 85.1725 212.641C86.8749 211.151 88.2049 209.874 89.3221 206.948C90.1201 204.927 90.7585 203.756 91.5565 202.267C92.4077 200.671 94.0037 198.862 94.0569 197.213C94.0569 196.308 93.2057 194.606 92.3013 193.223C91.5033 191.946 90.7053 190.722 89.9605 190.882L90.1733 191.627C89.5881 192.265 88.6837 192.478 88.2049 193.223C87.5665 194.127 87.5665 195.351 87.1941 196.361C87.1409 196.468 87.0877 196.574 86.9813 196.574C86.8749 196.627 86.7685 196.521 86.7153 196.415C86.6621 196.308 86.6621 196.202 86.6621 196.095C86.6621 195.563 86.6089 195.085 86.6089 194.553C86.6089 194.233 86.5557 193.914 86.3961 193.701C85.9705 193.223 84.9597 193.276 84.3745 193.276C83.5765 193.223 82.8317 193.382 82.0869 193.435C81.8209 193.435 81.6081 193.435 81.3421 193.648C81.0761 193.861 80.9165 194.074 80.8633 194.34Z" fill="#37474F"/>
<path d="M69.5847 163.43C71.3403 169.229 79.6395 189.445 80.1183 190.616C80.5971 191.839 81.7675 194.606 81.7675 194.606C81.7675 194.606 83.0975 195.138 85.1191 194.765C85.2787 196.68 85.5979 199.713 85.7043 201.256C85.7575 203.011 85.9171 205.192 85.4915 206.948C85.1723 208.438 84.7999 209.98 84.5339 211.523C84.4275 212.162 84.2679 212.853 84.1615 213.492C84.0551 214.183 84.0019 214.981 84.3211 215.566C84.4807 215.886 84.7467 216.098 84.9595 216.311C86.1299 217.269 87.6727 217.641 89.1091 217.535C89.9071 217.482 90.7051 217.269 91.3435 216.79C92.6203 215.886 93.0991 214.29 93.7375 212.906C94.4291 211.417 94.2163 211.257 94.2695 209.661C94.3227 208.544 94.6419 205.724 95.0675 202.798C95.4931 199.872 97.4083 189.552 98.3127 179.231C98.9511 172.102 98.3127 165.505 98.3127 165.505C105.601 145.768 108.793 134.011 109.751 127.467C110.708 120.817 110.229 118.423 110.123 114.593L74.7983 115.444C72.0851 133.851 67.1907 155.61 69.5847 163.43Z" fill="#9E6767"/>
<path d="M69.053 148.853C69.7978 142.15 74.7986 116.348 74.7986 116.348H110.389C110.389 116.348 110.602 121.296 110.549 123.583C110.496 125.871 109.751 130.021 108.474 135.287C107.197 140.554 102.516 155.45 101.558 157.631C100.654 159.813 98.8982 166.197 98.8982 166.197C99.7494 178.113 97.515 188.86 95.8126 203.064C95.8126 203.064 95.3338 204.979 90.2798 204.607C85.3854 204.235 84.3746 202.426 84.3746 202.426L84.0554 190.137C84.0554 190.137 81.3954 190.935 79.7994 190.562C79.7994 190.562 69.2658 164.547 68.7338 163.005C68.255 161.409 68.3082 155.557 69.053 148.853Z" fill="#1D9752"/>
<path opacity="0.45" d="M69.053 148.853C69.7978 142.15 74.7986 116.348 74.7986 116.348H110.389C110.389 116.348 110.602 121.296 110.549 123.583C110.496 125.871 109.751 130.021 108.474 135.287C107.197 140.554 102.516 155.45 101.558 157.631C100.654 159.813 98.8982 166.197 98.8982 166.197C99.7494 178.113 97.515 188.86 95.8126 203.064C95.8126 203.064 95.3338 204.979 90.2798 204.607C85.3854 204.235 84.3746 202.426 84.3746 202.426L84.0554 190.137C84.0554 190.137 81.3954 190.935 79.7994 190.562C79.7994 190.562 69.2658 164.547 68.7338 163.005C68.255 161.409 68.3082 155.557 69.053 148.853Z" fill="black"/>
<path opacity="0.2" d="M84.1614 133.16C79.1074 128.638 77.9902 125.02 77.9902 125.02C81.7674 129.436 86.8746 132.149 86.8746 132.149C86.8746 132.149 82.0866 157.419 82.459 162.632C82.8314 167.846 84.1082 190.19 84.1082 190.19C84.1082 190.403 80.7034 166.569 80.597 164.654C80.331 159.547 84.1614 133.16 84.1614 133.16Z" fill="black"/>
<path d="M95.2268 215.726C95.7056 215.886 95.6524 217.322 95.4396 217.907C95.2268 218.439 94.3224 219.503 93.152 220.301C91.9816 221.099 90.8644 222.163 89.8004 223.919C89.0556 225.142 87.0872 227.536 84.4804 229.079C81.8736 230.622 78.0432 231.207 75.1704 230.356C71.8188 229.398 71.4996 228.6 71.5528 227.324L95.2268 215.726Z" fill="#263238"/>
<path d="M84.9064 207.959C84.0552 212.215 82.5124 215.354 78.948 217.961C76.1284 220.035 74.1068 221.099 71.8192 222.961C70.8616 223.759 70.8084 225.462 71.5 227.271C73.0428 228.494 75.1708 229.186 78.0968 229.186C81.342 229.186 82.5656 228.601 84.4276 227.324C85.4916 226.579 86.2364 225.941 86.9812 225.196C88.524 223.653 89.6412 221.685 90.7584 220.461C91.8756 219.237 94.3228 217.961 95.0144 216.471C95.3868 215.673 95.2272 213.758 94.9612 212.109C94.7484 210.619 95.174 208.012 94.4824 207.853L94.376 208.917C94.3228 209.183 94.1632 209.289 93.6844 209.449C93.3652 209.555 92.6736 209.555 92.3012 209.502C91.8756 209.449 91.6628 209.449 91.3968 209.768C90.918 210.353 90.8116 211.151 90.1732 211.577C90.12 211.63 90.0668 211.63 90.0136 211.63C89.9604 211.63 89.9072 211.63 89.854 211.577C89.8008 211.523 89.8008 211.47 89.8008 211.417C89.854 210.885 89.9072 210.353 89.9604 209.821C89.9604 209.661 90.0136 209.502 89.9604 209.342C89.9072 209.023 89.6944 208.81 89.4284 208.651C89.0028 208.385 88.4708 208.172 87.992 208.065C87.46 207.906 86.928 207.853 86.396 207.799C86.0236 207.853 85.4384 207.853 84.9064 207.959Z" fill="#455A64"/>
<path d="M107.198 68.0428C107.198 68.0428 108.687 70.0644 109.858 74.214C109.858 74.214 112.092 83.6836 112.092 94.9088C112.092 104.325 110.815 119.54 110.815 119.54C99.9091 125.02 82.2999 121.775 74.5859 116.455C74.9051 114.752 75.1711 105.868 75.7563 100.016C76.1819 89.9612 76.5011 84.6944 76.5543 80.1724C76.7139 71.2348 81.1295 66.6064 84.5343 66.5532L93.0995 66.7128L107.198 68.0428Z" fill="#1D9752"/>
<path d="M109.858 116.773C108.262 118.103 105.07 120.657 104.484 121.987C103.793 123.477 103.42 125.711 102.995 126.562C102.569 127.413 103.208 127.839 104.165 127.52C105.123 127.201 105.655 126.403 106.4 124.487C107.144 122.572 109.113 121.029 109.113 121.029L109.858 116.773Z" fill="#874C4C"/>
<path d="M103.953 134.17C104.325 134.915 105.23 134.915 106.081 134.968C107.251 135.074 107.943 134.968 109.113 134.649C110.284 134.276 111.348 133.638 112.039 132.627C112.837 131.457 113.05 129.967 113.529 128.637C114.486 125.764 117.412 123.743 117.891 120.71C118.104 119.487 118.104 117.997 118.423 117.199C118.636 116.72 123.424 108.474 125.126 104.91C126.776 101.452 127.999 99.856 126.51 95.7064C125.02 91.5568 119.966 77.0332 116.348 71.9792C114.327 69.1064 111.082 68.3084 107.145 67.936C104.166 75.7032 107.624 83.7364 107.624 83.7364L115.497 98.9516C115.497 98.9516 112.412 109.432 110.496 115.231C109.964 116.827 108.9 117.838 107.677 119.646C107.145 120.444 105.921 121.774 105.496 122.626C104.964 123.69 104.964 124.381 104.698 125.871C104.378 128.371 103.74 133.798 103.953 134.17Z" fill="#9E6767"/>
<path d="M106.772 67.9893C108.847 68.0957 111.773 68.4149 113.582 69.3193C115.337 70.2237 116.561 71.3409 118.636 75.3841C120.657 79.4805 123.636 87.3541 123.636 87.3541C123.636 87.3541 122.626 93.3125 113.209 94.8553L106.825 83.0981C106.772 83.0981 103.899 75.8097 106.772 67.9893Z" fill="#455A64"/>
<path d="M82.1938 48.9438C82.513 49.3694 82.6726 50.0078 82.9385 50.4866C83.2578 51.1782 83.6302 51.8698 84.109 52.455C85.3326 53.8914 87.035 54.9022 88.631 55.913C89.5886 56.4982 90.6526 57.0834 91.823 56.9238C92.9934 56.7642 94.2702 57.0302 95.4938 57.1366C96.877 57.243 98.2602 57.4026 99.6966 57.509L99.4838 61.9246C99.4838 61.9246 100.016 60.7542 100.707 59.371C101.293 58.2006 103.846 52.0826 103.846 52.0826C105.123 49.0502 106.613 45.0602 105.07 41.9214C104.697 41.1766 104.165 40.485 103.421 40.0594C103.58 39.4742 103.633 39.0486 103.58 38.5698C103.367 36.8674 102.516 35.9098 101.346 35.0586C100.175 34.2074 98.7922 33.7286 97.409 33.4094C95.547 32.9838 93.6318 32.771 91.7165 32.771C89.8014 32.771 87.9925 33.0902 86.1306 33.4094C85.1198 33.569 84.0558 33.7286 82.9918 33.7286C82.5662 33.7286 82.0874 33.7818 81.6618 33.6754C81.1298 33.569 80.5446 33.303 80.0126 33.0902C79.9062 33.037 79.7998 33.037 79.7466 33.0902C79.6402 33.1434 79.6402 33.2498 79.587 33.3562C79.2678 34.5798 79.6934 36.1758 80.4382 37.1866C80.119 37.1334 79.853 37.027 79.7466 36.9738C79.4806 36.8674 79.2678 36.7078 79.0018 36.5482C78.5762 36.2822 78.3102 35.963 77.991 35.5906C77.9378 35.5374 77.8846 35.4842 77.8314 35.4842C77.725 35.4842 77.6186 35.5374 77.5654 35.6438C76.9802 36.495 76.8206 37.559 77.0334 38.5698C77.2462 39.5806 77.7782 40.485 78.4166 41.283C77.725 42.2938 77.725 43.7302 78.2038 44.8474C78.4166 45.3262 78.7358 45.805 79.1614 46.1774C79.6402 46.6562 80.2254 47.0818 80.7042 47.5074C81.183 47.9862 81.8214 48.4118 82.1938 48.9438Z" fill="#37474F"/>
<path d="M94.9615 41.6553C94.9615 42.8257 95.1211 43.6237 95.2807 43.9961C95.5467 44.7409 95.9191 45.2197 96.4511 45.7517C96.9831 46.3369 97.6747 46.7625 98.1003 47.4009C98.6855 48.3053 98.8983 49.4225 99.0047 50.4865C99.0579 51.1249 99.2707 51.8165 99.8027 52.1357C100.92 52.8273 101.612 51.4973 102.25 50.8057C103.048 50.0609 105.336 49.2097 106.453 51.6569C107.57 54.2105 105.495 57.6153 103.633 58.0941C100.388 58.9985 99.6963 56.8173 99.6963 56.8173L99.0579 68.3085C97.2491 71.7665 92.9931 72.8305 90.1735 72.2985C87.7795 71.8197 86.4495 70.1173 88.6839 67.6701L88.7903 64.1589C88.7903 64.1589 85.8643 64.4781 84.4811 64.2653C82.1403 63.8397 80.9699 61.8181 80.3847 59.2645C79.3739 55.1681 78.8951 50.8057 80.1719 41.5489C80.7571 41.2297 83.0447 43.0385 86.5559 43.2513C90.0139 43.5173 93.2059 42.6129 94.9615 41.6553Z" fill="#9E6767"/>
<path d="M88.8442 64.1589C88.8442 64.1589 94.111 63.2545 95.973 62.3501C97.1966 61.7649 98.2606 60.6477 98.5798 59.9561C98.5798 59.9561 98.2074 61.4989 97.037 62.8821C95.6538 64.5313 88.791 65.5953 88.791 65.5953L88.8442 64.1589Z" fill="#874C4C"/>
<path d="M91.6104 45.7519L94.0576 46.4967C94.2704 45.8051 93.8448 45.0603 93.1532 44.8475C92.4616 44.6347 91.77 45.0071 91.6104 45.7519Z" fill="#263238"/>
<path d="M90.7055 57.3491L87.0879 58.5727C87.4071 59.5835 88.4711 60.1687 89.4819 59.8495C90.4927 59.5303 91.0247 58.4131 90.7055 57.3491Z" fill="#874C4C"/>
<path d="M90.4391 58.2539C89.4283 58.2539 88.6303 58.9455 88.3643 59.8499C88.7367 59.9563 89.1091 59.9563 89.4815 59.8499C90.1731 59.6371 90.6519 58.9987 90.7583 58.3071C90.6519 58.2539 90.5455 58.2539 90.4391 58.2539Z" fill="#F28F8F"/>
<path d="M80.6503 46.1241L83.1507 45.8049C83.0975 45.1133 82.4591 44.6345 81.7675 44.7409C81.0759 44.8473 80.5439 45.4857 80.6503 46.1241Z" fill="#263238"/>
<path d="M95.9727 47.188L104.219 50.0076C104.219 50.0076 102.942 49.9012 101.825 51.2312L95.9727 48.9968V47.188Z" fill="#263238"/>
<path d="M81.874 50.4332C81.874 51.0184 82.2996 51.444 82.8316 51.4972C83.3636 51.4972 83.8424 51.0716 83.8424 50.4864C83.8424 49.9012 83.4168 49.4756 82.8848 49.4224C82.3528 49.4224 81.874 49.848 81.874 50.4332Z" fill="#263238"/>
<path d="M91.291 50.4332C91.291 51.0184 91.7166 51.444 92.2486 51.4972C92.7806 51.4972 93.2594 51.0716 93.2594 50.4864C93.2594 49.9012 92.8338 49.4756 92.3018 49.4224C91.7166 49.4224 91.291 49.848 91.291 50.4332Z" fill="#263238"/>
<path d="M77.0331 47.8263C77.0863 48.3051 77.4055 48.7839 77.5651 48.9967C77.6715 49.1031 77.7247 49.2095 77.7779 49.4223C77.9907 50.2203 78.1503 51.7099 78.5227 52.5611C78.8951 53.4123 79.6931 54.7423 81.8743 54.7955C82.2999 54.7955 82.6723 54.7955 83.0447 54.6891C83.0979 54.6891 83.0979 54.6891 83.1511 54.6891C83.5235 54.5827 83.8427 54.4763 84.1087 54.3167C84.1087 54.3167 84.1619 54.3167 84.1619 54.2635C84.2151 54.2635 84.2151 54.2103 84.2683 54.2103C84.2683 54.2103 84.3215 54.1571 84.3747 54.1571C84.4279 54.1571 84.4279 54.1039 84.4811 54.1039C84.5343 54.0507 84.5343 54.0507 84.5875 53.9975C84.6407 53.9443 84.6407 53.9443 84.6939 53.8911C84.7471 53.8379 84.8003 53.7847 84.8535 53.7315C85.1727 53.3591 85.4387 52.9867 85.5983 52.5611C86.0771 51.4439 85.9707 49.9543 86.7687 49.7415C86.8219 49.7415 86.8219 49.7415 86.8751 49.7415C86.9283 49.7415 86.9283 49.7415 86.9815 49.7415C88.0455 49.7415 87.9391 51.4439 88.5775 52.6143C89.1627 53.7847 90.1735 54.9551 92.5675 55.0083C92.6739 55.0083 92.7803 55.0083 92.8867 55.0083C92.9931 55.0083 93.0463 55.0083 93.1527 55.0083C93.3655 55.0083 93.5251 54.9551 93.7379 54.9019C93.7911 54.9019 93.8443 54.9019 93.8975 54.8487C93.9507 54.8487 94.0039 54.7955 94.0571 54.7955C94.1103 54.7955 94.1103 54.7955 94.1635 54.7423C94.4295 54.6359 94.5891 54.5827 94.8019 54.4231C94.8551 54.3699 94.9615 54.3167 95.0147 54.2635C95.1743 54.1571 95.2807 54.0507 95.3871 53.9443C95.7595 53.5719 95.9723 53.1463 96.0787 52.8271C96.4511 51.9759 96.5575 50.4863 96.7171 49.7415C96.7703 49.5287 96.8235 49.3691 96.8767 49.3159C97.0363 49.1031 97.4087 48.6775 97.4087 48.1987C97.4087 47.7199 97.0895 47.2411 96.7703 47.2411C96.6107 47.1879 96.3979 47.1879 96.1851 47.1879C94.3231 46.9751 91.8759 46.8687 90.4395 47.2411C88.6307 47.7199 87.9923 48.3051 86.9815 48.3051C86.0239 48.3051 85.4387 47.6667 83.6831 47.1347C82.2999 46.7091 80.0123 46.7091 78.3099 46.8687C78.1503 46.8687 77.9375 46.9219 77.7779 46.9219C77.2991 46.8687 76.9799 47.2943 77.0331 47.8263ZM89.0031 48.9435C89.1095 48.7839 89.2691 48.6775 89.5351 48.5179C89.5883 48.5179 89.5883 48.4647 89.6415 48.4647C89.6415 48.4647 89.6947 48.4647 89.6947 48.4115C89.8011 48.3583 89.8543 48.3051 89.9607 48.3051C90.0139 48.2519 90.1203 48.2519 90.1735 48.1987C90.3863 48.0923 90.6523 48.0391 90.9715 47.9327C91.0779 47.9327 91.1843 47.8795 91.2907 47.8795C91.5567 47.8263 91.8227 47.7731 92.0887 47.7731C92.1419 47.7731 92.1951 47.7731 92.3015 47.7731C94.0571 47.6135 95.1743 48.0391 95.5467 48.4115C95.9723 48.7839 95.7595 50.3799 95.5999 51.2311V51.2843V51.3375C95.5999 51.4439 95.5467 51.5503 95.5467 51.6567C95.5467 51.7099 95.4935 51.8163 95.4935 51.8695C95.4403 51.9759 95.4403 52.0823 95.3871 52.1887C95.3871 52.2419 95.3339 52.2419 95.3339 52.2951C95.3339 52.2951 95.3339 52.3483 95.2807 52.3483C95.2807 52.3483 95.2807 52.4015 95.2275 52.4015C95.2275 52.4547 95.1743 52.4547 95.1743 52.5079C95.1743 52.5611 95.1211 52.5611 95.1211 52.6143C95.1211 52.6675 95.0679 52.6675 95.0679 52.7207C95.0679 52.7739 95.0147 52.7739 95.0147 52.8271C94.5891 53.4655 93.8443 53.9975 92.5675 53.9975C91.2907 53.9975 90.4927 53.5719 89.9607 52.9867C89.4287 52.4547 89.2159 51.7631 89.1095 51.3375C88.7903 50.5395 88.6307 49.4223 89.0031 48.9435ZM78.6823 48.0923C78.7887 47.9859 78.8951 47.8795 79.1079 47.8263C79.1079 47.8263 79.1079 47.8263 79.1611 47.8263C79.2143 47.8263 79.2675 47.7731 79.3739 47.7731C79.4271 47.7731 79.4271 47.7731 79.4803 47.7199C79.5335 47.7199 79.5335 47.7199 79.5867 47.6667H79.6399C79.6931 47.6667 79.6931 47.6667 79.7463 47.6667C79.8527 47.6135 80.0123 47.6135 80.1719 47.6135C80.2251 47.6135 80.3315 47.6135 80.3847 47.6135C80.4379 47.6135 80.4911 47.6135 80.4911 47.6135C80.5443 47.6135 80.5443 47.6135 80.5975 47.6135C80.7039 47.6135 80.7571 47.6135 80.8635 47.6135C80.9167 47.6135 80.9167 47.6135 80.9699 47.6135C81.0231 47.6135 81.0231 47.6135 81.0763 47.6135C81.3423 47.6135 81.6083 47.6667 81.8743 47.6667C83.1511 47.8263 84.4279 48.4115 84.7471 48.9435C85.0663 49.4755 85.0131 50.5395 84.8535 51.4439C84.8003 51.6035 84.7471 51.8163 84.6939 52.0823V52.1355V52.1887V52.2419C84.6939 52.2419 84.6939 52.2951 84.6407 52.2951C84.6407 52.3483 84.5875 52.4015 84.5875 52.4547C84.5875 52.5079 84.5343 52.5611 84.5343 52.5611V52.6143C84.5343 52.6675 84.4811 52.6675 84.4811 52.7207L84.4279 52.7739C84.0023 53.4655 83.2043 53.9975 81.8211 53.9443C81.2891 53.9443 80.8635 53.7847 80.4911 53.6251C79.2675 52.9867 78.9483 51.6035 78.7887 50.9651C78.5227 50.0607 78.3099 48.4647 78.6823 48.0923Z" fill="#263238"/>
<path d="M87.1409 49.7417L86.9281 56.6045L83.0977 55.4873L86.6621 49.6885C86.8217 49.6353 86.9813 49.6885 87.1409 49.7417Z" fill="#874C4C"/>
<path d="M140.447 50.5932C151.348 50.5932 160.184 42.8522 160.184 33.3032C160.184 23.7542 151.348 16.0132 140.447 16.0132C129.547 16.0132 120.71 23.7542 120.71 33.3032C120.71 42.8522 129.547 50.5932 140.447 50.5932Z" fill="#1D9752"/>
<path d="M124.7 43.3047C124.594 45.6455 122.626 49.7419 119.114 51.2847C118.902 51.3911 118.902 51.7103 119.168 51.7635C121.083 52.1891 126.243 52.6679 130.074 47.6139L124.7 43.3047Z" fill="#1D9752"/>
<path d="M127.094 31.9732C127.147 31.1752 127.307 30.4836 127.626 29.792C127.945 29.1004 128.371 28.5152 128.903 27.9832C129.435 27.5044 130.127 27.0788 130.871 26.7596C131.669 26.4404 132.574 26.334 133.585 26.334C134.595 26.334 135.5 26.4936 136.298 26.7596C137.096 27.0788 137.734 27.4512 138.319 27.9832C138.851 28.462 139.277 29.1004 139.596 29.792C139.915 30.4836 140.075 31.2284 140.128 31.9732C140.181 32.5584 140.181 33.1968 140.181 33.8352C140.181 34.4736 140.181 35.112 140.128 35.644C140.075 36.442 139.915 37.1336 139.596 37.8252C139.277 38.5168 138.851 39.102 138.319 39.634C137.787 40.166 137.096 40.5384 136.298 40.8576C135.5 41.1236 134.595 41.2832 133.585 41.2832C132.574 41.2832 131.669 41.1236 130.871 40.8576C130.073 40.5916 129.435 40.166 128.903 39.634C128.371 39.102 127.945 38.5168 127.626 37.8252C127.307 37.1336 127.147 36.3888 127.094 35.644C127.041 35.0588 127.041 34.4736 127.041 33.8352C127.041 33.1968 127.041 32.5584 127.094 31.9732ZM136.191 35.5376C136.191 35.2716 136.245 35.0056 136.245 34.6864C136.245 34.3672 136.245 34.048 136.245 33.7288C136.245 33.4096 136.245 33.0904 136.245 32.8244C136.245 32.5052 136.191 32.2392 136.191 32.0264C136.138 31.7072 136.085 31.388 135.979 31.0688C135.872 30.8028 135.713 30.5368 135.5 30.324C135.287 30.1112 135.021 29.9516 134.702 29.792C134.383 29.6856 134.01 29.5792 133.585 29.5792C133.159 29.5792 132.787 29.6324 132.467 29.792C132.148 29.8984 131.882 30.1112 131.669 30.324C131.457 30.5368 131.297 30.8028 131.191 31.0688C131.084 31.3348 130.978 31.654 130.978 32.0264C130.925 32.2392 130.925 32.5052 130.925 32.8244C130.925 33.1436 130.925 33.4096 130.925 33.7288C130.925 34.048 130.925 34.3672 130.925 34.6864C130.925 35.0056 130.925 35.2716 130.978 35.5376C131.031 36.2292 131.297 36.8144 131.669 37.24C132.095 37.7188 132.733 37.9316 133.585 37.9316C134.436 37.9316 135.074 37.7188 135.5 37.24C135.872 36.8144 136.138 36.2292 136.191 35.5376Z" fill="#FAFAFA"/>
<path d="M154.758 40.3789C154.812 40.4321 154.812 40.4853 154.812 40.5917C154.812 40.6981 154.758 40.8045 154.652 40.9109C154.546 41.0173 154.439 41.0705 154.333 41.0705H151.088C150.875 41.0705 150.715 41.0173 150.609 40.9641C150.502 40.8577 150.343 40.7513 150.236 40.5917L146.3 35.6441V40.4853C146.3 40.6449 146.246 40.7513 146.14 40.8577C146.034 40.9641 145.874 41.0173 145.768 41.0173H143.054C142.895 41.0173 142.788 40.9641 142.682 40.8577C142.576 40.7513 142.522 40.5917 142.522 40.4853V27.0789C142.522 26.9193 142.576 26.8129 142.682 26.7065C142.788 26.6001 142.948 26.5469 143.054 26.5469H145.768C145.927 26.5469 146.034 26.6001 146.14 26.7065C146.246 26.8129 146.3 26.9725 146.3 27.0789V31.4413L149.97 26.9725C150.024 26.8661 150.13 26.8129 150.236 26.7065C150.343 26.6001 150.556 26.5469 150.822 26.5469H154.067C154.173 26.5469 154.28 26.6001 154.386 26.7065C154.492 26.8129 154.546 26.9193 154.546 27.0257C154.546 27.1321 154.546 27.1853 154.492 27.2385L149.279 33.5161L154.758 40.3789Z" fill="#FAFAFA"/>
<path d="M191.307 49.6356L188.328 50.54L186.2 43.358L189.179 42.4536L191.307 49.6356Z" fill="#F4CDCD"/>
<path d="M200.618 43.2515C200.724 43.6239 200.352 44.4751 199.766 44.6347C199.766 44.6347 200.032 44.9539 200.192 45.3795C200.352 45.9115 199.926 46.7095 199.022 46.9755C198.117 47.2415 192.212 49.0503 192.212 49.0503L190.19 42.3471C190.19 42.3471 191.361 39.3679 191.414 38.9423C191.467 38.5167 190.776 36.8675 190.722 36.5483C190.669 36.2823 191.733 35.8567 192.584 36.1759C192.797 36.2823 192.957 36.3887 193.116 36.5483C193.436 36.9207 193.702 37.2931 193.914 37.6655C194.234 38.2507 194.34 38.8359 194.34 39.5275L198.49 38.3039C198.809 38.1975 199.128 38.2507 199.394 38.3571C199.766 38.5167 199.979 38.8359 200.086 39.1019C200.298 39.6871 199.926 40.1659 199.713 40.3255C199.713 40.3255 200.618 40.2723 200.83 41.0703C200.99 41.5491 200.724 42.1343 200.139 42.4535C200.086 42.5067 200.458 42.6663 200.618 43.2515Z" fill="#F4CDCD"/>
<path d="M234.08 124.275L230.25 123.371L232.484 114.114L236.315 115.071L234.08 124.275Z" fill="#F4CDCD"/>
<path d="M248.338 123.264C248.231 123.743 247.274 124.435 246.529 124.222C246.529 124.222 246.635 124.701 246.476 125.339C246.316 126.031 245.359 126.563 244.188 126.297C243.071 126.031 235.41 124.169 235.41 124.169L237.485 115.603C237.485 115.603 240.624 113.103 240.996 112.677C241.369 112.252 241.635 110.017 241.741 109.592C241.794 109.273 243.284 109.485 244.029 110.39C244.188 110.603 244.348 110.869 244.401 111.188C244.561 111.826 244.561 112.358 244.561 112.89C244.507 113.741 244.241 114.433 243.816 115.231L249.083 116.508C249.508 116.614 249.827 116.827 250.04 117.093C250.359 117.519 250.413 117.997 250.306 118.317C250.147 119.115 249.455 119.381 249.136 119.434C249.136 119.434 250.147 119.913 249.881 120.977C249.721 121.562 249.083 122.094 248.231 122.041C248.231 122.094 248.497 122.519 248.338 123.264Z" fill="#F4CDCD"/>
<path d="M40.8584 118.742L45.0612 120.019L48.0404 109.964L43.8908 108.688L40.8584 118.742Z" fill="#F4CDCD"/>
<path d="M27.824 109.804C27.6644 110.336 28.1964 111.507 28.9944 111.773C28.9944 111.773 28.622 112.199 28.4092 112.837C28.1432 113.635 28.7816 114.646 30.0584 115.018C31.282 115.39 39.6344 117.891 39.6344 117.891L42.454 108.528C42.454 108.528 40.858 104.378 40.7516 103.74C40.6452 103.101 41.6028 100.814 41.7624 100.388C41.8688 100.016 40.326 99.3773 39.1024 99.9093C38.8364 100.016 38.5704 100.175 38.3044 100.441C37.8256 100.973 37.4532 101.505 37.1872 102.037C36.7616 102.835 36.602 103.687 36.602 104.697L30.8564 102.942C30.3776 102.782 29.952 102.835 29.6328 102.995C29.1008 103.208 28.7816 103.633 28.6752 104.006C28.4092 104.857 28.888 105.495 29.154 105.761C29.154 105.761 27.9304 105.655 27.558 106.825C27.3452 107.464 27.6644 108.315 28.5156 108.74C28.5688 108.74 28.0368 109.006 27.824 109.804Z" fill="#F4CDCD"/>
</svg>
