<svg width="32" height="32" viewBox="0 0 32 32" fill="none" xmlns="http://www.w3.org/2000/svg">
<g clip-path="url(#clip0_1108_18453)">
<path fill-rule="evenodd" clip-rule="evenodd" d="M16 14C14.8954 14 14 14.8954 14 16C14 17.1046 14.8954 18 16 18C17.1046 18 18 17.1046 18 16C18 14.8954 17.1046 14 16 14ZM12 16C12 13.7909 13.7909 12 16 12C18.2091 12 20 13.7909 20 16C20 18.2091 18.2091 20 16 20C13.7909 20 12 18.2091 12 16Z" fill="#3B3B3B"/>
<path fill-rule="evenodd" clip-rule="evenodd" d="M16 6C15.7348 6 15.4804 6.10536 15.2929 6.29289C15.1054 6.48043 15 6.73478 15 7V7.17399C14.9979 7.6908 14.8448 8.19572 14.5594 8.62661C14.2741 9.0575 13.869 9.39555 13.3939 9.59914C13.3094 9.63538 13.2204 9.65969 13.1296 9.67157C12.698 9.82272 12.2333 9.85998 11.781 9.77796C11.26 9.68349 10.7793 9.43512 10.4007 9.06486L10.3928 9.05715L10.3329 8.99711C10.24 8.90413 10.1293 8.82998 10.0079 8.77965C9.88654 8.72933 9.75642 8.70343 9.625 8.70343C9.49358 8.70343 9.36346 8.72933 9.24206 8.77965C9.12066 8.82998 9.01037 8.90374 8.9175 8.99671L8.91671 8.9975C8.82374 9.09037 8.74998 9.20066 8.69965 9.32206C8.64933 9.44346 8.62343 9.57358 8.62343 9.705C8.62343 9.83642 8.64933 9.96654 8.69965 10.0879C8.74998 10.2093 8.82374 10.3196 8.91671 10.4125L8.98491 10.4807C9.35516 10.8592 9.60349 11.34 9.69796 11.861C9.79055 12.3716 9.73113 12.898 9.52745 13.3748C9.34189 13.8613 9.01698 14.2827 8.59305 14.5859C8.16054 14.8952 7.64498 15.0673 7.11338 15.0797L7.09 15.08H7C6.73478 15.08 6.48043 15.1854 6.29289 15.3729C6.10536 15.5604 6 15.8148 6 16.08C6 16.3452 6.10536 16.5996 6.29289 16.7871C6.48043 16.9746 6.73478 17.08 7 17.08H7.17399C7.6908 17.0821 8.19572 17.2352 8.62661 17.5206C9.05601 17.8049 9.3932 18.2082 9.59701 18.6811C9.80908 19.1643 9.87211 19.6998 9.77796 20.219C9.68349 20.74 9.43512 21.2207 9.06486 21.5993L9.05715 21.6072L8.9971 21.6671C8.90413 21.76 8.82998 21.8707 8.77965 21.9921C8.72933 22.1135 8.70343 22.2436 8.70343 22.375C8.70343 22.5064 8.72933 22.6365 8.77965 22.7579C8.82998 22.8793 8.90374 22.9896 8.99671 23.0825L8.9975 23.0833C9.09037 23.1763 9.20066 23.25 9.32206 23.3003C9.44346 23.3507 9.57359 23.3766 9.705 23.3766C9.83641 23.3766 9.96654 23.3507 10.0879 23.3003C10.2093 23.25 10.3196 23.1763 10.4125 23.0833L10.4807 23.0151C10.8592 22.6448 11.34 22.3965 11.861 22.302C12.3716 22.2095 12.898 22.2689 13.3748 22.4725C13.8613 22.6581 14.2827 22.983 14.5859 23.407C14.8952 23.8395 15.0673 24.355 15.0797 24.8866L15.08 24.91V25C15.08 25.2652 15.1854 25.5196 15.3729 25.7071C15.5604 25.8946 15.8148 26 16.08 26C16.3452 26 16.5996 25.8946 16.7871 25.7071C16.9746 25.5196 17.08 25.2652 17.08 25V24.83L17.08 24.826C17.0821 24.3092 17.2352 23.8043 17.5206 23.3734C17.805 22.944 18.2083 22.6067 18.6812 22.4029C19.1643 22.1909 19.6998 22.1279 20.219 22.222C20.74 22.3165 21.2207 22.5649 21.5993 22.9351L21.6071 22.9429L21.6671 23.0029C21.76 23.0959 21.8707 23.17 21.9921 23.2203C22.1135 23.2707 22.2436 23.2966 22.375 23.2966C22.5064 23.2966 22.6365 23.2707 22.7579 23.2203C22.8793 23.17 22.9896 23.0963 23.0825 23.0033L23.0833 23.0025C23.1763 22.9096 23.25 22.7993 23.3003 22.6779C23.3507 22.5565 23.3766 22.4264 23.3766 22.295C23.3766 22.1636 23.3507 22.0335 23.3003 21.9121C23.25 21.7907 23.1763 21.6804 23.0833 21.5875L23.0151 21.5193C22.6448 21.1408 22.3965 20.66 22.302 20.139C22.2079 19.6198 22.2709 19.0843 22.4829 18.6012C22.6867 18.1283 23.024 17.725 23.4534 17.4406C23.8843 17.1552 24.3892 17.0021 24.906 17L24.91 17L25 17C25.2652 17 25.5196 16.8946 25.7071 16.7071C25.8946 16.5196 26 16.2652 26 16C26 15.7348 25.8946 15.4804 25.7071 15.2929C25.5196 15.1054 25.2652 15 25 15H24.83L24.826 15C24.3092 14.9979 23.8043 14.8448 23.3734 14.5594C22.9425 14.2741 22.6045 13.869 22.4009 13.3939C22.3646 13.3094 22.3403 13.2204 22.3284 13.1296C22.1773 12.698 22.14 12.2333 22.222 11.781C22.3165 11.26 22.5649 10.7793 22.9351 10.4007L22.9428 10.3929L23.0029 10.3329C23.0959 10.24 23.17 10.1293 23.2203 10.0079C23.2707 9.88654 23.2966 9.75641 23.2966 9.625C23.2966 9.49359 23.2707 9.36346 23.2203 9.24206C23.17 9.12066 23.0963 9.01037 23.0033 8.9175L23.0025 8.91671C22.9096 8.82374 22.7993 8.74998 22.6779 8.69965C22.5565 8.64933 22.4264 8.62343 22.295 8.62343C22.1636 8.62343 22.0335 8.64933 21.9121 8.69965C21.7907 8.74998 21.6804 8.82374 21.5875 8.91671L21.5193 8.98491C21.1408 9.35516 20.66 9.60349 20.139 9.69796C19.6198 9.79211 19.0843 9.72908 18.6011 9.51701C18.1282 9.3132 17.7249 8.97601 17.4406 8.54661C17.1552 8.11572 17.0021 7.6108 17 7.09399L17 7.09V7C17 6.73478 16.8946 6.48043 16.7071 6.29289C16.5196 6.10536 16.2652 6 16 6ZM23.4 19L24.3149 19.4038C24.2624 19.5226 24.2468 19.6544 24.27 19.7822C24.2929 19.9086 24.3527 20.0253 24.4419 20.1177L24.4967 20.1725C24.4968 20.1726 24.4966 20.1724 24.4967 20.1725C24.7755 20.451 24.997 20.7822 25.1479 21.1462C25.2989 21.5104 25.3766 21.9008 25.3766 22.295C25.3766 22.6892 25.2989 23.0796 25.1479 23.4438C24.9969 23.808 24.7756 24.1389 24.4967 24.4175L23.79 23.71L24.4975 24.4167C24.2189 24.6956 23.888 24.9169 23.5238 25.0679C23.1596 25.2189 22.7692 25.2966 22.375 25.2966C21.9808 25.2966 21.5904 25.2189 21.2262 25.0679C20.8622 24.917 20.5314 24.6959 20.2529 24.4171C20.2528 24.417 20.253 24.4172 20.2529 24.4171L20.1977 24.3619C20.1053 24.2727 19.9886 24.2129 19.8622 24.19C19.7344 24.1668 19.6026 24.1824 19.4838 24.2349L19.474 24.2392C19.3574 24.2891 19.258 24.372 19.1881 24.4777C19.1183 24.583 19.0808 24.7063 19.08 24.8325V25C19.08 25.7957 18.7639 26.5587 18.2013 27.1213C17.6387 27.6839 16.8757 28 16.08 28C15.2843 28 14.5213 27.6839 13.9587 27.1213C13.3961 26.5587 13.08 25.7957 13.08 25V24.9244C13.0753 24.7972 13.0333 24.6741 12.9591 24.5704C12.8833 24.4644 12.7772 24.3836 12.6548 24.3385C12.635 24.3313 12.6155 24.3234 12.5962 24.3149C12.4774 24.2624 12.3456 24.2468 12.2178 24.27C12.0914 24.2929 11.9747 24.3527 11.8823 24.4419L11.8275 24.4967C11.8274 24.4968 11.8276 24.4966 11.8275 24.4967C11.549 24.7755 11.2178 24.997 10.8538 25.1479C10.4896 25.2989 10.0992 25.3766 9.705 25.3766C9.31075 25.3766 8.92037 25.2989 8.55618 25.1479C8.19233 24.9971 7.86174 24.7761 7.58329 24.4975C7.30436 24.2189 7.08308 23.888 6.93211 23.5238C6.78113 23.1596 6.70343 22.7692 6.70343 22.375C6.70343 21.9808 6.78113 21.5904 6.93211 21.2262C7.08308 20.862 7.30436 20.5311 7.58329 20.2525L7.63811 20.1977C7.72728 20.1053 7.78713 19.9886 7.81005 19.8622C7.83322 19.7344 7.81758 19.6026 7.76514 19.4838L7.76081 19.474C7.71087 19.3574 7.62801 19.258 7.52232 19.1881C7.41704 19.1183 7.29374 19.0808 7.1675 19.08H7C6.20435 19.08 5.44129 18.7639 4.87868 18.2013C4.31607 17.6387 4 16.8756 4 16.08C4 15.2844 4.31607 14.5213 4.87868 13.9587C5.44129 13.3961 6.20435 13.08 7 13.08H7.07564C7.20283 13.0753 7.32591 13.0333 7.42955 12.9591C7.53564 12.8833 7.61644 12.7772 7.66146 12.6548C7.66874 12.635 7.67663 12.6155 7.68514 12.5962C7.73758 12.4774 7.75322 12.3456 7.73005 12.2178C7.70713 12.0914 7.64728 11.9747 7.5581 11.8823L7.50329 11.8275C7.22436 11.5489 7.00308 11.218 6.85211 10.8538C6.70113 10.4896 6.62343 10.0992 6.62343 9.705C6.62343 9.31075 6.70113 8.92037 6.85211 8.55618C7.00301 8.19216 7.22415 7.86143 7.50289 7.58289C7.78143 7.30415 8.11216 7.08301 8.47618 6.93211C8.84037 6.78113 9.23075 6.70343 9.625 6.70343C10.0192 6.70343 10.4096 6.78113 10.7738 6.93211C11.138 7.08308 11.4689 7.30436 11.7475 7.58329L11.8023 7.6381C11.8947 7.72728 12.0114 7.78713 12.1378 7.81005C12.2656 7.83322 12.3974 7.81758 12.5162 7.76514C12.5803 7.73687 12.6469 7.71549 12.7151 7.70122C12.7848 7.6539 12.845 7.59323 12.8919 7.52232C12.9617 7.41704 12.9992 7.29374 13 7.1675V7C13 6.20435 13.3161 5.44129 13.8787 4.87868C14.4413 4.31607 15.2044 4 16 4C16.7956 4 17.5587 4.31607 18.1213 4.87868C18.6839 5.44129 19 6.20435 19 7V7.0875C19.0008 7.21374 19.0383 7.33704 19.1081 7.44232C19.178 7.54801 19.2774 7.63092 19.3939 7.68086L19.4038 7.68508C19.5226 7.73752 19.6544 7.75322 19.7822 7.73005C19.9086 7.70713 20.0253 7.64728 20.1177 7.55811L20.1725 7.50329C20.4511 7.22436 20.782 7.00308 21.1462 6.85211C21.5104 6.70113 21.9008 6.62343 22.295 6.62343C22.6892 6.62343 23.0796 6.70113 23.4438 6.85211C23.808 7.00308 24.1389 7.22436 24.4175 7.50329C24.6961 7.78174 24.9171 8.11233 25.0679 8.47618C25.2189 8.84037 25.2966 9.23075 25.2966 9.625C25.2966 10.0192 25.2189 10.4096 25.0679 10.7738C24.917 11.1378 24.6959 11.4686 24.4171 11.7471C24.417 11.7472 24.4172 11.747 24.4171 11.7471L24.3619 11.8023C24.2727 11.8947 24.2129 12.0114 24.19 12.1378C24.1668 12.2656 24.1824 12.3974 24.2349 12.5162C24.2631 12.5803 24.2845 12.6469 24.2988 12.7151C24.3461 12.7848 24.4068 12.845 24.4777 12.8919C24.583 12.9617 24.7063 12.9992 24.8325 13H25C25.7957 13 26.5587 13.3161 27.1213 13.8787C27.6839 14.4413 28 15.2043 28 16C28 16.7957 27.6839 17.5587 27.1213 18.1213C26.5587 18.6839 25.7957 19 25 19H24.9125C24.7863 19.0008 24.663 19.0383 24.5577 19.1081C24.452 19.178 24.3691 19.2774 24.3191 19.3939L23.4 19Z" fill="#3B3B3B"/>
</g>
<defs>
<clipPath id="clip0_1108_18453">
<rect width="24" height="24" fill="white" transform="translate(4 4)"/>
</clipPath>
</defs>
</svg>
