<svg width="48" height="48" viewBox="0 0 48 48" fill="none" xmlns="http://www.w3.org/2000/svg">
<rect width="48" height="48" rx="24" fill="white"/>
<path fill-rule="evenodd" clip-rule="evenodd" d="M32.9429 15.057C33.4636 15.5777 33.4636 16.4219 32.9429 16.9426L16.9429 32.9426C16.4222 33.4633 15.578 33.4633 15.0573 32.9426C14.5366 32.4219 14.5366 31.5777 15.0573 31.057L31.0573 15.057C31.578 14.5363 32.4222 14.5363 32.9429 15.057Z" fill="#676767"/>
<path fill-rule="evenodd" clip-rule="evenodd" d="M15.0573 15.057C15.578 14.5363 16.4222 14.5363 16.9429 15.057L32.9429 31.057C33.4636 31.5777 33.4636 32.4219 32.9429 32.9426C32.4222 33.4633 31.578 33.4633 31.0573 32.9426L15.0573 16.9426C14.5366 16.4219 14.5366 15.5777 15.0573 15.057Z" fill="#676767"/>
</svg>
