<svg width="54" height="54" viewBox="0 0 54 54" fill="none" xmlns="http://www.w3.org/2000/svg">
<path d="M21.6666 39.0002L37.6666 27.0002L21.6666 15.0002V39.0002ZM26.9999 0.333496C12.2799 0.333496 0.333252 12.2802 0.333252 27.0002C0.333252 41.7202 12.2799 53.6668 26.9999 53.6668C41.7199 53.6668 53.6666 41.7202 53.6666 27.0002C53.6666 12.2802 41.7199 0.333496 26.9999 0.333496ZM26.9999 48.3335C15.2399 48.3335 5.66659 38.7602 5.66659 27.0002C5.66659 15.2402 15.2399 5.66683 26.9999 5.66683C38.7599 5.66683 48.3333 15.2402 48.3333 27.0002C48.3333 38.7602 38.7599 48.3335 26.9999 48.3335Z" fill="white"/>
</svg>
