<svg width="20" height="20" viewBox="0 0 20 20" fill="none" xmlns="http://www.w3.org/2000/svg">
<path fill-rule="evenodd" clip-rule="evenodd" d="M3.3335 10.0003C3.3335 9.54009 3.70659 9.16699 4.16683 9.16699H15.8335C16.2937 9.16699 16.6668 9.54009 16.6668 10.0003C16.6668 10.4606 16.2937 10.8337 15.8335 10.8337H4.16683C3.70659 10.8337 3.3335 10.4606 3.3335 10.0003Z" fill="white"/>
<path fill-rule="evenodd" clip-rule="evenodd" d="M9.41058 3.57709C9.73602 3.25165 10.2637 3.25165 10.5891 3.57709L16.4224 9.41042C16.7479 9.73586 16.7479 10.2635 16.4224 10.5889L10.5891 16.4223C10.2637 16.7477 9.73602 16.7477 9.41058 16.4223C9.08514 16.0968 9.08514 15.5692 9.41058 15.2438L14.6547 9.99967L9.41058 4.7556C9.08514 4.43016 9.08514 3.90252 9.41058 3.57709Z" fill="white"/>
</svg>
