<svg width="23" height="24" viewBox="0 0 23 24" fill="none" xmlns="http://www.w3.org/2000/svg">
<g clip-path="url(#clip0_3731_12455)">
<path fill-rule="evenodd" clip-rule="evenodd" d="M11.5004 3C11.5005 3 11.5005 3 11.5005 4L11.5005 5L11.4282 5.00011C11.3803 5.00022 11.3094 5.00044 11.2185 5.00089C11.0367 5.00178 10.7746 5.00356 10.4548 5.00713C9.81489 5.01427 8.94561 5.02855 8.0263 5.05706C7.10547 5.08561 6.14213 5.12821 5.31175 5.19141C4.46064 5.25619 3.82825 5.33761 3.51318 5.42419C3.22692 5.51 2.96714 5.67253 2.75972 5.89566C2.55739 6.11333 2.41181 6.38119 2.33659 6.67375C2.04953 8.34737 1.90915 10.0448 1.9172 11.7451L1.91726 11.7563C1.90698 13.4635 2.04631 15.1681 2.33359 16.8487C2.4166 17.1264 2.56364 17.3788 2.76206 17.5837C2.96993 17.7984 3.2272 17.9537 3.50914 18.0347C3.82282 18.1217 4.45699 18.2035 5.31175 18.2686C6.14213 18.3318 7.10547 18.3744 8.0263 18.4029C8.94561 18.4314 9.81489 18.4457 10.4548 18.4529C10.7746 18.4564 11.0367 18.4582 11.2185 18.4591C11.3094 18.4596 11.3803 18.4598 11.4282 18.4599H11.5729C11.6208 18.4598 11.6917 18.4596 11.7826 18.4591C11.9644 18.4582 12.2265 18.4564 12.5463 18.4529C13.1862 18.4457 14.0555 18.4314 14.9748 18.4029C15.8956 18.3744 16.859 18.3318 17.6894 18.2686C18.5405 18.2038 19.1728 18.1224 19.4879 18.0358C19.7742 17.95 20.034 17.7875 20.2414 17.5643C20.4437 17.3467 20.5893 17.0788 20.6645 16.7863C20.9493 15.1253 21.0897 13.4409 21.0839 11.7536L21.0839 11.7437C21.0942 10.0306 20.9538 8.32008 20.6645 6.63377C20.5893 6.3412 20.4437 6.07333 20.2414 5.85566C20.0363 5.63509 19.7801 5.47373 19.4977 5.38717C19.172 5.3072 18.5372 5.23348 17.6954 5.17498C16.8633 5.11716 15.8987 5.07822 14.9773 5.05213C14.0573 5.02609 13.1874 5.01304 12.5472 5.00651C12.2272 5.00325 11.965 5.00162 11.783 5.00081L11.5731 5.0001L11.5005 5L11.5005 4C11.5005 3 11.5005 3 11.5004 3L11.5769 3.0001C11.6263 3.00021 11.6987 3.00042 11.7912 3.00083C11.9762 3.00166 12.242 3.00331 12.5659 3.00661C13.2133 3.01321 14.0949 3.02641 15.0292 3.05287C15.9622 3.07928 16.955 3.11909 17.8227 3.1794C18.6657 3.23798 19.4657 3.32017 19.9695 3.44854C19.9808 3.45141 19.992 3.45448 20.0031 3.45777C20.6165 3.63886 21.1733 3.98566 21.6171 4.46315C22.061 4.94063 22.3762 5.53189 22.531 6.17719C22.5362 6.19879 22.5407 6.22057 22.5445 6.24249C22.8587 8.06021 23.0114 9.90432 23.0006 11.7513C23.0065 13.5707 22.8539 15.3869 22.5445 17.1774C22.5407 17.1994 22.5362 17.2212 22.531 17.2428C22.3762 17.8881 22.061 18.4794 21.6171 18.9569C21.1733 19.4343 20.6165 19.7811 20.0031 19.9622L19.9898 19.966C19.4784 20.1088 18.6714 20.1992 17.8288 20.2633C16.9593 20.3295 15.9653 20.3731 15.0317 20.4021C14.0967 20.4311 13.2146 20.4455 12.5668 20.4528C12.2427 20.4564 11.9767 20.4582 11.7916 20.4591C11.699 20.4595 11.6266 20.4598 11.5771 20.4599L11.501 20.46L11.424 20.4599C11.3745 20.4598 11.3021 20.4595 11.2095 20.4591C11.0244 20.4582 10.7584 20.4564 10.4343 20.4528C9.78652 20.4455 8.90445 20.4311 7.96937 20.4021C7.03584 20.3731 6.04178 20.3295 5.17232 20.2633C4.32965 20.1992 3.5227 20.1088 3.01128 19.966L3.00596 19.9646C2.40501 19.793 1.85664 19.4626 1.41381 19.0052C0.970984 18.5479 0.648676 17.9792 0.478029 17.3539C0.469367 17.3222 0.462215 17.29 0.456601 17.2575C0.142422 15.44 -0.0102482 13.5961 0.000533458 11.7493C-0.00781771 9.91636 0.14484 8.08643 0.456594 6.28253C0.460384 6.2606 0.464875 6.23881 0.47006 6.21719C0.624848 5.57189 0.940093 4.98063 1.38395 4.50315C1.82782 4.02566 2.38457 3.67886 2.99799 3.49777L3.01128 3.49395C3.5227 3.35123 4.32965 3.26085 5.17232 3.19671C6.04178 3.13054 7.03584 3.08689 7.96937 3.05794C8.90445 3.02895 9.78652 3.01448 10.4343 3.00724C10.7584 3.00363 11.0244 3.00182 11.2095 3.00091C11.3021 3.00046 11.3745 3.00023 11.424 3.00011L11.5004 3Z" fill="white"/>
<path fill-rule="evenodd" clip-rule="evenodd" d="M8.86123 7.61608C9.15622 7.43702 9.5202 7.43517 9.81685 7.6112L15.3273 10.8812C15.6268 11.059 15.8118 11.3909 15.8118 11.7505C15.8118 12.1101 15.6268 12.442 15.3273 12.6197L9.81685 15.8897C9.5202 16.0658 9.15622 16.0639 8.86123 15.8849C8.56624 15.7058 8.38477 15.3766 8.38477 15.0205V8.48047C8.38477 8.12437 8.56624 7.79513 8.86123 7.61608ZM10.3014 10.1996V13.3014L12.9149 11.7505L10.3014 10.1996Z" fill="white"/>
</g>
<defs>
<clipPath id="clip0_3731_12455">
<rect width="23" height="24" fill="white"/>
</clipPath>
</defs>
</svg>
