<svg width="32" height="32" viewBox="0 0 32 32" fill="none" xmlns="http://www.w3.org/2000/svg">
<path fill-rule="evenodd" clip-rule="evenodd" d="M24.9428 7.05703C25.4635 7.57773 25.4635 8.42195 24.9428 8.94265L8.94281 24.9426C8.42211 25.4633 7.57789 25.4633 7.05719 24.9426C6.53649 24.4219 6.53649 23.5777 7.05719 23.057L23.0572 7.05703C23.5779 6.53633 24.4221 6.53633 24.9428 7.05703Z" fill="#676767"/>
<path fill-rule="evenodd" clip-rule="evenodd" d="M7.05719 7.05703C7.57789 6.53633 8.42211 6.53633 8.94281 7.05703L24.9428 23.057C25.4635 23.5777 25.4635 24.4219 24.9428 24.9426C24.4221 25.4633 23.5779 25.4633 23.0572 24.9426L7.05719 8.94265C6.53649 8.42195 6.53649 7.57773 7.05719 7.05703Z" fill="#676767"/>
</svg>
