<svg width="21" height="20" viewBox="0 0 21 20" fill="none" xmlns="http://www.w3.org/2000/svg">
<g clip-path="url(#clip0_3724_11140)">
<path fill-rule="evenodd" clip-rule="evenodd" d="M1.08333 2.5C1.54357 2.5 1.91667 2.8731 1.91667 3.33333V7.5H6.08333C6.54357 7.5 6.91667 7.8731 6.91667 8.33333C6.91667 8.79357 6.54357 9.16667 6.08333 9.16667H1.08333C0.623096 9.16667 0.25 8.79357 0.25 8.33333V3.33333C0.25 2.8731 0.623096 2.5 1.08333 2.5Z" fill="#676767"/>
<path fill-rule="evenodd" clip-rule="evenodd" d="M13.584 11.6663C13.584 11.2061 13.9571 10.833 14.4173 10.833H19.4173C19.8776 10.833 20.2507 11.2061 20.2507 11.6663V16.6663C20.2507 17.1266 19.8776 17.4997 19.4173 17.4997C18.9571 17.4997 18.584 17.1266 18.584 16.6663V12.4997H14.4173C13.9571 12.4997 13.584 12.1266 13.584 11.6663Z" fill="#676767"/>
<path fill-rule="evenodd" clip-rule="evenodd" d="M7.93913 1.9971C9.29138 1.60596 10.7207 1.56375 12.0937 1.8744C13.4666 2.18506 14.7386 2.83845 15.7907 3.77362C16.8429 4.70879 17.641 5.89526 18.1106 7.22231C18.2641 7.65618 18.0369 8.13237 17.603 8.2859C17.1691 8.43944 16.6929 8.21218 16.5394 7.7783C16.1637 6.71666 15.5252 5.76749 14.6835 5.01935C13.8418 4.27122 12.8242 3.7485 11.7259 3.49998C10.6275 3.25145 9.48403 3.28522 8.40223 3.59814C7.32042 3.91105 6.33551 4.49291 5.53941 5.28942C5.53325 5.29557 5.527 5.30164 5.52065 5.3076L1.65398 8.94093C1.31858 9.25609 0.791201 9.23969 0.476042 8.90429C0.160882 8.56889 0.177289 8.04151 0.512689 7.72635L4.37008 4.10172C5.36355 3.11095 6.59116 2.387 7.93913 1.9971ZM20.024 11.0963C20.3391 11.4317 20.3227 11.9591 19.9873 12.2743L16.1299 15.8989C15.1364 16.8897 13.9088 17.6136 12.5609 18.0035C11.2086 18.3947 9.77932 18.4369 8.40634 18.1262C7.03335 17.8156 5.76144 17.1622 4.70928 16.227C3.65712 15.2918 2.85901 14.1054 2.38941 12.7783C2.23587 12.3444 2.46313 11.8682 2.89701 11.7147C3.33088 11.5612 3.80707 11.7884 3.9606 12.2223C4.33628 13.284 4.97477 14.2331 5.8165 14.9813C6.65823 15.7294 7.67576 16.2521 8.77414 16.5006C9.87253 16.7492 11.016 16.7154 12.0978 16.4025C13.1796 16.0896 14.1645 15.5077 14.9606 14.7112C14.9643 14.7075 14.968 14.7038 14.9718 14.7002C14.9743 14.6978 14.9768 14.6954 14.9794 14.693L18.846 11.0597C19.1814 10.7445 19.7088 10.7609 20.024 11.0963Z" fill="#676767"/>
</g>
<defs>
<clipPath id="clip0_3724_11140">
<rect width="20" height="20" fill="white" transform="translate(0.25)"/>
</clipPath>
</defs>
</svg>
