<svg width="21" height="20" viewBox="0 0 21 20" fill="none" xmlns="http://www.w3.org/2000/svg">
<path fill-rule="evenodd" clip-rule="evenodd" d="M15.8386 4.41107C16.164 4.73651 16.164 5.26414 15.8386 5.58958L5.8386 15.5896C5.51317 15.915 4.98553 15.915 4.66009 15.5896C4.33466 15.2641 4.33466 14.7365 4.66009 14.4111L14.6601 4.41107C14.9855 4.08563 15.5132 4.08563 15.8386 4.41107Z" fill="#C70404"/>
<path fill-rule="evenodd" clip-rule="evenodd" d="M4.66009 4.41107C4.98553 4.08563 5.51317 4.08563 5.8386 4.41107L15.8386 14.4111C16.164 14.7365 16.164 15.2641 15.8386 15.5896C15.5132 15.915 14.9855 15.915 14.6601 15.5896L4.66009 5.58958C4.33466 5.26414 4.33466 4.73651 4.66009 4.41107Z" fill="#C70404"/>
</svg>
