<svg width="16" height="16" viewBox="0 0 16 16" fill="none" xmlns="http://www.w3.org/2000/svg">
<g clip-path="url(#clip0_2794_26503)">
<path fill-rule="evenodd" clip-rule="evenodd" d="M8.00008 2.00008C4.68637 2.00008 2.00008 4.68637 2.00008 8.00008C2.00008 11.3138 4.68637 14.0001 8.00008 14.0001C11.3138 14.0001 14.0001 11.3138 14.0001 8.00008C14.0001 4.68637 11.3138 2.00008 8.00008 2.00008ZM0.666748 8.00008C0.666748 3.94999 3.94999 0.666748 8.00008 0.666748C12.0502 0.666748 15.3334 3.94999 15.3334 8.00008C15.3334 12.0502 12.0502 15.3334 8.00008 15.3334C3.94999 15.3334 0.666748 12.0502 0.666748 8.00008Z" fill="#676767"/>
<path fill-rule="evenodd" clip-rule="evenodd" d="M7.99992 3.33325C8.36811 3.33325 8.66659 3.63173 8.66659 3.99992V7.5879L10.9647 8.73697C11.294 8.90163 11.4275 9.30208 11.2629 9.63139C11.0982 9.96071 10.6978 10.0942 10.3684 9.92954L7.70178 8.5962C7.47592 8.48328 7.33325 8.25243 7.33325 7.99992V3.99992C7.33325 3.63173 7.63173 3.33325 7.99992 3.33325Z" fill="#676767"/>
</g>
<defs>
<clipPath id="clip0_2794_26503">
<rect width="16" height="16" fill="white"/>
</clipPath>
</defs>
</svg>
