<svg width="33" height="32" viewBox="0 0 33 32" fill="none" xmlns="http://www.w3.org/2000/svg">
<g clip-path="url(#clip0_2859_39702)">
<g clip-path="url(#clip1_2859_39702)">
<path d="M20.5 18.7197C19.9933 18.7197 19.54 18.9197 19.1933 19.233L14.44 16.4663C14.4733 16.313 14.5 16.1597 14.5 15.9997C14.5 15.8397 14.4733 15.6863 14.44 15.533L19.14 12.793C19.5 13.1263 19.9733 13.333 20.5 13.333C21.6067 13.333 22.5 12.4397 22.5 11.333C22.5 10.2263 21.6067 9.33301 20.5 9.33301C19.3933 9.33301 18.5 10.2263 18.5 11.333C18.5 11.493 18.5267 11.6463 18.56 11.7997L13.86 14.5397C13.5 14.2063 13.0267 13.9997 12.5 13.9997C11.3933 13.9997 10.5 14.893 10.5 15.9997C10.5 17.1063 11.3933 17.9997 12.5 17.9997C13.0267 17.9997 13.5 17.793 13.86 17.4597L18.6067 20.233C18.5733 20.373 18.5533 20.5197 18.5533 20.6663C18.5533 21.7397 19.4267 22.613 20.5 22.613C21.5733 22.613 22.4467 21.7397 22.4467 20.6663C22.4467 19.593 21.5733 18.7197 20.5 18.7197Z" fill="#0E9549"/>
</g>
</g>
<rect x="1" y="0.5" width="31" height="31" rx="4.5" stroke="#0E9549"/>
<defs>
<clipPath id="clip0_2859_39702">
<rect x="0.5" width="32" height="32" rx="5" fill="white"/>
</clipPath>
<clipPath id="clip1_2859_39702">
<rect width="16" height="16" fill="white" transform="translate(8.5 8)"/>
</clipPath>
</defs>
</svg>
