<svg width="17" height="16" viewBox="0 0 17 16" fill="none" xmlns="http://www.w3.org/2000/svg">
<g clip-path="url(#clip0_3804_9157)">
<path d="M12.5 10.7197C11.9933 10.7197 11.54 10.9197 11.1933 11.233L6.44 8.46634C6.47333 8.31301 6.5 8.15967 6.5 7.99967C6.5 7.83967 6.47333 7.68634 6.44 7.53301L11.14 4.79301C11.5 5.12634 11.9733 5.33301 12.5 5.33301C13.6067 5.33301 14.5 4.43967 14.5 3.33301C14.5 2.22634 13.6067 1.33301 12.5 1.33301C11.3933 1.33301 10.5 2.22634 10.5 3.33301C10.5 3.49301 10.5267 3.64634 10.56 3.79967L5.86 6.53967C5.5 6.20634 5.02667 5.99967 4.5 5.99967C3.39333 5.99967 2.5 6.89301 2.5 7.99967C2.5 9.10634 3.39333 9.99967 4.5 9.99967C5.02667 9.99967 5.5 9.79301 5.86 9.45967L10.6067 12.233C10.5733 12.373 10.5533 12.5197 10.5533 12.6663C10.5533 13.7397 11.4267 14.613 12.5 14.613C13.5733 14.613 14.4467 13.7397 14.4467 12.6663C14.4467 11.593 13.5733 10.7197 12.5 10.7197Z" fill="#0E9549"/>
</g>
<defs>
<clipPath id="clip0_3804_9157">
<rect width="16" height="16" fill="white" transform="translate(0.5)"/>
</clipPath>
</defs>
</svg>
