<svg width="20" height="20" viewBox="0 0 20 20" fill="none" xmlns="http://www.w3.org/2000/svg">
<rect width="20" height="20" rx="10" fill="#C70404"/>
<path fill-rule="evenodd" clip-rule="evenodd" d="M13.3536 6.64645C13.5488 6.84171 13.5488 7.15829 13.3536 7.35355L7.35355 13.3536C7.15829 13.5488 6.84171 13.5488 6.64645 13.3536C6.45118 13.1583 6.45118 12.8417 6.64645 12.6464L12.6464 6.64645C12.8417 6.45118 13.1583 6.45118 13.3536 6.64645Z" fill="white"/>
<path fill-rule="evenodd" clip-rule="evenodd" d="M6.64645 6.64645C6.84171 6.45118 7.15829 6.45118 7.35355 6.64645L13.3536 12.6464C13.5488 12.8417 13.5488 13.1583 13.3536 13.3536C13.1583 13.5488 12.8417 13.5488 12.6464 13.3536L6.64645 7.35355C6.45118 7.15829 6.45118 6.84171 6.64645 6.64645Z" fill="white"/>
</svg>
