<svg width="16" height="16" viewBox="0 0 16 16" fill="none" xmlns="http://www.w3.org/2000/svg">
<path fill-rule="evenodd" clip-rule="evenodd" d="M2.66675 3.33333C2.3016 3.33333 2.00008 3.63486 2.00008 4V12C2.00008 12.3651 2.3016 12.6667 2.66675 12.6667H13.3334C13.6986 12.6667 14.0001 12.3651 14.0001 12V4C14.0001 3.63486 13.6986 3.33333 13.3334 3.33333H2.66675ZM0.666748 4C0.666748 2.89848 1.56522 2 2.66675 2H13.3334C14.4349 2 15.3334 2.89848 15.3334 4V12C15.3334 13.1015 14.4349 14 13.3334 14H2.66675C1.56522 14 0.666748 13.1015 0.666748 12V4Z" fill="#676767"/>
<path fill-rule="evenodd" clip-rule="evenodd" d="M0.787073 3.61767C0.998216 3.31603 1.4139 3.24268 1.71554 3.45382L7.99989 7.85287L14.2843 3.45382C14.5859 3.24268 15.0016 3.31603 15.2127 3.61767C15.4239 3.9193 15.3505 4.33499 15.0489 4.54613L8.3822 9.2128C8.15266 9.37348 7.84713 9.37348 7.61759 9.2128L0.95092 4.54613C0.649287 4.33499 0.57593 3.9193 0.787073 3.61767Z" fill="#676767"/>
</svg>
