<svg width="20" height="20" viewBox="0 0 20 20" fill="none" xmlns="http://www.w3.org/2000/svg">
<path fill-rule="evenodd" clip-rule="evenodd" d="M3.33337 9.99984C3.33337 9.5396 3.70647 9.1665 4.16671 9.1665H15.8334C16.2936 9.1665 16.6667 9.5396 16.6667 9.99984C16.6667 10.4601 16.2936 10.8332 15.8334 10.8332H4.16671C3.70647 10.8332 3.33337 10.4601 3.33337 9.99984Z" fill="#676767"/>
<path fill-rule="evenodd" clip-rule="evenodd" d="M10.5893 3.57757C10.9147 3.90301 10.9147 4.43065 10.5893 4.75609L5.34522 10.0002L10.5893 15.2442C10.9147 15.5697 10.9147 16.0973 10.5893 16.4228C10.2639 16.7482 9.73622 16.7482 9.41079 16.4228L3.57745 10.5894C3.25201 10.264 3.25201 9.73634 3.57745 9.41091L9.41079 3.57757C9.73622 3.25214 10.2639 3.25214 10.5893 3.57757Z" fill="#676767"/>
</svg>
