<svg width="362" height="215" viewBox="0 0 362 215" fill="none" xmlns="http://www.w3.org/2000/svg">
<path d="M349.45 0H12.05C5.39497 0 0 5.34771 0 11.9444V203.056C0 209.652 5.39497 215 12.05 215H349.45C356.105 215 361.5 209.652 361.5 203.056V11.9444C361.5 5.34771 356.105 0 349.45 0Z" fill="#F5F5F5"/>
<path d="M131.544 53.75H40.1651C37.9468 53.75 36.1484 55.5326 36.1484 57.7315V157.269C36.1484 159.467 37.9468 161.25 40.1651 161.25H131.544C133.763 161.25 135.561 159.467 135.561 157.269V57.7315C135.561 55.5326 133.763 53.75 131.544 53.75Z" fill="white"/>
<path fill-rule="evenodd" clip-rule="evenodd" d="M100.808 95.4371C100.808 103.659 94.1577 110.252 85.857 110.252C77.5592 110.252 70.9056 103.659 70.9056 95.4371C70.9056 87.2149 77.5592 80.625 85.857 80.625C94.1577 80.625 100.808 87.2149 100.808 95.4371ZM85.8574 136.616C73.607 136.616 63.2637 134.642 63.2637 127.027C63.2637 119.41 73.6721 117.506 85.8574 117.506C98.1107 117.506 108.451 119.48 108.451 127.094C108.451 134.712 98.0428 136.616 85.8574 136.616Z" fill="#B8B8B8"/>
<path opacity="0.6" d="M295.225 44.791H192.8C186.145 44.791 180.75 50.1387 180.75 56.7355V68.6799C180.75 75.2766 186.145 80.6243 192.8 80.6243H295.225C301.88 80.6243 307.275 75.2766 307.275 68.6799V56.7355C307.275 50.1387 301.88 44.791 295.225 44.791Z" fill="#B8B8B8"/>
<path opacity="0.6" d="M322.338 98.541H192.8C186.145 98.541 180.75 103.889 180.75 110.485V122.43C180.75 129.027 186.145 134.374 192.8 134.374H322.338C328.993 134.374 334.388 129.027 334.388 122.43V110.485C334.388 103.889 328.993 98.541 322.338 98.541Z" fill="#B8B8B8"/>
<path opacity="0.6" d="M295.225 152.291H192.8C186.145 152.291 180.75 157.639 180.75 164.235V176.18C180.75 182.777 186.145 188.124 192.8 188.124H295.225C301.88 188.124 307.275 182.777 307.275 176.18V164.235C307.275 157.639 301.88 152.291 295.225 152.291Z" fill="#B8B8B8"/>
</svg>
