<svg width="362" height="215" viewBox="0 0 362 215" fill="none" xmlns="http://www.w3.org/2000/svg">
<path d="M349.45 0H12.05C5.39497 0 0 5.34771 0 11.9444V203.056C0 209.652 5.39497 215 12.05 215H349.45C356.105 215 361.5 209.652 361.5 203.056V11.9444C361.5 5.34771 356.105 0 349.45 0Z" fill="#F5F5F5"/>
<path d="M127.735 32.5742H40.1651C37.9468 32.5742 36.1484 34.3568 36.1484 36.5557V99.6672C36.1484 101.866 37.9468 103.649 40.1651 103.649H127.735C129.953 103.649 131.752 101.866 131.752 99.6672V36.5557C131.752 34.3568 129.953 32.5742 127.735 32.5742Z" fill="white"/>
<path d="M127.735 109.574H40.1651C37.9468 109.574 36.1484 111.357 36.1484 113.556V176.667C36.1484 178.866 37.9468 180.649 40.1651 180.649H127.735C129.953 180.649 131.752 178.866 131.752 176.667V113.556C131.752 111.357 129.953 109.574 127.735 109.574Z" fill="white"/>
<path opacity="0.6" d="M295.225 44.1992H192.8C186.145 44.1992 180.75 49.5469 180.75 56.1437V68.0881C180.75 74.6848 186.145 80.0325 192.8 80.0325H295.225C301.88 80.0325 307.275 74.6848 307.275 68.0881V56.1437C307.275 49.5469 301.88 44.1992 295.225 44.1992Z" fill="#B8B8B8"/>
<path opacity="0.6" d="M322.338 97.9492H192.8C186.145 97.9492 180.75 103.297 180.75 109.894V121.838C180.75 128.435 186.145 133.783 192.8 133.783H322.338C328.993 133.783 334.388 128.435 334.388 121.838V109.894C334.388 103.297 328.993 97.9492 322.338 97.9492Z" fill="#B8B8B8"/>
<path opacity="0.6" d="M295.225 151.699H192.8C186.145 151.699 180.75 157.047 180.75 163.644V175.588C180.75 182.185 186.145 187.533 192.8 187.533H295.225C301.88 187.533 307.275 182.185 307.275 175.588V163.644C307.275 157.047 301.88 151.699 295.225 151.699Z" fill="#B8B8B8"/>
<g opacity="0.6">
<path opacity="0.6" d="M65.1682 46.7502C65.1682 47.1744 65.0168 47.5965 64.7047 47.9341C59.9457 53.1084 57.3253 59.7479 57.3253 66.6313C57.3253 73.5145 59.9457 80.154 64.7069 85.3284C65.3668 86.048 65.3124 87.1594 64.591 87.8134C63.8674 88.4676 62.7439 88.416 62.084 87.6985C56.7268 81.8726 53.7773 74.3914 53.7773 66.6313C53.7773 58.871 56.7268 51.3898 62.084 45.5639C62.7439 44.8465 63.865 44.7949 64.591 45.4491C64.9742 45.796 65.1682 46.2718 65.1682 46.7502Z" fill="#B8B8B8"/>
<path opacity="0.6" d="M76.7595 43.7735C76.7595 44.3384 76.4852 44.8964 75.9742 45.2341C68.642 50.1152 64.2641 58.1145 64.2641 66.6319C64.2641 75.1495 68.642 83.1487 75.9742 88.03C76.7902 88.5715 77.0077 89.6664 76.4591 90.4705C75.9128 91.2771 74.8104 91.4927 73.9968 90.9512C65.6833 85.416 60.7188 76.3241 60.7188 66.6319C60.7188 56.94 65.6833 47.8481 73.9993 42.3128C74.8128 41.7714 75.915 41.9846 76.4615 42.7934C76.6625 43.0936 76.7595 43.4334 76.7595 43.7735Z" fill="#B8B8B8"/>
<path opacity="0.6" d="M110.541 72.1856C110.541 72.6381 110.366 73.0906 110.016 73.4352C109.626 73.8196 100.347 82.8295 91.4138 82.8295C82.1421 82.8295 74.5996 75.5639 74.5996 66.6315C74.5996 57.6992 82.1421 50.4336 91.4138 50.4336C92.3928 50.4336 93.1875 51.2213 93.1875 52.192C93.1875 53.1625 92.3928 53.9502 91.4138 53.9502C84.0982 53.9502 78.1473 59.638 78.1473 66.6315C78.1473 73.6251 84.0982 79.3127 91.4138 79.3127C98.9043 79.3127 107.433 71.0204 107.518 70.936C108.214 70.2514 109.337 70.256 110.028 70.9478C110.371 71.29 110.541 71.7377 110.541 72.1856Z" fill="#B8B8B8"/>
<path opacity="0.6" d="M110.541 61.0784C110.541 65.3077 102.424 75.1123 93.3842 76.0619C90.1889 76.3971 86.9201 75.389 84.6401 73.368C82.658 71.6096 81.5583 69.2346 81.544 66.6815V66.6324C81.544 64.1425 82.5303 61.7887 84.3256 59.9976C86.2012 58.1267 88.72 57.0975 91.4164 57.0975H92.573C95.423 57.0975 97.7408 54.8983 97.7408 52.1929C97.7408 49.4873 95.423 47.2859 92.573 47.2859H92.1685C81.1231 47.2859 71.9344 55.2172 71.2531 65.3429C70.8912 70.6226 72.7315 75.6866 76.4164 79.5949C80.2432 83.6508 85.7115 85.9766 91.4164 85.9766C96.1089 85.9766 100.681 84.4011 104.29 81.5408C105.056 80.936 106.17 81.0578 106.783 81.8175C107.395 82.5748 107.27 83.6813 106.504 84.2908C102.268 87.6458 96.9084 89.4956 91.414 89.4956C84.73 89.4956 78.318 86.7619 73.8242 82.0003C69.4581 77.3748 67.2869 71.3777 67.7102 65.1132C68.5168 53.1471 79.2594 43.7715 92.1661 43.7715H92.5706C97.3767 43.7715 101.286 47.5507 101.286 52.1951C101.286 56.8395 97.3767 60.6165 92.5706 60.6165H91.414C89.6685 60.6165 88.046 61.2777 86.8398 62.4781C85.7091 63.6032 85.0895 65.078 85.0895 66.6324C85.0895 66.6441 85.0895 66.6535 85.0895 66.6652C85.099 68.6464 86.1373 69.9804 87.0053 70.7492C88.5497 72.1208 90.7968 72.8007 93.0106 72.5685C100.385 71.7925 106.996 63.3924 106.996 61.0808C106.996 60.1101 107.791 59.3224 108.77 59.3224C109.749 59.3224 110.541 60.1077 110.541 61.0784Z" fill="#B8B8B8"/>
<path opacity="0.6" d="M107.072 54.5533C107.072 60.8459 99.3145 68.5286 90.2583 68.5286C89.2791 68.5286 88.4844 67.7408 88.4844 66.7703C88.4844 65.7996 89.2791 65.0119 90.2583 65.0119C97.2781 65.0119 103.525 59.1625 103.525 54.5533C103.525 53.5827 104.319 52.7949 105.299 52.7949C106.278 52.7949 107.072 53.5827 107.072 54.5533Z" fill="#B8B8B8"/>
</g>
<g opacity="0.6">
<path opacity="0.6" d="M65.1682 123.748C65.1682 124.173 65.0168 124.595 64.7047 124.932C59.9457 130.106 57.3253 136.746 57.3253 143.629C57.3253 150.513 59.9457 157.152 64.7069 162.326C65.3668 163.046 65.3124 164.157 64.591 164.812C63.8674 165.466 62.7439 165.414 62.084 164.697C56.7268 158.871 53.7773 151.389 53.7773 143.629C53.7773 135.869 56.7268 128.388 62.084 122.562C62.7439 121.845 63.865 121.793 64.591 122.447C64.9742 122.794 65.1682 123.27 65.1682 123.748Z" fill="#B8B8B8"/>
<path opacity="0.6" d="M76.7595 120.771C76.7595 121.337 76.4852 121.894 75.9742 122.232C68.642 127.113 64.2641 135.113 64.2641 143.63C64.2641 152.148 68.642 160.147 75.9742 165.028C76.7902 165.57 77.0077 166.664 76.4591 167.469C75.9128 168.275 74.8104 168.491 73.9968 167.949C65.6833 162.414 60.7188 153.322 60.7188 143.63C60.7188 133.938 65.6833 124.846 73.9993 119.311C74.8128 118.769 75.915 118.983 76.4615 119.792C76.6625 120.092 76.7595 120.432 76.7595 120.771Z" fill="#B8B8B8"/>
<path opacity="0.6" d="M110.541 149.186C110.541 149.638 110.366 150.091 110.016 150.435C109.626 150.82 100.347 159.829 91.4138 159.829C82.1421 159.829 74.5996 152.564 74.5996 143.632C74.5996 134.699 82.1421 127.434 91.4138 127.434C92.3928 127.434 93.1875 128.221 93.1875 129.192C93.1875 130.163 92.3928 130.95 91.4138 130.95C84.0982 130.95 78.1473 136.638 78.1473 143.632C78.1473 150.625 84.0982 156.313 91.4138 156.313C98.9043 156.313 107.433 148.02 107.518 147.936C108.214 147.251 109.337 147.256 110.028 147.948C110.371 148.29 110.541 148.738 110.541 149.186Z" fill="#B8B8B8"/>
<path opacity="0.6" d="M110.543 138.076C110.543 142.306 102.426 152.11 93.3861 153.06C90.1908 153.395 86.9221 152.387 84.642 150.366C82.66 148.608 81.5602 146.233 81.546 143.68V143.631C81.546 141.141 82.5323 138.787 84.3275 136.996C86.2031 135.125 88.722 134.096 91.4183 134.096H92.5749C95.425 134.096 97.7428 131.896 97.7428 129.191C97.7428 126.485 95.425 124.284 92.5749 124.284H92.1705C81.125 124.284 71.9363 132.215 71.2551 142.341C70.8932 147.621 72.7334 152.685 76.4183 156.593C80.2452 160.649 85.7135 162.975 91.4183 162.975C96.1108 162.975 100.683 161.399 104.292 158.539C105.058 157.934 106.172 158.056 106.785 158.816C107.397 159.573 107.272 160.68 106.506 161.289C102.27 164.644 96.9103 166.494 91.4159 166.494C84.732 166.494 78.32 163.76 73.8262 158.999C69.46 154.373 67.2888 148.376 67.7122 142.111C68.5187 130.145 79.2613 120.77 92.1681 120.77H92.5725C97.3787 120.77 101.288 124.549 101.288 129.193C101.288 133.838 97.3787 137.615 92.5725 137.615H91.4159C89.6705 137.615 88.048 138.276 86.8418 139.476C85.7111 140.601 85.0915 142.076 85.0915 143.631C85.0915 143.642 85.0915 143.652 85.0915 143.663C85.1009 145.644 86.1392 146.978 87.0072 147.747C88.5516 149.119 90.7988 149.799 93.0126 149.567C100.387 148.791 106.998 140.39 106.998 138.079C106.998 137.108 107.792 136.32 108.772 136.32C109.751 136.32 110.543 137.106 110.543 138.076Z" fill="#B8B8B8"/>
<path opacity="0.6" d="M107.072 131.551C107.072 137.844 99.3145 145.527 90.2583 145.527C89.2791 145.527 88.4844 144.739 88.4844 143.768C88.4844 142.798 89.2791 142.01 90.2583 142.01C97.2781 142.01 103.525 136.161 103.525 131.551C103.525 130.581 104.319 129.793 105.299 129.793C106.278 129.793 107.072 130.581 107.072 131.551Z" fill="#B8B8B8"/>
</g>
</svg>
