<svg width="21" height="20" viewBox="0 0 21 20" fill="none" xmlns="http://www.w3.org/2000/svg">
<path fill-rule="evenodd" clip-rule="evenodd" d="M10.5 8.75C10.8452 8.75 11.125 9.02982 11.125 9.375V16.875C11.125 17.2202 10.8452 17.5 10.5 17.5C10.1548 17.5 9.875 17.2202 9.875 16.875V9.375C9.875 9.02982 10.1548 8.75 10.5 8.75Z" fill="#1D9752"/>
<path fill-rule="evenodd" clip-rule="evenodd" d="M10.5 2.5C10.8452 2.5 11.125 2.77982 11.125 3.125V6.875C11.125 7.22018 10.8452 7.5 10.5 7.5C10.1548 7.5 9.875 7.22018 9.875 6.875V3.125C9.875 2.77982 10.1548 2.5 10.5 2.5Z" fill="#1D9752"/>
<path fill-rule="evenodd" clip-rule="evenodd" d="M16.125 15C16.4702 15 16.75 15.2798 16.75 15.625V16.875C16.75 17.2202 16.4702 17.5 16.125 17.5C15.7798 17.5 15.5 17.2202 15.5 16.875V15.625C15.5 15.2798 15.7798 15 16.125 15Z" fill="#1D9752"/>
<path fill-rule="evenodd" clip-rule="evenodd" d="M16.125 2.5C16.4702 2.5 16.75 2.77982 16.75 3.125V13.125C16.75 13.4702 16.4702 13.75 16.125 13.75C15.7798 13.75 15.5 13.4702 15.5 13.125V3.125C15.5 2.77982 15.7798 2.5 16.125 2.5Z" fill="#1D9752"/>
<path fill-rule="evenodd" clip-rule="evenodd" d="M13.625 13.125C13.625 12.7798 13.9048 12.5 14.25 12.5H18C18.3452 12.5 18.625 12.7798 18.625 13.125C18.625 13.4702 18.3452 13.75 18 13.75H14.25C13.9048 13.75 13.625 13.4702 13.625 13.125Z" fill="#1D9752"/>
<path fill-rule="evenodd" clip-rule="evenodd" d="M4.875 12.5C5.22018 12.5 5.5 12.7798 5.5 13.125V16.875C5.5 17.2202 5.22018 17.5 4.875 17.5C4.52982 17.5 4.25 17.2202 4.25 16.875V13.125C4.25 12.7798 4.52982 12.5 4.875 12.5Z" fill="#1D9752"/>
<path fill-rule="evenodd" clip-rule="evenodd" d="M4.875 2.5C5.22018 2.5 5.5 2.77982 5.5 3.125V10.625C5.5 10.9702 5.22018 11.25 4.875 11.25C4.52982 11.25 4.25 10.9702 4.25 10.625V3.125C4.25 2.77982 4.52982 2.5 4.875 2.5Z" fill="#1D9752"/>
<path fill-rule="evenodd" clip-rule="evenodd" d="M2.375 10.625C2.375 10.2798 2.65482 10 3 10H6.75C7.09518 10 7.375 10.2798 7.375 10.625C7.375 10.9702 7.09518 11.25 6.75 11.25H3C2.65482 11.25 2.375 10.9702 2.375 10.625Z" fill="#1D9752"/>
<path fill-rule="evenodd" clip-rule="evenodd" d="M8 6.875C8 6.52982 8.27982 6.25 8.625 6.25H12.375C12.7202 6.25 13 6.52982 13 6.875C13 7.22018 12.7202 7.5 12.375 7.5H8.625C8.27982 7.5 8 7.22018 8 6.875Z" fill="#1D9752"/>
</svg>
