<svg width="16" height="16" viewBox="0 0 16 16" fill="none" xmlns="http://www.w3.org/2000/svg">
<path fill-rule="evenodd" clip-rule="evenodd" d="M2.00065 9.33325C2.36884 9.33325 2.66732 9.63173 2.66732 9.99992V12.6666C2.66732 12.8434 2.73756 13.013 2.86258 13.138C2.9876 13.263 3.15717 13.3333 3.33398 13.3333H12.6673C12.8441 13.3333 13.0137 13.263 13.1387 13.138C13.2637 13.013 13.334 12.8434 13.334 12.6666V9.99992C13.334 9.63173 13.6325 9.33325 14.0007 9.33325C14.3688 9.33325 14.6673 9.63173 14.6673 9.99992V12.6666C14.6673 13.197 14.4566 13.7057 14.0815 14.0808C13.7065 14.4559 13.1978 14.6666 12.6673 14.6666H3.33398C2.80355 14.6666 2.29484 14.4559 1.91977 14.0808C1.5447 13.7057 1.33398 13.197 1.33398 12.6666V9.99992C1.33398 9.63173 1.63246 9.33325 2.00065 9.33325Z" fill="#1D9752"/>
<path fill-rule="evenodd" clip-rule="evenodd" d="M4.19526 6.19526C4.45561 5.93491 4.87772 5.93491 5.13807 6.19526L8 9.05719L10.8619 6.19526C11.1223 5.93491 11.5444 5.93491 11.8047 6.19526C12.0651 6.45561 12.0651 6.87772 11.8047 7.13807L8.4714 10.4714C8.21106 10.7318 7.78894 10.7318 7.5286 10.4714L4.19526 7.13807C3.93491 6.87772 3.93491 6.45561 4.19526 6.19526Z" fill="#1D9752"/>
<path fill-rule="evenodd" clip-rule="evenodd" d="M8.00065 1.33325C8.36884 1.33325 8.66732 1.63173 8.66732 1.99992V9.99992C8.66732 10.3681 8.36884 10.6666 8.00065 10.6666C7.63246 10.6666 7.33398 10.3681 7.33398 9.99992V1.99992C7.33398 1.63173 7.63246 1.33325 8.00065 1.33325Z" fill="#1D9752"/>
</svg>
