<svg width="362" height="480" viewBox="0 0 362 480" fill="none" xmlns="http://www.w3.org/2000/svg">
<rect x="0.5" width="361.5" height="480" rx="8" fill="#F5F5F5"/>
<path d="M242.836 172.626H119.664C116.674 172.626 114.25 174.86 114.25 177.617V302.384C114.25 305.14 116.674 307.375 119.664 307.375H242.836C245.826 307.375 248.25 305.14 248.25 302.384V177.617C248.25 174.86 245.826 172.626 242.836 172.626Z" fill="#F5F5F5"/>
<path fill-rule="evenodd" clip-rule="evenodd" d="M201.406 224.879C201.406 235.185 192.442 243.45 181.253 243.45C170.068 243.45 161.1 235.185 161.1 224.879C161.1 214.573 170.068 206.312 181.253 206.312C192.442 206.312 201.406 214.573 201.406 224.879ZM181.253 276.495C164.741 276.495 150.799 274.022 150.799 264.477C150.799 254.928 164.829 252.542 181.253 252.542C197.77 252.542 211.708 255.016 211.708 264.561C211.708 274.109 197.678 276.495 181.253 276.495Z" fill="#B8B8B8"/>
</svg>
