<svg width="20" height="20" viewBox="0 0 20 20" fill="none" xmlns="http://www.w3.org/2000/svg">
<path fill-rule="evenodd" clip-rule="evenodd" d="M11.666 2.50033C11.666 2.04009 12.0391 1.66699 12.4993 1.66699H15.8327C16.4957 1.66699 17.1316 1.93038 17.6004 2.39923C18.0693 2.86807 18.3327 3.50395 18.3327 4.16699V15.8337C18.3327 16.4967 18.0693 17.1326 17.6004 17.6014C17.1316 18.0703 16.4957 18.3337 15.8327 18.3337H12.4993C12.0391 18.3337 11.666 17.9606 11.666 17.5003C11.666 17.0401 12.0391 16.667 12.4993 16.667H15.8327C16.0537 16.667 16.2657 16.5792 16.4219 16.4229C16.5782 16.2666 16.666 16.0547 16.666 15.8337V4.16699C16.666 3.94598 16.5782 3.73402 16.4219 3.57774C16.2657 3.42146 16.0537 3.33366 15.8327 3.33366H12.4993C12.0391 3.33366 11.666 2.96056 11.666 2.50033Z" fill="#C70404"/>
<path fill-rule="evenodd" clip-rule="evenodd" d="M7.74408 5.24408C8.06951 4.91864 8.59715 4.91864 8.92259 5.24408L13.0893 9.41074C13.4147 9.73618 13.4147 10.2638 13.0893 10.5893L8.92259 14.7559C8.59715 15.0814 8.06951 15.0814 7.74408 14.7559C7.41864 14.4305 7.41864 13.9028 7.74408 13.5774L11.3215 10L7.74408 6.42259C7.41864 6.09715 7.41864 5.56951 7.74408 5.24408Z" fill="#C70404"/>
<path fill-rule="evenodd" clip-rule="evenodd" d="M1.66602 10.0003C1.66602 9.54009 2.03911 9.16699 2.49935 9.16699H12.4993C12.9596 9.16699 13.3327 9.54009 13.3327 10.0003C13.3327 10.4606 12.9596 10.8337 12.4993 10.8337H2.49935C2.03911 10.8337 1.66602 10.4606 1.66602 10.0003Z" fill="#C70404"/>
</svg>
