<svg width="32" height="32" viewBox="0 0 32 32" fill="none" xmlns="http://www.w3.org/2000/svg">
<path fill-rule="evenodd" clip-rule="evenodd" d="M2.66663 15.9998C2.66663 15.2635 3.26358 14.6665 3.99996 14.6665H28C28.7363 14.6665 29.3333 15.2635 29.3333 15.9998C29.3333 16.7362 28.7363 17.3332 28 17.3332H3.99996C3.26358 17.3332 2.66663 16.7362 2.66663 15.9998Z" fill="black"/>
<path fill-rule="evenodd" clip-rule="evenodd" d="M2.66663 7.99984C2.66663 7.26346 3.26358 6.6665 3.99996 6.6665H28C28.7363 6.6665 29.3333 7.26346 29.3333 7.99984C29.3333 8.73622 28.7363 9.33317 28 9.33317H3.99996C3.26358 9.33317 2.66663 8.73622 2.66663 7.99984Z" fill="black"/>
<path fill-rule="evenodd" clip-rule="evenodd" d="M2.66663 23.9998C2.66663 23.2635 3.26358 22.6665 3.99996 22.6665H28C28.7363 22.6665 29.3333 23.2635 29.3333 23.9998C29.3333 24.7362 28.7363 25.3332 28 25.3332H3.99996C3.26358 25.3332 2.66663 24.7362 2.66663 23.9998Z" fill="black"/>
</svg>
