<svg width="32" height="36" viewBox="0 0 32 36" fill="none" xmlns="http://www.w3.org/2000/svg">
<path fill-rule="evenodd" clip-rule="evenodd" d="M9.82889 9.27057C11.4656 7.60337 13.6854 6.66675 16 6.66675C18.3146 6.66675 20.5344 7.60337 22.1711 9.27057C23.8078 10.9378 24.7273 13.199 24.7273 15.5568V18.8905C24.7273 20.3187 25.335 21.2 26.0907 22.0724C26.1781 22.1733 26.2742 22.281 26.3746 22.3936C26.6785 22.7345 27.0222 23.1199 27.2854 23.4953C27.6641 24.0352 28 24.7114 28 25.558C28 26.5006 27.4611 27.2337 26.8129 27.7508C26.1645 28.268 25.2854 28.6757 24.2724 28.9949C22.2354 29.6368 19.3894 30.003 16 30.003C12.6106 30.003 9.76462 29.6368 7.7276 28.9949C6.71465 28.6757 5.83552 28.268 5.18709 27.7508C4.53886 27.2337 4 26.5006 4 25.558C4 24.7114 4.33594 24.0352 4.71456 23.4953C4.97778 23.1199 5.32148 22.7345 5.62543 22.3936C5.72583 22.281 5.82188 22.1733 5.90927 22.0724C6.66499 21.2 7.27273 20.3187 7.27273 18.8905V15.5568C7.27273 13.199 8.1922 10.9378 9.82889 9.27057ZM16 8.88925C14.264 8.88925 12.5992 9.59172 11.3717 10.8421C10.1442 12.0925 9.45455 13.7884 9.45455 15.5568V18.8905C9.45455 21.1294 8.42592 22.5262 7.54528 23.5429C7.40358 23.7065 7.27488 23.8508 7.15696 23.9831C6.88688 24.286 6.67339 24.5255 6.48998 24.7871C6.25497 25.1222 6.18182 25.3489 6.18182 25.558C6.18171 25.5631 6.1785 25.7188 6.53223 26.001C6.88948 26.2859 7.4899 26.5936 8.3724 26.8717C10.1263 27.4244 12.7348 27.7805 16 27.7805C19.2652 27.7805 21.8737 27.4244 23.6276 26.8717C24.5101 26.5936 25.1105 26.2859 25.4678 26.001C25.8215 25.7188 25.8183 25.5632 25.8182 25.5581C25.8182 25.349 25.745 25.1222 25.51 24.7871C25.3266 24.5255 25.1131 24.286 24.843 23.9831C24.7251 23.8508 24.5964 23.7065 24.4547 23.5429C23.5741 22.5262 22.5455 21.1294 22.5455 18.8905V15.5568C22.5455 13.7884 21.8558 12.0925 20.6283 10.8421C19.4008 9.59172 17.736 8.88925 16 8.88925Z" fill="#676767"/>
<path d="M16 31.1143C14.8971 31.1143 13.8607 31.0765 12.8855 31.0031C13.0934 31.6787 13.5076 32.2691 14.0678 32.6882C14.628 33.1074 15.3049 33.3334 16 33.3334C16.6951 33.3334 17.372 33.1074 17.9322 32.6882C18.4924 32.2691 18.9066 31.6787 19.1145 31.0031C18.1393 31.0765 17.1029 31.1143 16 31.1143Z" fill="#676767"/>
<circle cx="24" cy="7" r="5" fill="#C70404" stroke="white" stroke-width="2"/>
</svg>
