<svg width="16" height="16" viewBox="0 0 16 16" fill="none" xmlns="http://www.w3.org/2000/svg">
<path fill-rule="evenodd" clip-rule="evenodd" d="M10.1953 3.52851C10.4556 3.26816 10.8777 3.26816 11.1381 3.52851L15.1381 7.52851C15.3984 7.78886 15.3984 8.21097 15.1381 8.47132L11.1381 12.4713C10.8777 12.7317 10.4556 12.7317 10.1953 12.4713C9.93491 12.211 9.93491 11.7889 10.1953 11.5285L13.7239 7.99992L10.1953 4.47132C9.93491 4.21097 9.93491 3.78886 10.1953 3.52851Z" fill="#676767"/>
<path fill-rule="evenodd" clip-rule="evenodd" d="M5.80506 3.52851C6.06541 3.78886 6.06541 4.21097 5.80506 4.47132L2.27647 7.99992L5.80506 11.5285C6.06541 11.7889 6.06541 12.211 5.80506 12.4713C5.54471 12.7317 5.1226 12.7317 4.86225 12.4713L0.862254 8.47132C0.601905 8.21097 0.601905 7.78886 0.862254 7.52851L4.86225 3.52851C5.1226 3.26816 5.54471 3.26816 5.80506 3.52851Z" fill="#676767"/>
</svg>
