<svg width="16" height="17" viewBox="0 0 16 17" fill="none" xmlns="http://www.w3.org/2000/svg">
<path fill-rule="evenodd" clip-rule="evenodd" d="M10.442 3.01561C9.26012 2.48901 7.93972 2.35856 6.67767 2.6437C5.41563 2.92884 4.27957 3.6143 3.43893 4.59785C2.59828 5.58141 2.0981 6.81035 2.01297 8.1014C1.92783 9.39245 2.26232 10.6764 2.96654 11.7619C3.67075 12.8473 4.70697 13.676 5.92064 14.1244C7.13432 14.5728 8.46042 14.6168 9.70117 14.25C10.9419 13.8831 12.0309 13.125 12.8056 12.0887C13.5803 11.0524 13.9992 9.79346 14 8.49961V7.88666C14 7.51847 14.2984 7.21999 14.6666 7.21999C15.0348 7.21999 15.3333 7.51847 15.3333 7.88666V8.49999C15.3324 10.0814 14.8203 11.6205 13.8735 12.887C12.9266 14.1536 11.5957 15.0802 10.0792 15.5286C8.56274 15.9769 6.94195 15.9231 5.45857 15.3751C3.97519 14.827 2.70871 13.8142 1.848 12.4876C0.987288 11.1609 0.578473 9.59162 0.682522 8.01367C0.786572 6.43572 1.39791 4.93368 2.42536 3.73156C3.45282 2.52944 4.84133 1.69165 6.38383 1.34315C7.92633 0.99464 9.54016 1.15409 10.9846 1.79771C11.3209 1.94756 11.4721 2.34168 11.3222 2.67799C11.1724 3.01431 10.7783 3.16546 10.442 3.01561Z" fill="#C70404"/>
<path fill-rule="evenodd" clip-rule="evenodd" d="M15.1379 2.69503C15.3984 2.95525 15.3986 3.37736 15.1383 3.63784L8.47168 10.3112C8.34668 10.4363 8.17708 10.5066 8.00021 10.5067C7.82334 10.5067 7.6537 10.4365 7.52864 10.3114L5.52864 8.3114C5.26829 8.05105 5.26829 7.62894 5.52864 7.3686C5.78899 7.10825 6.2111 7.10825 6.47145 7.3686L7.9998 8.89696L14.1951 2.6955C14.4553 2.43502 14.8774 2.43481 15.1379 2.69503Z" fill="#C70404"/>
</svg>
