<svg width="16" height="16" viewBox="0 0 16 16" fill="none" xmlns="http://www.w3.org/2000/svg">
<g clip-path="url(#clip0_2859_43917)">
<path fill-rule="evenodd" clip-rule="evenodd" d="M7.99935 2.00008C4.68564 2.00008 1.99935 4.68637 1.99935 8.00008C1.99935 11.3138 4.68564 14.0001 7.99935 14.0001C11.3131 14.0001 13.9993 11.3138 13.9993 8.00008C13.9993 4.68637 11.3131 2.00008 7.99935 2.00008ZM0.666016 8.00008C0.666016 3.94999 3.94926 0.666748 7.99935 0.666748C12.0494 0.666748 15.3327 3.94999 15.3327 8.00008C15.3327 12.0502 12.0494 15.3334 7.99935 15.3334C3.94926 15.3334 0.666016 12.0502 0.666016 8.00008Z" fill="#C62828"/>
<path fill-rule="evenodd" clip-rule="evenodd" d="M8.00065 4.66675C8.36884 4.66675 8.66732 4.96522 8.66732 5.33341V8.00008C8.66732 8.36827 8.36884 8.66675 8.00065 8.66675C7.63246 8.66675 7.33398 8.36827 7.33398 8.00008V5.33341C7.33398 4.96522 7.63246 4.66675 8.00065 4.66675Z" fill="#C62828"/>
<path fill-rule="evenodd" clip-rule="evenodd" d="M7.33398 10.6667C7.33398 10.2985 7.63246 10 8.00065 10H8.00732C8.37551 10 8.67398 10.2985 8.67398 10.6667C8.67398 11.0349 8.37551 11.3333 8.00732 11.3333H8.00065C7.63246 11.3333 7.33398 11.0349 7.33398 10.6667Z" fill="#C62828"/>
</g>
<defs>
<clipPath id="clip0_2859_43917">
<rect width="16" height="16" fill="white"/>
</clipPath>
</defs>
</svg>
