<svg width="42" height="42" viewBox="0 0 42 42" fill="none" xmlns="http://www.w3.org/2000/svg">
<g clip-path="url(#clip0_2859_46317)">
<path d="M24.9375 3.955L24.7975 3.885L24.78 3.92C23.555 3.6575 22.295 3.5 21 3.5C11.34 3.5 3.5 11.34 3.5 21C3.5 30.66 11.34 38.5 21 38.5C30.66 38.5 38.5 30.66 38.5 21C38.5 12.6875 32.7075 5.74 24.9375 3.955ZM33.9675 15.75H19.985L24.7275 7.525C28.9275 8.68 32.34 11.76 33.9675 15.75ZM22.925 7.14L17.9725 15.75L15.96 19.25L11.2 11.025C13.72 8.54 17.185 7 21 7C21.6475 7 22.295 7.0525 22.925 7.14ZM9.975 12.4075L14.945 21L16.9575 24.5H7.455C7.175 23.38 7 22.2075 7 21C7 17.7625 8.12 14.7875 9.975 12.4075ZM8.0325 26.25H21.9975L17.255 34.475C13.055 33.3025 9.66 30.24 8.0325 26.25ZM19.075 34.8425L26.0575 22.75L30.8175 30.975C28.28 33.46 24.815 35 21 35C20.335 35 19.705 34.93 19.075 34.8425ZM32.025 29.5925L25.025 17.5H34.5275C34.825 18.62 35 19.7925 35 21C35 24.2375 33.88 27.2125 32.025 29.5925Z" fill="white"/>
</g>
<defs>
<clipPath id="clip0_2859_46317">
<rect width="42" height="42" fill="white"/>
</clipPath>
</defs>
</svg>
