<svg width="20" height="20" viewBox="0 0 20 20" fill="none" xmlns="http://www.w3.org/2000/svg">
<path fill-rule="evenodd" clip-rule="evenodd" d="M3.33398 10.0001C3.33398 9.53984 3.70708 9.16675 4.16732 9.16675H15.834C16.2942 9.16675 16.6673 9.53984 16.6673 10.0001C16.6673 10.4603 16.2942 10.8334 15.834 10.8334H4.16732C3.70708 10.8334 3.33398 10.4603 3.33398 10.0001Z" fill="white"/>
<path fill-rule="evenodd" clip-rule="evenodd" d="M10.5899 3.57733C10.9153 3.90277 10.9153 4.4304 10.5899 4.75584L5.34583 9.99992L10.5899 15.244C10.9153 15.5694 10.9153 16.0971 10.5899 16.4225C10.2645 16.7479 9.73683 16.7479 9.4114 16.4225L3.57806 10.5892C3.25263 10.2637 3.25263 9.7361 3.57806 9.41066L9.4114 3.57733C9.73683 3.25189 10.2645 3.25189 10.5899 3.57733Z" fill="white"/>
</svg>
