<svg width="20" height="20" viewBox="0 0 20 20" fill="none" xmlns="http://www.w3.org/2000/svg">
<path fill-rule="evenodd" clip-rule="evenodd" d="M3.33331 10.0001C3.33331 9.53984 3.70641 9.16675 4.16665 9.16675H15.8333C16.2936 9.16675 16.6666 9.53984 16.6666 10.0001C16.6666 10.4603 16.2936 10.8334 15.8333 10.8334H4.16665C3.70641 10.8334 3.33331 10.4603 3.33331 10.0001Z" fill="white"/>
<path fill-rule="evenodd" clip-rule="evenodd" d="M9.41076 3.57733C9.7362 3.25189 10.2638 3.25189 10.5893 3.57733L16.4226 9.41066C16.748 9.7361 16.748 10.2637 16.4226 10.5892L10.5893 16.4225C10.2638 16.7479 9.7362 16.7479 9.41076 16.4225C9.08533 16.0971 9.08533 15.5694 9.41076 15.244L14.6548 9.99992L9.41076 4.75584C9.08533 4.4304 9.08533 3.90277 9.41076 3.57733Z" fill="white"/>
</svg>
