<svg width="171" height="53" viewBox="0 0 171 53" fill="none" xmlns="http://www.w3.org/2000/svg">
<path d="M163.549 52.2385H6.57676C2.94937 52.2385 0 49.2891 0 45.6617V7.08262C0 3.45523 2.94937 0.505859 6.57676 0.505859H163.549C167.176 0.505859 170.126 3.45523 170.126 7.08262V45.673C170.126 49.3004 167.188 52.2385 163.549 52.2385Z" fill="#595959"/>
<path d="M55.7555 31.7601H58.1286V37.1391C57.4393 37.6928 56.6256 38.1109 55.699 38.416C54.7724 38.7098 53.8232 38.8567 52.84 38.8567C51.4614 38.8567 50.2184 38.5629 49.1223 37.964C48.0148 37.3651 47.1447 36.5402 46.5232 35.4892C45.8904 34.4383 45.574 33.2405 45.574 31.9183C45.574 30.5962 45.8904 29.4097 46.5232 28.3475C47.156 27.2965 48.0261 26.4716 49.1336 25.8727C50.241 25.2738 51.4953 24.98 52.8853 24.98C54.0153 24.98 55.0436 25.1721 55.9702 25.545C56.8968 25.9179 57.6766 26.4603 58.3094 27.1835L56.7273 28.7317C55.699 27.7033 54.456 27.1835 53.0096 27.1835C52.0603 27.1835 51.2128 27.3869 50.4783 27.7825C49.7438 28.178 49.1562 28.743 48.7381 29.4662C48.3199 30.1894 48.1165 31.0143 48.1165 31.9296C48.1165 32.8337 48.3199 33.636 48.7381 34.3592C49.1562 35.0824 49.7325 35.6474 50.4783 36.0542C51.2128 36.4611 52.0603 36.6758 52.9983 36.6758C54.0492 36.6758 54.9758 36.4498 55.7781 35.9864V31.7601H55.7555Z" fill="white"/>
<path d="M63.0108 38.1221C62.1746 37.6701 61.5192 37.0486 61.0558 36.2463C60.5812 35.4439 60.3552 34.5286 60.3552 33.5116C60.3552 32.4946 60.5925 31.5905 61.0558 30.7882C61.5305 29.9859 62.1746 29.3644 63.0108 28.9124C63.847 28.4604 64.7849 28.2344 65.8246 28.2344C66.8755 28.2344 67.8247 28.4604 68.6609 28.9124C69.4971 29.3644 70.1526 29.9859 70.6159 30.7882C71.0905 31.5905 71.3165 32.4946 71.3165 33.5116C71.3165 34.5286 71.0792 35.4326 70.6159 36.2463C70.1413 37.0486 69.4971 37.6814 68.6609 38.1221C67.8247 38.5741 66.8755 38.8001 65.8246 38.8001C64.7849 38.8001 63.847 38.5741 63.0108 38.1221ZM68.0281 35.8507C68.6044 35.2631 68.8982 34.4834 68.8982 33.5116C68.8982 32.5511 68.6044 31.7714 68.0281 31.1724C67.4518 30.5848 66.7173 30.2797 65.8246 30.2797C64.9318 30.2797 64.2086 30.5735 63.6323 31.1724C63.056 31.7601 62.7735 32.5398 62.7735 33.5116C62.7735 34.4721 63.056 35.2518 63.6323 35.8507C64.2086 36.4384 64.9318 36.7435 65.8246 36.7435C66.7173 36.7322 67.4405 36.4384 68.0281 35.8507Z" fill="white"/>
<path d="M75.4519 38.1221C74.6157 37.6701 73.9603 37.0486 73.497 36.2463C73.0224 35.4439 72.7964 34.5286 72.7964 33.5116C72.7964 32.4946 73.0337 31.5905 73.497 30.7882C73.9716 29.9859 74.6157 29.3644 75.4519 28.9124C76.2882 28.4604 77.2261 28.2344 78.2657 28.2344C79.3166 28.2344 80.2659 28.4604 81.1021 28.9124C81.9383 29.3644 82.5937 29.9859 83.057 30.7882C83.5316 31.5905 83.7576 32.4946 83.7576 33.5116C83.7576 34.5286 83.5203 35.4326 83.057 36.2463C82.5824 37.0486 81.9383 37.6814 81.1021 38.1221C80.2659 38.5741 79.3166 38.8001 78.2657 38.8001C77.2261 38.8001 76.2882 38.5741 75.4519 38.1221ZM80.4693 35.8507C81.0456 35.2631 81.3394 34.4834 81.3394 33.5116C81.3394 32.5511 81.0456 31.7714 80.4693 31.1724C79.8929 30.5848 79.1584 30.2797 78.2657 30.2797C77.373 30.2797 76.6498 30.5735 76.0735 31.1724C75.4971 31.7601 75.2146 32.5398 75.2146 33.5116C75.2146 34.4721 75.4971 35.2518 76.0735 35.8507C76.6498 36.4384 77.373 36.7435 78.2657 36.7435C79.1584 36.7322 79.8816 36.4384 80.4693 35.8507Z" fill="white"/>
<path d="M96.3011 28.3649V37.1C96.3011 40.7274 94.4479 42.5354 90.7414 42.5354C89.747 42.5354 88.8091 42.4111 87.9276 42.1625C87.0349 41.9139 86.3117 41.5523 85.7241 41.0777L86.8089 39.2696C87.2609 39.6426 87.8259 39.9364 88.5153 40.1624C89.2046 40.3884 89.9052 40.5014 90.6058 40.5014C91.7358 40.5014 92.5721 40.2415 93.0919 39.733C93.623 39.2131 93.8829 38.4334 93.8829 37.3825V36.8401C93.4761 37.2921 92.9676 37.6311 92.38 37.8571C91.7923 38.0831 91.1369 38.2074 90.4363 38.2074C89.4645 38.2074 88.5718 38.004 87.7807 37.5859C86.9897 37.1678 86.3682 36.5802 85.9049 35.8231C85.4529 35.0659 85.2156 34.1958 85.2156 33.224C85.2156 32.2522 85.4416 31.3821 85.9049 30.6249C86.3569 29.8678 86.9897 29.2915 87.7807 28.8847C88.5718 28.4779 89.4532 28.2632 90.4363 28.2632C91.1821 28.2632 91.8601 28.3875 92.4704 28.6248C93.0806 28.8734 93.5891 29.2463 94.0072 29.7435V28.3762H96.3011V28.3649ZM93.0467 35.3372C93.6343 34.7947 93.9281 34.0828 93.9281 33.2014C93.9281 32.3426 93.6343 31.642 93.0467 31.0996C92.4591 30.5571 91.7132 30.2859 90.7979 30.2859C89.8713 30.2859 89.1142 30.5571 88.5266 31.0996C87.9389 31.642 87.6451 32.3426 87.6451 33.2014C87.6451 34.0715 87.9389 34.7834 88.5266 35.3372C89.1142 35.8796 89.8713 36.1621 90.7979 36.1621C91.7132 36.1621 92.4704 35.8909 93.0467 35.3372Z" fill="white"/>
<path d="M99.4651 24.3472H101.872V38.6646H99.4651V24.3472Z" fill="white"/>
<path d="M114.686 34.2858H106.606C106.753 35.0429 107.115 35.6418 107.714 36.0939C108.313 36.5346 109.059 36.7606 109.94 36.7606C111.07 36.7606 112.008 36.3877 112.743 35.6418L114.031 37.1222C113.567 37.6759 112.98 38.094 112.279 38.3765C111.567 38.659 110.776 38.8059 109.884 38.8059C108.754 38.8059 107.759 38.5799 106.889 38.1279C106.03 37.6759 105.363 37.0544 104.889 36.252C104.414 35.4497 104.188 34.5344 104.188 33.5174C104.188 32.5117 104.414 31.6076 104.878 30.8053C105.33 30.003 105.962 29.3702 106.776 28.9295C107.59 28.4775 108.494 28.2515 109.511 28.2515C110.516 28.2515 111.409 28.4775 112.2 28.9182C112.991 29.3589 113.613 29.9804 114.053 30.794C114.494 31.5963 114.72 32.523 114.72 33.5852C114.72 33.7434 114.709 33.9807 114.686 34.2858ZM107.556 30.8618C107.025 31.3138 106.697 31.9241 106.584 32.6812H112.426C112.324 31.9354 112.008 31.3364 111.477 30.8731C110.946 30.4098 110.29 30.1838 109.511 30.1838C108.742 30.1838 108.087 30.4098 107.556 30.8618Z" fill="white"/>
<path d="M131.207 25.7389C132.077 26.1231 132.744 26.6768 133.207 27.4C133.671 28.1233 133.897 28.9708 133.897 29.9652C133.897 30.937 133.671 31.7959 133.207 32.5191C132.744 33.2423 132.077 33.8073 131.207 34.1915C130.337 34.5757 129.32 34.7678 128.145 34.7678H125.094V38.6664H122.585V25.1626H128.145C129.32 25.1626 130.337 25.3547 131.207 25.7389ZM130.518 31.9541C131.083 31.4907 131.365 30.824 131.365 29.9652C131.365 29.1064 131.083 28.4397 130.518 27.9764C129.953 27.513 129.128 27.287 128.032 27.287H125.105V32.6547H128.032C129.128 32.6434 129.953 32.4174 130.518 31.9541Z" fill="white"/>
<path d="M136.361 24.3472H138.768V38.6646H136.361V24.3472Z" fill="white"/>
<path d="M149.356 29.3363C150.158 30.0595 150.565 31.1556 150.565 32.6247V38.659H148.294V37.4047C148 37.8567 147.582 38.1957 147.028 38.433C146.485 38.6703 145.819 38.7946 145.05 38.7946C144.282 38.7946 143.604 38.659 143.028 38.3991C142.451 38.1392 141.999 37.7663 141.683 37.303C141.366 36.8284 141.208 36.3086 141.208 35.7096C141.208 34.783 141.547 34.0372 142.237 33.4835C142.926 32.9185 144.011 32.6473 145.491 32.6473H148.158V32.4891C148.158 31.7659 147.943 31.2121 147.514 30.8279C147.084 30.4437 146.44 30.2516 145.593 30.2516C145.016 30.2516 144.44 30.342 143.886 30.5228C143.321 30.7036 142.858 30.9522 142.474 31.2799L141.525 29.5284C142.067 29.1216 142.711 28.8052 143.468 28.5792C144.225 28.3645 145.028 28.2515 145.875 28.2515C147.39 28.2515 148.553 28.6131 149.356 29.3363ZM147.152 36.6363C147.627 36.3651 147.955 35.9696 148.147 35.4497V34.2519H145.661C144.271 34.2519 143.581 34.7039 143.581 35.6192C143.581 36.06 143.751 36.399 144.101 36.6589C144.451 36.9188 144.926 37.0431 145.548 37.0431C146.146 37.0431 146.689 36.9075 147.152 36.6363Z" fill="white"/>
<path d="M163.096 28.3569L158.271 39.4877C157.819 40.6064 157.277 41.3974 156.633 41.8495C155.988 42.3015 155.209 42.5388 154.293 42.5388C153.774 42.5388 153.276 42.4597 152.768 42.2902C152.271 42.1207 151.853 41.8947 151.536 41.6009L152.497 39.8267C152.723 40.0414 153.005 40.2222 153.322 40.3465C153.638 40.4708 153.954 40.5386 154.271 40.5386C154.7 40.5386 155.051 40.4256 155.322 40.2109C155.593 39.9962 155.853 39.6233 156.079 39.1148L156.248 38.708L151.751 28.3682H154.26L157.503 35.9846L160.757 28.3682H163.096V28.3569Z" fill="white"/>
<path d="M40.9412 25.715L34.4548 21.9746L29.1211 27.1275L33.9915 31.8397L40.9299 27.8281C41.3141 27.6134 41.5401 27.2066 41.5401 26.7659C41.5514 26.3252 41.3141 25.9297 40.9412 25.715Z" fill="white"/>
<path d="M33.3582 21.3445L26.2164 17.2199L10.5881 9.20801L28.2505 26.2827L33.3582 21.3445Z" fill="white"/>
<path d="M10.8489 44.7933L26.2511 36.3068L32.8957 32.476L28.2513 27.9785L10.8489 44.7933Z" fill="white"/>
<path d="M9.54848 9.90137L9.52588 44.3785L27.369 27.1343L9.54848 9.90137Z" fill="white"/>
<path d="M49.8908 17.6554C49.3484 17.6554 48.8399 17.5424 48.3653 17.3051C47.8907 17.0678 47.4839 16.7514 47.1335 16.3446C46.7832 15.949 46.512 15.497 46.3199 14.9885C46.1278 14.4913 46.0261 13.9715 46.0261 13.4291C46.0261 12.8641 46.1278 12.333 46.3199 11.8357C46.512 11.3385 46.7832 10.8865 47.1335 10.5023C47.4839 10.1181 47.8907 9.81299 48.354 9.58699C48.8286 9.36098 49.3371 9.25928 49.8908 9.25928C50.6931 9.25928 51.3485 9.42878 51.8797 9.75649C52.3995 10.0955 52.795 10.5249 53.0549 11.0673L52.2526 11.6323C52.0153 11.1464 51.6763 10.7961 51.2581 10.5588C50.84 10.3215 50.3767 10.2085 49.8682 10.2085C49.4501 10.2085 49.0659 10.2989 48.7269 10.4797C48.3879 10.6605 48.0941 10.8978 47.8455 11.2142C47.5969 11.5193 47.4161 11.8696 47.2805 12.2539C47.1562 12.6381 47.0884 13.0449 47.0884 13.463C47.0884 13.9037 47.1561 14.3218 47.3031 14.7173C47.45 15.1128 47.6534 15.4518 47.9133 15.7569C48.1732 16.062 48.4896 16.2881 48.8399 16.4576C49.1902 16.6271 49.5631 16.7175 49.9699 16.7175C50.4445 16.7175 50.8965 16.5932 51.326 16.3558C51.7554 16.1185 52.1622 15.7456 52.5351 15.2484V16.3332C51.7893 17.2147 50.9078 17.6554 49.8908 17.6554ZM52.4108 14.2653H50.6253V13.4743H53.2922V17.6102H52.4108V14.2653Z" fill="white"/>
<path d="M60.5133 16.6724V17.6103H54.8857V9.31592H60.4003V10.2538H55.9367V12.932H59.824V13.8021H55.9367V16.6611H60.5133V16.6724Z" fill="white"/>
<path d="M67.9261 10.2538H65.0671V17.6103H64.0162V10.2538H61.1572V9.31592H67.9261V10.2538Z" fill="white"/>
<path d="M71.7234 17.599V9.31592H72.7743V17.599H71.7234Z" fill="white"/>
<path d="M75.8026 11.2596V17.6103H74.7517V9.31592H75.6331L80.6956 15.791V9.32722H81.7466V17.599H80.786L75.8026 11.2596Z" fill="white"/>
<path d="M90.0526 17.655C89.465 17.655 88.9452 17.542 88.4706 17.3047C87.996 17.0673 87.5892 16.7509 87.2389 16.3554C86.8886 15.9599 86.6287 15.5079 86.4366 14.9994C86.2445 14.5022 86.1541 13.9824 86.1541 13.4513C86.1541 12.8975 86.2558 12.3664 86.4479 11.8692C86.6513 11.372 86.9225 10.92 87.2728 10.5245C87.6231 10.129 88.0412 9.82387 88.5158 9.58657C88.9904 9.36056 89.5102 9.24756 90.0639 9.24756C90.6516 9.24756 91.1714 9.37186 91.646 9.60916C92.1206 9.84647 92.5274 10.1742 92.8664 10.581C93.2054 10.9878 93.4766 11.4398 93.6574 11.937C93.8495 12.4342 93.9399 12.9427 93.9399 13.4626C93.9399 14.0163 93.8382 14.5474 93.6461 15.0446C93.454 15.5418 93.1828 15.9938 92.8212 16.3893C92.4709 16.7848 92.0528 17.0899 91.5782 17.316C91.1262 17.5533 90.6064 17.655 90.0526 17.655ZM87.2163 13.4626C87.2163 13.8807 87.2841 14.2875 87.4197 14.683C87.5553 15.0785 87.7474 15.4288 87.996 15.7226C88.2446 16.0277 88.5497 16.265 88.9 16.4458C89.2503 16.6266 89.6345 16.717 90.0639 16.717C90.5047 16.717 90.9002 16.6266 91.2505 16.4345C91.6008 16.2424 91.8946 15.9938 92.1432 15.6887C92.3918 15.3723 92.5726 15.022 92.7082 14.6378C92.8325 14.2536 92.9003 13.8581 92.9003 13.4626C92.9003 13.0445 92.8325 12.6376 92.6969 12.2534C92.5613 11.8692 92.3692 11.5189 92.1093 11.2138C91.8607 10.9087 91.5556 10.6601 91.2053 10.4906C90.855 10.3211 90.4708 10.2307 90.0526 10.2307C89.6119 10.2307 89.2164 10.3211 88.8661 10.5019C88.5158 10.6827 88.222 10.9313 87.9734 11.2477C87.7248 11.5641 87.544 11.9031 87.4084 12.2873C87.2841 12.6602 87.2163 13.0558 87.2163 13.4626Z" fill="white"/>
<path d="M96.4704 11.2596V17.6103H95.4194V9.31592H96.3008L101.363 15.791V9.32722H102.414V17.599H101.454L96.4704 11.2596Z" fill="white"/>
</svg>
