<svg width="282" height="94" viewBox="0 0 282 94" fill="none" xmlns="http://www.w3.org/2000/svg">
<path d="M96.7734 64.4359H94.634V71.7143H92.876V64.4359H90.7625V62.9619H96.7734V64.4359Z" fill="white"/>
<path d="M100.374 71.7145C100.329 71.6166 100.277 71.4471 100.232 71.2123C99.9278 71.6297 99.5206 71.8384 99.0035 71.8384C98.4606 71.8384 98.0146 71.6558 97.6591 71.2971C97.3037 70.9384 97.1292 70.4688 97.1292 69.8949C97.1292 69.2101 97.3424 68.6883 97.7755 68.3101C98.2085 67.9383 98.829 67.7492 99.6369 67.7361H100.148V67.2144C100.148 66.9209 100.096 66.7122 99.9989 66.5948C99.9019 66.4774 99.7533 66.4122 99.5658 66.4122C99.1457 66.4122 98.9324 66.66 98.9324 67.1557H97.2455C97.2455 66.5557 97.4717 66.06 97.9177 65.6687C98.3636 65.2774 98.9324 65.0817 99.6111 65.0817C100.316 65.0817 100.865 65.2708 101.253 65.6361C101.641 66.0078 101.834 66.5361 101.834 67.2274V70.2927C101.841 70.8536 101.925 71.2906 102.074 71.6101V71.7145H100.374ZM100.4 64.3447H98.9777L97.336 62.4795H99.2233L100.4 64.3447ZM99.3784 70.5014C99.5658 70.5014 99.7274 70.4623 99.8567 70.3905C99.9859 70.3123 100.083 70.2209 100.148 70.1166V68.7666H99.7403C99.4559 68.7666 99.2297 68.8579 99.0617 69.0405C98.8936 69.2231 98.8161 69.471 98.8161 69.7775C98.8161 70.2601 99.0035 70.5014 99.3784 70.5014Z" fill="white"/>
<path d="M103.664 63.5228C103.664 63.2554 103.748 63.0401 103.916 62.8706C104.084 62.701 104.303 62.6162 104.581 62.6162C104.859 62.6162 105.079 62.701 105.247 62.8706C105.415 63.0401 105.499 63.2554 105.499 63.5228C105.499 63.7836 105.415 63.9989 105.254 64.175C105.086 64.3445 104.866 64.4358 104.581 64.4358C104.297 64.4358 104.077 64.351 103.909 64.175C103.748 64.0054 103.664 63.7836 103.664 63.5228ZM105.435 71.7143H103.741V65.2054H105.435V71.7143Z" fill="white"/>
<path d="M113.107 70.4231C113.598 70.4231 113.844 70.1035 113.85 69.4644H115.434C115.427 70.1753 115.207 70.7492 114.781 71.1862C114.354 71.6231 113.805 71.8449 113.139 71.8449C112.312 71.8449 111.678 71.584 111.239 71.0622C110.799 70.5405 110.58 69.7709 110.573 68.76V68.2448C110.573 67.2208 110.787 66.4448 111.22 65.9034C111.653 65.3686 112.286 65.0947 113.133 65.0947C113.844 65.0947 114.406 65.3164 114.813 65.7599C115.22 66.2034 115.427 66.8295 115.44 67.6448H113.857C113.85 67.2795 113.792 66.9991 113.676 66.8035C113.559 66.6078 113.372 66.51 113.107 66.51C112.81 66.51 112.603 66.6143 112.473 66.823C112.344 67.0317 112.28 67.4426 112.273 68.0491V68.7144C112.273 69.2426 112.299 69.6144 112.351 69.8231C112.402 70.0318 112.486 70.1883 112.609 70.2861C112.719 70.3774 112.887 70.4231 113.107 70.4231Z" fill="white"/>
<path d="M118.646 65.7802C119.014 65.3172 119.46 65.0889 119.997 65.0889C120.585 65.0889 121.031 65.2976 121.334 65.715C121.645 66.1324 121.793 66.752 121.8 67.5803V71.7151H120.106V67.5933C120.106 67.215 120.048 66.9346 119.932 66.7651C119.816 66.5955 119.628 66.5107 119.363 66.5107C119.059 66.5107 118.82 66.6541 118.646 66.9346V71.7086H116.959V62.4736H118.646V65.7802Z" fill="white"/>
<path d="M125.432 71.715H123.745V65.2061H125.432V71.715ZM124.941 62.5713H126.835L125.18 64.4365H123.771L124.941 62.5713Z" fill="white"/>
<path d="M128.974 65.2121L129.019 65.8578C129.401 65.3491 129.898 65.0947 130.512 65.0947C131.624 65.0947 132.193 65.8773 132.225 67.4426V71.721H130.532V67.573C130.532 67.2078 130.474 66.9339 130.364 66.7708C130.254 66.6012 130.066 66.523 129.789 66.523C129.485 66.523 129.246 66.6795 129.071 66.9991V71.7275H127.378V65.2186H128.974V65.2121Z" fill="white"/>
<path d="M135.689 65.7802C136.051 65.3172 136.504 65.0889 137.034 65.0889C137.622 65.0889 138.068 65.2976 138.372 65.715C138.675 66.1324 138.831 66.752 138.837 67.5803V71.7151H137.15V67.5933C137.15 67.215 137.092 66.9346 136.976 66.7651C136.859 66.5955 136.672 66.5107 136.407 66.5107C136.103 66.5107 135.864 66.6541 135.689 66.9346V71.7086H134.002V62.4736H135.689V65.7802Z" fill="white"/>
<path d="M149.437 64.4359H147.291V71.7143H145.527V64.4359H143.42V62.9619H149.437V64.4359Z" fill="white"/>
<path d="M150.969 63.5228C150.969 63.2554 151.053 63.0401 151.221 62.8706C151.389 62.701 151.609 62.6162 151.887 62.6162C152.164 62.6162 152.384 62.701 152.552 62.8706C152.72 63.0401 152.804 63.2554 152.804 63.5228C152.804 63.7836 152.72 63.9989 152.559 64.175C152.391 64.3445 152.171 64.4358 151.887 64.4358C151.609 64.4358 151.382 64.351 151.214 64.175C151.053 64.0054 150.969 63.7836 150.969 63.5228ZM152.74 71.7143H151.046V65.2054H152.74V71.7143Z" fill="white"/>
<path d="M157.258 71.8384C156.392 71.8384 155.713 71.5775 155.228 71.0558C154.744 70.534 154.498 69.7905 154.498 68.8188V68.3035C154.498 67.2796 154.718 66.4839 155.164 65.9296C155.61 65.3687 156.243 65.0948 157.077 65.0948C157.891 65.0948 158.499 65.3556 158.906 65.8774C159.32 66.3991 159.527 67.1752 159.533 68.1992V69.034H156.179C156.204 69.5166 156.308 69.8688 156.495 70.0971C156.683 70.3188 156.967 70.4297 157.361 70.4297C157.924 70.4297 158.395 70.234 158.77 69.8427L159.436 70.8732C159.229 71.1601 158.932 71.3949 158.538 71.571C158.143 71.7471 157.717 71.8384 157.258 71.8384ZM158.919 64.1621V64.2339H157.6L156.857 63.3665L156.114 64.2339H154.828V64.136L156.379 62.4795H157.342L158.919 64.1621ZM157.006 72.2884C157.297 72.2884 157.536 72.3667 157.71 72.5232C157.891 72.6797 157.982 72.8819 157.982 73.1232C157.982 73.3645 157.891 73.5602 157.71 73.7232C157.529 73.8798 157.297 73.958 157.006 73.958C156.721 73.958 156.489 73.8798 156.308 73.7232C156.127 73.5667 156.036 73.3645 156.036 73.1232C156.036 72.8819 156.127 72.6797 156.308 72.5232C156.489 72.3667 156.721 72.2884 157.006 72.2884ZM156.198 67.847H157.885V67.6905C157.878 67.2992 157.814 67.0057 157.691 66.8035C157.575 66.6013 157.368 66.5035 157.07 66.5035C156.78 66.5035 156.56 66.6078 156.431 66.8231C156.301 67.0318 156.224 67.3774 156.198 67.847Z" fill="white"/>
<path d="M162.648 65.2121L162.693 65.8578C163.075 65.3491 163.572 65.0947 164.186 65.0947C165.291 65.0947 165.867 65.8773 165.899 67.4426V71.721H164.206V67.573C164.206 67.2078 164.147 66.9339 164.038 66.7708C163.928 66.6012 163.74 66.523 163.462 66.523C163.159 66.523 162.919 66.6795 162.745 66.9991V71.7275H161.064V65.2186H162.648V65.2121Z" fill="white"/>
<path d="M173.261 69.3142L174.075 65.2119H175.84L174.069 71.7142H172.46L170.682 65.2119H172.447L173.261 69.3142Z" fill="white"/>
<path d="M180.215 71.7145C180.17 71.6166 180.118 71.4471 180.073 71.2123C179.769 71.6297 179.362 71.8384 178.845 71.8384C178.302 71.8384 177.856 71.6558 177.501 71.2971C177.145 70.9384 176.964 70.4688 176.964 69.8949C176.964 69.2101 177.178 68.6883 177.611 68.3101C178.044 67.9383 178.664 67.7492 179.472 67.7361H179.983V67.2144C179.983 66.9209 179.931 66.7122 179.834 66.5948C179.737 66.4774 179.588 66.4122 179.401 66.4122C178.981 66.4122 178.768 66.66 178.768 67.1557H177.081C177.081 66.5557 177.307 66.06 177.753 65.6687C178.199 65.2774 178.768 65.0817 179.446 65.0817C180.151 65.0817 180.7 65.2708 181.088 65.6361C181.476 66.0078 181.67 66.5361 181.67 67.2274V70.2927C181.676 70.8536 181.76 71.2906 181.909 71.6101V71.7145H180.215ZM180.241 64.3447H178.819L177.171 62.4795H179.058L180.241 64.3447ZM179.22 70.5014C179.407 70.5014 179.563 70.4623 179.698 70.3905C179.828 70.3123 179.925 70.2209 179.989 70.1166V68.7666H179.582C179.298 68.7666 179.071 68.8579 178.903 69.0405C178.735 69.2231 178.658 69.471 178.658 69.7775C178.658 70.2601 178.845 70.5014 179.22 70.5014Z" fill="white"/>
<path d="M193.078 71.7143H191.326L188.767 65.975V71.7143H187.015V62.9619H188.767L191.333 68.7077V62.9619H193.078V71.7143Z" fill="white"/>
<path d="M194.809 68.265C194.809 67.1954 195.003 66.3997 195.385 65.878C195.766 65.3497 196.302 65.0889 196.988 65.0889C197.569 65.0889 198.022 65.3237 198.338 65.7867L198.403 65.2063H199.922V71.7151C199.922 72.5434 199.689 73.1825 199.23 73.6195C198.771 74.0564 198.106 74.2782 197.246 74.2782C196.891 74.2782 196.522 74.2065 196.128 74.063C195.74 73.9195 195.449 73.7369 195.255 73.5217L195.824 72.3412C195.979 72.5108 196.193 72.6477 196.445 72.7521C196.697 72.8564 196.942 72.9086 197.169 72.9086C197.543 72.9086 197.815 72.8173 197.983 72.6347C198.151 72.4521 198.235 72.1586 198.235 71.7542V71.1933C197.912 71.6173 197.492 71.8325 196.975 71.8325C196.29 71.8325 195.753 71.5651 195.378 71.0238C195.003 70.4825 194.809 69.7259 194.803 68.7411V68.265H194.809ZM196.496 68.6955C196.496 69.2955 196.574 69.7324 196.729 70.0129C196.884 70.2868 197.13 70.4238 197.466 70.4238C197.808 70.4238 198.067 70.2998 198.235 70.0455V66.9345C198.06 66.6606 197.808 66.5172 197.479 66.5172C197.143 66.5172 196.897 66.6541 196.736 66.9345C196.574 67.2085 196.496 67.652 196.496 68.2716V68.6955Z" fill="white"/>
<path d="M204.828 71.7148C204.782 71.6169 204.731 71.4474 204.686 71.2126C204.388 71.63 203.975 71.8387 203.457 71.8387C202.915 71.8387 202.469 71.6561 202.113 71.2974C201.758 70.9387 201.577 70.4691 201.577 69.8952C201.577 69.2104 201.79 68.6886 202.223 68.3104C202.656 67.9386 203.277 67.7495 204.084 67.7364H204.595V67.2147C204.595 66.9212 204.543 66.7125 204.446 66.5951C204.349 66.4777 204.201 66.4125 204.013 66.4125C203.593 66.4125 203.38 66.6603 203.38 67.156H201.693C201.693 66.556 201.919 66.0603 202.365 65.669C202.811 65.2777 203.38 65.082 204.059 65.082C204.763 65.082 205.312 65.2711 205.7 65.6364C206.088 66.0081 206.282 66.5364 206.282 67.2277V70.293C206.288 70.8539 206.372 71.2909 206.521 71.6104V71.7148H204.828ZM203.832 70.5017C204.02 70.5017 204.175 70.4626 204.311 70.3909C204.44 70.3126 204.537 70.2213 204.602 70.1169V68.7669H204.194C203.91 68.7669 203.684 68.8582 203.516 69.0408C203.348 69.2234 203.27 69.4713 203.27 69.7778C203.27 70.2604 203.458 70.5017 203.832 70.5017Z" fill="white"/>
<path d="M210.095 68.8844L210.955 65.2061H212.752L210.632 72.6866C210.315 73.7888 209.714 74.3432 208.835 74.3432C208.635 74.3432 208.402 74.3041 208.144 74.2323V72.9019L208.337 72.9084C208.596 72.9084 208.796 72.8562 208.932 72.7584C209.068 72.6541 209.165 72.478 209.236 72.2236L209.365 71.7866L207.504 65.2126H209.313L210.095 68.8844Z" fill="white"/>
<path d="M219.842 70.4231C220.327 70.4231 220.579 70.1035 220.585 69.4644H222.169C222.162 70.1753 221.943 70.7492 221.516 71.1862C221.089 71.6231 220.54 71.8449 219.874 71.8449C219.041 71.8449 218.407 71.584 217.974 71.0622C217.541 70.5405 217.315 69.7709 217.308 68.76V68.2448C217.308 67.2208 217.522 66.4448 217.955 65.9034C218.388 65.3686 219.021 65.0947 219.868 65.0947C220.579 65.0947 221.141 65.3164 221.548 65.7599C221.955 66.2034 222.169 66.8295 222.175 67.6448H220.592C220.585 67.2795 220.527 66.9991 220.411 66.8035C220.294 66.6078 220.107 66.51 219.836 66.51C219.538 66.51 219.331 66.6143 219.202 66.823C219.073 67.0317 219.008 67.4426 219.002 68.0491V68.7144C219.002 69.2426 219.028 69.6144 219.079 69.8231C219.131 70.0318 219.215 70.1883 219.338 70.2861C219.454 70.3774 219.622 70.4231 219.842 70.4231Z" fill="white"/>
<path d="M225.381 65.7802C225.743 65.3172 226.196 65.0889 226.726 65.0889C227.314 65.0889 227.76 65.2976 228.064 65.715C228.367 66.1324 228.522 66.752 228.529 67.5803V71.7151H226.836V67.5933C226.836 67.215 226.777 66.9346 226.661 66.7651C226.545 66.5955 226.357 66.5107 226.092 66.5107C225.788 66.5107 225.549 66.6541 225.381 66.9346V71.7086H223.694V62.4736H225.381V65.7802Z" fill="white"/>
<path d="M230.158 68.252C230.158 67.2672 230.39 66.4911 230.849 65.9302C231.308 65.3693 231.948 65.0889 232.762 65.0889C233.583 65.0889 234.23 65.3693 234.689 65.9302C235.147 66.4911 235.38 67.2672 235.38 68.265V68.6824C235.38 69.6738 235.154 70.4499 234.695 71.0042C234.236 71.5586 233.596 71.839 232.775 71.839C231.948 71.839 231.308 71.5586 230.849 71.0042C230.39 70.4433 230.158 69.6672 230.158 68.6759V68.252ZM231.851 68.6824C231.851 69.8433 232.155 70.4238 232.775 70.4238C233.344 70.4238 233.648 69.9412 233.693 68.9694L233.7 68.252C233.7 67.6585 233.616 67.2215 233.454 66.9345C233.292 66.6476 233.06 66.5041 232.762 66.5041C232.478 66.5041 232.252 66.6476 232.09 66.9345C231.929 67.2215 231.851 67.665 231.851 68.252V68.6824Z" fill="white"/>
<path d="M242.044 65.2128L242.089 65.8128C242.464 65.3302 242.962 65.0889 243.582 65.0889C244.228 65.0889 244.681 65.3823 244.946 65.9693C245.314 65.3823 245.838 65.0889 246.523 65.0889C247.654 65.0889 248.229 65.878 248.255 67.4498V71.7151H246.568V67.5607C246.568 67.1824 246.516 66.915 246.413 66.7519C246.31 66.5954 246.135 66.5106 245.89 66.5106C245.573 66.5106 245.34 66.7063 245.185 67.0911L245.198 67.2933V71.7086H243.511V67.5672C243.511 67.1954 243.459 66.928 243.362 66.7585C243.265 66.5889 243.084 66.5106 242.832 66.5106C242.542 66.5106 242.309 66.6671 242.141 66.9867V71.7151H240.454V65.2063H242.044V65.2128Z" fill="white"/>
<path d="M249.929 68.252C249.929 67.2672 250.162 66.4911 250.621 65.9302C251.079 65.3693 251.719 65.0889 252.534 65.0889C253.355 65.0889 253.994 65.3693 254.46 65.9302C254.919 66.4911 255.151 67.2672 255.151 68.265V68.6824C255.151 69.6738 254.919 70.4499 254.466 71.0042C254.007 71.5586 253.367 71.839 252.547 71.839C251.719 71.839 251.079 71.5586 250.621 71.0042C250.162 70.4433 249.929 69.6672 249.929 68.6759V68.252ZM252.527 72.3281C252.818 72.3281 253.051 72.4064 253.232 72.5629C253.413 72.7195 253.503 72.9217 253.503 73.163C253.503 73.4043 253.413 73.5999 253.232 73.763C253.051 73.9195 252.818 73.9977 252.527 73.9977C252.243 73.9977 252.01 73.9195 251.829 73.763C251.648 73.6064 251.558 73.4043 251.558 73.163C251.558 72.9217 251.648 72.726 251.829 72.5629C252.004 72.4064 252.243 72.3281 252.527 72.3281ZM251.622 68.6824C251.622 69.8433 251.933 70.4238 252.547 70.4238C253.115 70.4238 253.419 69.9412 253.464 68.9694L253.471 68.252C253.471 67.6585 253.387 67.2215 253.225 66.9345C253.064 66.6476 252.831 66.5041 252.534 66.5041C252.249 66.5041 252.023 66.6476 251.862 66.9345C251.7 67.2215 251.622 67.665 251.622 68.252V68.6824Z" fill="white"/>
<path d="M256.806 63.5228C256.806 63.2554 256.89 63.0401 257.058 62.8706C257.226 62.701 257.446 62.6162 257.724 62.6162C258.002 62.6162 258.228 62.701 258.389 62.8706C258.557 63.0401 258.641 63.2554 258.641 63.5228C258.641 63.7836 258.557 63.9989 258.396 64.175C258.228 64.3445 258.008 64.4358 257.724 64.4358C257.439 64.4358 257.22 64.351 257.052 64.175C256.89 64.0054 256.806 63.7836 256.806 63.5228ZM258.577 71.7143H256.883V65.2054H258.577V71.7143Z" fill="white"/>
<path d="M265.46 65.2121L265.506 65.8578C265.887 65.3491 266.385 65.0947 266.999 65.0947C268.11 65.0947 268.679 65.8773 268.712 67.4426V71.721H267.018V67.573C267.018 67.2078 266.96 66.9339 266.85 66.7708C266.74 66.6012 266.553 66.523 266.275 66.523C265.971 66.523 265.732 66.6795 265.557 66.9991V71.7275H263.864V65.2186H265.46V65.2121Z" fill="white"/>
<path d="M272.182 65.7802C272.551 65.3172 272.997 65.0889 273.527 65.0889C274.115 65.0889 274.561 65.2976 274.864 65.715C275.168 66.1324 275.323 66.752 275.33 67.5803V71.7151H273.636V67.5933C273.636 67.215 273.578 66.9346 273.462 66.7651C273.346 66.5955 273.158 66.5107 272.893 66.5107C272.589 66.5107 272.35 66.6541 272.176 66.9346V71.7086H270.489V62.4736H272.176V65.7802H272.182Z" fill="white"/>
<path d="M280.216 71.7145C280.171 71.6166 280.119 71.4471 280.074 71.2123C279.77 71.6297 279.363 71.8384 278.846 71.8384C278.303 71.8384 277.857 71.6558 277.502 71.2971C277.146 70.9384 276.972 70.4688 276.972 69.8949C276.972 69.2101 277.185 68.6883 277.618 68.3101C278.051 67.9383 278.672 67.7492 279.479 67.7361H279.99V67.2144C279.99 66.9209 279.938 66.7122 279.841 66.5948C279.744 66.4774 279.596 66.4122 279.408 66.4122C278.988 66.4122 278.775 66.66 278.775 67.1557H277.088C277.088 66.5557 277.314 66.06 277.76 65.6687C278.206 65.2774 278.775 65.0817 279.454 65.0817C280.158 65.0817 280.707 65.2708 281.095 65.6361C281.483 66.0078 281.677 66.5361 281.677 67.2274V70.2927C281.683 70.8536 281.761 71.2906 281.916 71.6101V71.7145H280.216ZM280.249 64.3447H278.827L277.179 62.4795H279.066L280.249 64.3447ZM279.221 70.5014C279.408 70.5014 279.563 70.4623 279.699 70.3905C279.828 70.3123 279.925 70.2209 279.99 70.1166V68.7666H279.583C279.298 68.7666 279.072 68.8579 278.911 69.0405C278.743 69.2231 278.665 69.471 278.665 69.7775C278.659 70.2601 278.846 70.5014 279.221 70.5014Z" fill="white"/>
<path d="M96.7734 64.4359H94.634V71.7143H92.876V64.4359H90.7625V62.9619H96.7734V64.4359Z" fill="white"/>
<path d="M100.374 71.7145C100.329 71.6166 100.277 71.4471 100.232 71.2123C99.9278 71.6297 99.5206 71.8384 99.0035 71.8384C98.4606 71.8384 98.0146 71.6558 97.6591 71.2971C97.3037 70.9384 97.1292 70.4688 97.1292 69.8949C97.1292 69.2101 97.3424 68.6883 97.7755 68.3101C98.2085 67.9383 98.829 67.7492 99.6369 67.7361H100.148V67.2144C100.148 66.9209 100.096 66.7122 99.9989 66.5948C99.9019 66.4774 99.7533 66.4122 99.5658 66.4122C99.1457 66.4122 98.9324 66.66 98.9324 67.1557H97.2455C97.2455 66.5557 97.4717 66.06 97.9177 65.6687C98.3636 65.2774 98.9324 65.0817 99.6111 65.0817C100.316 65.0817 100.865 65.2708 101.253 65.6361C101.641 66.0078 101.834 66.5361 101.834 67.2274V70.2927C101.841 70.8536 101.925 71.2906 102.074 71.6101V71.7145H100.374ZM100.4 64.3447H98.9777L97.336 62.4795H99.2233L100.4 64.3447ZM99.3784 70.5014C99.5658 70.5014 99.7274 70.4623 99.8567 70.3905C99.9859 70.3123 100.083 70.2209 100.148 70.1166V68.7666H99.7403C99.4559 68.7666 99.2297 68.8579 99.0617 69.0405C98.8936 69.2231 98.8161 69.471 98.8161 69.7775C98.8161 70.2601 99.0035 70.5014 99.3784 70.5014Z" fill="white"/>
<path d="M103.664 63.5228C103.664 63.2554 103.748 63.0401 103.916 62.8706C104.084 62.701 104.303 62.6162 104.581 62.6162C104.859 62.6162 105.079 62.701 105.247 62.8706C105.415 63.0401 105.499 63.2554 105.499 63.5228C105.499 63.7836 105.415 63.9989 105.254 64.175C105.086 64.3445 104.866 64.4358 104.581 64.4358C104.297 64.4358 104.077 64.351 103.909 64.175C103.748 64.0054 103.664 63.7836 103.664 63.5228ZM105.435 71.7143H103.741V65.2054H105.435V71.7143Z" fill="white"/>
<path d="M113.107 70.4231C113.598 70.4231 113.844 70.1035 113.85 69.4644H115.434C115.427 70.1753 115.207 70.7492 114.781 71.1862C114.354 71.6231 113.805 71.8449 113.139 71.8449C112.312 71.8449 111.678 71.584 111.239 71.0622C110.799 70.5405 110.58 69.7709 110.573 68.76V68.2448C110.573 67.2208 110.787 66.4448 111.22 65.9034C111.653 65.3686 112.286 65.0947 113.133 65.0947C113.844 65.0947 114.406 65.3164 114.813 65.7599C115.22 66.2034 115.427 66.8295 115.44 67.6448H113.857C113.85 67.2795 113.792 66.9991 113.676 66.8035C113.559 66.6078 113.372 66.51 113.107 66.51C112.81 66.51 112.603 66.6143 112.473 66.823C112.344 67.0317 112.28 67.4426 112.273 68.0491V68.7144C112.273 69.2426 112.299 69.6144 112.351 69.8231C112.402 70.0318 112.486 70.1883 112.609 70.2861C112.719 70.3774 112.887 70.4231 113.107 70.4231Z" fill="white"/>
<path d="M118.646 65.7802C119.014 65.3172 119.46 65.0889 119.997 65.0889C120.585 65.0889 121.031 65.2976 121.334 65.715C121.645 66.1324 121.793 66.752 121.8 67.5803V71.7151H120.106V67.5933C120.106 67.215 120.048 66.9346 119.932 66.7651C119.816 66.5955 119.628 66.5107 119.363 66.5107C119.059 66.5107 118.82 66.6541 118.646 66.9346V71.7086H116.959V62.4736H118.646V65.7802Z" fill="white"/>
<path d="M125.432 71.715H123.745V65.2061H125.432V71.715ZM124.941 62.5713H126.835L125.18 64.4365H123.771L124.941 62.5713Z" fill="white"/>
<path d="M128.974 65.2121L129.019 65.8578C129.401 65.3491 129.898 65.0947 130.512 65.0947C131.624 65.0947 132.193 65.8773 132.225 67.4426V71.721H130.532V67.573C130.532 67.2078 130.474 66.9339 130.364 66.7708C130.254 66.6012 130.066 66.523 129.789 66.523C129.485 66.523 129.246 66.6795 129.071 66.9991V71.7275H127.378V65.2186H128.974V65.2121Z" fill="white"/>
<path d="M135.689 65.7802C136.051 65.3172 136.504 65.0889 137.034 65.0889C137.622 65.0889 138.068 65.2976 138.372 65.715C138.675 66.1324 138.831 66.752 138.837 67.5803V71.7151H137.15V67.5933C137.15 67.215 137.092 66.9346 136.976 66.7651C136.859 66.5955 136.672 66.5107 136.407 66.5107C136.103 66.5107 135.864 66.6541 135.689 66.9346V71.7086H134.002V62.4736H135.689V65.7802Z" fill="white"/>
<path d="M149.437 64.4359H147.291V71.7143H145.527V64.4359H143.42V62.9619H149.437V64.4359Z" fill="white"/>
<path d="M150.969 63.5228C150.969 63.2554 151.053 63.0401 151.221 62.8706C151.389 62.701 151.609 62.6162 151.887 62.6162C152.164 62.6162 152.384 62.701 152.552 62.8706C152.72 63.0401 152.804 63.2554 152.804 63.5228C152.804 63.7836 152.72 63.9989 152.559 64.175C152.391 64.3445 152.171 64.4358 151.887 64.4358C151.609 64.4358 151.382 64.351 151.214 64.175C151.053 64.0054 150.969 63.7836 150.969 63.5228ZM152.74 71.7143H151.046V65.2054H152.74V71.7143Z" fill="white"/>
<path d="M157.258 71.8384C156.392 71.8384 155.713 71.5775 155.228 71.0558C154.744 70.534 154.498 69.7905 154.498 68.8188V68.3035C154.498 67.2796 154.718 66.4839 155.164 65.9296C155.61 65.3687 156.243 65.0948 157.077 65.0948C157.891 65.0948 158.499 65.3556 158.906 65.8774C159.32 66.3991 159.527 67.1752 159.533 68.1992V69.034H156.179C156.204 69.5166 156.308 69.8688 156.495 70.0971C156.683 70.3188 156.967 70.4297 157.361 70.4297C157.924 70.4297 158.395 70.234 158.77 69.8427L159.436 70.8732C159.229 71.1601 158.932 71.3949 158.538 71.571C158.143 71.7471 157.717 71.8384 157.258 71.8384ZM158.919 64.1621V64.2339H157.6L156.857 63.3665L156.114 64.2339H154.828V64.136L156.379 62.4795H157.342L158.919 64.1621ZM157.006 72.2884C157.297 72.2884 157.536 72.3667 157.71 72.5232C157.891 72.6797 157.982 72.8819 157.982 73.1232C157.982 73.3645 157.891 73.5602 157.71 73.7232C157.529 73.8798 157.297 73.958 157.006 73.958C156.721 73.958 156.489 73.8798 156.308 73.7232C156.127 73.5667 156.036 73.3645 156.036 73.1232C156.036 72.8819 156.127 72.6797 156.308 72.5232C156.489 72.3667 156.721 72.2884 157.006 72.2884ZM156.198 67.847H157.885V67.6905C157.878 67.2992 157.814 67.0057 157.691 66.8035C157.575 66.6013 157.368 66.5035 157.07 66.5035C156.78 66.5035 156.56 66.6078 156.431 66.8231C156.301 67.0318 156.224 67.3774 156.198 67.847Z" fill="white"/>
<path d="M162.648 65.2121L162.693 65.8578C163.075 65.3491 163.572 65.0947 164.186 65.0947C165.291 65.0947 165.867 65.8773 165.899 67.4426V71.721H164.206V67.573C164.206 67.2078 164.147 66.9339 164.038 66.7708C163.928 66.6012 163.74 66.523 163.462 66.523C163.159 66.523 162.919 66.6795 162.745 66.9991V71.7275H161.064V65.2186H162.648V65.2121Z" fill="white"/>
<path d="M173.261 69.3142L174.075 65.2119H175.84L174.069 71.7142H172.46L170.682 65.2119H172.447L173.261 69.3142Z" fill="white"/>
<path d="M180.215 71.7145C180.17 71.6166 180.118 71.4471 180.073 71.2123C179.769 71.6297 179.362 71.8384 178.845 71.8384C178.302 71.8384 177.856 71.6558 177.501 71.2971C177.145 70.9384 176.964 70.4688 176.964 69.8949C176.964 69.2101 177.178 68.6883 177.611 68.3101C178.044 67.9383 178.664 67.7492 179.472 67.7361H179.983V67.2144C179.983 66.9209 179.931 66.7122 179.834 66.5948C179.737 66.4774 179.588 66.4122 179.401 66.4122C178.981 66.4122 178.768 66.66 178.768 67.1557H177.081C177.081 66.5557 177.307 66.06 177.753 65.6687C178.199 65.2774 178.768 65.0817 179.446 65.0817C180.151 65.0817 180.7 65.2708 181.088 65.6361C181.476 66.0078 181.67 66.5361 181.67 67.2274V70.2927C181.676 70.8536 181.76 71.2906 181.909 71.6101V71.7145H180.215ZM180.241 64.3447H178.819L177.171 62.4795H179.058L180.241 64.3447ZM179.22 70.5014C179.407 70.5014 179.563 70.4623 179.698 70.3905C179.828 70.3123 179.925 70.2209 179.989 70.1166V68.7666H179.582C179.298 68.7666 179.071 68.8579 178.903 69.0405C178.735 69.2231 178.658 69.471 178.658 69.7775C178.658 70.2601 178.845 70.5014 179.22 70.5014Z" fill="white"/>
<path d="M193.078 71.7143H191.326L188.767 65.975V71.7143H187.015V62.9619H188.767L191.333 68.7077V62.9619H193.078V71.7143Z" fill="white"/>
<path d="M194.809 68.265C194.809 67.1954 195.003 66.3997 195.385 65.878C195.766 65.3497 196.302 65.0889 196.988 65.0889C197.569 65.0889 198.022 65.3237 198.338 65.7867L198.403 65.2063H199.922V71.7151C199.922 72.5434 199.689 73.1825 199.23 73.6195C198.771 74.0564 198.106 74.2782 197.246 74.2782C196.891 74.2782 196.522 74.2065 196.128 74.063C195.74 73.9195 195.449 73.7369 195.255 73.5217L195.824 72.3412C195.979 72.5108 196.193 72.6477 196.445 72.7521C196.697 72.8564 196.942 72.9086 197.169 72.9086C197.543 72.9086 197.815 72.8173 197.983 72.6347C198.151 72.4521 198.235 72.1586 198.235 71.7542V71.1933C197.912 71.6173 197.492 71.8325 196.975 71.8325C196.29 71.8325 195.753 71.5651 195.378 71.0238C195.003 70.4825 194.809 69.7259 194.803 68.7411V68.265H194.809ZM196.496 68.6955C196.496 69.2955 196.574 69.7324 196.729 70.0129C196.884 70.2868 197.13 70.4238 197.466 70.4238C197.808 70.4238 198.067 70.2998 198.235 70.0455V66.9345C198.06 66.6606 197.808 66.5172 197.479 66.5172C197.143 66.5172 196.897 66.6541 196.736 66.9345C196.574 67.2085 196.496 67.652 196.496 68.2716V68.6955Z" fill="white"/>
<path d="M204.828 71.7148C204.782 71.6169 204.731 71.4474 204.686 71.2126C204.388 71.63 203.975 71.8387 203.457 71.8387C202.915 71.8387 202.469 71.6561 202.113 71.2974C201.758 70.9387 201.577 70.4691 201.577 69.8952C201.577 69.2104 201.79 68.6886 202.223 68.3104C202.656 67.9386 203.277 67.7495 204.084 67.7364H204.595V67.2147C204.595 66.9212 204.543 66.7125 204.446 66.5951C204.349 66.4777 204.201 66.4125 204.013 66.4125C203.593 66.4125 203.38 66.6603 203.38 67.156H201.693C201.693 66.556 201.919 66.0603 202.365 65.669C202.811 65.2777 203.38 65.082 204.059 65.082C204.763 65.082 205.312 65.2711 205.7 65.6364C206.088 66.0081 206.282 66.5364 206.282 67.2277V70.293C206.288 70.8539 206.372 71.2909 206.521 71.6104V71.7148H204.828ZM203.832 70.5017C204.02 70.5017 204.175 70.4626 204.311 70.3909C204.44 70.3126 204.537 70.2213 204.602 70.1169V68.7669H204.194C203.91 68.7669 203.684 68.8582 203.516 69.0408C203.348 69.2234 203.27 69.4713 203.27 69.7778C203.27 70.2604 203.458 70.5017 203.832 70.5017Z" fill="white"/>
<path d="M210.095 68.8844L210.955 65.2061H212.752L210.632 72.6866C210.315 73.7888 209.714 74.3432 208.835 74.3432C208.635 74.3432 208.402 74.3041 208.144 74.2323V72.9019L208.337 72.9084C208.596 72.9084 208.796 72.8562 208.932 72.7584C209.068 72.6541 209.165 72.478 209.236 72.2236L209.365 71.7866L207.504 65.2126H209.313L210.095 68.8844Z" fill="white"/>
<path d="M219.842 70.4231C220.327 70.4231 220.579 70.1035 220.585 69.4644H222.169C222.162 70.1753 221.943 70.7492 221.516 71.1862C221.089 71.6231 220.54 71.8449 219.874 71.8449C219.041 71.8449 218.407 71.584 217.974 71.0622C217.541 70.5405 217.315 69.7709 217.308 68.76V68.2448C217.308 67.2208 217.522 66.4448 217.955 65.9034C218.388 65.3686 219.021 65.0947 219.868 65.0947C220.579 65.0947 221.141 65.3164 221.548 65.7599C221.955 66.2034 222.169 66.8295 222.175 67.6448H220.592C220.585 67.2795 220.527 66.9991 220.411 66.8035C220.294 66.6078 220.107 66.51 219.836 66.51C219.538 66.51 219.331 66.6143 219.202 66.823C219.073 67.0317 219.008 67.4426 219.002 68.0491V68.7144C219.002 69.2426 219.028 69.6144 219.079 69.8231C219.131 70.0318 219.215 70.1883 219.338 70.2861C219.454 70.3774 219.622 70.4231 219.842 70.4231Z" fill="white"/>
<path d="M225.381 65.7802C225.743 65.3172 226.196 65.0889 226.726 65.0889C227.314 65.0889 227.76 65.2976 228.064 65.715C228.367 66.1324 228.522 66.752 228.529 67.5803V71.7151H226.836V67.5933C226.836 67.215 226.777 66.9346 226.661 66.7651C226.545 66.5955 226.357 66.5107 226.092 66.5107C225.788 66.5107 225.549 66.6541 225.381 66.9346V71.7086H223.694V62.4736H225.381V65.7802Z" fill="white"/>
<path d="M230.158 68.252C230.158 67.2672 230.39 66.4911 230.849 65.9302C231.308 65.3693 231.948 65.0889 232.762 65.0889C233.583 65.0889 234.23 65.3693 234.689 65.9302C235.147 66.4911 235.38 67.2672 235.38 68.265V68.6824C235.38 69.6738 235.154 70.4499 234.695 71.0042C234.236 71.5586 233.596 71.839 232.775 71.839C231.948 71.839 231.308 71.5586 230.849 71.0042C230.39 70.4433 230.158 69.6672 230.158 68.6759V68.252ZM231.851 68.6824C231.851 69.8433 232.155 70.4238 232.775 70.4238C233.344 70.4238 233.648 69.9412 233.693 68.9694L233.7 68.252C233.7 67.6585 233.616 67.2215 233.454 66.9345C233.292 66.6476 233.06 66.5041 232.762 66.5041C232.478 66.5041 232.252 66.6476 232.09 66.9345C231.929 67.2215 231.851 67.665 231.851 68.252V68.6824Z" fill="white"/>
<path d="M242.044 65.2128L242.089 65.8128C242.464 65.3302 242.962 65.0889 243.582 65.0889C244.228 65.0889 244.681 65.3823 244.946 65.9693C245.314 65.3823 245.838 65.0889 246.523 65.0889C247.654 65.0889 248.229 65.878 248.255 67.4498V71.7151H246.568V67.5607C246.568 67.1824 246.516 66.915 246.413 66.7519C246.31 66.5954 246.135 66.5106 245.89 66.5106C245.573 66.5106 245.34 66.7063 245.185 67.0911L245.198 67.2933V71.7086H243.511V67.5672C243.511 67.1954 243.459 66.928 243.362 66.7585C243.265 66.5889 243.084 66.5106 242.832 66.5106C242.542 66.5106 242.309 66.6671 242.141 66.9867V71.7151H240.454V65.2063H242.044V65.2128Z" fill="white"/>
<path d="M249.929 68.252C249.929 67.2672 250.162 66.4911 250.621 65.9302C251.079 65.3693 251.719 65.0889 252.534 65.0889C253.355 65.0889 253.994 65.3693 254.46 65.9302C254.919 66.4911 255.151 67.2672 255.151 68.265V68.6824C255.151 69.6738 254.919 70.4499 254.466 71.0042C254.007 71.5586 253.367 71.839 252.547 71.839C251.719 71.839 251.079 71.5586 250.621 71.0042C250.162 70.4433 249.929 69.6672 249.929 68.6759V68.252ZM252.527 72.3281C252.818 72.3281 253.051 72.4064 253.232 72.5629C253.413 72.7195 253.503 72.9217 253.503 73.163C253.503 73.4043 253.413 73.5999 253.232 73.763C253.051 73.9195 252.818 73.9977 252.527 73.9977C252.243 73.9977 252.01 73.9195 251.829 73.763C251.648 73.6064 251.558 73.4043 251.558 73.163C251.558 72.9217 251.648 72.726 251.829 72.5629C252.004 72.4064 252.243 72.3281 252.527 72.3281ZM251.622 68.6824C251.622 69.8433 251.933 70.4238 252.547 70.4238C253.115 70.4238 253.419 69.9412 253.464 68.9694L253.471 68.252C253.471 67.6585 253.387 67.2215 253.225 66.9345C253.064 66.6476 252.831 66.5041 252.534 66.5041C252.249 66.5041 252.023 66.6476 251.862 66.9345C251.7 67.2215 251.622 67.665 251.622 68.252V68.6824Z" fill="white"/>
<path d="M256.806 63.5228C256.806 63.2554 256.89 63.0401 257.058 62.8706C257.226 62.701 257.446 62.6162 257.724 62.6162C258.002 62.6162 258.228 62.701 258.389 62.8706C258.557 63.0401 258.641 63.2554 258.641 63.5228C258.641 63.7836 258.557 63.9989 258.396 64.175C258.228 64.3445 258.008 64.4358 257.724 64.4358C257.439 64.4358 257.22 64.351 257.052 64.175C256.89 64.0054 256.806 63.7836 256.806 63.5228ZM258.577 71.7143H256.883V65.2054H258.577V71.7143Z" fill="white"/>
<path d="M265.46 65.2121L265.506 65.8578C265.887 65.3491 266.385 65.0947 266.999 65.0947C268.11 65.0947 268.679 65.8773 268.712 67.4426V71.721H267.018V67.573C267.018 67.2078 266.96 66.9339 266.85 66.7708C266.74 66.6012 266.553 66.523 266.275 66.523C265.971 66.523 265.732 66.6795 265.557 66.9991V71.7275H263.864V65.2186H265.46V65.2121Z" fill="white"/>
<path d="M272.182 65.7802C272.551 65.3172 272.997 65.0889 273.527 65.0889C274.115 65.0889 274.561 65.2976 274.864 65.715C275.168 66.1324 275.323 66.752 275.33 67.5803V71.7151H273.636V67.5933C273.636 67.215 273.578 66.9346 273.462 66.7651C273.346 66.5955 273.158 66.5107 272.893 66.5107C272.589 66.5107 272.35 66.6541 272.176 66.9346V71.7086H270.489V62.4736H272.176V65.7802H272.182Z" fill="white"/>
<path d="M280.216 71.7145C280.171 71.6166 280.119 71.4471 280.074 71.2123C279.77 71.6297 279.363 71.8384 278.846 71.8384C278.303 71.8384 277.857 71.6558 277.502 71.2971C277.146 70.9384 276.972 70.4688 276.972 69.8949C276.972 69.2101 277.185 68.6883 277.618 68.3101C278.051 67.9383 278.672 67.7492 279.479 67.7361H279.99V67.2144C279.99 66.9209 279.938 66.7122 279.841 66.5948C279.744 66.4774 279.596 66.4122 279.408 66.4122C278.988 66.4122 278.775 66.66 278.775 67.1557H277.088C277.088 66.5557 277.314 66.06 277.76 65.6687C278.206 65.2774 278.775 65.0817 279.454 65.0817C280.158 65.0817 280.707 65.2708 281.095 65.6361C281.483 66.0078 281.677 66.5361 281.677 67.2274V70.2927C281.683 70.8536 281.761 71.2906 281.916 71.6101V71.7145H280.216ZM280.249 64.3447H278.827L277.179 62.4795H279.066L280.249 64.3447ZM279.221 70.5014C279.408 70.5014 279.563 70.4623 279.699 70.3905C279.828 70.3123 279.925 70.2209 279.99 70.1166V68.7666H279.583C279.298 68.7666 279.072 68.8579 278.911 69.0405C278.743 69.2231 278.665 69.471 278.665 69.7775C278.659 70.2601 278.846 70.5014 279.221 70.5014Z" fill="white"/>
<path d="M96.7734 64.4359H94.634V71.7143H92.876V64.4359H90.7625V62.9619H96.7734V64.4359Z" fill="white"/>
<path d="M100.374 71.7145C100.329 71.6166 100.277 71.4471 100.232 71.2123C99.9278 71.6297 99.5206 71.8384 99.0035 71.8384C98.4606 71.8384 98.0146 71.6558 97.6591 71.2971C97.3037 70.9384 97.1292 70.4688 97.1292 69.8949C97.1292 69.2101 97.3424 68.6883 97.7755 68.3101C98.2085 67.9383 98.829 67.7492 99.6369 67.7361H100.148V67.2144C100.148 66.9209 100.096 66.7122 99.9989 66.5948C99.9019 66.4774 99.7533 66.4122 99.5658 66.4122C99.1457 66.4122 98.9324 66.66 98.9324 67.1557H97.2455C97.2455 66.5557 97.4717 66.06 97.9177 65.6687C98.3636 65.2774 98.9324 65.0817 99.6111 65.0817C100.316 65.0817 100.865 65.2708 101.253 65.6361C101.641 66.0078 101.834 66.5361 101.834 67.2274V70.2927C101.841 70.8536 101.925 71.2906 102.074 71.6101V71.7145H100.374ZM100.4 64.3447H98.9777L97.336 62.4795H99.2233L100.4 64.3447ZM99.3784 70.5014C99.5658 70.5014 99.7274 70.4623 99.8567 70.3905C99.9859 70.3123 100.083 70.2209 100.148 70.1166V68.7666H99.7403C99.4559 68.7666 99.2297 68.8579 99.0617 69.0405C98.8936 69.2231 98.8161 69.471 98.8161 69.7775C98.8161 70.2601 99.0035 70.5014 99.3784 70.5014Z" fill="white"/>
<path d="M103.664 63.5228C103.664 63.2554 103.748 63.0401 103.916 62.8706C104.084 62.701 104.303 62.6162 104.581 62.6162C104.859 62.6162 105.079 62.701 105.247 62.8706C105.415 63.0401 105.499 63.2554 105.499 63.5228C105.499 63.7836 105.415 63.9989 105.254 64.175C105.086 64.3445 104.866 64.4358 104.581 64.4358C104.297 64.4358 104.077 64.351 103.909 64.175C103.748 64.0054 103.664 63.7836 103.664 63.5228ZM105.435 71.7143H103.741V65.2054H105.435V71.7143Z" fill="white"/>
<path d="M113.107 70.4231C113.598 70.4231 113.844 70.1035 113.85 69.4644H115.434C115.427 70.1753 115.207 70.7492 114.781 71.1862C114.354 71.6231 113.805 71.8449 113.139 71.8449C112.312 71.8449 111.678 71.584 111.239 71.0622C110.799 70.5405 110.58 69.7709 110.573 68.76V68.2448C110.573 67.2208 110.787 66.4448 111.22 65.9034C111.653 65.3686 112.286 65.0947 113.133 65.0947C113.844 65.0947 114.406 65.3164 114.813 65.7599C115.22 66.2034 115.427 66.8295 115.44 67.6448H113.857C113.85 67.2795 113.792 66.9991 113.676 66.8035C113.559 66.6078 113.372 66.51 113.107 66.51C112.81 66.51 112.603 66.6143 112.473 66.823C112.344 67.0317 112.28 67.4426 112.273 68.0491V68.7144C112.273 69.2426 112.299 69.6144 112.351 69.8231C112.402 70.0318 112.486 70.1883 112.609 70.2861C112.719 70.3774 112.887 70.4231 113.107 70.4231Z" fill="white"/>
<path d="M118.646 65.7802C119.014 65.3172 119.46 65.0889 119.997 65.0889C120.585 65.0889 121.031 65.2976 121.334 65.715C121.645 66.1324 121.793 66.752 121.8 67.5803V71.7151H120.106V67.5933C120.106 67.215 120.048 66.9346 119.932 66.7651C119.816 66.5955 119.628 66.5107 119.363 66.5107C119.059 66.5107 118.82 66.6541 118.646 66.9346V71.7086H116.959V62.4736H118.646V65.7802Z" fill="white"/>
<path d="M125.432 71.715H123.745V65.2061H125.432V71.715ZM124.941 62.5713H126.835L125.18 64.4365H123.771L124.941 62.5713Z" fill="white"/>
<path d="M128.974 65.2121L129.019 65.8578C129.401 65.3491 129.898 65.0947 130.512 65.0947C131.624 65.0947 132.193 65.8773 132.225 67.4426V71.721H130.532V67.573C130.532 67.2078 130.474 66.9339 130.364 66.7708C130.254 66.6012 130.066 66.523 129.789 66.523C129.485 66.523 129.246 66.6795 129.071 66.9991V71.7275H127.378V65.2186H128.974V65.2121Z" fill="white"/>
<path d="M135.689 65.7802C136.051 65.3172 136.504 65.0889 137.034 65.0889C137.622 65.0889 138.068 65.2976 138.372 65.715C138.675 66.1324 138.831 66.752 138.837 67.5803V71.7151H137.15V67.5933C137.15 67.215 137.092 66.9346 136.976 66.7651C136.859 66.5955 136.672 66.5107 136.407 66.5107C136.103 66.5107 135.864 66.6541 135.689 66.9346V71.7086H134.002V62.4736H135.689V65.7802Z" fill="white"/>
<path d="M149.437 64.4359H147.291V71.7143H145.527V64.4359H143.42V62.9619H149.437V64.4359Z" fill="white"/>
<path d="M150.969 63.5228C150.969 63.2554 151.053 63.0401 151.221 62.8706C151.389 62.701 151.609 62.6162 151.887 62.6162C152.164 62.6162 152.384 62.701 152.552 62.8706C152.72 63.0401 152.804 63.2554 152.804 63.5228C152.804 63.7836 152.72 63.9989 152.559 64.175C152.391 64.3445 152.171 64.4358 151.887 64.4358C151.609 64.4358 151.382 64.351 151.214 64.175C151.053 64.0054 150.969 63.7836 150.969 63.5228ZM152.74 71.7143H151.046V65.2054H152.74V71.7143Z" fill="white"/>
<path d="M157.258 71.8384C156.392 71.8384 155.713 71.5775 155.228 71.0558C154.744 70.534 154.498 69.7905 154.498 68.8188V68.3035C154.498 67.2796 154.718 66.4839 155.164 65.9296C155.61 65.3687 156.243 65.0948 157.077 65.0948C157.891 65.0948 158.499 65.3556 158.906 65.8774C159.32 66.3991 159.527 67.1752 159.533 68.1992V69.034H156.179C156.204 69.5166 156.308 69.8688 156.495 70.0971C156.683 70.3188 156.967 70.4297 157.361 70.4297C157.924 70.4297 158.395 70.234 158.77 69.8427L159.436 70.8732C159.229 71.1601 158.932 71.3949 158.538 71.571C158.143 71.7471 157.717 71.8384 157.258 71.8384ZM158.919 64.1621V64.2339H157.6L156.857 63.3665L156.114 64.2339H154.828V64.136L156.379 62.4795H157.342L158.919 64.1621ZM157.006 72.2884C157.297 72.2884 157.536 72.3667 157.71 72.5232C157.891 72.6797 157.982 72.8819 157.982 73.1232C157.982 73.3645 157.891 73.5602 157.71 73.7232C157.529 73.8798 157.297 73.958 157.006 73.958C156.721 73.958 156.489 73.8798 156.308 73.7232C156.127 73.5667 156.036 73.3645 156.036 73.1232C156.036 72.8819 156.127 72.6797 156.308 72.5232C156.489 72.3667 156.721 72.2884 157.006 72.2884ZM156.198 67.847H157.885V67.6905C157.878 67.2992 157.814 67.0057 157.691 66.8035C157.575 66.6013 157.368 66.5035 157.07 66.5035C156.78 66.5035 156.56 66.6078 156.431 66.8231C156.301 67.0318 156.224 67.3774 156.198 67.847Z" fill="white"/>
<path d="M162.648 65.2121L162.693 65.8578C163.075 65.3491 163.572 65.0947 164.186 65.0947C165.291 65.0947 165.867 65.8773 165.899 67.4426V71.721H164.206V67.573C164.206 67.2078 164.147 66.9339 164.038 66.7708C163.928 66.6012 163.74 66.523 163.462 66.523C163.159 66.523 162.919 66.6795 162.745 66.9991V71.7275H161.064V65.2186H162.648V65.2121Z" fill="white"/>
<path d="M173.261 69.3142L174.075 65.2119H175.84L174.069 71.7142H172.46L170.682 65.2119H172.447L173.261 69.3142Z" fill="white"/>
<path d="M180.215 71.7145C180.17 71.6166 180.118 71.4471 180.073 71.2123C179.769 71.6297 179.362 71.8384 178.845 71.8384C178.302 71.8384 177.856 71.6558 177.501 71.2971C177.145 70.9384 176.964 70.4688 176.964 69.8949C176.964 69.2101 177.178 68.6883 177.611 68.3101C178.044 67.9383 178.664 67.7492 179.472 67.7361H179.983V67.2144C179.983 66.9209 179.931 66.7122 179.834 66.5948C179.737 66.4774 179.588 66.4122 179.401 66.4122C178.981 66.4122 178.768 66.66 178.768 67.1557H177.081C177.081 66.5557 177.307 66.06 177.753 65.6687C178.199 65.2774 178.768 65.0817 179.446 65.0817C180.151 65.0817 180.7 65.2708 181.088 65.6361C181.476 66.0078 181.67 66.5361 181.67 67.2274V70.2927C181.676 70.8536 181.76 71.2906 181.909 71.6101V71.7145H180.215ZM180.241 64.3447H178.819L177.171 62.4795H179.058L180.241 64.3447ZM179.22 70.5014C179.407 70.5014 179.563 70.4623 179.698 70.3905C179.828 70.3123 179.925 70.2209 179.989 70.1166V68.7666H179.582C179.298 68.7666 179.071 68.8579 178.903 69.0405C178.735 69.2231 178.658 69.471 178.658 69.7775C178.658 70.2601 178.845 70.5014 179.22 70.5014Z" fill="white"/>
<path d="M193.078 71.7143H191.326L188.767 65.975V71.7143H187.015V62.9619H188.767L191.333 68.7077V62.9619H193.078V71.7143Z" fill="white"/>
<path d="M194.809 68.265C194.809 67.1954 195.003 66.3997 195.385 65.878C195.766 65.3497 196.302 65.0889 196.988 65.0889C197.569 65.0889 198.022 65.3237 198.338 65.7867L198.403 65.2063H199.922V71.7151C199.922 72.5434 199.689 73.1825 199.23 73.6195C198.771 74.0564 198.106 74.2782 197.246 74.2782C196.891 74.2782 196.522 74.2065 196.128 74.063C195.74 73.9195 195.449 73.7369 195.255 73.5217L195.824 72.3412C195.979 72.5108 196.193 72.6477 196.445 72.7521C196.697 72.8564 196.942 72.9086 197.169 72.9086C197.543 72.9086 197.815 72.8173 197.983 72.6347C198.151 72.4521 198.235 72.1586 198.235 71.7542V71.1933C197.912 71.6173 197.492 71.8325 196.975 71.8325C196.29 71.8325 195.753 71.5651 195.378 71.0238C195.003 70.4825 194.809 69.7259 194.803 68.7411V68.265H194.809ZM196.496 68.6955C196.496 69.2955 196.574 69.7324 196.729 70.0129C196.884 70.2868 197.13 70.4238 197.466 70.4238C197.808 70.4238 198.067 70.2998 198.235 70.0455V66.9345C198.06 66.6606 197.808 66.5172 197.479 66.5172C197.143 66.5172 196.897 66.6541 196.736 66.9345C196.574 67.2085 196.496 67.652 196.496 68.2716V68.6955Z" fill="white"/>
<path d="M204.828 71.7148C204.782 71.6169 204.731 71.4474 204.686 71.2126C204.388 71.63 203.975 71.8387 203.457 71.8387C202.915 71.8387 202.469 71.6561 202.113 71.2974C201.758 70.9387 201.577 70.4691 201.577 69.8952C201.577 69.2104 201.79 68.6886 202.223 68.3104C202.656 67.9386 203.277 67.7495 204.084 67.7364H204.595V67.2147C204.595 66.9212 204.543 66.7125 204.446 66.5951C204.349 66.4777 204.201 66.4125 204.013 66.4125C203.593 66.4125 203.38 66.6603 203.38 67.156H201.693C201.693 66.556 201.919 66.0603 202.365 65.669C202.811 65.2777 203.38 65.082 204.059 65.082C204.763 65.082 205.312 65.2711 205.7 65.6364C206.088 66.0081 206.282 66.5364 206.282 67.2277V70.293C206.288 70.8539 206.372 71.2909 206.521 71.6104V71.7148H204.828ZM203.832 70.5017C204.02 70.5017 204.175 70.4626 204.311 70.3909C204.44 70.3126 204.537 70.2213 204.602 70.1169V68.7669H204.194C203.91 68.7669 203.684 68.8582 203.516 69.0408C203.348 69.2234 203.27 69.4713 203.27 69.7778C203.27 70.2604 203.458 70.5017 203.832 70.5017Z" fill="white"/>
<path d="M210.095 68.8844L210.955 65.2061H212.752L210.632 72.6866C210.315 73.7888 209.714 74.3432 208.835 74.3432C208.635 74.3432 208.402 74.3041 208.144 74.2323V72.9019L208.337 72.9084C208.596 72.9084 208.796 72.8562 208.932 72.7584C209.068 72.6541 209.165 72.478 209.236 72.2236L209.365 71.7866L207.504 65.2126H209.313L210.095 68.8844Z" fill="white"/>
<path d="M219.842 70.4231C220.327 70.4231 220.579 70.1035 220.585 69.4644H222.169C222.162 70.1753 221.943 70.7492 221.516 71.1862C221.089 71.6231 220.54 71.8449 219.874 71.8449C219.041 71.8449 218.407 71.584 217.974 71.0622C217.541 70.5405 217.315 69.7709 217.308 68.76V68.2448C217.308 67.2208 217.522 66.4448 217.955 65.9034C218.388 65.3686 219.021 65.0947 219.868 65.0947C220.579 65.0947 221.141 65.3164 221.548 65.7599C221.955 66.2034 222.169 66.8295 222.175 67.6448H220.592C220.585 67.2795 220.527 66.9991 220.411 66.8035C220.294 66.6078 220.107 66.51 219.836 66.51C219.538 66.51 219.331 66.6143 219.202 66.823C219.073 67.0317 219.008 67.4426 219.002 68.0491V68.7144C219.002 69.2426 219.028 69.6144 219.079 69.8231C219.131 70.0318 219.215 70.1883 219.338 70.2861C219.454 70.3774 219.622 70.4231 219.842 70.4231Z" fill="white"/>
<path d="M225.381 65.7802C225.743 65.3172 226.196 65.0889 226.726 65.0889C227.314 65.0889 227.76 65.2976 228.064 65.715C228.367 66.1324 228.522 66.752 228.529 67.5803V71.7151H226.836V67.5933C226.836 67.215 226.777 66.9346 226.661 66.7651C226.545 66.5955 226.357 66.5107 226.092 66.5107C225.788 66.5107 225.549 66.6541 225.381 66.9346V71.7086H223.694V62.4736H225.381V65.7802Z" fill="white"/>
<path d="M230.158 68.252C230.158 67.2672 230.39 66.4911 230.849 65.9302C231.308 65.3693 231.948 65.0889 232.762 65.0889C233.583 65.0889 234.23 65.3693 234.689 65.9302C235.147 66.4911 235.38 67.2672 235.38 68.265V68.6824C235.38 69.6738 235.154 70.4499 234.695 71.0042C234.236 71.5586 233.596 71.839 232.775 71.839C231.948 71.839 231.308 71.5586 230.849 71.0042C230.39 70.4433 230.158 69.6672 230.158 68.6759V68.252ZM231.851 68.6824C231.851 69.8433 232.155 70.4238 232.775 70.4238C233.344 70.4238 233.648 69.9412 233.693 68.9694L233.7 68.252C233.7 67.6585 233.616 67.2215 233.454 66.9345C233.292 66.6476 233.06 66.5041 232.762 66.5041C232.478 66.5041 232.252 66.6476 232.09 66.9345C231.929 67.2215 231.851 67.665 231.851 68.252V68.6824Z" fill="white"/>
<path d="M242.044 65.2128L242.089 65.8128C242.464 65.3302 242.962 65.0889 243.582 65.0889C244.228 65.0889 244.681 65.3823 244.946 65.9693C245.314 65.3823 245.838 65.0889 246.523 65.0889C247.654 65.0889 248.229 65.878 248.255 67.4498V71.7151H246.568V67.5607C246.568 67.1824 246.516 66.915 246.413 66.7519C246.31 66.5954 246.135 66.5106 245.89 66.5106C245.573 66.5106 245.34 66.7063 245.185 67.0911L245.198 67.2933V71.7086H243.511V67.5672C243.511 67.1954 243.459 66.928 243.362 66.7585C243.265 66.5889 243.084 66.5106 242.832 66.5106C242.542 66.5106 242.309 66.6671 242.141 66.9867V71.7151H240.454V65.2063H242.044V65.2128Z" fill="white"/>
<path d="M249.929 68.252C249.929 67.2672 250.162 66.4911 250.621 65.9302C251.079 65.3693 251.719 65.0889 252.534 65.0889C253.355 65.0889 253.994 65.3693 254.46 65.9302C254.919 66.4911 255.151 67.2672 255.151 68.265V68.6824C255.151 69.6738 254.919 70.4499 254.466 71.0042C254.007 71.5586 253.367 71.839 252.547 71.839C251.719 71.839 251.079 71.5586 250.621 71.0042C250.162 70.4433 249.929 69.6672 249.929 68.6759V68.252ZM252.527 72.3281C252.818 72.3281 253.051 72.4064 253.232 72.5629C253.413 72.7195 253.503 72.9217 253.503 73.163C253.503 73.4043 253.413 73.5999 253.232 73.763C253.051 73.9195 252.818 73.9977 252.527 73.9977C252.243 73.9977 252.01 73.9195 251.829 73.763C251.648 73.6064 251.558 73.4043 251.558 73.163C251.558 72.9217 251.648 72.726 251.829 72.5629C252.004 72.4064 252.243 72.3281 252.527 72.3281ZM251.622 68.6824C251.622 69.8433 251.933 70.4238 252.547 70.4238C253.115 70.4238 253.419 69.9412 253.464 68.9694L253.471 68.252C253.471 67.6585 253.387 67.2215 253.225 66.9345C253.064 66.6476 252.831 66.5041 252.534 66.5041C252.249 66.5041 252.023 66.6476 251.862 66.9345C251.7 67.2215 251.622 67.665 251.622 68.252V68.6824Z" fill="white"/>
<path d="M256.806 63.5228C256.806 63.2554 256.89 63.0401 257.058 62.8706C257.226 62.701 257.446 62.6162 257.724 62.6162C258.002 62.6162 258.228 62.701 258.389 62.8706C258.557 63.0401 258.641 63.2554 258.641 63.5228C258.641 63.7836 258.557 63.9989 258.396 64.175C258.228 64.3445 258.008 64.4358 257.724 64.4358C257.439 64.4358 257.22 64.351 257.052 64.175C256.89 64.0054 256.806 63.7836 256.806 63.5228ZM258.577 71.7143H256.883V65.2054H258.577V71.7143Z" fill="white"/>
<path d="M265.46 65.2121L265.506 65.8578C265.887 65.3491 266.385 65.0947 266.999 65.0947C268.11 65.0947 268.679 65.8773 268.712 67.4426V71.721H267.018V67.573C267.018 67.2078 266.96 66.9339 266.85 66.7708C266.74 66.6012 266.553 66.523 266.275 66.523C265.971 66.523 265.732 66.6795 265.557 66.9991V71.7275H263.864V65.2186H265.46V65.2121Z" fill="white"/>
<path d="M272.182 65.7802C272.551 65.3172 272.997 65.0889 273.527 65.0889C274.115 65.0889 274.561 65.2976 274.864 65.715C275.168 66.1324 275.323 66.752 275.33 67.5803V71.7151H273.636V67.5933C273.636 67.215 273.578 66.9346 273.462 66.7651C273.346 66.5955 273.158 66.5107 272.893 66.5107C272.589 66.5107 272.35 66.6541 272.176 66.9346V71.7086H270.489V62.4736H272.176V65.7802H272.182Z" fill="white"/>
<path d="M280.216 71.7145C280.171 71.6166 280.119 71.4471 280.074 71.2123C279.77 71.6297 279.363 71.8384 278.846 71.8384C278.303 71.8384 277.857 71.6558 277.502 71.2971C277.146 70.9384 276.972 70.4688 276.972 69.8949C276.972 69.2101 277.185 68.6883 277.618 68.3101C278.051 67.9383 278.672 67.7492 279.479 67.7361H279.99V67.2144C279.99 66.9209 279.938 66.7122 279.841 66.5948C279.744 66.4774 279.596 66.4122 279.408 66.4122C278.988 66.4122 278.775 66.66 278.775 67.1557H277.088C277.088 66.5557 277.314 66.06 277.76 65.6687C278.206 65.2774 278.775 65.0817 279.454 65.0817C280.158 65.0817 280.707 65.2708 281.095 65.6361C281.483 66.0078 281.677 66.5361 281.677 67.2274V70.2927C281.683 70.8536 281.761 71.2906 281.916 71.6101V71.7145H280.216ZM280.249 64.3447H278.827L277.179 62.4795H279.066L280.249 64.3447ZM279.221 70.5014C279.408 70.5014 279.563 70.4623 279.699 70.3905C279.828 70.3123 279.925 70.2209 279.99 70.1166V68.7666H279.583C279.298 68.7666 279.072 68.8579 278.911 69.0405C278.743 69.2231 278.665 69.471 278.665 69.7775C278.659 70.2601 278.846 70.5014 279.221 70.5014Z" fill="white"/>
<path d="M96.1076 28.3247H90.7625V22.1484H108.731V28.3247H103.308V50.0491H96.1076V28.3247Z" fill="white"/>
<path d="M109.778 22.1484H116.752V27.3855H109.778V22.1484ZM109.778 28.9116H116.752V50.0556H109.778V28.9116Z" fill="white"/>
<path d="M126.007 40.6701V43.4419C126.007 45.3463 126.641 46.292 127.908 46.292C128.58 46.292 129.077 46.018 129.401 45.4702C129.724 44.9224 129.885 43.9702 129.885 42.6201H136.161C136.11 45.2811 135.437 47.2507 134.145 48.542C132.852 49.8334 130.79 50.479 127.946 50.479C124.618 50.479 122.297 49.6638 120.992 48.0333C119.686 46.4028 119.033 43.5593 119.033 39.4962C119.033 35.4852 119.725 32.6286 121.108 30.9199C122.491 29.2176 124.766 28.3633 127.946 28.3633C130.836 28.3633 132.962 29.1263 134.319 30.6525C135.677 32.1786 136.349 34.8004 136.349 38.5244V40.6766H126.007V40.6701ZM129.84 35.9026C129.84 34.7547 129.698 33.933 129.414 33.4243C129.129 32.9156 128.625 32.6612 127.901 32.6612C127.203 32.6612 126.712 32.9156 126.428 33.4243C126.143 33.933 126.001 34.7613 126.001 35.9026V36.8417H129.834V35.9026H129.84Z" fill="white"/>
<path d="M138.281 28.9111H145.022V31.4873H145.1C146.005 29.4068 147.698 28.3633 150.174 28.3633C151.88 28.3633 153.211 28.7937 154.181 29.6546C155.15 30.5155 155.635 31.996 155.635 34.1091V50.0551H148.661V36.1048C148.661 35.2178 148.532 34.5786 148.273 34.1873C148.015 33.796 147.575 33.6003 146.955 33.6003C146.334 33.6003 145.895 33.796 145.636 34.1873C145.378 34.5786 145.249 35.2178 145.249 36.1048V50.0551H138.275V28.9111H138.281Z" fill="white"/>
<path d="M158.725 22.1484H166.785L171.432 39.3467H171.509V22.1484H178.244V50.0556H170.346L165.544 32.8182H165.466V50.0556H158.725V22.1484Z" fill="white"/>
<path d="M192.069 28.39H198.577V49.7036C198.577 54.6537 195.656 57.1255 189.826 57.1255C188.197 57.1255 186.834 56.9755 185.722 56.6755C184.61 56.3755 183.673 55.7689 182.897 54.8559C182.122 53.9428 181.721 52.7167 181.695 51.184H187.971C187.971 52.2797 188.553 52.8276 189.716 52.8276C190.362 52.8276 190.88 52.658 191.267 52.3189C191.655 51.9797 191.849 51.2754 191.849 50.2058V46.2992H191.772C190.996 48.4123 189.425 49.4623 187.047 49.4623C182.968 49.4623 180.926 45.9861 180.926 39.0272C180.926 35.1467 181.469 32.401 182.555 30.7835C183.641 29.1661 185.25 28.3574 187.396 28.3574C189.768 28.3574 191.306 29.5183 192.004 31.8336H192.082V28.39H192.069ZM187.887 38.9164C187.887 41.0229 188.042 42.4382 188.352 43.1556C188.663 43.873 189.18 44.2317 189.904 44.2317C190.602 44.2317 191.099 43.8795 191.397 43.1751C191.694 42.4708 191.843 41.049 191.843 38.9164C191.843 36.8294 191.687 35.4271 191.377 34.6967C191.067 33.9662 190.576 33.601 189.904 33.601C189.206 33.601 188.695 33.9662 188.372 34.6967C188.049 35.4206 187.887 36.8294 187.887 38.9164Z" fill="white"/>
<path d="M211.666 50.0492C211.537 49.7101 211.394 48.9144 211.239 47.6687H211.162C210.386 49.547 208.809 50.4797 206.437 50.4797C202.565 50.4797 200.626 48.4514 200.626 44.3817C200.626 42.3991 201.047 40.9055 201.887 39.8881C202.727 38.8707 204.239 38.1011 206.437 37.5794L209.184 36.9141C209.934 36.7315 210.464 36.4641 210.774 36.112C211.084 35.7598 211.239 35.2576 211.239 34.6054C211.239 33.301 210.645 32.6488 209.455 32.6488C208.757 32.6488 208.26 32.8445 207.962 33.2358C207.665 33.6271 207.503 34.3706 207.478 35.4663H201.434C201.434 34.0314 201.693 32.8184 202.21 31.814C202.727 30.8096 203.412 30.0727 204.278 29.6096C205.144 29.14 205.985 28.8139 206.812 28.6313C207.639 28.4487 208.518 28.3574 209.449 28.3574C212.131 28.3574 214.187 28.8531 215.609 29.8444C217.03 30.8357 217.741 32.6032 217.741 35.1598V45.4774C217.741 47.6948 217.961 49.2144 218.401 50.0492H211.666ZM209.074 45.8687C210.522 45.8687 211.239 44.7078 211.239 42.3925V39.8555H211.162C211.032 40.0381 210.858 40.1686 210.638 40.2468C210.418 40.3251 210.121 40.4099 209.746 40.5012C209.371 40.5925 209.055 40.7034 208.796 40.8338C207.84 41.2773 207.361 42.1904 207.361 43.573C207.361 44.2774 207.516 44.8382 207.827 45.2556C208.143 45.66 208.557 45.8687 209.074 45.8687Z" fill="white"/>
<path d="M221.393 52.0449C221.833 52.1493 222.35 52.2015 222.945 52.2015C223.72 52.2015 224.302 52.0123 224.69 51.6341C225.077 51.2558 225.265 50.5971 225.265 50.284C225.265 50.1014 225.161 49.6188 224.955 48.8361L219.293 28.39L226.538 28.3574L228.749 43.1687H228.826L230.914 28.39L237.946 28.3966L232.2 50.6362C231.605 53.0036 230.797 54.9406 229.763 55.8146C228.729 56.6885 227.249 57.1255 225.31 57.1255C223.759 57.1255 222.46 57.0733 221.4 56.969V52.0449H221.393Z" fill="white"/>
<path d="M243.543 42.3135H237.035V50.055H243.543V42.3135Z" fill="white"/>
<path d="M245.088 28.4023H252.223L254.266 44.1136H254.343L256.347 28.4023L263.605 28.4089L258.37 50.0485H250.162L245.088 28.4023Z" fill="white"/>
<path d="M264.646 28.4024H271.387V31.4873H271.465C272.37 29.4002 274.063 28.3633 276.538 28.3633C278.245 28.3633 279.576 28.7937 280.546 29.6546C281.515 30.5155 282 32.0025 282 34.1091V50.0551H275.026V36.1048C275.026 35.2178 274.897 34.5786 274.638 34.1939C274.38 33.8025 273.94 33.6069 273.32 33.6069C272.699 33.6069 272.26 33.8025 272.001 34.1939C271.743 34.5852 271.613 35.2243 271.613 36.1048V50.0551H264.639V28.4024H264.646Z" fill="white"/>
<path d="M41.3183 94C40.0967 94 38.9527 93.4 38.2482 92.3891L25.0436 73.3582C24.9596 73.2408 24.882 73.1104 24.8109 72.9799L24.5847 72.5625L24.3003 72.9408C23.5958 73.8604 22.4906 74.4082 21.3401 74.4082H3.74046C2.33791 74.4082 1.06464 73.6256 0.424765 72.3734C-0.221569 71.1212 -0.124619 69.6212 0.676835 68.4603L15.5619 46.9968L0.676835 25.5528C-0.124619 24.3984 -0.221569 22.8984 0.424765 21.6396C1.0711 20.3809 2.34438 19.6048 3.74692 19.6048H21.3595C22.5035 19.6048 23.6023 20.1461 24.3068 21.0592L24.5977 21.4375L24.8239 21.0135C24.8885 20.8961 24.9596 20.7722 25.0566 20.6352L38.2547 1.61089C38.9527 0.599995 40.0967 0 41.3183 0C42.5399 0 43.6904 0.606523 44.3819 1.61742L57.5865 20.6418C57.6641 20.7592 57.7417 20.8831 57.8192 21.0135L58.0454 21.4244L58.3363 21.0526C59.0537 20.1265 60.1266 19.5983 61.29 19.5983H78.8962C80.2987 19.5983 81.572 20.3809 82.2183 21.6331C82.8647 22.8853 82.7677 24.3853 81.9662 25.5462L67.0747 46.9968L81.9921 68.4538C82.8 69.6147 82.897 71.1147 82.2506 72.3669C81.6043 73.6256 80.3375 74.4017 78.9349 74.4017H61.3288C60.1719 74.4017 59.0602 73.8474 58.3492 72.9147L58.0519 72.5169L57.8321 72.9604C57.774 73.0843 57.6964 73.2082 57.5995 73.3517L44.3949 92.3826C43.6904 93.3935 42.5399 94 41.3183 94Z" fill="white"/>
<path d="M31.8558 40.4098H26.627C26.1487 40.4098 25.7027 40.1751 25.4248 39.7772L18.0695 29.1792H14.4888L23.8995 42.7316C24.1709 43.1295 24.6233 43.3643 25.1016 43.3643H35.96C36.4383 43.3643 36.8908 43.599 37.1622 43.9969L55.4406 70.3388C55.796 70.8475 55.796 71.5258 55.4406 72.0345L42.2359 91.0654C41.6542 91.9067 40.4197 91.9067 39.8316 91.0654L26.627 72.0345C26.2715 71.5258 26.2715 70.8475 26.627 70.3388L33.6462 60.2299C34.2279 59.3886 35.4624 59.3885 36.0441 60.2234L38.6617 63.98C39.0172 64.4887 39.0172 65.1669 38.6617 65.6822L35.43 70.3388C35.0746 70.8475 35.0746 71.5258 35.43 72.0345L41.0338 80.1086L46.6375 72.0345C46.993 71.5258 46.993 70.8475 46.6375 70.3388L33.407 51.2753C33.1291 50.8775 32.6831 50.6427 32.2048 50.6427H25.0887C24.6104 50.6427 24.1644 50.8775 23.8865 51.2753L14.4694 64.8409L18.0566 64.8278L25.4119 54.2363C25.6898 53.8449 26.1358 53.6101 26.6141 53.6101H30.673C31.1513 53.6101 31.5973 53.8449 31.8752 54.2428L32.4569 55.0841C32.8059 55.5928 32.8059 56.2711 32.4569 56.7798L22.2513 71.4867C21.9798 71.8845 21.5274 72.1193 21.0491 72.1193H3.45591C2.27312 72.1193 1.57508 70.7692 2.25373 69.791L17.462 47.8578C17.8174 47.3491 17.8174 46.6709 17.462 46.1621L2.26019 24.2355C1.58154 23.2573 2.27312 21.9072 3.46238 21.9072H21.075C21.5533 21.9072 21.9992 22.142 22.2772 22.5399L33.0645 38.088C33.7367 39.0598 33.0451 40.4098 31.8558 40.4098Z" fill="#ED3938"/>
<path d="M50.2507 53.5965H55.4731C55.9514 53.5965 56.3973 53.8312 56.6753 54.2291L64.0305 64.8271H67.6112L58.2006 51.2747C57.9292 50.8768 57.4767 50.642 56.9984 50.642H46.14C45.6617 50.642 45.2093 50.4073 44.9378 50.0159L26.6272 23.6544C26.2717 23.1457 26.2717 22.4675 26.6272 21.9587L39.8318 2.92787C40.4135 2.08654 41.648 2.08654 42.2297 2.92787L55.4343 21.9587C55.7898 22.4675 55.7898 23.1457 55.4343 23.6544L48.4216 33.7634C47.8334 34.6047 46.5989 34.6047 46.0172 33.7634L43.406 30.0002C43.0506 29.4915 43.0506 28.8132 43.406 28.3045L46.6248 23.6609C46.9803 23.1522 46.9803 22.474 46.6248 21.9653L41.0211 13.8846L35.4173 21.9587C35.0619 22.4675 35.0619 23.1457 35.4173 23.6544L48.6801 42.731C48.958 43.1288 49.404 43.3636 49.8823 43.3636H56.9532C57.4315 43.3636 57.8839 43.1288 58.1554 42.731L67.5595 29.1785H63.9788L56.6236 39.7766C56.3521 40.1744 55.8997 40.4092 55.4214 40.4092H51.3818C50.9035 40.4092 50.4511 40.1744 50.1796 39.7766L49.585 38.9222C49.2295 38.4135 49.2295 37.7352 49.585 37.2265L59.7841 22.5327C60.0621 22.1414 60.508 21.9 60.9863 21.9H78.5924C79.7752 21.9 80.4733 23.2501 79.7946 24.2284L64.5799 46.1484C64.2244 46.6571 64.2244 47.3354 64.5799 47.8441L79.8269 69.7707C80.5121 70.749 79.814 72.0991 78.6312 72.0991H61.0251C60.5468 72.0991 60.1008 71.8643 59.8229 71.4664L49.0356 55.9248C48.3699 54.9465 49.0615 53.5965 50.2507 53.5965Z" fill="#ED3938"/>
</svg>
