<svg width="171" height="53" viewBox="0 0 171 53" fill="none" xmlns="http://www.w3.org/2000/svg">
<path d="M163.549 52.5057H6.57676C2.94937 52.5057 0 49.5563 0 45.9289V7.33848C0 3.7111 2.94937 0.761719 6.57676 0.761719H163.549C167.176 0.761719 170.126 3.7111 170.126 7.33848V45.9289C170.126 49.5563 167.188 52.5057 163.549 52.5057Z" fill="#595959"/>
<path d="M15.4583 21.8983C12.701 26.6896 14.4525 33.9557 17.5036 38.3628C19.0292 40.5664 20.566 42.5439 22.6791 42.5439C22.7243 42.5439 22.7582 42.5439 22.8034 42.5439C23.7979 42.51 24.5098 42.1936 25.2104 41.8998C25.9901 41.5721 26.7924 41.2218 28.0581 41.2218C29.2559 41.2218 30.0243 41.5495 30.7701 41.8772C31.5047 42.1936 32.2505 42.5213 33.3692 42.4987C35.7536 42.4535 37.2113 40.3178 38.4995 38.4419C39.8443 36.4757 40.5223 34.5659 40.7483 33.8427L40.7596 33.8088C40.8048 33.6845 40.737 33.5376 40.6127 33.4811C40.6127 33.4811 40.6014 33.4698 40.5901 33.4698C40.172 33.3003 36.4994 31.6731 36.4542 27.2208C36.4203 23.6047 39.2114 21.6949 39.7765 21.3559L39.7991 21.3446C39.8556 21.3107 39.9008 21.2429 39.9121 21.1751C39.9234 21.1073 39.9121 21.0282 39.8669 20.9717C37.9345 18.1466 34.9851 17.7285 33.7986 17.672C33.6291 17.6494 33.4483 17.6494 33.2675 17.6494C31.8663 17.6494 30.5328 18.1805 29.4593 18.5986C28.7135 18.8924 28.0807 19.1411 27.6287 19.1411C27.1314 19.1411 26.4873 18.8811 25.7415 18.5873C24.7471 18.1918 23.6058 17.7398 22.4079 17.7398C22.374 17.7398 22.3514 17.7398 22.3288 17.7398C19.549 17.785 16.916 19.3784 15.4583 21.8983Z" fill="white"/>
<path d="M33.7992 9.8999C32.1155 9.9677 30.0927 11.0073 28.8836 12.4199C27.8553 13.6064 26.8496 15.5952 27.1208 17.5954C27.1321 17.7197 27.2451 17.8214 27.3694 17.8327C27.4824 17.844 27.5954 17.844 27.7197 17.844C29.3695 17.844 31.1437 16.9287 32.3641 15.4596C33.641 13.9115 34.2851 11.9113 34.093 10.1372C34.0704 10.0016 33.9461 9.8999 33.7992 9.8999Z" fill="white"/>
<path d="M53.2131 12.5698H56.4111C57.2473 12.5698 57.9931 12.7393 58.6486 13.0896C59.304 13.4399 59.8012 13.9146 60.1628 14.5248C60.5244 15.135 60.7052 15.8356 60.7052 16.604C60.7052 17.3837 60.5244 18.0731 60.1628 18.6833C59.8012 19.2935 59.2927 19.7794 58.6486 20.1184C57.9931 20.4687 57.2473 20.6382 56.4111 20.6382H53.2131V12.5698ZM56.3659 20.1297C57.1117 20.1297 57.7671 19.9828 58.3435 19.689C58.9085 19.3952 59.3492 18.9771 59.6656 18.446C59.9707 17.9149 60.1289 17.3046 60.1289 16.6266C60.1289 15.9373 59.9707 15.3384 59.6656 14.8073C59.3605 14.2762 58.9198 13.8581 58.3435 13.5643C57.7784 13.2704 57.1117 13.1235 56.3659 13.1235H53.8007V20.141H56.3659V20.1297Z" fill="white"/>
<path d="M63.3829 20.3095C62.9196 20.0496 62.5693 19.6879 62.2981 19.2133C62.0382 18.75 61.9026 18.2189 61.9026 17.6313C61.9026 17.0437 62.0382 16.5239 62.2981 16.0493C62.558 15.586 62.9196 15.2243 63.3829 14.9531C63.8462 14.6932 64.3547 14.5576 64.9198 14.5576C65.4848 14.5576 66.0046 14.6932 66.4566 14.9531C66.9199 15.213 67.2702 15.5746 67.5414 16.0493C67.8013 16.5126 67.9369 17.0437 67.9369 17.6313C67.9369 18.2189 67.8013 18.7387 67.5414 19.2133C67.2815 19.6766 66.9199 20.0383 66.4566 20.3095C65.9933 20.5694 65.4848 20.705 64.9198 20.705C64.3547 20.705 63.8462 20.5694 63.3829 20.3095ZM66.1741 19.8574C66.5357 19.6427 66.8295 19.3376 67.0442 18.9534C67.2589 18.5692 67.3606 18.1285 67.3606 17.6313C67.3606 17.1341 67.2589 16.7047 67.0442 16.3092C66.8295 15.9249 66.547 15.6198 66.1741 15.4051C65.8125 15.1904 65.3944 15.0774 64.9311 15.0774C64.4677 15.0774 64.0496 15.1904 63.688 15.4051C63.3264 15.6198 63.0326 15.9249 62.8179 16.3092C62.6032 16.6934 62.5015 17.1341 62.5015 17.6313C62.5015 18.1285 62.6032 18.5579 62.8179 18.9534C63.0326 19.3376 63.3151 19.6427 63.688 19.8574C64.0496 20.0722 64.4677 20.1852 64.9311 20.1852C65.3944 20.1852 65.8012 20.0722 66.1741 19.8574Z" fill="white"/>
<path d="M78.1753 14.626L75.8926 20.6603H75.3502L73.3161 15.4283L71.2708 20.6603H70.7397L68.457 14.626H69.0107L71.0222 20.0049L73.0788 14.626H73.576L75.6214 19.9936L77.6554 14.626H78.1753Z" fill="white"/>
<path d="M84.2552 15.2356C84.6959 15.6763 84.9107 16.3092 84.9107 17.1341V20.6598H84.3343V17.1793C84.3343 16.5013 84.1648 15.9815 83.8258 15.6311C83.4868 15.2808 83.0009 15.1 82.3907 15.1C81.6788 15.1 81.1251 15.3147 80.7183 15.7328C80.3115 16.151 80.108 16.7273 80.108 17.4392V20.6485H79.5317V14.6141H80.0854V15.9136C80.2888 15.4955 80.6053 15.1565 81.0121 14.9192C81.4189 14.6819 81.9161 14.5576 82.4698 14.5576C83.2156 14.5802 83.8145 14.7949 84.2552 15.2356Z" fill="white"/>
<path d="M87.2839 12.085H87.8602V20.6506H87.2839V12.085Z" fill="white"/>
<path d="M91.1136 20.3095C90.6503 20.0496 90.3 19.6879 90.0288 19.2133C89.7689 18.75 89.6333 18.2189 89.6333 17.6313C89.6333 17.0437 89.7689 16.5239 90.0288 16.0493C90.2887 15.586 90.6503 15.2243 91.1136 14.9531C91.577 14.6932 92.0855 14.5576 92.6505 14.5576C93.2155 14.5576 93.7353 14.6932 94.1873 14.9531C94.6506 15.213 95.0009 15.5746 95.2721 16.0493C95.532 16.5126 95.6676 17.0437 95.6676 17.6313C95.6676 18.2189 95.532 18.7387 95.2721 19.2133C95.0122 19.6766 94.6506 20.0383 94.1873 20.3095C93.724 20.5694 93.2155 20.705 92.6505 20.705C92.0855 20.705 91.577 20.5694 91.1136 20.3095ZM93.9048 19.8574C94.2664 19.6427 94.5602 19.3376 94.7749 18.9534C94.9896 18.5692 95.0913 18.1285 95.0913 17.6313C95.0913 17.1341 94.9896 16.7047 94.7749 16.3092C94.5602 15.9249 94.2777 15.6198 93.9048 15.4051C93.5432 15.1904 93.1251 15.0774 92.6618 15.0774C92.1985 15.0774 91.7804 15.1904 91.4187 15.4051C91.0571 15.6198 90.7633 15.9249 90.5486 16.3092C90.3339 16.6934 90.2322 17.1341 90.2322 17.6313C90.2322 18.1285 90.3339 18.5579 90.5486 18.9534C90.7633 19.3376 91.0458 19.6427 91.4187 19.8574C91.7804 20.0722 92.1985 20.1852 92.6618 20.1852C93.1251 20.1852 93.5319 20.0722 93.9048 19.8574Z" fill="white"/>
<path d="M101.194 15.1452C101.59 15.5294 101.793 16.0831 101.793 16.8289V20.6484H101.239V19.5749C101.047 19.9252 100.765 20.2077 100.392 20.3998C100.019 20.5919 99.5782 20.6936 99.0584 20.6936C98.3917 20.6936 97.8606 20.5354 97.4651 20.219C97.0808 19.9026 96.8774 19.4845 96.8774 18.9759C96.8774 18.4787 97.0582 18.0719 97.4198 17.7555C97.7815 17.4391 98.3465 17.2922 99.1375 17.2922H101.205V16.8063C101.205 16.2413 101.059 15.8119 100.753 15.5294C100.448 15.2356 100.008 15.0887 99.42 15.0887C99.0245 15.0887 98.6403 15.1564 98.2674 15.2921C97.9058 15.4277 97.5894 15.6198 97.3408 15.8458L97.0469 15.4277C97.3521 15.1565 97.7137 14.9531 98.1318 14.7949C98.5499 14.6479 99.0019 14.5688 99.4652 14.5688C100.222 14.5801 100.799 14.7722 101.194 15.1452ZM100.426 19.88C100.776 19.654 101.036 19.315 101.217 18.8742V17.7442H99.1601C98.5725 17.7442 98.1431 17.8572 97.8719 18.0719C97.6007 18.2866 97.4763 18.5804 97.4763 18.9646C97.4763 19.3601 97.6233 19.6653 97.9171 19.8913C98.2109 20.1173 98.6177 20.2303 99.1488 20.2303C99.646 20.2303 100.075 20.106 100.426 19.88Z" fill="white"/>
<path d="M109.545 12.0846V20.6501H108.98V19.2263C108.743 19.7009 108.404 20.0625 107.975 20.3111C107.545 20.5597 107.059 20.6953 106.505 20.6953C105.94 20.6953 105.432 20.5597 104.98 20.2998C104.528 20.0399 104.166 19.6783 103.906 19.215C103.647 18.7517 103.522 18.2206 103.522 17.633C103.522 17.0454 103.647 16.5143 103.906 16.0396C104.166 15.5763 104.517 15.2147 104.98 14.9548C105.432 14.6949 105.94 14.5706 106.505 14.5706C107.048 14.5706 107.523 14.6949 107.952 14.9548C108.381 15.2034 108.72 15.565 108.958 16.017V12.0732H109.545V12.0846ZM107.782 19.8591C108.144 19.6444 108.438 19.3393 108.653 18.9551C108.867 18.5709 108.969 18.1302 108.969 17.633C108.969 17.1358 108.867 16.7063 108.653 16.3108C108.438 15.9266 108.155 15.6215 107.782 15.4068C107.421 15.1921 107.003 15.0791 106.539 15.0791C106.076 15.0791 105.658 15.1921 105.296 15.4068C104.935 15.6215 104.641 15.9266 104.426 16.3108C104.212 16.695 104.11 17.1358 104.11 17.633C104.11 18.1302 104.212 18.5596 104.426 18.9551C104.641 19.3393 104.923 19.6444 105.296 19.8591C105.658 20.0738 106.076 20.1868 106.539 20.1868C107.003 20.1868 107.421 20.0738 107.782 19.8591Z" fill="white"/>
<path d="M115.76 20.3095C115.296 20.0496 114.946 19.6879 114.675 19.2133C114.415 18.75 114.279 18.2189 114.279 17.6313C114.279 17.0437 114.415 16.5239 114.675 16.0493C114.935 15.586 115.296 15.2243 115.76 14.9531C116.223 14.6932 116.731 14.5576 117.296 14.5576C117.861 14.5576 118.381 14.6932 118.833 14.9531C119.297 15.213 119.647 15.5746 119.918 16.0493C120.178 16.5126 120.314 17.0437 120.314 17.6313C120.314 18.2189 120.178 18.7387 119.918 19.2133C119.658 19.6766 119.297 20.0383 118.833 20.3095C118.37 20.5694 117.861 20.705 117.296 20.705C116.731 20.705 116.223 20.5694 115.76 20.3095ZM118.551 19.8574C118.912 19.6427 119.206 19.3376 119.421 18.9534C119.636 18.5692 119.737 18.1285 119.737 17.6313C119.737 17.1341 119.636 16.7047 119.421 16.3092C119.206 15.9249 118.924 15.6198 118.551 15.4051C118.189 15.1904 117.771 15.0774 117.308 15.0774C116.844 15.0774 116.426 15.1904 116.065 15.4051C115.703 15.6198 115.409 15.9249 115.195 16.3092C114.98 16.6934 114.878 17.1341 114.878 17.6313C114.878 18.1285 114.98 18.5579 115.195 18.9534C115.409 19.3376 115.692 19.6427 116.065 19.8574C116.426 20.0722 116.844 20.1852 117.308 20.1852C117.771 20.1852 118.178 20.0722 118.551 19.8574Z" fill="white"/>
<path d="M126.845 15.2356C127.286 15.6763 127.501 16.3092 127.501 17.1341V20.6598H126.924V17.1793C126.924 16.5013 126.755 15.9815 126.416 15.6311C126.077 15.2808 125.591 15.1 124.981 15.1C124.269 15.1 123.715 15.3147 123.308 15.7328C122.902 16.151 122.698 16.7273 122.698 17.4392V20.6485H122.122V14.6141H122.676V15.9136C122.879 15.4955 123.195 15.1565 123.602 14.9192C124.009 14.6819 124.506 14.5576 125.06 14.5576C125.806 14.5802 126.405 14.7949 126.845 15.2356Z" fill="white"/>
<path d="M135.841 20.2809C135.694 20.4165 135.513 20.5295 135.287 20.5973C135.073 20.6651 134.835 20.7103 134.598 20.7103C134.078 20.7103 133.671 20.5634 133.389 20.2809C133.106 19.9871 132.959 19.5915 132.959 19.0717V15.1279H131.852V14.6307H132.959V13.3086H133.536V14.6307H135.457V15.1279H133.536V19.0039C133.536 19.3994 133.626 19.6933 133.818 19.8967C134.01 20.1001 134.282 20.2018 134.655 20.2018C135.027 20.2018 135.344 20.0888 135.592 19.8627L135.841 20.2809Z" fill="white"/>
<path d="M142.18 15.2377C142.621 15.6784 142.835 16.3113 142.835 17.1362V20.6619H142.259V17.1814C142.259 16.5034 142.089 15.9835 141.75 15.6332C141.411 15.2829 140.925 15.1021 140.315 15.1021C139.603 15.1021 139.05 15.3168 138.643 15.7349C138.236 16.153 138.033 16.7294 138.033 17.4413V20.6506H137.456V12.085H138.033V15.8818C138.236 15.4637 138.552 15.1473 138.959 14.9213C139.366 14.6953 139.852 14.5823 140.406 14.5823C141.151 14.5823 141.75 14.797 142.18 15.2377Z" fill="white"/>
<path d="M150.328 17.7782H145.141C145.152 18.2528 145.277 18.6709 145.503 19.0325C145.729 19.3941 146.034 19.6766 146.407 19.88C146.791 20.0835 147.22 20.1852 147.695 20.1852C148.09 20.1852 148.452 20.1173 148.791 19.9704C149.13 19.8235 149.401 19.6201 149.627 19.3376L149.966 19.7218C149.706 20.0383 149.379 20.2756 148.983 20.4451C148.588 20.6146 148.158 20.6937 147.695 20.6937C147.096 20.6937 146.554 20.5581 146.09 20.2982C145.616 20.0382 145.254 19.6766 144.983 19.2133C144.712 18.75 144.587 18.2189 144.587 17.6313C144.587 17.0437 144.712 16.5239 144.96 16.0493C145.209 15.5859 145.559 15.2243 145.989 14.9531C146.429 14.6932 146.915 14.5576 147.469 14.5576C148.011 14.5576 148.509 14.6819 148.938 14.9418C149.367 15.2017 149.718 15.5633 149.966 16.0267C150.215 16.49 150.339 17.0098 150.339 17.5974L150.328 17.7782ZM146.316 15.3712C145.977 15.5633 145.706 15.8233 145.503 16.1736C145.299 16.5126 145.186 16.9081 145.152 17.3375H149.774C149.752 16.9081 149.639 16.5239 149.424 16.1849C149.221 15.8458 148.938 15.5859 148.599 15.3825C148.26 15.1904 147.876 15.0887 147.458 15.0887C147.04 15.0887 146.655 15.1791 146.316 15.3712Z" fill="white"/>
<path d="M61.7671 38.5309H54.8627L53.4953 41.7289H50.8511L57.0662 27.9087H59.5975L65.8352 41.7289H63.1458L61.7671 38.5309ZM60.9196 36.5195L58.3093 30.4851L55.7215 36.5195H60.9196Z" fill="white"/>
<path d="M75.9494 31.7381C76.763 32.1901 77.3958 32.8116 77.8591 33.6365C78.3224 34.4501 78.5484 35.3881 78.5484 36.4616C78.5484 37.5238 78.3224 38.473 77.8591 39.298C77.3958 40.1229 76.763 40.7557 75.9494 41.2077C75.1357 41.6597 74.2204 41.8744 73.1921 41.8744C71.7683 41.8744 70.6495 41.3998 69.8133 40.4506V45.5583H67.3499V31.1844H69.7003V32.563C70.1071 32.0658 70.6156 31.6929 71.2146 31.433C71.8135 31.1844 72.4689 31.0601 73.2034 31.0601C74.2204 31.0714 75.1357 31.2974 75.9494 31.7381ZM75.1583 38.8459C75.746 38.2357 76.0398 37.4447 76.0398 36.4616C76.0398 35.4785 75.746 34.6762 75.1583 34.0772C74.5707 33.467 73.8249 33.1732 72.9209 33.1732C72.3333 33.1732 71.7909 33.3088 71.3276 33.58C70.8529 33.8512 70.48 34.2354 70.1975 34.7326C69.9263 35.2299 69.7794 35.8062 69.7794 36.4729C69.7794 37.1283 69.915 37.7046 70.1975 38.2131C70.4687 38.7103 70.8529 39.0946 71.3276 39.3658C71.8022 39.637 72.3333 39.7726 72.9209 39.7726C73.8249 39.7613 74.5707 39.4562 75.1583 38.8459Z" fill="white"/>
<path d="M89.4862 31.7381C90.2998 32.1901 90.9327 32.8116 91.396 33.6365C91.8593 34.4501 92.0853 35.3881 92.0853 36.4616C92.0853 37.5238 91.8593 38.473 91.396 39.298C90.9327 40.1229 90.2998 40.7557 89.4862 41.2077C88.6726 41.6597 87.7573 41.8744 86.729 41.8744C85.3051 41.8744 84.1864 41.3998 83.3502 40.4506V45.5583H80.8867V31.1844H83.2372V32.563C83.644 32.0658 84.1525 31.6929 84.7514 31.433C85.3503 31.1844 86.0057 31.0601 86.7403 31.0601C87.7573 31.0714 88.6839 31.2974 89.4862 31.7381ZM88.6952 38.8459C89.2828 38.2357 89.5766 37.4447 89.5766 36.4616C89.5766 35.4785 89.2828 34.6762 88.6952 34.0772C88.1076 33.467 87.3618 33.1732 86.4577 33.1732C85.8701 33.1732 85.3277 33.3088 84.8644 33.58C84.3898 33.8512 84.0169 34.2354 83.7344 34.7326C83.4632 35.2299 83.3163 35.8062 83.3163 36.4729C83.3163 37.1283 83.4519 37.7046 83.7344 38.2131C84.0056 38.7103 84.3898 39.0946 84.8644 39.3658C85.339 39.637 85.8701 39.7726 86.4577 39.7726C87.3618 39.7613 88.1189 39.4562 88.6952 38.8459Z" fill="white"/>
<path d="M101.307 41.4672C100.312 41.1621 99.5324 40.7666 98.9448 40.2581L99.8375 38.2692C100.403 38.7212 101.092 39.0828 101.917 39.3654C102.742 39.6479 103.567 39.7948 104.392 39.7948C105.42 39.7948 106.188 39.6253 106.686 39.2976C107.194 38.9698 107.443 38.5291 107.443 37.998C107.443 37.6025 107.296 37.2748 107.013 37.0262C106.731 36.7663 106.369 36.5742 105.94 36.4273C105.51 36.2804 104.911 36.1222 104.166 35.9301C103.115 35.6815 102.256 35.4329 101.612 35.1843C100.956 34.9356 100.403 34.5402 99.9393 34.009C99.4759 33.4779 99.2386 32.7547 99.2386 31.8507C99.2386 31.0823 99.442 30.3929 99.8601 29.7714C100.278 29.1499 100.9 28.6527 101.736 28.2798C102.572 27.9069 103.589 27.7261 104.81 27.7261C105.657 27.7261 106.482 27.8278 107.296 28.0425C108.109 28.2572 108.81 28.551 109.409 28.9465L108.595 30.9354C107.985 30.585 107.364 30.3138 106.697 30.1217C106.041 29.9409 105.397 29.8505 104.787 29.8505C103.77 29.8505 103.024 30.02 102.527 30.359C102.03 30.6981 101.793 31.1501 101.793 31.7264C101.793 32.1219 101.928 32.4383 102.222 32.6982C102.504 32.9468 102.866 33.1502 103.295 33.2858C103.725 33.4327 104.324 33.5909 105.07 33.783C106.098 34.0203 106.934 34.2689 107.601 34.5175C108.256 34.7775 108.821 35.1617 109.285 35.6928C109.748 36.2239 109.985 36.9245 109.985 37.8285C109.985 38.5969 109.782 39.2863 109.364 39.8965C108.946 40.518 108.324 41.0039 107.477 41.3768C106.629 41.7497 105.612 41.9305 104.403 41.9305C103.329 41.9305 102.301 41.7723 101.307 41.4672Z" fill="white"/>
<path d="M118.63 41.1556C118.337 41.3929 117.986 41.5737 117.579 41.6867C117.161 41.7997 116.732 41.8675 116.269 41.8675C115.116 41.8675 114.212 41.5624 113.579 40.9635C112.946 40.3533 112.63 39.4719 112.63 38.3193V33.2454H110.89V31.2566H112.63V28.8496H115.093V31.2566H117.918V33.2341H115.093V38.2515C115.093 38.76 115.218 39.1555 115.466 39.4267C115.715 39.6979 116.076 39.8335 116.551 39.8335C117.105 39.8335 117.568 39.6866 117.93 39.4041L118.63 41.1556Z" fill="white"/>
<path d="M122.167 41.1712C121.309 40.7079 120.642 40.0638 120.167 39.2502C119.681 38.4253 119.444 37.4986 119.444 36.459C119.444 35.4194 119.681 34.4928 120.167 33.6791C120.642 32.8655 121.32 32.2214 122.167 31.7694C123.026 31.3061 123.987 31.0801 125.049 31.0801C126.123 31.0801 127.094 31.3061 127.953 31.7694C128.812 32.2327 129.479 32.8655 129.953 33.6791C130.428 34.4928 130.677 35.4194 130.677 36.459C130.677 37.4986 130.439 38.4253 129.953 39.2502C129.467 40.0751 128.801 40.7192 127.953 41.1712C127.094 41.6345 126.134 41.8605 125.049 41.8605C123.975 41.8605 123.015 41.6345 122.167 41.1712ZM127.298 38.8434C127.885 38.2331 128.191 37.4421 128.191 36.459C128.191 35.4759 127.897 34.6736 127.298 34.0747C126.71 33.4644 125.953 33.1706 125.049 33.1706C124.145 33.1706 123.399 33.4757 122.812 34.0747C122.224 34.6849 121.93 35.4759 121.93 36.459C121.93 37.4421 122.224 38.2444 122.812 38.8434C123.399 39.4536 124.145 39.7474 125.049 39.7474C125.953 39.7587 126.71 39.4536 127.298 38.8434Z" fill="white"/>
<path d="M139.141 31.0688V33.4193C138.926 33.3854 138.734 33.3628 138.564 33.3628C137.604 33.3628 136.858 33.6453 136.316 34.199C135.773 34.764 135.502 35.5664 135.502 36.6173V41.725H133.039V31.1819H135.389V32.7187C136.101 31.6226 137.355 31.0688 139.141 31.0688Z" fill="white"/>
<path d="M151.006 37.25H142.734C142.881 38.0297 143.254 38.64 143.864 39.092C144.474 39.544 145.231 39.77 146.147 39.77C147.299 39.77 148.26 39.3858 149.006 38.6287L150.328 40.1429C149.853 40.7079 149.254 41.1373 148.531 41.4311C147.808 41.7249 146.994 41.8605 146.079 41.8605C144.926 41.8605 143.898 41.6345 143.016 41.1712C142.135 40.7079 141.457 40.0638 140.971 39.2502C140.485 38.4253 140.248 37.4986 140.248 36.459C140.248 35.4307 140.485 34.5041 140.948 33.6904C141.412 32.8655 142.067 32.2214 142.892 31.7694C143.717 31.3061 144.655 31.0801 145.695 31.0801C146.723 31.0801 147.638 31.3061 148.452 31.7581C149.265 32.2101 149.898 32.8542 150.35 33.6678C150.802 34.4928 151.028 35.442 151.028 36.5155C151.04 36.685 151.028 36.9336 151.006 37.25ZM143.706 33.7469C143.163 34.2103 142.824 34.8318 142.711 35.6115H148.689C148.587 34.8431 148.26 34.2328 147.717 33.7582C147.175 33.2836 146.508 33.0463 145.706 33.0463C144.926 33.0463 144.259 33.2723 143.706 33.7469Z" fill="white"/>
</svg>
