<?xml version="1.0" encoding="utf-8"?>
<svg width="46px" height="46px" viewbox="0 0 46 46" version="1.1" xmlns:xlink="http://www.w3.org/1999/xlink" xmlns="http://www.w3.org/2000/svg">
  <g id="meeting" transform="translate(1 1)">
    <path d="M18 6L0 6L0 4.758C0 2.983 1.164 1.424 2.866 0.92C4.46 0.448 6.604 0 9 0C11.356 0 13.514 0.456 15.125 0.932C16.83 1.436 18 2.994 18 4.773L18 6Z" transform="translate(0 38)" id="Path" fill="#00A35B" fill-rule="evenodd" stroke="#00A35B" stroke-width="2" stroke-linecap="round" stroke-linejoin="round" />
    <path d="M5 10C7.76142 10 10 7.76142 10 5C10 2.23858 7.76142 0 5 0C2.23858 0 0 2.23858 0 5C0 7.76142 2.23858 10 5 10Z" transform="translate(4 24)" id="Oval" fill="none" fill-rule="evenodd" stroke="#003D22" stroke-width="2" stroke-linecap="round" stroke-linejoin="round" />
    <path d="M18 6L0 6L0 4.758C0 2.983 1.164 1.424 2.866 0.92C4.46 0.448 6.604 0 9 0C11.356 0 13.514 0.456 15.125 0.932C16.83 1.436 18 2.994 18 4.773L18 6Z" transform="translate(26 38)" id="Path" fill="#00A35B" fill-rule="evenodd" stroke="#00A35B" stroke-width="2" stroke-linecap="round" stroke-linejoin="round" />
    <path d="M5 10C7.76142 10 10 7.76142 10 5C10 2.23858 7.76142 0 5 0C2.23858 0 0 2.23858 0 5C0 7.76142 2.23858 10 5 10Z" transform="translate(30 24)" id="Oval" fill="none" fill-rule="evenodd" stroke="#003D22" stroke-width="2" stroke-linecap="round" stroke-linejoin="round" />
    <path d="M18 6L0 6L0 4.758C0 2.983 1.164 1.424 2.866 0.92C4.46 0.448 6.604 0 9 0C11.356 0 13.514 0.456 15.125 0.932C16.83 1.436 18 2.994 18 4.773L18 6Z" transform="translate(13 14)" id="Path" fill="#00A35B" fill-rule="evenodd" stroke="#00A35B" stroke-width="2" stroke-linecap="round" stroke-linejoin="round" />
    <path d="M5 10C7.76142 10 10 7.76142 10 5C10 2.23858 7.76142 0 5 0C2.23858 0 0 2.23858 0 5C0 7.76142 2.23858 10 5 10Z" transform="translate(17 0)" id="Oval" fill="none" fill-rule="evenodd" stroke="#003D22" stroke-width="2" stroke-linecap="round" stroke-linejoin="round" />
  </g>
</svg>